<?xml version="1.0" encoding="UTF-8" standalone="no"?>
<!-- Created with Inkscape (http://www.inkscape.org/) -->

<svg
   xmlns:dc="http://purl.org/dc/elements/1.1/"
   xmlns:cc="http://creativecommons.org/ns#"
   xmlns:rdf="http://www.w3.org/1999/02/22-rdf-syntax-ns#"
   xmlns:svg="http://www.w3.org/2000/svg"
   xmlns="http://www.w3.org/2000/svg"
   xmlns:xlink="http://www.w3.org/1999/xlink"
   xmlns:sodipodi="http://sodipodi.sourceforge.net/DTD/sodipodi-0.dtd"
   xmlns:inkscape="http://www.inkscape.org/namespaces/inkscape"
   width="48px"
   height="48px"
   id="svg4118"
   version="1.1"
   inkscape:version="0.48.0 r9654"
   sodipodi:docname="twitter.svg">
  <defs
     id="defs4120">
    <linearGradient
       inkscape:collect="always"
       xlink:href="#linearGradient3707-319-631-407-324-84"
       id="linearGradient3988"
       gradientUnits="userSpaceOnUse"
       x1="24.74448"
       y1="35.527069"
       x2="24.74448"
       y2="0.093805768" />
    <linearGradient
       id="linearGradient3707-319-631-407-324-84">
      <stop
         offset="0"
         style="stop-color:#134977;stop-opacity:1;"
         id="stop3760-5" />
      <stop
         offset="1"
         style="stop-color:#3981ae;stop-opacity:1;"
         id="stop3762-0" />
    </linearGradient>
    <linearGradient
       y2="0.093805768"
       x2="24.74448"
       y1="35.527069"
       x1="24.74448"
       gradientUnits="userSpaceOnUse"
       id="linearGradient4012"
       xlink:href="#linearGradient3707-319-631-407-324-84-9"
       inkscape:collect="always" />
    <linearGradient
       id="linearGradient3707-319-631-407-324-84-9">
      <stop
         offset="0"
         style="stop-color:#134977;stop-opacity:1;"
         id="stop3760-5-1" />
      <stop
         offset="1"
         style="stop-color:#3981ae;stop-opacity:1;"
         id="stop3762-0-2" />
    </linearGradient>
    <linearGradient
       y2="0.093805768"
       x2="24.74448"
       y1="35.527069"
       x1="24.74448"
       gradientUnits="userSpaceOnUse"
       id="linearGradient4012-0"
       xlink:href="#linearGradient3707-319-631-407-324-84-7"
       inkscape:collect="always" />
    <linearGradient
       id="linearGradient3707-319-631-407-324-84-7">
      <stop
         offset="0"
         style="stop-color:#134977;stop-opacity:1;"
         id="stop3760-5-4" />
      <stop
         offset="1"
         style="stop-color:#3981ae;stop-opacity:1;"
         id="stop3762-0-3" />
    </linearGradient>
    <linearGradient
       inkscape:collect="always"
       xlink:href="#linearGradient8265-821-176-38-919-66-249-7-7"
       id="linearGradient3568"
       gradientUnits="userSpaceOnUse"
       gradientTransform="matrix(0.82498024,0,0,1.3012336,4.1618797,-1.4329213)"
       x1="16.626165"
       y1="15.298182"
       x2="20.054544"
       y2="24.627615" />
    <linearGradient
       id="linearGradient8265-821-176-38-919-66-249-7-7">
      <stop
         offset="0"
         style="stop-color:#ffffff;stop-opacity:1"
         id="stop2687-1-9" />
      <stop
         offset="1"
         style="stop-color:#ffffff;stop-opacity:0"
         id="stop2689-5-4" />
    </linearGradient>
    <linearGradient
       inkscape:collect="always"
       xlink:href="#linearGradient3924"
       id="linearGradient2959"
       gradientUnits="userSpaceOnUse"
       gradientTransform="translate(3.7e-6,1.0000099)"
       x1="23.99999"
       y1="4.999989"
       x2="23.99999"
       y2="43" />
    <linearGradient
       id="linearGradient3924">
      <stop
         offset="0"
         style="stop-color:#ffffff;stop-opacity:1;"
         id="stop3926" />
      <stop
         id="stop3928"
         style="stop-color:#ffffff;stop-opacity:0.23529412;"
         offset="0.06316455" />
      <stop
         offset="0.95056331"
         style="stop-color:#ffffff;stop-opacity:0.15686275;"
         id="stop3930" />
      <stop
         offset="1"
         style="stop-color:#ffffff;stop-opacity:0.39215687;"
         id="stop3932" />
    </linearGradient>
    <radialGradient
       inkscape:collect="always"
       xlink:href="#linearGradient2867-449-88-871-390-598-476-591-434-148-57-177-1"
       id="radialGradient3954"
       gradientUnits="userSpaceOnUse"
       gradientTransform="matrix(1.9430725e-8,2.3372616,-2.472544,-4.3061278e-8,44.892538,-61.439028)"
       cx="7.4956832"
       cy="8.4497671"
       fx="7.4956832"
       fy="8.4497671"
       r="19.99999" />
    <linearGradient
       id="linearGradient2867-449-88-871-390-598-476-591-434-148-57-177-1">
      <stop
         offset="0"
         style="stop-color:#55c1ec;stop-opacity:1;"
         id="stop3752-9" />
      <stop
         offset="0.704952"
         style="stop-color:#1559a6;stop-opacity:1;"
         id="stop3754-4" />
      <stop
         offset="1"
         style="stop-color:#1f4773;stop-opacity:1;"
         id="stop3756-7" />
    </linearGradient>
    <linearGradient
       inkscape:collect="always"
       xlink:href="#linearGradient3707-319-631-407-324-84"
       id="linearGradient3956"
       gradientUnits="userSpaceOnUse"
       gradientTransform="matrix(1.0001162,0,0,1.0001162,-0.00278,-49.002784)"
       x1="24"
       y1="44"
       x2="24"
       y2="3.8990016" />
    <radialGradient
       inkscape:collect="always"
       xlink:href="#linearGradient3688-166-749"
       id="radialGradient3013"
       gradientUnits="userSpaceOnUse"
       gradientTransform="matrix(2.003784,0,0,1.4,27.98813,-17.4)"
       cx="4.9929786"
       cy="43.5"
       fx="4.9929786"
       fy="43.5"
       r="2.5" />
    <linearGradient
       id="linearGradient3688-166-749">
      <stop
         offset="0"
         style="stop-color:#181818;stop-opacity:1"
         id="stop2883" />
      <stop
         offset="1"
         style="stop-color:#181818;stop-opacity:0"
         id="stop2885" />
    </linearGradient>
    <radialGradient
       inkscape:collect="always"
       xlink:href="#linearGradient3688-464-309"
       id="radialGradient3015"
       gradientUnits="userSpaceOnUse"
       gradientTransform="matrix(2.003784,0,0,1.4,-20.01187,-104.4)"
       cx="4.9929786"
       cy="43.5"
       fx="4.9929786"
       fy="43.5"
       r="2.5" />
    <linearGradient
       id="linearGradient3688-464-309">
      <stop
         offset="0"
         style="stop-color:#181818;stop-opacity:1"
         id="stop2889" />
      <stop
         offset="1"
         style="stop-color:#181818;stop-opacity:0"
         id="stop2891" />
    </linearGradient>
    <linearGradient
       id="linearGradient3702-501-757">
      <stop
         offset="0"
         style="stop-color:#181818;stop-opacity:0"
         id="stop2895" />
      <stop
         offset="0.5"
         style="stop-color:#181818;stop-opacity:1"
         id="stop2897" />
      <stop
         offset="1"
         style="stop-color:#181818;stop-opacity:0"
         id="stop2899" />
    </linearGradient>
    <linearGradient
       y2="39.999443"
       x2="25.058096"
       y1="47.027729"
       x1="25.058096"
       gradientUnits="userSpaceOnUse"
       id="linearGradient4116"
       xlink:href="#linearGradient3702-501-757"
       inkscape:collect="always" />
  </defs>
  <sodipodi:namedview
     id="base"
     pagecolor="#ffffff"
     bordercolor="#666666"
     borderopacity="1.0"
     inkscape:pageopacity="0.0"
     inkscape:pageshadow="2"
     inkscape:zoom="7"
     inkscape:cx="24"
     inkscape:cy="24"
     inkscape:current-layer="layer1"
     showgrid="true"
     inkscape:grid-bbox="true"
     inkscape:document-units="px"
     inkscape:window-width="1280"
     inkscape:window-height="753"
     inkscape:window-x="0"
     inkscape:window-y="24"
     inkscape:window-maximized="1" />
  <metadata
     id="metadata4123">
    <rdf:RDF>
      <cc:Work
         rdf:about="">
        <dc:format>image/svg+xml</dc:format>
        <dc:type
           rdf:resource="http://purl.org/dc/dcmitype/StillImage" />
        <dc:title></dc:title>
      </cc:Work>
    </rdf:RDF>
  </metadata>
  <g
     id="layer1"
     inkscape:label="Layer 1"
     inkscape:groupmode="layer">
    <g
       style="opacity:0.4"
       id="g3712"
       transform="matrix(1.1578952,0,0,0.57142859,-3.789484,19.142856)">
      <rect
         style="fill:url(#radialGradient3013);fill-opacity:1;stroke:none"
         id="rect2801"
         y="40"
         x="38"
         height="7"
         width="5" />
      <rect
         style="fill:url(#radialGradient3015);fill-opacity:1;stroke:none"
         id="rect3696"
         transform="scale(-1,-1)"
         y="-47"
         x="-10"
         height="7"
         width="5" />
      <rect
         style="fill:url(#linearGradient4116);fill-opacity:1;stroke:none"
         id="rect3700"
         y="40"
         x="10"
         height="7.0000005"
         width="28" />
    </g>
    <rect
       style="color:#000000;fill:url(#radialGradient3954);fill-opacity:1;fill-rule:nonzero;stroke:url(#linearGradient3956);stroke-width:1;stroke-linecap:round;stroke-linejoin:round;stroke-miterlimit:4;stroke-opacity:1;stroke-dasharray:none;stroke-dashoffset:0;marker:none;visibility:visible;display:inline;overflow:visible;enable-background:accumulate"
       id="rect5505-21-6"
       y="-44.502262"
       x="4.4977365"
       ry="2"
       rx="2"
       height="39.004528"
       width="39.004528"
       transform="scale(1,-1)" />
    <rect
       style="opacity:0.4;fill:none;stroke:url(#linearGradient2959);stroke-width:1;stroke-linecap:round;stroke-linejoin:round;stroke-miterlimit:4;stroke-opacity:1;stroke-dasharray:none;stroke-dashoffset:0"
       id="rect6741"
       y="6.5"
       x="5.5"
       ry="1"
       rx="1"
       height="37"
       width="37" />
    <path
       inkscape:connector-curvature="0"
       style="opacity:0.2;fill:url(#linearGradient3568);fill-opacity:1;fill-rule:evenodd;stroke:none"
       id="path3333"
       d="M 6.2169167,5.9999999 C 5.5377266,5.9999999 5,6.9124651 5,7.7999999 L 5.0126445,30 C 6.1058123,29.975834 42.170261,21.153092 43,20.728709 L 43,7.7999999 c 0,-0.6784043 -0.531183,-1.8 -1.11929,-1.8 l -35.6637886,0 z"
       sodipodi:nodetypes="ccccccc" />
    <path
       sodipodi:type="inkscape:offset"
       inkscape:radius="3.279222"
       inkscape:original="M 28.15625 13.40625 C 28.091192 13.377704 27.939319 13.423628 27.65625 13.53125 C 27.315125 13.660946 26.885211 13.893099 26.71875 14.03125 C 26.492047 14.219398 26.379538 14.2096 26.25 14 C 25.980961 13.564685 24.334449 15.580489 23.46875 17.40625 C 23.058893 18.270638 22.427619 19.865715 22.09375 20.9375 C 21.759882 22.009284 21.477374 22.875 21.4375 22.875 C 21.39763 22.875 20.827288 22.332731 20.1875 21.65625 C 18.566962 19.942774 17.07455 19.564474 18.3125 21.1875 C 19.01114 22.103466 18.95248 22.135728 17.875 21.5 C 16.87013 20.90711 16.6549 21.110551 17.3125 22 L 17.8125 22.6875 L 17.3125 22.4375 C 16.41927 21.959458 16.60098 22.408297 17.78125 23.65625 C 18.42495 24.336872 18.87975 24.875 18.8125 24.875 C 18.7452 24.875 17.82688 24.470476 16.78125 23.96875 C 14.85723 23.045539 13.54622 22.764679 13.375 23.25 C 13.3234 23.396142 13.65778 23.718192 14.125 23.96875 L 14.96875 24.4375 L 13.9375 24.375 C 12.51124 24.32239 12.39114 24.554324 13.5625 25.09375 L 14.53125 25.5625 L 13.6875 25.46875 C 12.9332 25.40716 12.86763 25.430751 13.21875 25.6875 C 13.43837 25.848097 13.72433 26 13.84375 26 C 14.23907 26 19.3125 28.523294 19.3125 28.71875 C 19.3125 29.18917 17.37717 30.94853 16.25 31.5 C 14.35952 32.424926 12.53075 32.343348 10.375 31.28125 L 8.75 30.5 L 10.125 31.78125 C 11.78948 33.322853 14.03346 34.54427 16.25 35.125 C 18.32482 35.668602 21.968997 35.712246 24 35.21875 C 24.804009 35.023392 26.302588 34.464091 27.34375 33.96875 C 30.758955 32.343936 34.01655 28.443703 34.59375 25.28125 C 34.724017 24.567537 34.81029 24.44168 35.3125 24.4375 C 36.022111 24.4316 37.574664 23.757563 37.96875 23.28125 C 38.220678 22.976752 38.085412 22.913776 36.78125 22.90625 C 35.970189 22.90155 35.281044 22.843548 35.21875 22.78125 C 35.15646 22.71896 35.49963 22.572236 36 22.4375 C 36.881493 22.200139 38.257082 21.250296 38.03125 21.03125 C 37.97 20.97185 37.364289 21.007339 36.6875 21.125 C 35.009084 21.416792 34.407021 21.149914 34.0625 20 C 33.693265 18.767603 31.73372 16.70978 30.34375 16.0625 C 29.73093 15.777122 28.833709 15.508253 28.34375 15.5 L 27.4375 15.5 L 28.625 14.96875 C 29.26807 14.676514 29.78125 14.320766 29.78125 14.1875 C 29.78125 13.803993 29.257713 13.716312 28.59375 13.96875 C 28.038574 14.179827 27.996262 14.155617 28.125 13.75 C 28.189585 13.546515 28.221308 13.434796 28.15625 13.40625 z "
       style="opacity:0.05;color:#000000;fill:url(#linearGradient4012-0);fill-opacity:1;fill-rule:nonzero;stroke:none;stroke-width:0.9854275;marker:none;visibility:visible;display:inline;overflow:visible;enable-background:accumulate"
       id="path3986-9"
       d="m 27.875,10.0625 c -0.35363,0.03148 -0.558107,0.145379 -0.71875,0.1875 -0.321287,0.08424 -0.477447,0.15077 -0.65625,0.21875 -0.210697,0.08011 -0.402623,0.250439 -0.5625,0.3125 -0.182151,0.017 -0.451691,-0.06463 -0.59375,-0.03125 -0.8817,0.207155 -1.203621,0.493581 -1.5,0.71875 -0.592757,0.450338 -0.940158,0.856546 -1.3125,1.3125 C 21.786567,13.693159 21.077496,14.782059 20.5,16 20.311132,16.398322 20.136719,16.952646 19.9375,17.4375 19.61608,17.296317 19.411853,17.11146 18.96875,17 18.476049,16.876064 17.721965,16.624924 16.5,17.21875 c -0.482483,0.234467 -0.81045,0.738275 -1.125,1.21875 -0.20088,0.114743 -0.396426,0.134025 -0.59375,0.3125 -0.332946,0.301143 -0.514473,0.695185 -0.6875,1.0625 -0.288366,-0.0185 -0.48277,-0.09216 -0.875,-0.03125 -0.841092,0.130607 -2.42486,0.921928 -2.9375,2.375 -0.05356,0.151682 0.0011,0.234219 -0.03125,0.375 C 10.120929,22.698134 9.9935047,22.772449 9.875,23 9.4380579,23.83901 9.5369446,24.748308 9.75,25.5 c 0.0047,1.391545 0.545231,1.875858 0.78125,2.15625 0.08194,0.09734 0.06151,0.05703 0.125,0.125 l -0.5,-0.25 A 3.2795499,3.2795499 0 0 0 6.5,32.90625 l 1.375,1.28125 a 3.2795499,3.2795499 0 0 0 0.03125,0 c 2.108942,1.953253 4.717872,3.396087 7.5,4.125 2.943839,0.771285 6.426366,0.810213 9.375,0.09375 1.290952,-0.313675 2.690012,-0.86038 3.96875,-1.46875 4.08604,-1.94397 7.358511,-5.492054 8.625,-9.71875 0.187571,-0.07904 0.491995,-0.102481 0.6875,-0.1875 0.769501,-0.334634 1.376477,-0.373841 2.4375,-1.65625 0.190248,-0.229947 0.763894,-0.478379 0.84375,-2.125 0.01282,-0.26444 -0.237506,-0.512603 -0.3125,-0.8125 0.03405,-0.07747 0.05953,-0.06473 0.09375,-0.15625 0.268758,-0.718796 0.237952,-2.574863 -0.8125,-3.59375 -1.035752,-1.004468 -1.442581,-0.854094 -1.71875,-0.90625 -0.276169,-0.05216 -0.426229,-0.05678 -0.5625,-0.0625 -0.272542,-0.01143 -0.458511,0.01814 -0.65625,0.03125 -0.237287,0.01573 -0.498792,0.05986 -0.75,0.09375 -0.468454,-0.877175 -1.018292,-1.607674 -1.65625,-2.28125 -0.546834,-0.577364 -1.285396,-0.992632 -1.9375,-1.46875 -0.02804,-0.827386 -0.418442,-1.838228 -1.0625,-2.46875 -0.667937,-0.653899 -1.401885,-0.89848 -1.96875,-1 -0.09713,-0.0174 -0.127234,0.04264 -0.21875,0.03125 -0.110785,-0.0713 -0.199899,-0.200593 -0.3125,-0.25 C 28.726361,10.080506 28.22863,10.031016 27.875,10.0625 z M 28,10.75 c 0.05287,-0.0043 0.187796,0.06086 0.25,0.0625 -0.243331,0.06438 -0.584867,0.0072 -0.8125,0.09375 C 27.520432,10.88441 27.682785,10.775951 28,10.75 z m -2.625,0.34375 c -0.224313,0.129507 -0.386338,0.104436 -0.75,0.40625 0.06475,-0.05374 0.328961,-0.241335 0.75,-0.40625 z m 2.5,0.25 c 0.622627,0.354498 1.062161,0.785259 1.15625,0.9375 -0.228699,-0.370043 -0.7195,-0.643237 -1.15625,-0.9375 z m 8.1875,16.1875 c -0.04125,0.01524 -0.0874,0.08279 -0.125,0.09375 -0.407296,0.118732 -0.583132,0.09366 -0.59375,0.09375 0.363691,-0.003 0.447635,-0.145856 0.71875,-0.1875 z" />
    <path
       sodipodi:type="inkscape:offset"
       inkscape:radius="2.4417374"
       inkscape:original="M 28.15625 13.40625 C 28.091192 13.377704 27.939319 13.423628 27.65625 13.53125 C 27.315125 13.660946 26.885211 13.893099 26.71875 14.03125 C 26.492047 14.219398 26.379538 14.2096 26.25 14 C 25.980961 13.564685 24.334449 15.580489 23.46875 17.40625 C 23.058893 18.270638 22.427619 19.865715 22.09375 20.9375 C 21.759882 22.009284 21.477374 22.875 21.4375 22.875 C 21.39763 22.875 20.827288 22.332731 20.1875 21.65625 C 18.566962 19.942774 17.07455 19.564474 18.3125 21.1875 C 19.01114 22.103466 18.95248 22.135728 17.875 21.5 C 16.87013 20.90711 16.6549 21.110551 17.3125 22 L 17.8125 22.6875 L 17.3125 22.4375 C 16.41927 21.959458 16.60098 22.408297 17.78125 23.65625 C 18.42495 24.336872 18.87975 24.875 18.8125 24.875 C 18.7452 24.875 17.82688 24.470476 16.78125 23.96875 C 14.85723 23.045539 13.54622 22.764679 13.375 23.25 C 13.3234 23.396142 13.65778 23.718192 14.125 23.96875 L 14.96875 24.4375 L 13.9375 24.375 C 12.51124 24.32239 12.39114 24.554324 13.5625 25.09375 L 14.53125 25.5625 L 13.6875 25.46875 C 12.9332 25.40716 12.86763 25.430751 13.21875 25.6875 C 13.43837 25.848097 13.72433 26 13.84375 26 C 14.23907 26 19.3125 28.523294 19.3125 28.71875 C 19.3125 29.18917 17.37717 30.94853 16.25 31.5 C 14.35952 32.424926 12.53075 32.343348 10.375 31.28125 L 8.75 30.5 L 10.125 31.78125 C 11.78948 33.322853 14.03346 34.54427 16.25 35.125 C 18.32482 35.668602 21.968997 35.712246 24 35.21875 C 24.804009 35.023392 26.302588 34.464091 27.34375 33.96875 C 30.758955 32.343936 34.01655 28.443703 34.59375 25.28125 C 34.724017 24.567537 34.81029 24.44168 35.3125 24.4375 C 36.022111 24.4316 37.574664 23.757563 37.96875 23.28125 C 38.220678 22.976752 38.085412 22.913776 36.78125 22.90625 C 35.970189 22.90155 35.281044 22.843548 35.21875 22.78125 C 35.15646 22.71896 35.49963 22.572236 36 22.4375 C 36.881493 22.200139 38.257082 21.250296 38.03125 21.03125 C 37.97 20.97185 37.364289 21.007339 36.6875 21.125 C 35.009084 21.416792 34.407021 21.149914 34.0625 20 C 33.693265 18.767603 31.73372 16.70978 30.34375 16.0625 C 29.73093 15.777122 28.833709 15.508253 28.34375 15.5 L 27.4375 15.5 L 28.625 14.96875 C 29.26807 14.676514 29.78125 14.320766 29.78125 14.1875 C 29.78125 13.803993 29.257713 13.716312 28.59375 13.96875 C 28.038574 14.179827 27.996262 14.155617 28.125 13.75 C 28.189585 13.546515 28.221308 13.434796 28.15625 13.40625 z "
       style="opacity:0.1;color:#000000;fill:url(#linearGradient4012);fill-opacity:1;fill-rule:nonzero;stroke:none;stroke-width:0.9854275;marker:none;visibility:visible;display:inline;overflow:visible;enable-background:accumulate"
       id="path3986-4"
       d="m 27.9375,10.90625 c -0.270418,0.02395 -0.432478,0.122158 -0.5625,0.15625 -0.260043,0.06818 -0.424465,0.123138 -0.59375,0.1875 -0.233408,0.08874 -0.441491,0.263054 -0.625,0.34375 -0.204594,0.0061 -0.474957,-0.0665 -0.625,-0.03125 -0.675027,0.158597 -0.940544,0.406129 -1.1875,0.59375 -0.493911,0.375241 -0.808325,0.730196 -1.15625,1.15625 -0.695849,0.852108 -1.396945,1.922469 -1.9375,3.0625 -0.276228,0.582564 -0.550822,1.391091 -0.84375,2.15625 -0.439461,-0.307668 -0.920548,-0.54155 -1.625,-0.71875 -0.393744,-0.09904 -0.982194,-0.292804 -1.90625,0.15625 -0.462028,0.224527 -0.842132,0.675737 -1.09375,1.15625 -0.148238,0.08549 -0.292207,0.118586 -0.4375,0.25 -0.415725,0.376015 -0.609342,0.868902 -0.71875,1.3125 -0.377415,-0.06899 -0.741214,-0.146358 -1.28125,-0.0625 -0.671501,0.104272 -1.888602,0.699544 -2.28125,1.8125 -0.06224,0.176275 -0.0057,0.280491 -0.03125,0.4375 -0.142347,0.15584 -0.278251,0.254218 -0.40625,0.5 -0.364229,0.699387 -0.234364,1.489048 -0.03125,2.0625 -7.13e-4,0.02211 -0.03132,0.04078 -0.03125,0.0625 0.0035,1.039435 0.413993,1.380198 0.59375,1.59375 0.359514,0.427105 0.493609,0.466423 0.625,0.5625 0.221315,0.161836 0.435246,0.308902 0.6875,0.4375 0.252254,0.128598 0.279988,0.34375 1.375,0.34375 -0.624684,0 -0.564546,-0.08456 -0.59375,-0.09375 -0.0292,-0.0092 0.0066,0.0093 0.0625,0.03125 0.111793,0.04393 0.31865,0.14001 0.5625,0.25 0.375396,0.169325 0.855008,0.417508 1.34375,0.65625 -0.0043,0.0023 -0.02773,0.02953 -0.03125,0.03125 -1.281192,0.626829 -2.009632,0.623301 -3.71875,-0.21875 a 2.4419816,2.4419816 0 0 0 -0.03125,0 L 9.8125,28.3125 a 2.4419816,2.4419816 0 0 0 -2.71875,3.96875 l 1.375,1.28125 c 1.99543,1.848121 4.518568,3.246432 7.15625,3.9375 2.7219,0.713137 6.223221,0.753269 8.9375,0.09375 1.166591,-0.283458 2.625687,-0.826747 3.84375,-1.40625 3.97203,-1.889728 7.240113,-5.576597 8.3125,-9.65625 0.301874,-0.103088 0.702173,-0.120484 1,-0.25 0.707339,-0.307601 1.28463,-0.421784 2.125,-1.4375 0.157746,-0.190662 0.596184,-0.386438 0.65625,-1.625 0.01429,-0.294632 -0.22272,-0.576765 -0.34375,-0.90625 0.06652,-0.117583 0.120313,-0.132807 0.1875,-0.3125 0.204646,-0.547327 0.164385,-1.953085 -0.625,-2.71875 C 38.945565,18.531418 38.649202,18.664981 38.4375,18.625 38.225798,18.585019 38.11117,18.567164 38,18.5625 c -0.22234,-0.0093 -0.384145,-0.01182 -0.5625,0 -0.356711,0.02365 -0.737563,0.08346 -1.15625,0.15625 -0.199166,0.03462 -0.01914,0.05857 -0.125,0.0625 -0.438054,-1.062686 -1.076515,-1.879174 -1.8125,-2.65625 -0.63814,-0.673769 -1.399718,-1.18525 -2.1875,-1.6875 0.0083,-0.115775 0.0625,-0.112762 0.0625,-0.25 0,-0.651425 -0.299963,-1.466985 -0.8125,-1.96875 -0.512537,-0.501765 -1.081846,-0.700766 -1.53125,-0.78125 -0.195782,-0.03506 -0.296325,0.06846 -0.46875,0.0625 -0.124706,-0.09304 -0.151834,-0.286965 -0.28125,-0.34375 -0.556943,-0.244374 -0.917082,-0.273947 -1.1875,-0.25 z m 0.09375,0.6875 c 0.03146,-0.0026 0.120052,0.03095 0.15625,0.03125 -0.119908,0.03714 -0.28903,0.01865 -0.40625,0.0625 0.06417,-0.031 0.09527,-0.08101 0.25,-0.09375 z M 25.625,11.875 c -0.157532,0.102508 -0.256771,0.105323 -0.46875,0.28125 0.03015,-0.02503 0.197797,-0.166149 0.46875,-0.28125 z m 1.84375,0.15625 c 0.200799,0.110438 0.374483,0.161739 0.5,0.28125 0.168315,0.16026 0.309022,0.350058 0.34375,0.40625 -0.05556,-0.08989 -0.205137,-0.129464 -0.28125,-0.21875 -0.156382,-0.183447 -0.34661,-0.320857 -0.5625,-0.46875 z m 8.28125,14.75 c -0.01755,0.006 -0.0461,0.02647 -0.0625,0.03125 -0.282654,0.0824 -0.367909,0.0627 -0.34375,0.0625 0.189525,-0.0016 0.244397,-0.07732 0.40625,-0.09375 z" />
    <path
       sodipodi:type="inkscape:offset"
       inkscape:radius="1.3377013"
       inkscape:original="M 28.15625 13.40625 C 28.091192 13.377704 27.939319 13.423628 27.65625 13.53125 C 27.315125 13.660946 26.885211 13.893099 26.71875 14.03125 C 26.492047 14.219398 26.379538 14.2096 26.25 14 C 25.980961 13.564685 24.334449 15.580489 23.46875 17.40625 C 23.058893 18.270638 22.427619 19.865715 22.09375 20.9375 C 21.759882 22.009284 21.477374 22.875 21.4375 22.875 C 21.39763 22.875 20.827288 22.332731 20.1875 21.65625 C 18.566962 19.942774 17.07455 19.564474 18.3125 21.1875 C 19.01114 22.103466 18.95248 22.135728 17.875 21.5 C 16.87013 20.90711 16.6549 21.110551 17.3125 22 L 17.8125 22.6875 L 17.3125 22.4375 C 16.41927 21.959458 16.60098 22.408297 17.78125 23.65625 C 18.42495 24.336872 18.87975 24.875 18.8125 24.875 C 18.7452 24.875 17.82688 24.470476 16.78125 23.96875 C 14.85723 23.045539 13.54622 22.764679 13.375 23.25 C 13.3234 23.396142 13.65778 23.718192 14.125 23.96875 L 14.96875 24.4375 L 13.9375 24.375 C 12.51124 24.32239 12.39114 24.554324 13.5625 25.09375 L 14.53125 25.5625 L 13.6875 25.46875 C 12.9332 25.40716 12.86763 25.430751 13.21875 25.6875 C 13.43837 25.848097 13.72433 26 13.84375 26 C 14.23907 26 19.3125 28.523294 19.3125 28.71875 C 19.3125 29.18917 17.37717 30.94853 16.25 31.5 C 14.35952 32.424926 12.53075 32.343348 10.375 31.28125 L 8.75 30.5 L 10.125 31.78125 C 11.78948 33.322853 14.03346 34.54427 16.25 35.125 C 18.32482 35.668602 21.968997 35.712246 24 35.21875 C 24.804009 35.023392 26.302588 34.464091 27.34375 33.96875 C 30.758955 32.343936 34.01655 28.443703 34.59375 25.28125 C 34.724017 24.567537 34.81029 24.44168 35.3125 24.4375 C 36.022111 24.4316 37.574664 23.757563 37.96875 23.28125 C 38.220678 22.976752 38.085412 22.913776 36.78125 22.90625 C 35.970189 22.90155 35.281044 22.843548 35.21875 22.78125 C 35.15646 22.71896 35.49963 22.572236 36 22.4375 C 36.881493 22.200139 38.257082 21.250296 38.03125 21.03125 C 37.97 20.97185 37.364289 21.007339 36.6875 21.125 C 35.009084 21.416792 34.407021 21.149914 34.0625 20 C 33.693265 18.767603 31.73372 16.70978 30.34375 16.0625 C 29.73093 15.777122 28.833709 15.508253 28.34375 15.5 L 27.4375 15.5 L 28.625 14.96875 C 29.26807 14.676514 29.78125 14.320766 29.78125 14.1875 C 29.78125 13.803993 29.257713 13.716312 28.59375 13.96875 C 28.038574 14.179827 27.996262 14.155617 28.125 13.75 C 28.189585 13.546515 28.221308 13.434796 28.15625 13.40625 z "
       style="opacity:0.25;color:#000000;fill:url(#linearGradient3988);fill-opacity:1;fill-rule:nonzero;stroke:none;stroke-width:0.9854275;marker:none;visibility:visible;display:inline;overflow:visible;enable-background:accumulate"
       id="path3986"
       d="m 27.65625,12.125 c -0.179307,0.04702 -0.312013,0.09666 -0.46875,0.15625 -0.269109,0.102315 -0.487962,0.280557 -0.71875,0.40625 -0.26387,-0.05624 -0.517134,-0.07128 -0.6875,-0.03125 C 25.378674,12.750835 25.181803,12.893128 25,13.03125 24.636395,13.307493 24.378236,13.613363 24.0625,14 23.431028,14.773275 22.741856,15.806426 22.25,16.84375 21.806362,17.779382 21.211243,19.278292 20.84375,20.4375 20.08369,19.663601 19.421607,19.106824 18.5,18.875 c -0.263293,-0.06623 -0.62492,-0.164455 -1.15625,0.09375 -0.355489,0.172753 -0.403821,0.598742 -0.53125,0.96875 -0.234033,0.03199 -0.487987,0.01301 -0.75,0.25 -0.373484,0.337809 -0.480841,0.860133 -0.46875,1.15625 0.0048,0.118447 0.04306,0.163028 0.0625,0.25 -0.02524,0.03884 -0.07383,0.05318 -0.09375,0.09375 -0.104597,0.213066 0.01239,0.249758 0,0.40625 -0.27346,-0.08913 -0.62352,-0.25921 -0.875,-0.3125 -0.386611,-0.08192 -0.739567,-0.132056 -1.1875,-0.0625 -0.447933,0.06956 -1.140534,0.429159 -1.375,1.09375 -0.102305,0.289748 0.02538,0.391375 0.0625,0.59375 -0.195126,0.09698 -0.409502,0.146209 -0.59375,0.5 -0.263093,0.505187 -0.113609,1.163696 0.0625,1.4375 0.02348,0.03651 0.03983,0.0315 0.0625,0.0625 -0.0027,0.03219 -0.03135,0.06283 -0.03125,0.09375 0.0019,0.575257 0.206912,0.780811 0.3125,0.90625 0.211176,0.250878 0.325828,0.293342 0.4375,0.375 0.170898,0.124969 0.341567,0.2158 0.53125,0.3125 0.189683,0.0967 0.248102,0.25 0.875,0.25 -0.18168,0 -0.13336,0.0094 -0.15625,0 0.141077,0.05543 0.37131,0.166821 0.625,0.28125 0.50738,0.228857 1.165518,0.522041 1.8125,0.84375 0.44054,0.219056 0.810217,0.426426 1.1875,0.625 -0.556501,0.50559 -1.325619,1.056988 -1.65625,1.21875 -1.556683,0.761614 -2.776436,0.722796 -4.6875,-0.21875 a 1.3378351,1.3378351 0 0 0 0,-0.03125 l -1.625,-0.78125 a 1.3378351,1.3378351 0 0 0 -1.5,2.1875 l 1.375,1.28125 c 1.84579,1.709528 4.240238,3.015071 6.6875,3.65625 2.429321,0.636481 6.000915,0.709452 8.40625,0.125 1.002649,-0.243623 2.455673,-0.802301 3.59375,-1.34375 3.835754,-1.824894 7.228859,-5.74596 7.96875,-9.5625 0.483776,-0.08657 0.959898,-0.180895 1.40625,-0.375 C 37.906642,24.978035 38.450511,24.789141 39,24.125 39.114898,23.986126 39.372272,23.856878 39.40625,23.15625 39.422803,22.814925 39.234383,22.375486 39,22.125 c -0.0062,-0.0066 0.0063,-0.02495 0,-0.03125 0.09805,-0.112894 0.21616,-0.211087 0.3125,-0.46875 0.120128,-0.321284 0.101477,-1.130651 -0.34375,-1.5625 -0.42705,-0.414151 -0.623283,-0.351069 -0.75,-0.375 -0.126717,-0.02393 -0.20317,-0.02797 -0.28125,-0.03125 -0.15616,-0.0066 -0.284698,0.02112 -0.4375,0.03125 -0.305605,0.02026 -0.648867,0.05852 -1.03125,0.125 -0.744812,0.129485 -1.090665,0.05035 -1.0625,0.0625 0.02817,0.01215 0.05644,0.146993 -0.0625,-0.25 -0.312591,-1.043335 -0.986545,-1.879675 -1.78125,-2.71875 -0.778511,-0.821976 -1.648127,-1.577416 -2.59375,-2.03125 0.08265,-0.148747 0.15625,-0.310467 0.15625,-0.6875 0,-0.400233 -0.192325,-0.886291 -0.5,-1.1875 -0.307675,-0.301209 -0.642942,-0.415997 -0.9375,-0.46875 -0.235089,-0.0421 -0.417986,0.04388 -0.625,0.0625 -0.135072,-0.151845 -0.211529,-0.334523 -0.375,-0.40625 -0.624948,-0.274213 -0.851943,-0.109515 -1.03125,-0.0625 z" />
    <path
       inkscape:connector-curvature="0"
       style="color:#000000;fill:#f7f7f7;fill-opacity:1;fill-rule:nonzero;stroke:#ffffff;stroke-width:0.9854275;stroke-linecap:butt;stroke-linejoin:miter;stroke-miterlimit:4;stroke-opacity:1;stroke-dasharray:none;stroke-dashoffset:0;marker:none;visibility:visible;display:inline;overflow:visible;enable-background:accumulate"
       d="m 23.985774,35.213901 c 0.804009,-0.195358 2.313693,-0.760476 3.354855,-1.255817 3.415205,-1.624814 6.669318,-5.5268 7.246518,-8.689253 0.130267,-0.713713 0.237884,-0.835867 0.740094,-0.840047 0.709611,-0.0059 2.260109,-0.683345 2.654195,-1.159658 0.251928,-0.304498 0.114367,-0.345289 -1.189795,-0.352815 -0.811061,-0.0047 -1.525623,-0.05947 -1.587917,-0.121768 -0.06229,-0.06229 0.296131,-0.223499 0.796501,-0.358235 0.881493,-0.237361 2.256242,-1.194327 2.03041,-1.413373 -0.06125,-0.0594 -0.665097,-0.01174 -1.341886,0.105921 -1.678416,0.291792 -2.285998,0.03406 -2.630519,-1.115854 -0.369235,-1.232397 -2.32039,-3.317165 -3.71036,-3.964445 -0.61282,-0.285378 -1.515094,-0.52562 -2.005053,-0.533873 l -0.890834,-0.015 1.16922,-0.531337 c 0.64307,-0.292236 1.169219,-0.640374 1.169219,-0.77364 0,-0.383507 -0.537605,-0.489631 -1.201568,-0.237193 -0.555176,0.211077 -0.597484,0.191777 -0.468746,-0.21384 0.129169,-0.406971 0.08742,-0.425291 -0.478718,-0.210048 -0.341125,0.129696 -0.756423,0.348843 -0.922884,0.486994 -0.226703,0.188148 -0.34606,0.18096 -0.475598,-0.02864 -0.269039,-0.435315 -1.920232,1.587964 -2.785931,3.413725 -0.409857,0.864388 -1.018359,2.448528 -1.352228,3.520313 -0.333868,1.071784 -0.639658,1.948698 -0.679532,1.948698 -0.03987,0 -0.595961,-0.553484 -1.235749,-1.229965 -1.620538,-1.713476 -3.126198,-2.069436 -1.888248,-0.44641 0.69864,0.915966 0.655,0.948243 -0.42248,0.312515 -1.00487,-0.59289 -1.23683,-0.394813 -0.57923,0.494636 l 0.50589,0.684258 -0.48511,-0.259624 c -0.89323,-0.478042 -0.72861,-0.03648 0.45166,1.211473 0.6437,0.680622 1.11535,1.237493 1.0481,1.237493 -0.0673,0 -0.97778,-0.410503 -2.02341,-0.912229 -1.92402,-0.923211 -3.25035,-1.200403 -3.42157,-0.715082 -0.0516,0.146142 0.28853,0.470715 0.75575,0.721273 l 0.84949,0.455561 -1.05359,-0.03887 c -1.42626,-0.05261 -1.54216,0.168729 -0.3708,0.708155 l 0.97897,0.450829 -0.85785,-0.07004 c -0.7543,-0.06159 -0.80964,-0.0348 -0.45852,0.221949 0.21962,0.160597 0.49702,0.291993 0.61644,0.291993 0.39532,0 5.48817,2.518002 5.48817,2.713458 0,0.47042 -1.94386,2.232721 -3.07103,2.784191 -1.89048,0.924926 -3.71547,0.863055 -5.87122,-0.199043 l -1.6364,-0.806225 1.39289,1.290068 c 1.66448,1.541603 3.8993,2.763713 6.11584,3.344443 2.07482,0.543602 5.701561,0.587866 7.732564,0.09437 z"
       id="path3060" />
  </g>
</svg>
