<?xml version="1.0" encoding="UTF-8" standalone="no"?>
<!-- Created with Inkscape (http://www.inkscape.org/) -->

<svg
   xmlns:dc="http://purl.org/dc/elements/1.1/"
   xmlns:cc="http://creativecommons.org/ns#"
   xmlns:rdf="http://www.w3.org/1999/02/22-rdf-syntax-ns#"
   xmlns:svg="http://www.w3.org/2000/svg"
   xmlns="http://www.w3.org/2000/svg"
   xmlns:xlink="http://www.w3.org/1999/xlink"
   xmlns:sodipodi="http://sodipodi.sourceforge.net/DTD/sodipodi-0.dtd"
   xmlns:inkscape="http://www.inkscape.org/namespaces/inkscape"
   version="1.1"
   width="128"
   height="128"
   id="svg4117"
   inkscape:version="0.48.2 r9819"
   sodipodi:docname="ppa.svg">
  <sodipodi:namedview
     pagecolor="#ffffff"
     bordercolor="#666666"
     borderopacity="1"
     objecttolerance="10"
     gridtolerance="10"
     guidetolerance="10"
     inkscape:pageopacity="0"
     inkscape:pageshadow="2"
     inkscape:window-width="1366"
     inkscape:window-height="676"
     id="namedview91"
     showgrid="false"
     inkscape:zoom="1.4348958"
     inkscape:cx="37.823475"
     inkscape:cy="62.083902"
     inkscape:window-x="0"
     inkscape:window-y="27"
     inkscape:window-maximized="1"
     inkscape:current-layer="svg4117"
     showguides="false"
     inkscape:guide-bbox="true">
    <sodipodi:guide
       orientation="1,0"
       position="24.043557,44.079855"
       id="guide3967" />
    <sodipodi:guide
       orientation="0,1"
       position="49.742287,22.475499"
       id="guide3969" />
  </sodipodi:namedview>
  <defs
     id="defs4119">
    <linearGradient
       inkscape:collect="always"
       id="linearGradient4019">
      <stop
         style="stop-color:#000000;stop-opacity:1;"
         offset="0"
         id="stop4021" />
      <stop
         style="stop-color:#000000;stop-opacity:0;"
         offset="1"
         id="stop4023" />
    </linearGradient>
    <linearGradient
       id="linearGradient3924">
      <stop
         id="stop3926"
         style="stop-color:#ffffff;stop-opacity:1"
         offset="0" />
      <stop
         id="stop3928"
         style="stop-color:#ffffff;stop-opacity:0.23529412"
         offset="0.06316455" />
      <stop
         id="stop3930"
         style="stop-color:#ffffff;stop-opacity:0.15686275"
         offset="0.95056331" />
      <stop
         id="stop3932"
         style="stop-color:#ffffff;stop-opacity:0.39215687"
         offset="1" />
    </linearGradient>
    <radialGradient
       cx="4.9929786"
       cy="43.5"
       r="2.5"
       fx="4.9929786"
       fy="43.5"
       id="radialGradient2873-966-168"
       xlink:href="#linearGradient3688-166-749"
       gradientUnits="userSpaceOnUse"
       gradientTransform="matrix(2.003784,0,0,1.4,27.98813,-17.4)" />
    <linearGradient
       id="linearGradient3688-166-749">
      <stop
         id="stop2883"
         style="stop-color:#181818;stop-opacity:1"
         offset="0" />
      <stop
         id="stop2885"
         style="stop-color:#181818;stop-opacity:0"
         offset="1" />
    </linearGradient>
    <radialGradient
       cx="4.9929786"
       cy="43.5"
       r="2.5"
       fx="4.9929786"
       fy="43.5"
       id="radialGradient2875-742-326"
       xlink:href="#linearGradient3688-464-309"
       gradientUnits="userSpaceOnUse"
       gradientTransform="matrix(2.003784,0,0,1.4,-20.01187,-104.4)" />
    <linearGradient
       id="linearGradient3688-464-309">
      <stop
         id="stop2889"
         style="stop-color:#181818;stop-opacity:1"
         offset="0" />
      <stop
         id="stop2891"
         style="stop-color:#181818;stop-opacity:0"
         offset="1" />
    </linearGradient>
    <linearGradient
       x1="25.058096"
       y1="47.027729"
       x2="25.058096"
       y2="39.999443"
       id="linearGradient2877-634-617"
       xlink:href="#linearGradient3702-501-757"
       gradientUnits="userSpaceOnUse" />
    <linearGradient
       id="linearGradient3702-501-757">
      <stop
         id="stop2895"
         style="stop-color:#181818;stop-opacity:0"
         offset="0" />
      <stop
         id="stop2897"
         style="stop-color:#181818;stop-opacity:1"
         offset="0.5" />
      <stop
         id="stop2899"
         style="stop-color:#181818;stop-opacity:0"
         offset="1" />
    </linearGradient>
    <filter
       color-interpolation-filters="sRGB"
       id="filter3831">
      <feGaussianBlur
         id="feGaussianBlur3833"
         stdDeviation="0.6375" />
    </filter>
    <clipPath
       id="clipPath3823">
      <path
         d="M 108.8125,58 C 107.25437,58 106,59.254375 106,60.8125 l 0,24.375 C 106,86.745625 107.25437,88 108.8125,88 l 24.375,0 C 134.74562,88 136,86.745625 136,85.1875 l 0,-24.375 C 136,59.254375 134.74562,58 133.1875,58 l -24.375,0 z m 7.1875,4.5 10,0 0,8.75 5,0 -10,13.75 -10,-13.75 5,0 0,-8.75 z"
         id="path3825"
         style="fill:#ffffff;fill-opacity:1;stroke:none"
         inkscape:connector-curvature="0" />
    </clipPath>
    <linearGradient
       x1="65.262688"
       y1="64.205269"
       x2="65.262688"
       y2="50.068527"
       id="linearGradient3812"
       xlink:href="#linearGradient5010"
       gradientUnits="userSpaceOnUse"
       gradientTransform="matrix(0.625,0,0,0.625,78.5,32.25)" />
    <filter
       color-interpolation-filters="sRGB"
       id="filter3806">
      <feGaussianBlur
         id="feGaussianBlur3808"
         stdDeviation="1.2" />
    </filter>
    <linearGradient
       x1="70"
       y1="54"
       x2="70"
       y2="75.095024"
       id="linearGradient3788"
       xlink:href="#linearGradient3737"
       gradientUnits="userSpaceOnUse"
       gradientTransform="translate(0,4)" />
    <linearGradient
       x1="56"
       y1="72"
       x2="88"
       y2="72"
       id="linearGradient3773"
       xlink:href="#linearGradient3778"
       gradientUnits="userSpaceOnUse"
       gradientTransform="matrix(0.9375,0,0,0.9375,-140.5,3.5)" />
    <linearGradient
       x1="65.262688"
       y1="64.205269"
       x2="65.262688"
       y2="50.068527"
       id="linearGradient3832"
       xlink:href="#linearGradient3737"
       gradientUnits="userSpaceOnUse"
       gradientTransform="matrix(0.625,0,0,0.625,28.5,31.25)" />
    <filter
       color-interpolation-filters="sRGB"
       id="filter3174">
      <feGaussianBlur
         id="feGaussianBlur3176"
         stdDeviation="1.71" />
    </filter>
    <linearGradient
       id="linearGradient3737">
      <stop
         id="stop3739"
         style="stop-color:#ffffff;stop-opacity:1"
         offset="0" />
      <stop
         id="stop3741"
         style="stop-color:#ffffff;stop-opacity:0"
         offset="1" />
    </linearGradient>
    <linearGradient
       x1="45.447727"
       y1="92.539597"
       x2="45.447727"
       y2="7.0165396"
       id="ButtonShadow"
       gradientUnits="userSpaceOnUse"
       gradientTransform="scale(1.0058652,0.994169)">
      <stop
         id="stop3750"
         style="stop-color:#000000;stop-opacity:1"
         offset="0" />
      <stop
         id="stop3752"
         style="stop-color:#000000;stop-opacity:0.58823532"
         offset="1" />
    </linearGradient>
    <linearGradient
       id="linearGradient5010">
      <stop
         id="stop5012"
         style="stop-color:#000000;stop-opacity:1"
         offset="0" />
      <stop
         id="stop5014"
         style="stop-color:#000000;stop-opacity:0"
         offset="1" />
    </linearGradient>
    <linearGradient
       id="linearGradient3778">
      <stop
         id="stop3780"
         style="stop-color:#499119;stop-opacity:1"
         offset="0" />
      <stop
         id="stop3782"
         style="stop-color:#8fd625;stop-opacity:1"
         offset="1" />
    </linearGradient>
    <linearGradient
       id="linearGradient3104">
      <stop
         id="stop3106"
         style="stop-color:#c3c3c3;stop-opacity:1;"
         offset="0" />
      <stop
         id="stop3108"
         style="stop-color:#dbdbdb;stop-opacity:1;"
         offset="1" />
    </linearGradient>
    <linearGradient
       id="linearGradient3600">
      <stop
         id="stop3602"
         style="stop-color:#f4f4f4;stop-opacity:1"
         offset="0" />
      <stop
         id="stop3604"
         style="stop-color:#eeeeee;stop-opacity:1;"
         offset="1" />
    </linearGradient>
    <linearGradient
       id="linearGradient3104-5">
      <stop
         id="stop3106-9"
         style="stop-color:#aaaaaa;stop-opacity:1"
         offset="0" />
      <stop
         id="stop3108-8"
         style="stop-color:#c8c8c8;stop-opacity:1"
         offset="1" />
    </linearGradient>
    <linearGradient
       inkscape:collect="always"
       xlink:href="#linearGradient3924"
       id="linearGradient3084"
       gradientUnits="userSpaceOnUse"
       gradientTransform="translate(2.4e-6,0.9674489)"
       x1="23.99999"
       y1="4.999989"
       x2="23.99999"
       y2="43" />
    <radialGradient
       inkscape:collect="always"
       xlink:href="#linearGradient3600"
       id="radialGradient3093"
       gradientUnits="userSpaceOnUse"
       gradientTransform="matrix(0,1.9392804,-2.0515274,-5.2784231e-8,41.335037,-8.4862548)"
       cx="7.4956832"
       cy="8.4497671"
       fx="7.4956832"
       fy="8.4497671"
       r="19.99999" />
    <linearGradient
       inkscape:collect="always"
       xlink:href="#linearGradient3104"
       id="linearGradient3095"
       gradientUnits="userSpaceOnUse"
       gradientTransform="translate(-6e-7,0.9674389)"
       x1="24"
       y1="44"
       x2="24"
       y2="3.8990016" />
    <linearGradient
       inkscape:collect="always"
       xlink:href="#linearGradient3104-5"
       id="linearGradient3098"
       gradientUnits="userSpaceOnUse"
       x1="20"
       y1="43"
       x2="20"
       y2="3" />
    <linearGradient
       inkscape:collect="always"
       xlink:href="#linearGradient4019"
       id="linearGradient4037"
       x1="25.811359"
       y1="11.243645"
       x2="25.811359"
       y2="20.3125"
       gradientUnits="userSpaceOnUse" />
    <linearGradient
       inkscape:collect="always"
       xlink:href="#linearGradient4019"
       id="linearGradient4041"
       gradientUnits="userSpaceOnUse"
       x1="15.666173"
       y1="19.527954"
       x2="15.666173"
       y2="31.61681" />
    <linearGradient
       inkscape:collect="always"
       xlink:href="#linearGradient4019"
       id="linearGradient4044"
       gradientUnits="userSpaceOnUse"
       x1="25.065281"
       y1="30.795345"
       x2="25.065281"
       y2="39.562374" />
    <radialGradient
       inkscape:collect="always"
       xlink:href="#linearGradient3688-166-749"
       id="radialGradient3863"
       gradientUnits="userSpaceOnUse"
       gradientTransform="matrix(2.003784,0,0,1.4,27.98813,-17.4)"
       cx="4.9929786"
       cy="43.5"
       fx="4.9929786"
       fy="43.5"
       r="2.5" />
    <radialGradient
       inkscape:collect="always"
       xlink:href="#linearGradient3688-464-309"
       id="radialGradient3865"
       gradientUnits="userSpaceOnUse"
       gradientTransform="matrix(2.003784,0,0,1.4,-20.01187,-104.4)"
       cx="4.9929786"
       cy="43.5"
       fx="4.9929786"
       fy="43.5"
       r="2.5" />
    <linearGradient
       inkscape:collect="always"
       xlink:href="#linearGradient3702-501-757"
       id="linearGradient3867"
       gradientUnits="userSpaceOnUse"
       x1="25.058096"
       y1="47.027729"
       x2="25.058096"
       y2="39.999443" />
    <linearGradient
       inkscape:collect="always"
       xlink:href="#linearGradient3104-5"
       id="linearGradient3869"
       gradientUnits="userSpaceOnUse"
       x1="20"
       y1="43"
       x2="20"
       y2="3" />
    <radialGradient
       inkscape:collect="always"
       xlink:href="#linearGradient3600"
       id="radialGradient3871"
       gradientUnits="userSpaceOnUse"
       gradientTransform="matrix(0,1.9392804,-2.0515274,-5.2784231e-8,41.335037,-8.4862548)"
       cx="7.4956832"
       cy="8.4497671"
       fx="7.4956832"
       fy="8.4497671"
       r="19.99999" />
    <linearGradient
       inkscape:collect="always"
       xlink:href="#linearGradient3104"
       id="linearGradient3873"
       gradientUnits="userSpaceOnUse"
       gradientTransform="translate(-6e-7,0.9674389)"
       x1="24"
       y1="44"
       x2="24"
       y2="3.8990016" />
    <linearGradient
       inkscape:collect="always"
       xlink:href="#linearGradient3924"
       id="linearGradient3875"
       gradientUnits="userSpaceOnUse"
       gradientTransform="translate(2.4e-6,0.9674489)"
       x1="23.99999"
       y1="4.999989"
       x2="23.99999"
       y2="43" />
    <linearGradient
       inkscape:collect="always"
       xlink:href="#linearGradient4019"
       id="linearGradient3877"
       gradientUnits="userSpaceOnUse"
       x1="25.811359"
       y1="11.243645"
       x2="25.811359"
       y2="20.3125" />
    <linearGradient
       inkscape:collect="always"
       xlink:href="#linearGradient4019"
       id="linearGradient3879"
       gradientUnits="userSpaceOnUse"
       x1="15.666173"
       y1="19.527954"
       x2="15.666173"
       y2="31.61681" />
    <linearGradient
       inkscape:collect="always"
       xlink:href="#linearGradient4019"
       id="linearGradient3881"
       gradientUnits="userSpaceOnUse"
       x1="25.065281"
       y1="30.795345"
       x2="25.065281"
       y2="39.562374" />
    <linearGradient
       inkscape:collect="always"
       xlink:href="#linearGradient4019"
       id="linearGradient3085"
       gradientUnits="userSpaceOnUse"
       x1="25.065281"
       y1="30.795345"
       x2="25.065281"
       y2="39.562374"
       gradientTransform="scale(2.6666667,2.6666667)" />
    <linearGradient
       inkscape:collect="always"
       xlink:href="#linearGradient4019"
       id="linearGradient3088"
       gradientUnits="userSpaceOnUse"
       x1="15.666173"
       y1="19.527954"
       x2="15.666173"
       y2="31.61681"
       gradientTransform="scale(2.6666667,2.6666667)" />
    <linearGradient
       inkscape:collect="always"
       xlink:href="#linearGradient4019"
       id="linearGradient3091"
       gradientUnits="userSpaceOnUse"
       x1="25.811359"
       y1="11.243645"
       x2="25.811359"
       y2="20.3125"
       gradientTransform="scale(2.6666667,2.6666667)" />
    <linearGradient
       inkscape:collect="always"
       xlink:href="#linearGradient3924"
       id="linearGradient3102"
       gradientUnits="userSpaceOnUse"
       gradientTransform="matrix(2.6666667,0,0,2.6666667,6.4000001e-6,2.5798638)"
       x1="23.99999"
       y1="4.999989"
       x2="23.99999"
       y2="43" />
    <radialGradient
       inkscape:collect="always"
       xlink:href="#linearGradient3600"
       id="radialGradient3105"
       gradientUnits="userSpaceOnUse"
       gradientTransform="matrix(0,5.1714145,-5.4707398,-1.4075795e-7,110.22677,-22.630013)"
       cx="7.4956832"
       cy="8.4497671"
       fx="7.4956832"
       fy="8.4497671"
       r="19.99999" />
    <linearGradient
       inkscape:collect="always"
       xlink:href="#linearGradient3104"
       id="linearGradient3107"
       gradientUnits="userSpaceOnUse"
       gradientTransform="matrix(2.6666667,0,0,2.6666667,-1.6e-6,2.5798371)"
       x1="24"
       y1="44"
       x2="24"
       y2="3.8990016" />
    <linearGradient
       inkscape:collect="always"
       xlink:href="#linearGradient3104-5"
       id="linearGradient3110"
       gradientUnits="userSpaceOnUse"
       x1="20"
       y1="43"
       x2="20"
       y2="3"
       gradientTransform="scale(2.6666667,2.6666667)" />
  </defs>
  <metadata
     id="metadata4122">
    <rdf:RDF>
      <cc:Work
         rdf:about="">
        <dc:format>image/svg+xml</dc:format>
        <dc:type
           rdf:resource="http://purl.org/dc/dcmitype/StillImage" />
        <dc:title />
      </cc:Work>
    </rdf:RDF>
  </metadata>
  <g
     style="display:none"
     id="layer2"
     transform="translate(-135.85714,48.94959)">
    <path
       inkscape:connector-curvature="0"
       style="opacity:0.9;fill:url(#ButtonShadow);fill-opacity:1;fill-rule:nonzero;stroke:none;filter:url(#filter3174)"
       id="rect3745"
       d="M 11,7 48,5 85,7 c 3.324,0 6,2.676 6,6 l 0,73 c 0,3.324 -2.676,6 -6,6 L 11,92 C 7.676,92 5,89.324 5,86 L 5,13 C 5,9.676 7.676,7 11,7 z" />
  </g>
  <g
     style="display:none"
     id="layer4"
     transform="translate(-135.85714,48.94959)">
    <rect
       style="opacity:0.6;fill:#000000;fill-opacity:1;stroke:none;filter:url(#filter3806)"
       id="rect3790"
       transform="matrix(0,-1,1,0,0,4)"
       y="56"
       x="-86"
       ry="2.8125"
       rx="2.8125"
       height="30"
       width="30" />
    <rect
       style="fill:url(#linearGradient3773);fill-opacity:1;stroke:none"
       id="rect2993"
       transform="matrix(0,-1,1,0,0,0)"
       y="56"
       x="-88"
       ry="2.8125"
       rx="2.8125"
       height="30"
       width="30" />
    <path
       inkscape:connector-curvature="0"
       style="opacity:0.5;fill:url(#linearGradient3788);fill-opacity:1;stroke:none"
       id="rect3775"
       d="M 58.8125,58 C 57.254375,58 56,59.254375 56,60.8125 l 0,24.375 c 0,0.873066 0.410816,1.641163 1.03125,2.15625 C 57.02841,87.289908 57,87.242129 57,87.1875 l 0,-24.375 C 57,61.254375 58.17075,60 59.625,60 l 22.75,0 C 83.82925,60 85,61.254375 85,62.8125 l 0,24.375 c 0,0.05463 -0.02841,0.102408 -0.03125,0.15625 C 85.589184,86.828663 86,86.060566 86,85.1875 l 0,-24.375 C 86,59.254375 84.745625,58 83.1875,58 l -24.375,0 z" />
    <path
       inkscape:connector-curvature="0"
       style="opacity:0.6;fill:url(#linearGradient3812);fill-opacity:1;fill-rule:nonzero;stroke:none;display:inline;filter:url(#filter3831)"
       id="path3810"
       clip-path="url(#clipPath3823)"
       transform="translate(-50,0)"
       d="m 116,63.5 0,8.75 -5,0 10,13.75 10,-13.75 -5,0 0,-8.75 -10,0 z" />
    <path
       inkscape:connector-curvature="0"
       style="fill:url(#linearGradient3832);fill-opacity:1;fill-rule:nonzero;stroke:none;display:inline"
       id="path4278"
       d="m 66,62.5 0,8.75 -5,0 10,13.75 10,-13.75 -5,0 0,-8.75 -10,0 z" />
  </g>
  <rect
     style="fill:none;stroke:none"
     id="rect3071"
     width="128"
     height="128"
     x="0"
     y="0"
     rx="7.1261263"
     ry="7.0899553" />
  <g
     style="display:inline"
     id="g2036"
     transform="matrix(2.9333334,0,0,1.1851864,-6.4000059,66.962854)">
    <g
       style="opacity:0.4"
       id="g3712"
       transform="matrix(1.052632,0,0,1.285713,-1.263158,-13.42854)">
      <rect
         style="fill:url(#radialGradient3863);fill-opacity:1;stroke:none"
         id="rect2801"
         y="40"
         x="38"
         height="7"
         width="5" />
      <rect
         style="fill:url(#radialGradient3865);fill-opacity:1;stroke:none"
         id="rect3696"
         transform="scale(-1,-1)"
         y="-47"
         x="-10"
         height="7"
         width="5" />
      <rect
         style="fill:url(#linearGradient3867);fill-opacity:1;stroke:none"
         id="rect3700"
         y="40"
         x="10"
         height="7.0000005"
         width="28" />
    </g>
  </g>
  <path
     inkscape:connector-curvature="0"
     style="opacity:0.05;color:#000000;fill:url(#linearGradient3110);fill-opacity:1;fill-rule:nonzero;stroke:none;stroke-width:1;marker:none;visibility:visible;display:inline;overflow:visible;enable-background:accumulate"
     id="path4564-0"
     d="m 61.250001,21.833334 a 7.8291278,7.8291278 0 0 0 -3.75,1.083333 l -29.416667,17 a 7.8291278,7.8291278 0 0 0 -3.75,5.416667 7.8291278,7.8291278 0 0 0 -0.08333,0 7.8291278,7.8291278 0 0 0 -2.583333,5.833333 L 21.5,85.083334 a 7.8291278,7.8291278 0 0 0 2.666667,5.833334 7.8291278,7.8291278 0 0 0 0,0.08333 A 7.8291278,7.8291278 0 0 0 28,96.583335 L 57.333334,113.41667 A 7.8291278,7.8291278 0 0 0 63.750001,114 a 7.8291278,7.8291278 0 0 0 0.08333,0 7.8291278,7.8291278 0 0 0 6.666667,-0.5 L 99.833335,96.583335 a 7.8291278,7.8291278 0 0 0 3.749995,-5.333334 7.8291278,7.8291278 0 0 0 2.91667,-6 l 0,-33.916667 A 7.8291278,7.8291278 0 0 0 103.83333,45.500001 7.8291278,7.8291278 0 0 0 100,39.916667 L 70.583334,23 a 7.8291278,7.8291278 0 0 0 -6.416667,-0.666666 7.8291278,7.8291278 0 0 0 -2.916666,-0.5 z" />
  <rect
     style="color:#000000;fill:url(#radialGradient3105);fill-opacity:1;fill-rule:nonzero;stroke:url(#linearGradient3107);stroke-width:2.66666675;stroke-linecap:round;stroke-linejoin:round;stroke-miterlimit:4;stroke-opacity:1;stroke-dasharray:none;stroke-dashoffset:0;marker:none;visibility:visible;display:inline;overflow:visible;enable-background:accumulate"
     id="rect5505-21"
     y="14.579838"
     x="12"
     ry="5.3333335"
     rx="5.3333335"
     height="104"
     width="104" />
  <rect
     style="fill:none;stroke:url(#linearGradient3102);stroke-width:2.66666675;stroke-linecap:round;stroke-linejoin:round;stroke-miterlimit:4;stroke-opacity:1;stroke-dasharray:none;stroke-dashoffset:0"
     id="rect6741-2"
     y="17.246504"
     x="14.666667"
     ry="2.6666667"
     rx="2.6666667"
     height="98.666664"
     width="98.666664" />
  <path
     id="path3974-3"
     style="opacity:0.8;fill:#ffffff;fill-opacity:1;stroke:none"
     d="m 32.007942,49.321963 13.594869,7.547006 15.730523,-8.869315 0.07192,-15.650235 z m -2.643984,38.455955 13.133435,-8 0.199893,-17.63472 -13.212064,-8.310365 -0.12128,33.94508 z m 31.920597,21.545242 0.04877,-15.990172 -15.8158,-8.701976 -13.565409,7.831992 z M 95.94442,92.467454 82.34955,84.920452 66.666668,93.332988 66.547121,109.44 z m 2.722248,-38.487403 -13.102808,8 -0.199894,17.634721 13.302702,8.31036 z M 66.681412,32.379798 66.666745,47.927654 82.21515,56.744163 96.078799,49.352339 z m -18.657587,47.725011 5e-6,-18.475211 15.999997,-9.237605 16.000003,9.237605 -5e-6,18.475208 -16,9.237603 -16,-9.2376 z"
     inkscape:connector-curvature="0" />
  <path
     inkscape:connector-curvature="0"
     style="color:#000000;fill:#f8c300;fill-opacity:1;fill-rule:nonzero;stroke:none;stroke-width:1;marker:none;visibility:visible;display:inline;overflow:visible;enable-background:accumulate"
     id="path3942"
     d="m 48.023825,77.438489 5e-6,-18.475211 15.999997,-9.237605 16.000003,9.237605 -5e-6,18.475208 -16,9.237603 -16,-9.2376 z" />
  <path
     inkscape:connector-curvature="0"
     style="fill:#8fb635;fill-opacity:1;stroke:none"
     id="path3944"
     d="m 66.681412,29.713478 -0.01474,15.547856 15.548405,8.816509 13.863648,-7.391824 z" />
  <path
     inkscape:connector-curvature="0"
     style="fill:#d18c3b;fill-opacity:1;stroke:none"
     id="path3966"
     d="m 98.666668,51.313731 -13.102808,8 -0.199894,17.634721 13.302702,8.31036 z" />
  <path
     inkscape:connector-curvature="0"
     style="fill:#a02c35;fill-opacity:1;stroke:none"
     id="path3968"
     d="M 95.94442,89.801134 82.34955,82.254132 66.666668,90.666668 66.547121,106.77368 z" />
  <path
     inkscape:connector-curvature="0"
     style="fill:#bb3a84;fill-opacity:1;stroke:none"
     id="path3970"
     d="m 61.284555,106.65684 0.04878,-15.990172 -15.8158,-8.701976 -13.565408,7.831992 z" />
  <path
     inkscape:connector-curvature="0"
     style="fill:#3941bf;fill-opacity:1;stroke:none"
     id="path3972"
     d="m 29.363958,85.111598 13.133435,-8 0.199893,-17.63472 -13.212064,-8.310365 -0.12128,33.94508 z" />
  <path
     inkscape:connector-curvature="0"
     style="fill:#3895bd;fill-opacity:1;stroke:none"
     id="path3974"
     d="m 32.007942,46.655643 13.594869,7.547006 15.730523,-8.869315 0.07192,-15.650235 z" />
  <path
     inkscape:connector-curvature="0"
     id="path3974-7-6"
     style="opacity:0.1;fill:none;stroke:url(#linearGradient3091);stroke-width:2.66666675;stroke-opacity:1"
     d="m 68.028188,31.842187 0.24864,12.651008 14.083056,8.270376 10.94525,-6.236197 z m -33.326185,14.723654 11.080414,6.110173 14.203885,-8.061096 0.07192,-12.596966 z" />
  <path
     inkscape:connector-curvature="0"
     id="path3974-7-6-3"
     style="opacity:0.1;fill:none;stroke:url(#linearGradient3088);stroke-width:2.66666675;stroke-opacity:1"
     d="M 30.789968,82.78899 41.621739,76.248156 41.742566,59.916683 30.869235,53.555915 z M 97.442337,53.341683 86.610566,59.882518 86.48974,76.21399 97.363071,82.574758 z m -48.109003,23.324987 5e-6,-17.333336 14.666662,-8.666667 14.666667,8.666667 -6e-6,17.333336 -14.666664,8.666664 -14.666664,-8.666664 z" />
  <path
     inkscape:connector-curvature="0"
     id="path3974-7-6-38"
     style="opacity:0.1;fill:none;stroke:url(#linearGradient3085);stroke-width:2.66666675;stroke-opacity:1"
     d="M 93.530303,89.564833 82.449889,83.45466 68.246004,91.515756 68.174084,104.11272 z M 60.204118,104.28849 59.955478,91.637478 45.872422,83.367102 34.927171,89.6033 z" />
</svg>
