<?xml version="1.0" encoding="UTF-8" standalone="no"?>
<!-- Created with Inkscape (http://www.inkscape.org/) -->

<svg
   xmlns:dc="http://purl.org/dc/elements/1.1/"
   xmlns:cc="http://creativecommons.org/ns#"
   xmlns:rdf="http://www.w3.org/1999/02/22-rdf-syntax-ns#"
   xmlns:svg="http://www.w3.org/2000/svg"
   xmlns="http://www.w3.org/2000/svg"
   xmlns:sodipodi="http://sodipodi.sourceforge.net/DTD/sodipodi-0.dtd"
   xmlns:inkscape="http://www.inkscape.org/namespaces/inkscape"
   version="1.1"
   width="16"
   height="16"
   id="svg7384"
   inkscape:version="0.48.2 r9819"
   sodipodi:docname="document-print-symbolic.svg">
  <sodipodi:namedview
     pagecolor="#ffffff"
     bordercolor="#666666"
     borderopacity="1"
     objecttolerance="10"
     gridtolerance="10"
     guidetolerance="10"
     inkscape:pageopacity="0"
     inkscape:pageshadow="2"
     inkscape:window-width="1280"
     inkscape:window-height="753"
     id="namedview7"
     showgrid="true"
     inkscape:zoom="17.46875"
     inkscape:cx="3.4203936"
     inkscape:cy="8"
     inkscape:window-x="0"
     inkscape:window-y="24"
     inkscape:window-maximized="1"
     inkscape:current-layer="svg7384">
    <inkscape:grid
       type="xygrid"
       id="grid3000" />
  </sodipodi:namedview>
  <title
     id="title9167">Gnome Symbolic Icon Theme</title>
  <defs
     id="defs11" />
  <metadata
     id="metadata90">
    <rdf:RDF>
      <cc:Work
         rdf:about="">
        <dc:format>image/svg+xml</dc:format>
        <dc:type
           rdf:resource="http://purl.org/dc/dcmitype/StillImage" />
        <dc:title>Gnome Symbolic Icon Theme</dc:title>
      </cc:Work>
    </rdf:RDF>
  </metadata>
  <path
     style="color:#bebebe;fill:#bebebe;fill-opacity:1;fill-rule:nonzero;stroke:none;stroke-width:1;marker:none;visibility:visible;display:inline;overflow:visible;enable-background:accumulate"
     d="M 4,1 C 3.446,1 3,1.446 3,2 L 3,4 2,4 C 0.892,4 0,4.892 0,6 l 0,5 c 0,1.108 0.892,2 2,2 l 1,0 0,3 10,0 0,-3 1,0 c 1.108,0 2,-0.892 2,-2 L 16,6 C 16,4.892 15.108,4 14,4 L 13,4 13,2 C 13,1.446 12.554,1 12,1 L 4,1 z m 0.5,1 7,0 C 11.777,2 12,2.223 12,2.5 L 12,4 4,4 4,2.5 C 4,2.223 4.223,2 4.5,2 z m -2,4 11,0 C 13.777,6 14,6.223 14,6.5 l 0,4 C 14,10.777 13.777,11 13.5,11 L 13,11 13,8 3,8 3,11 2.5,11 C 2.223,11 2,10.777 2,10.5 l 0,-4 C 2,6.223 2.223,6 2.5,6 z m 1.5,3 8,0 0,6 -8,0 0,-6 z"
     id="rect3002"
     inkscape:connector-curvature="0" />
  <rect
     style="opacity:0.6;color:#bebebe;fill:#bebebe;fill-opacity:1;fill-rule:nonzero;stroke:none;stroke-width:1;marker:none;visibility:visible;display:inline;overflow:visible;enable-background:accumulate"
     id="rect3830"
     width="6"
     height="1"
     x="5"
     y="9" />
  <rect
     style="opacity:0.6;color:#bebebe;fill:#bebebe;fill-opacity:1;fill-rule:nonzero;stroke:none;stroke-width:1;marker:none;visibility:visible;display:inline;overflow:visible;enable-background:accumulate"
     id="rect3832"
     width="6"
     height="1"
     x="5"
     y="11" />
  <rect
     style="opacity:0.6;color:#bebebe;fill:#bebebe;fill-opacity:1;fill-rule:nonzero;stroke:none;stroke-width:1;marker:none;visibility:visible;display:inline;overflow:visible;enable-background:accumulate"
     id="rect3834"
     width="6"
     height="1"
     x="5"
     y="13" />
</svg>
