<?xml version="1.0" encoding="UTF-8" standalone="no"?>
<!-- Created with Inkscape (http://www.inkscape.org/) -->

<svg
   xmlns:dc="http://purl.org/dc/elements/1.1/"
   xmlns:cc="http://creativecommons.org/ns#"
   xmlns:rdf="http://www.w3.org/1999/02/22-rdf-syntax-ns#"
   xmlns:svg="http://www.w3.org/2000/svg"
   xmlns="http://www.w3.org/2000/svg"
   xmlns:xlink="http://www.w3.org/1999/xlink"
   xmlns:sodipodi="http://sodipodi.sourceforge.net/DTD/sodipodi-0.dtd"
   xmlns:inkscape="http://www.inkscape.org/namespaces/inkscape"
   width="128"
   height="128"
   id="svg1306"
   sodipodi:version="0.32"
   inkscape:version="0.48.3.1 r9886"
   sodipodi:docname="applications-microblogging-panel.svg"
   inkscape:output_extension="org.inkscape.output.svg.inkscape"
   sodipodi:modified="true"
   version="1.1">
  <sodipodi:namedview
     id="base"
     pagecolor="#ffffff"
     bordercolor="#666666"
     borderopacity="1.0"
     inkscape:pageopacity="0"
     inkscape:pageshadow="2"
     inkscape:zoom="1.4142136"
     inkscape:cx="161.3251"
     inkscape:cy="25.44067"
     inkscape:current-layer="layer1"
     showgrid="false"
     inkscape:grid-bbox="true"
     inkscape:document-units="px"
     fill="#3465a4"
     stroke="#888a85"
     inkscape:window-width="1364"
     inkscape:window-height="701"
     inkscape:window-x="0"
     inkscape:window-y="0"
     showguides="true"
     inkscape:guide-bbox="true"
     inkscape:window-maximized="1" />
  <defs
     id="defs1308">
    <linearGradient
       id="linearGradient3893">
      <stop
         style="stop-color:#0061f2;stop-opacity:1;"
         offset="0"
         id="stop3895" />
      <stop
         style="stop-color:#000000;stop-opacity:0;"
         offset="1"
         id="stop3897" />
    </linearGradient>
    <linearGradient
       id="linearGradient2189"
       inkscape:collect="always">
      <stop
         id="stop2191"
         offset="0"
         style="stop-color:#000000;stop-opacity:1;" />
      <stop
         id="stop2193"
         offset="1"
         style="stop-color:#000000;stop-opacity:0;" />
    </linearGradient>
    <radialGradient
       gradientUnits="userSpaceOnUse"
       gradientTransform="matrix(0.928681,0,0,0.102029,1.804722,37.76401)"
       r="21.535715"
       fy="44.051216"
       fx="25.304846"
       cy="44.051216"
       cx="25.304846"
       id="radialGradient2195"
       xlink:href="#linearGradient2189"
       inkscape:collect="always" />
    <linearGradient
       gradientTransform="matrix(1.076193,-0.2912862,0.1952728,0.7143165,-11.182741,14.979481)"
       y2="20.663898"
       x2="28.290144"
       y1="61.852856"
       x1="24.335312"
       gradientUnits="userSpaceOnUse"
       id="linearGradient3293-18-245-513-496-734-651-920-874-587-289-441-223"
       xlink:href="#linearGradient3156-227-560-681-571-92-461-79-618-271-50-915-862"
       inkscape:collect="always" />
    <linearGradient
       id="linearGradient3156-227-560-681-571-92-461-79-618-271-50-915-862">
      <stop
         offset="0"
         style="stop-color:#ffffff;stop-opacity:1"
         id="stop13567" />
      <stop
         offset="1"
         style="stop-color:#ffffff;stop-opacity:0"
         id="stop13569" />
    </linearGradient>
    <linearGradient
       y2="50"
       x2="29.75"
       y1="29"
       x1="29.01346"
       gradientTransform="translate(-5.0000016,-6.0000001)"
       gradientUnits="userSpaceOnUse"
       id="linearGradient4297-913-837-406-242-222-312-806-483-744-573-645-263"
       xlink:href="#linearGradient6493-2-245-397-612-847-365-498-68-375-154-871-462-409"
       inkscape:collect="always" />
    <linearGradient
       id="linearGradient6493-2-245-397-612-847-365-498-68-375-154-871-462-409">
      <stop
         offset="0"
         style="stop-color:#435cd2;stop-opacity:1"
         id="stop13573" />
      <stop
         offset="1"
         style="stop-color:#113fd2;stop-opacity:1"
         id="stop13575" />
    </linearGradient>
    <linearGradient
       gradientTransform="matrix(-0.1600777,-1.1032472,0.4856389,0.01692093,16.935466,54.089297)"
       y2="24.653727"
       x2="29.724815"
       y1="55.647495"
       x1="30.501778"
       gradientUnits="userSpaceOnUse"
       id="linearGradient3284-283-629-378-647-918-911-571-125-983-525-849-630"
       xlink:href="#linearGradient3156-193-38-614-618-539-180-297-70-925-804-368-271"
       inkscape:collect="always" />
    <linearGradient
       id="linearGradient3156-193-38-614-618-539-180-297-70-925-804-368-271">
      <stop
         offset="0"
         style="stop-color:#ffffff;stop-opacity:1"
         id="stop13579" />
      <stop
         offset="1"
         style="stop-color:#ffffff;stop-opacity:0"
         id="stop13581" />
    </linearGradient>
    <linearGradient
       gradientTransform="matrix(-0.09940095,-1.1197712,0.6946105,-0.03998764,8.1749534,56.475018)"
       y2="20.663898"
       x2="28.290144"
       y1="-2.3103411"
       x1="28.220636"
       gradientUnits="userSpaceOnUse"
       id="linearGradient3287-491-166-286-80-436-444-874-465-630-638-513-255"
       xlink:href="#linearGradient3156-493-363-937-428-743-5-726-773-397-353-344-337"
       inkscape:collect="always" />
    <linearGradient
       id="linearGradient3156-493-363-937-428-743-5-726-773-397-353-344-337">
      <stop
         offset="0"
         style="stop-color:#ffffff;stop-opacity:1"
         id="stop13591" />
      <stop
         offset="1"
         style="stop-color:#ffffff;stop-opacity:0"
         id="stop13593" />
    </linearGradient>
    <linearGradient
       gradientUnits="userSpaceOnUse"
       y2="10.476645"
       x2="8.4942951"
       y1="40.703312"
       x1="40.869297"
       id="linearGradient3910-443-970-986-301-207-753-504-381-141-331-966-519"
       xlink:href="#linearGradient3904-782-1-73-835-319-113-551-209-766-634-797-931"
       inkscape:collect="always" />
    <linearGradient
       id="linearGradient3904-782-1-73-835-319-113-551-209-766-634-797-931">
      <stop
         id="stop13597"
         offset="0"
         style="stop-color:#ffffff;stop-opacity:0.25490198;" />
      <stop
         id="stop13599"
         offset="1"
         style="stop-color:#ffffff;stop-opacity:0.16470589;" />
    </linearGradient>
    <linearGradient
       gradientTransform="matrix(1.1247273,-0.00679075,0.00112312,0.7429216,-7.8873839,2.6776872)"
       y2="20.663898"
       x2="28.290144"
       y1="-0.81503254"
       x1="27.888655"
       gradientUnits="userSpaceOnUse"
       id="linearGradient3290-104-484-536-331-959-95-130-82-564-278-893-497"
       xlink:href="#linearGradient3156-975-357-7-380-556-70-73-163-798-681-362-224"
       inkscape:collect="always" />
    <linearGradient
       id="linearGradient3156-975-357-7-380-556-70-73-163-798-681-362-224">
      <stop
         offset="0"
         style="stop-color:#ffffff;stop-opacity:1"
         id="stop13603" />
      <stop
         offset="1"
         style="stop-color:#ffffff;stop-opacity:0"
         id="stop13605" />
    </linearGradient>
    <radialGradient
       r="15.074549"
       fy="15.240479"
       fx="26"
       cy="15.240479"
       cx="26"
       gradientTransform="matrix(2.2554569,0,-2.1857407e-8,2.0564463,-32.641879,-17.341228)"
       gradientUnits="userSpaceOnUse"
       id="radialGradient4208-505-780-153-277-438-66-525-774-280-798-235-295"
       xlink:href="#linearGradient6326-128-446-597-909-133-330-418-673-101-845-942-590"
       inkscape:collect="always" />
    <linearGradient
       id="linearGradient6326-128-446-597-909-133-330-418-673-101-845-942-590">
      <stop
         offset="0"
         style="stop-color:#132ded;stop-opacity:1;"
         id="stop13609" />
      <stop
         offset="1"
         style="stop-color:#0e3bc4;stop-opacity:1;"
         id="stop13611" />
    </linearGradient>
    <linearGradient
       gradientUnits="userSpaceOnUse"
       y2="35.75"
       x2="33.625"
       y1="41.224113"
       x1="40.6875"
       id="linearGradient3943-750-466-24-506-110-287-542-757-755-983-242-130"
       xlink:href="#linearGradient3937-966-735-966-795-448-885-226-500-82-538-919-921"
       inkscape:collect="always" />
    <linearGradient
       id="linearGradient3937-966-735-966-795-448-885-226-500-82-538-919-921">
      <stop
         id="stop13615"
         offset="0"
         style="stop-color:#3e54a1;stop-opacity:0.70722431;" />
      <stop
         style="stop-color:#3e54a1;stop-opacity:0.4676806;"
         offset="0.5"
         id="stop13617" />
      <stop
         id="stop13619"
         offset="1"
         style="stop-color:#3e54a1;stop-opacity:0;" />
    </linearGradient>
    <radialGradient
       r="14"
       fy="4.7612267"
       fx="22.944935"
       cy="11.222695"
       cx="22.944935"
       gradientTransform="matrix(1.3571044,0.01021839,-0.00631345,0.8384895,-10.874695,1.3057951)"
       gradientUnits="userSpaceOnUse"
       id="radialGradient3801-109-313-458-160-780-954-956-669-254-218-942-128"
       xlink:href="#linearGradient3156-624-903-567-438-361-626-535-419-892-306-500-938"
       inkscape:collect="always" />
    <linearGradient
       id="linearGradient3156-624-903-567-438-361-626-535-419-892-306-500-938">
      <stop
         offset="0"
         style="stop-color:#ffffff;stop-opacity:1"
         id="stop13623" />
      <stop
         offset="1"
         style="stop-color:#ffffff;stop-opacity:0"
         id="stop13625" />
    </linearGradient>
    <radialGradient
       r="22.463524"
       fy="12.610249"
       fx="20.038782"
       cy="12.610249"
       cx="20.038782"
       gradientTransform="matrix(1.9285309,-0.05427547,0.03606422,1.282171,-19.86409,-3.9239116)"
       gradientUnits="userSpaceOnUse"
       id="radialGradient3305-874-865-748-837-941-867-294-832-558-656-748-278-538"
       xlink:href="#linearGradient4103-616-740-85-112-873-571-435-857-356-507-406-238-735"
       inkscape:collect="always" />
    <linearGradient
       id="linearGradient4103-616-740-85-112-873-571-435-857-356-507-406-238-735">
      <stop
         offset="0"
         style="stop-color:#6577ff;stop-opacity:1;"
         id="stop4167" />
      <stop
         offset="1"
         style="stop-color:#254cf5;stop-opacity:1;"
         id="stop4169" />
    </linearGradient>
    <linearGradient
       inkscape:collect="always"
       xlink:href="#linearGradient6493-2-245-397-612-847-365-498-68-375-154-871-462-409"
       id="linearGradient3830"
       gradientUnits="userSpaceOnUse"
       gradientTransform="translate(-5.0000016,-6.0000001)"
       x1="29.01346"
       y1="29"
       x2="29.75"
       y2="50" />
    <radialGradient
       inkscape:collect="always"
       xlink:href="#linearGradient4103-616-740-85-112-873-571-435-857-356-507-406-238-735"
       id="radialGradient3832"
       gradientUnits="userSpaceOnUse"
       gradientTransform="matrix(1.9285309,-0.05427547,0.03606422,1.282171,-19.86409,-3.9239116)"
       cx="20.038782"
       cy="12.610249"
       fx="20.038782"
       fy="12.610249"
       r="22.463524" />
    <radialGradient
       inkscape:collect="always"
       xlink:href="#linearGradient6326-128-446-597-909-133-330-418-673-101-845-942-590"
       id="radialGradient3834"
       gradientUnits="userSpaceOnUse"
       gradientTransform="matrix(2.2554569,0,-2.1857407e-8,2.0564463,-32.641879,-17.341228)"
       cx="26"
       cy="15.240479"
       fx="26"
       fy="15.240479"
       r="15.074549" />
    <radialGradient
       inkscape:collect="always"
       xlink:href="#linearGradient3156-624-903-567-438-361-626-535-419-892-306-500-938"
       id="radialGradient3836"
       gradientUnits="userSpaceOnUse"
       gradientTransform="matrix(1.3571044,0.01021839,-0.00631345,0.8384895,-10.874695,1.3057951)"
       cx="22.944935"
       cy="11.222695"
       fx="22.944935"
       fy="4.7612267"
       r="14" />
    <linearGradient
       inkscape:collect="always"
       xlink:href="#linearGradient3156-227-560-681-571-92-461-79-618-271-50-915-862"
       id="linearGradient3838"
       gradientUnits="userSpaceOnUse"
       gradientTransform="matrix(1.076193,-0.2912862,0.1952728,0.7143165,-11.182741,14.979481)"
       x1="24.335312"
       y1="61.852856"
       x2="28.290144"
       y2="20.663898" />
    <linearGradient
       inkscape:collect="always"
       xlink:href="#linearGradient3156-975-357-7-380-556-70-73-163-798-681-362-224"
       id="linearGradient3840"
       gradientUnits="userSpaceOnUse"
       gradientTransform="matrix(1.1247273,-0.00679075,0.00112312,0.7429216,-7.8873839,2.6776872)"
       x1="27.888655"
       y1="-0.81503254"
       x2="28.290144"
       y2="20.663898" />
    <linearGradient
       inkscape:collect="always"
       xlink:href="#linearGradient3156-493-363-937-428-743-5-726-773-397-353-344-337"
       id="linearGradient3842"
       gradientUnits="userSpaceOnUse"
       gradientTransform="matrix(-0.09940095,-1.1197712,0.6946105,-0.03998764,8.1749534,56.475018)"
       x1="28.220636"
       y1="-2.3103411"
       x2="28.290144"
       y2="20.663898" />
    <linearGradient
       inkscape:collect="always"
       xlink:href="#linearGradient3156-193-38-614-618-539-180-297-70-925-804-368-271"
       id="linearGradient3844"
       gradientUnits="userSpaceOnUse"
       gradientTransform="matrix(-0.1600777,-1.1032472,0.4856389,0.01692093,16.935466,54.089297)"
       x1="30.501778"
       y1="55.647495"
       x2="29.724815"
       y2="24.653727" />
    <radialGradient
       inkscape:collect="always"
       xlink:href="#linearGradient2189"
       id="radialGradient3846"
       gradientUnits="userSpaceOnUse"
       gradientTransform="matrix(0.928681,0,0,0.102029,1.804722,37.76401)"
       cx="25.304846"
       cy="44.051216"
       fx="25.304846"
       fy="44.051216"
       r="21.535715" />
    <linearGradient
       inkscape:collect="always"
       xlink:href="#linearGradient3904-782-1-73-835-319-113-551-209-766-634-797-931"
       id="linearGradient3848"
       gradientUnits="userSpaceOnUse"
       x1="40.869297"
       y1="40.703312"
       x2="8.4942951"
       y2="10.476645" />
    <linearGradient
       inkscape:collect="always"
       xlink:href="#linearGradient3937-966-735-966-795-448-885-226-500-82-538-919-921"
       id="linearGradient3850"
       gradientUnits="userSpaceOnUse"
       x1="40.6875"
       y1="41.224113"
       x2="33.625"
       y2="35.75" />
    <linearGradient
       inkscape:collect="always"
       xlink:href="#linearGradient6493-2-245-397-612-847-365-498-68-375-154-871-462-409"
       id="linearGradient3091"
       gradientUnits="userSpaceOnUse"
       gradientTransform="translate(-5.0000016,-6.0000001)"
       x1="29.01346"
       y1="29"
       x2="29.75"
       y2="50" />
    <radialGradient
       inkscape:collect="always"
       xlink:href="#linearGradient4103-616-740-85-112-873-571-435-857-356-507-406-238-735"
       id="radialGradient3093"
       gradientUnits="userSpaceOnUse"
       gradientTransform="matrix(1.9285309,-0.05427547,0.03606422,1.282171,-19.86409,-3.9239116)"
       cx="20.038782"
       cy="12.610249"
       fx="20.038782"
       fy="12.610249"
       r="22.463524" />
    <radialGradient
       inkscape:collect="always"
       xlink:href="#linearGradient6326-128-446-597-909-133-330-418-673-101-845-942-590"
       id="radialGradient3095"
       gradientUnits="userSpaceOnUse"
       gradientTransform="matrix(2.2554569,0,-2.1857407e-8,2.0564463,-32.641879,-17.341228)"
       cx="26"
       cy="15.240479"
       fx="26"
       fy="15.240479"
       r="15.074549" />
    <radialGradient
       inkscape:collect="always"
       xlink:href="#linearGradient3156-624-903-567-438-361-626-535-419-892-306-500-938"
       id="radialGradient3097"
       gradientUnits="userSpaceOnUse"
       gradientTransform="matrix(1.3571044,0.01021839,-0.00631345,0.8384895,-10.874695,1.3057951)"
       cx="22.944935"
       cy="11.222695"
       fx="22.944935"
       fy="4.7612267"
       r="14" />
    <linearGradient
       inkscape:collect="always"
       xlink:href="#linearGradient3156-227-560-681-571-92-461-79-618-271-50-915-862"
       id="linearGradient3099"
       gradientUnits="userSpaceOnUse"
       gradientTransform="matrix(1.076193,-0.2912862,0.1952728,0.7143165,-11.182741,14.979481)"
       x1="24.335312"
       y1="61.852856"
       x2="28.290144"
       y2="20.663898" />
    <linearGradient
       inkscape:collect="always"
       xlink:href="#linearGradient3156-975-357-7-380-556-70-73-163-798-681-362-224"
       id="linearGradient3101"
       gradientUnits="userSpaceOnUse"
       gradientTransform="matrix(1.1247273,-0.00679075,0.00112312,0.7429216,-7.8873839,2.6776872)"
       x1="27.888655"
       y1="-0.81503254"
       x2="28.290144"
       y2="20.663898" />
    <linearGradient
       inkscape:collect="always"
       xlink:href="#linearGradient3156-493-363-937-428-743-5-726-773-397-353-344-337"
       id="linearGradient3103"
       gradientUnits="userSpaceOnUse"
       gradientTransform="matrix(-0.09940095,-1.1197712,0.6946105,-0.03998764,8.1749534,56.475018)"
       x1="28.220636"
       y1="-2.3103411"
       x2="28.290144"
       y2="20.663898" />
    <linearGradient
       inkscape:collect="always"
       xlink:href="#linearGradient3156-193-38-614-618-539-180-297-70-925-804-368-271"
       id="linearGradient3105"
       gradientUnits="userSpaceOnUse"
       gradientTransform="matrix(-0.1600777,-1.1032472,0.4856389,0.01692093,16.935466,54.089297)"
       x1="30.501778"
       y1="55.647495"
       x2="29.724815"
       y2="24.653727" />
    <radialGradient
       inkscape:collect="always"
       xlink:href="#linearGradient2189"
       id="radialGradient3107"
       gradientUnits="userSpaceOnUse"
       gradientTransform="matrix(0.928681,0,0,0.102029,1.804722,37.76401)"
       cx="25.304846"
       cy="44.051216"
       fx="25.304846"
       fy="44.051216"
       r="21.535715" />
    <linearGradient
       inkscape:collect="always"
       xlink:href="#linearGradient3904-782-1-73-835-319-113-551-209-766-634-797-931"
       id="linearGradient3109"
       gradientUnits="userSpaceOnUse"
       x1="40.869297"
       y1="40.703312"
       x2="8.4942951"
       y2="10.476645" />
    <linearGradient
       inkscape:collect="always"
       xlink:href="#linearGradient3937-966-735-966-795-448-885-226-500-82-538-919-921"
       id="linearGradient3111"
       gradientUnits="userSpaceOnUse"
       x1="40.6875"
       y1="41.224113"
       x2="33.625"
       y2="35.75" />
    <linearGradient
       inkscape:collect="always"
       xlink:href="#linearGradient3893"
       id="linearGradient3899"
       x1="35.260742"
       y1="26.285854"
       x2="62.258366"
       y2="58.363884"
       gradientUnits="userSpaceOnUse" />
    <linearGradient
       inkscape:collect="always"
       xlink:href="#linearGradient3893"
       id="linearGradient3903"
       gradientUnits="userSpaceOnUse"
       x1="35.260742"
       y1="26.285854"
       x2="62.258366"
       y2="58.363884" />
    <linearGradient
       inkscape:collect="always"
       xlink:href="#linearGradient3893"
       id="linearGradient3907"
       gradientUnits="userSpaceOnUse"
       x1="35.260742"
       y1="26.285854"
       x2="60.763119"
       y2="54.583275" />
  </defs>
  <metadata
     id="metadata1311">
    <rdf:RDF>
      <cc:Work
         rdf:about="">
        <dc:format>image/svg+xml</dc:format>
        <dc:type
           rdf:resource="http://purl.org/dc/dcmitype/StillImage" />
        <dc:title />
        <dc:date>March 2006</dc:date>
        <dc:creator>
          <cc:Agent>
            <dc:title>Andreas Nilsson</dc:title>
          </cc:Agent>
        </dc:creator>
        <dc:source>http://tango-project.org</dc:source>
        <dc:subject>
          <rdf:Bag>
            <rdf:li>konversation</rdf:li>
            <rdf:li>chat</rdf:li>
            <rdf:li>irc</rdf:li>
          </rdf:Bag>
        </dc:subject>
        <cc:license
           rdf:resource="http://creativecommons.org/licenses/GPL/2.0/" />
      </cc:Work>
      <cc:License
         rdf:about="http://creativecommons.org/licenses/GPL/2.0/">
        <cc:permits
           rdf:resource="http://web.resource.org/cc/Reproduction" />
        <cc:permits
           rdf:resource="http://web.resource.org/cc/Distribution" />
        <cc:requires
           rdf:resource="http://web.resource.org/cc/Notice" />
        <cc:permits
           rdf:resource="http://web.resource.org/cc/DerivativeWorks" />
        <cc:requires
           rdf:resource="http://web.resource.org/cc/ShareAlike" />
        <cc:requires
           rdf:resource="http://web.resource.org/cc/SourceCode" />
      </cc:License>
    </rdf:RDF>
  </metadata>
  <g
     inkscape:groupmode="layer"
     inkscape:label="Layer 1"
     id="layer1"
     transform="translate(0,80)">
    <g
       id="g3812"
       transform="matrix(2.077411,0,0,2.077411,28.284271,-51.715729)">
      <path
         style="font-size:medium;font-style:normal;font-variant:normal;font-weight:normal;font-stretch:normal;text-indent:0;text-align:start;text-decoration:none;line-height:normal;letter-spacing:normal;word-spacing:normal;text-transform:none;direction:ltr;block-progression:tb;writing-mode:lr-tb;text-anchor:start;color:#000000;fill:url(#linearGradient3091);fill-opacity:1;fill-rule:nonzero;stroke:none;stroke-width:0.99815506;marker:none;visibility:visible;display:inline;overflow:visible;enable-background:accumulate;font-family:Andale Mono;-inkscape-font-specification:Andale Mono"
         d="M 39.59375,10.46875 C 42.355187,13.897677 44,18.25481 44,23 44,23.981187 43.94907,24.93165 43.8125,25.875 44.265423,24.46369 44.5,22.991325 44.5,21.5 c 0,-4.20402 -1.850481,-8.061442 -4.90625,-11.03125 z"
         id="path1307"
         sodipodi:nodetypes="cscsc"
         inkscape:connector-curvature="0" />
      <path
         style="fill:url(#radialGradient3093);fill-opacity:1;stroke:none"
         d="M 24,4.5 C 17.041685,4.5 10.868283,7.3820905 7.15625,11.78125 5.0120673,14.994855 3.78125,18.848706 3.78125,23 c 0,0.539813 0.020999,1.064544 0.0625,1.59375 2.4800162,11.451779 17.833253,15.497616 24.90625,13.375 2.4033,0.788301 3.90243,1.68659 5.6875,2.375 3.313703,1.137054 6.795732,0.892237 6.795732,0.892237 0,0 -2.35252,-1.422278 -3.201982,-3.642237 -0.331337,-0.974203 -0.360585,-1.986167 -0.375,-3.25 3.324389,-2.504383 5.718303,-6.072133 6.53125,-9.96875 0.0021,-0.03174 0.02925,-0.06197 0.03125,-0.09375 C 44.245639,23.854293 44.25,23.433704 44.25,23 44.25,18.944457 43.05426,15.168465 41,12 40.9768,11.97152 40.9609,11.9346 40.9375,11.90625 37.243907,7.43156 31.028874,4.5000001 24,4.5 z"
         id="path150"
         sodipodi:nodetypes="ccscccccccsscsc"
         inkscape:connector-curvature="0" />
      <path
         style="fill:url(#radialGradient3095);fill-opacity:1;fill-rule:nonzero;stroke:none"
         d="m 23.78125,4.5 0,0.4375 L 21.5,6 l 0.46875,1.53125 1.34375,-0.6875 0.8125,0.6875 0.96875,0.375 0.625,-1.15625 -0.375,-0.65625 0.375,-0.5 1.3125,-0.84375 0.34375,0 C 26.273363,4.5978664 25.15345,4.5 24,4.5 c -0.07375,0 -0.145172,-6.458e-4 -0.21875,0 z m 3.8125,0.28125 -0.5625,0.90625 0,0.875 c 0.552907,-0.1061211 1.12168,-0.137882 1.6875,-0.1875 l -1.5625,0.78125 -0.125,0.46875 -1.8125,1.0625 -1.8125,-0.28125 0,-0.78125 L 22.5625,8 l 0.375,0.6875 -1.3125,0 L 20.90625,9.53125 20,10.25 l -1.625,0.25 0.9375,0.6875 0.25,0.65625 -1.1875,0 -1.5625,0.59375 0,1.71875 0.71875,0 0.65625,0.53125 1.5,-0.53125 0.59375,-1.0625 1.09375,-0.46875 0.25,-0.40625 1.78125,-0.28125 0.96875,0.78125 1.09375,0.375 -0.59375,0.875 0.9375,-0.1875 0.5,-0.875 -1.21875,-0.96875 0.5,0 1.1875,0.6875 0.25,0.96875 1.09375,0.84375 0.21875,-1.25 0.625,-0.1875 c 0.594956,0.435568 1.061407,0.947296 1.5625,1.4375 l 1.78125,0.09375 1.09375,0.5 -0.46875,0.46875 -1.09375,0.65625 -1.5625,0 -2.0625,-0.46875 -1.0625,0.09375 -0.78125,0.625 -2.25,-1.59375 -1.5625,-0.28125 -2.28125,0.1875 L 18.25,15.125 c -1.147862,0.917718 -2.288556,1.828158 -3.375,2.78125 l -1.3125,2.21875 0.59375,0.46875 -1.09375,1.15625 1.21875,2 c 1.023209,0.816269 2.04078,1.651897 3.0625,2.46875 l 1.5,-0.9375 0.65625,0.53125 1.625,-0.71875 0.5625,0.4375 1.625,0 0.90625,0.75 -0.5625,1.3125 L 24.8125,28.5 24.75,30.09375 25.59375,31.25 l -0.625,0.96875 c -0.05993,0.706764 -0.09375,1.38687 -0.09375,2.09375 0.493148,0.957645 0.971833,1.941716 1.4375,2.90625 l 0.25,1.15625 c 0.778934,-0.08975 1.533487,-0.20998 2.1875,-0.40625 0.728415,0.238926 1.343576,0.500425 1.9375,0.75 L 32.75,37.0625 32.4375,36.4375 34,35.46875 32.875,34.5625 34.25,33.75 l 1.3125,-0.5625 0.625,-0.5 -0.375,-1.0625 0,-2.6875 1.09375,-1.625 1.3125,-1.0625 1.4375,-2.5 0,-0.65625 c -0.716352,0.06364 -1.392937,0.08941 -2.09375,0.125 l 1.4375,-1 2,-0.96875 1.0625,-0.84375 0,-0.96875 C 41.821638,19.117156 41.586267,18.789094 41.34375,18.46875 L 40.375,19.25 l -0.71875,-0.59375 -1.0625,-0.5625 0,-1.25 1.25,1 1.375,-0.125 c 0.630381,0.403581 1.259593,0.790499 1.8125,1.25 L 43.21875,18.25 c -0.104789,-0.76105 -1.113679,-4.431094 -3.5,-7.65625 C 39.70836,10.58346 39.69792,10.57277 39.6875,10.5625 37.495489,8.4014476 34.662514,6.7009894 31.4375,5.65625 L 31.25,5.8125 30.78125,5.46875 c -1.0285,-0.2999961 -2.091496,-0.5259806 -3.1875,-0.6875 z m 5.4375,12.53125 1.40625,1.125 1.625,2.4375 L 37,21.65625 36.53125,22.5 37.4375,23.25 c -0.412693,0.01935 -0.825786,0.03125 -1.25,0.03125 C 35.42121,22.145688 34.833533,21.00048 34.25,19.8125 L 33.21875,19 32.6875,17.625 33.03125,17.3125 z"
         id="path6628"
         inkscape:connector-curvature="0" />
      <path
         style="opacity:0.5;fill:url(#radialGradient3097);fill-opacity:1;stroke:none"
         d="M 24,4.5 C 15.691517,4.5 8.4893875,8.6052843 5.28125,14.5 5.1023646,15.246371 5,16.005644 5,16.75 c 0,7.114117 8.511998,11.03125 19,11.03125 10.487998,0 19,-3.917133 19,-11.03125 0,-0.692751 -0.09461,-1.398693 -0.25,-2.09375 C 39.573749,8.6765894 32.382885,4.5000001 24,4.5 z"
         id="path3154"
         inkscape:connector-curvature="0" />
      <path
         style="opacity:0.35;fill:none;stroke:url(#linearGradient3099);stroke-width:0.99518007;stroke-linecap:round;stroke-linejoin:miter;stroke-miterlimit:4;stroke-opacity:1;stroke-dasharray:none;stroke-dashoffset:0"
         d="m 28.40625,10.5 c -2.426118,-0.0227 -4.993403,0.296181 -7.59375,1 C 10.78381,14.2144 3.9998193,21.627372 5.21875,28.34375 5.22551,28.35632 5.243202,28.36246 5.25,28.375 c 0.00372,0.02 -0.00386,0.04251 0,0.0625 2.4321416,4.448376 7.077293,7.341935 11.8125,8.84375 3.244714,0.4352 6.894351,0.220042 10.59375,-0.78125 C 38.057637,33.684724 44.949809,25.810107 43.0625,18.90625 41.647019,13.728357 35.684603,10.568112 28.40625,10.5 z"
         id="path2218"
         inkscape:connector-curvature="0" />
      <path
         d="M 43.877308,20.381161 C 43.888162,27.561486 35.084705,33.435495 24.214234,33.501128 13.343764,33.56676 4.522707,27.799162 4.5118521,20.618838 4.5009971,13.438513 13.304455,7.5645041 24.174925,7.4988716 35.045395,7.4332391 43.866453,13.200837 43.877308,20.381161 l 0,0 z"
         id="path2230"
         style="opacity:0.35;fill:none;stroke:url(#linearGradient3101);stroke-width:0.99663526;stroke-linecap:round;stroke-linejoin:miter;stroke-miterlimit:4;stroke-opacity:1;stroke-dasharray:none;stroke-dashoffset:0"
         inkscape:connector-curvature="0" />
      <path
         style="opacity:0.37000002;fill:none;stroke:url(#linearGradient3103);stroke-width:0.998155;stroke-linecap:round;stroke-linejoin:miter;stroke-miterlimit:4;stroke-opacity:1;stroke-dasharray:none;stroke-dashoffset:0"
         d="m 23.71875,4.5 c -2.860371,0.032278 -5.59148,0.5585885 -8.0625,1.46875 -3.983863,3.2950601 -6.3343138,10.32194 -5.625,18.3125 0.390777,4.402179 1.65817,8.409699 3.46875,11.59375 5.293499,2.600365 11.457634,3.231844 15.25,2.09375 0.815335,0.267436 1.504366,0.53301 2.15625,0.8125 2.608947,-3.746839 4.003678,-9.496895 3.4375,-15.875 C 33.542365,13.878496 29.073202,6.4764827 23.71875,4.5 z"
         id="path2234"
         inkscape:connector-curvature="0" />
      <path
         style="opacity:0.37000002;fill:none;stroke:url(#linearGradient3105);stroke-width:0.99815506;stroke-linecap:round;stroke-linejoin:miter;stroke-miterlimit:4;stroke-opacity:1;stroke-dasharray:none;stroke-dashoffset:0"
         d="m 23.65625,4.5 c -1.88688,0.026024 -3.703333,0.2653819 -5.4375,0.6875 -2.604628,2.8431707 -3.718616,9.594609 -2.5625,17.5625 0.910774,6.277005 3.039855,11.902641 5.59375,15.5 2.84447,0.413837 5.501103,0.318622 7.5,-0.28125 1.003866,0.329276 1.821054,0.68794 2.59375,1.03125 1.672412,-3.419424 2.258786,-9.134496 1.3125,-15.65625 -1.295539,-8.928784 -5.05596,-16.50994 -9,-18.84375 z"
         id="path2240"
         inkscape:connector-curvature="0" />
      <path
         d="m 34.0749,34.669434 c 0.206993,0.761842 -0.242091,1.547431 -1.003057,1.754662 -0.760965,0.207231 -1.54565,-0.24237 -1.752643,-1.004212 -0.206993,-0.761841 0.242091,-1.54743 1.003056,-1.754661 0.760966,-0.207231 1.545651,0.24237 1.752644,1.004211 l 0,0 z"
         id="path2255"
         style="opacity:0.3;fill:#ffffff;fill-opacity:1;stroke:none"
         inkscape:connector-curvature="0" />
      <path
         d="m 28.614688,7.5140468 c 0.313309,0.6160018 -0.04959,1.2833643 -0.810554,1.4905953 -0.760966,0.207231 -1.631837,-0.1241435 -1.945146,-0.7401452 -0.313309,-0.6160018 0.04959,-1.2833642 0.810554,-1.4905952 0.760966,-0.207231 1.631837,0.1241434 1.945146,0.7401451 l 0,0 z"
         id="path2283"
         style="opacity:0.31999996;fill:#ffffff;fill-opacity:1;stroke:none"
         inkscape:connector-curvature="0" />
      <path
         d="m 13.494592,10.150136 c -0.01282,0.704815 -0.640094,1.444174 -1.401059,1.651405 -0.760966,0.207231 -1.367459,-0.19614 -1.354641,-0.900955 0.01282,-0.704815 0.640094,-1.4441745 1.40106,-1.6514055 0.760965,-0.207231 1.367458,0.1961406 1.35464,0.9009555 l 0,0 z"
         id="path2291"
         style="opacity:0.37000002;fill:#ffffff;fill-opacity:1;stroke:none"
         inkscape:connector-curvature="0" />
      <path
         sodipodi:type="arc"
         style="opacity:0.2;fill:url(#radialGradient3107);fill-opacity:1;stroke:none"
         id="path1314"
         sodipodi:cx="24.535715"
         sodipodi:cy="42"
         sodipodi:rx="21.535715"
         sodipodi:ry="2.7142856"
         d="m 46.07143,42 c 0,1.499059 -9.641868,2.714286 -21.535715,2.714286 C 12.641868,44.714286 3,43.499059 3,42 c 0,-1.499059 9.641868,-2.714286 21.535715,-2.714286 11.893847,0 21.535715,1.215227 21.535715,2.714286 z"
         transform="matrix(0.92869,0,0,1.289475,-0.786071,-10.65794)" />
      <path
         style="font-size:medium;font-style:normal;font-variant:normal;font-weight:normal;font-stretch:normal;text-indent:0;text-align:start;text-decoration:none;line-height:normal;letter-spacing:normal;word-spacing:normal;text-transform:none;direction:ltr;block-progression:tb;writing-mode:lr-tb;text-anchor:start;color:#000000;fill:#3b4a89;fill-opacity:1;fill-rule:nonzero;stroke:none;stroke-width:0.95604855;marker:none;visibility:visible;display:inline;overflow:visible;enable-background:accumulate;font-family:Andale Mono;-inkscape-font-specification:Andale Mono"
         d="m 24,4.03125 c -11.5321,0 -21.0701188,7.773263 -20.96875,17.46875 0.073504,7.103812 4.6213266,11.954956 10.0625,14.6875 5.353203,2.688366 11.530928,3.408618 15.5625,2.28125 2.282905,0.757653 3.750074,1.58691 5.53125,2.28125 1.801925,0.702428 3.910283,1.225533 7.4375,1.21875 a 0.47807208,0.47807208 0 0 0 0.28125,-0.875 c -1.979347,-1.302778 -2.874819,-2.33017 -3.3125,-3.3125 -0.413711,-0.928531 -0.422667,-1.92848 -0.4375,-3.25 C 42.259487,31.341311 44.968749,26.561448 44.96875,21.5 44.96875,11.810007 35.532087,4.0312502 24,4.03125 z m 0,0.9375 c 11.102835,2e-7 20.03125,7.465341 20.03125,16.53125 -10e-7,4.807087 -2.635952,9.408863 -6.65625,12.4375 a 0.47807208,0.47807208 0 0 0 -0.21875,0.40625 c 0.01631,1.429739 0.02364,2.634334 0.5625,3.84375 0.398366,0.894091 1.242431,1.756429 2.40625,2.6875 -2.416345,-0.128228 -4.188041,-0.452025 -5.59375,-1 -1.71265,-0.667627 -3.204433,-1.581036 -5.625,-2.375 a 0.47807208,0.47807208 0 0 0 -0.28125,0 C 24.973113,38.595936 18.729172,37.969827 13.5,35.34375 8.2708284,32.717673 4.0381034,28.20271 3.96875,21.5 3.8740318,12.440609 12.89718,4.96875 24,4.96875 z"
         id="path2079-0"
         inkscape:connector-curvature="0" />
      <path
         style="fill:none;stroke:url(#linearGradient3109);stroke-width:0.95625001;stroke-linecap:round;stroke-linejoin:miter;stroke-miterlimit:4;stroke-opacity:1;stroke-dasharray:none;stroke-dashoffset:0"
         d="m 23.994662,5.45477 c -10.786694,0 -19.6320383,7.251769 -19.5385929,16.173052 0.1361575,13.134918 17.0530889,17.556053 24.3688749,15.364598 4.156846,1.561832 5.886261,2.862286 9.888519,3.232766 -2.007303,-1.802376 -2.10529,-3.89887 -2.118722,-6.271623 3.932718,-2.957232 6.938514,-7.586652 6.938515,-12.325741 0,-8.92177 -8.751897,-16.173052 -19.538594,-16.173052 z"
         id="path2095"
         sodipodi:nodetypes="cscccsc"
         inkscape:connector-curvature="0" />
      <path
         style="fill:url(#linearGradient3111);fill-opacity:1;stroke:none"
         d="M 40.6875,41.1875 C 37.294822,41.4755 33.283725,40.031931 29.0625,38 c 3.101296,-4.25423 6.876456,-4.518363 8.5,-3.8125 0.03887,1.903653 -0.036,3.781103 3.125,7 z"
         id="path3935"
         sodipodi:nodetypes="cccc"
         inkscape:connector-curvature="0" />
      <rect
         ry="9.5856361"
         rx="8.7010784"
         y="0"
         x="0"
         height="48"
         width="48"
         id="rect3042"
         style="opacity:0;fill:#000000;fill-opacity:1;stroke:none" />
    </g>
    <path
       transform="matrix(1.2813105,0,0,1.1824488,-12.825369,-89.614417)"
       d="m 108.89444,65.421051 a 41.188969,37.476658 0 1 1 -82.377934,0 41.188969,37.476658 0 1 1 82.377934,0 z"
       sodipodi:ry="37.476658"
       sodipodi:rx="41.188969"
       sodipodi:cy="65.421051"
       sodipodi:cx="67.705475"
       id="path3901"
       style="fill:none;stroke:url(#linearGradient3903);stroke-width:4.87453155;stroke-miterlimit:4;stroke-opacity:1;stroke-dasharray:none"
       sodipodi:type="arc" />
    <path
       sodipodi:type="arc"
       style="fill:none;stroke:url(#linearGradient3907);stroke-width:4.40244537;stroke-miterlimit:4;stroke-opacity:1;stroke-dasharray:none"
       id="path3905"
       sodipodi:cx="67.705475"
       sodipodi:cy="65.421051"
       sodipodi:rx="41.188969"
       sodipodi:ry="37.476658"
       d="m 108.89444,65.421051 a 41.188969,37.476658 0 1 1 -82.377934,0 41.188969,37.476658 0 1 1 82.377934,0 z"
       transform="matrix(1.4187089,0,0,1.309246,-31.961625,-108.83589)" />
  </g>
</svg>
