<?xml version="1.0" encoding="UTF-8" standalone="no"?>
<!-- Generator: Adobe Illustrator 13.0.0, SVG Export Plug-In . SVG Version: 6.00 Build 14576)  -->
<svg id="svg295" xmlns:rdf="http://www.w3.org/1999/02/22-rdf-syntax-ns#" xmlns="http://www.w3.org/2000/svg" enable-background="new 0 0 48.001 47.99" xml:space="preserve" height="48" width="48.001" version="1.0" y="0px" x="0px" xmlns:cc="http://creativecommons.org/ns#" xmlns:dc="http://purl.org/dc/elements/1.1/" viewBox="0 0 48.001 47.99"><metadata id="metadata558"><rdf:RDF><cc:Work rdf:about=""><dc:format>image/svg+xml</dc:format><dc:type rdf:resource="http://purl.org/dc/dcmitype/StillImage"/></cc:Work></rdf:RDF></metadata>
<g id="Layer_2" opacity=".3">
	<g id="g531">
		<g id="g533">
			<path id="path535" d="m33.414 26.906c-1.482-0.303-3.314-0.543-5.068-0.703 5.215-1.991 9.338-7.106 9.338-12.451 0-6.94-6.76-13.752-13.649-13.752-6.962 0-13.793 6.879-13.793 13.891 0 5.396 3.935 10.414 9.029 12.348-1.607 0.156-3.256 0.379-4.614 0.654-13.181 2.671-14.477 11.222-14.657 19.027-0.025 1.066 0.796 1.963 1.857 2.041 0.215 0.018 0.427 0.029 0.644 0.029h43.5c0.537 0 1.055-0.217 1.43-0.6 0.375-0.387 0.582-0.906 0.568-1.443-0.169-7.802-1.452-16.353-14.585-19.041zm-21.173-13.014c0-5.821 5.881-11.893 11.793-11.893 5.915 0 11.649 5.933 11.649 11.754 0 5.824-6.023 11.324-11.938 11.324-5.912-0.001-11.504-5.361-11.504-11.185zm-9.74 32.1c-0.169 0-0.335-0.014-0.501-0.025 0.189-8.242 1.704-14.812 13.055-17.115 2.842-0.574 6.845-0.883 8.943-0.883 2.117 0 6.154 0.312 9.017 0.898 11.327 2.317 12.805 8.889 12.985 17.125h-43.499z"/>
		</g>
	</g>
</g>
<g id="Layer_1">
	<g id="g538">
		<linearGradient id="SVGID_1_" y2="11.962" gradientUnits="userSpaceOnUse" x2="7.0582" y1="52.753" x1="36.694">
			<stop id="stop541" stop-color="#9B9B9B" offset="0"/>
			<stop id="stop543" stop-color="#ECECEC" offset="1"/>
		</linearGradient>
		<path id="path545" fill="url(#SVGID_1_)" d="m23.746 25.076c5.915 0 11.938-5.5 11.938-11.324 0-5.821-5.734-11.754-11.649-11.754-5.913 0-11.793 6.072-11.793 11.893-0.001 5.825 5.591 11.185 11.504 11.185zm9.27 3.791c-2.863-0.586-6.9-0.898-9.017-0.898-2.098 0-6.101 0.309-8.943 0.883-11.352 2.302-12.867 8.873-13.056 17.115 0.166 0.012 0.332 0.025 0.501 0.025h43.499c-0.18-8.236-1.658-14.808-12.984-17.125z"/>
	</g>
</g>
<g id="Layer_3">
</g>
<g id="Layer_4">
	<g id="g549" opacity=".4">
		<g id="g551">
			<path id="path553" fill="#fff" d="m33.016 28.867c-2.863-0.586-6.9-0.898-9.017-0.898-2.098 0-6.101 0.309-8.943 0.883-11.352 2.302-12.867 8.873-13.056 17.115 0.116 0.008 0.234 0.013 0.352 0.018 0.258-7.938 1.984-14.226 13.037-16.468 2.842-0.574 6.845-0.883 8.943-0.883 2.118 0 6.155 0.312 9.018 0.898 5.992 1.226 9.228 3.644 10.973 6.868-1.655-3.557-4.91-6.224-11.307-7.533zm-20.442-14.31c0-5.821 5.881-11.893 11.793-11.893 4.223 0 8.341 3.027 10.36 6.874-1.872-4.159-6.229-7.539-10.692-7.539-5.913 0-11.793 6.072-11.793 11.893 0 1.651 0.461 3.259 1.24 4.724-0.577-1.282-0.908-2.656-0.908-4.059z"/>
		</g>
	</g>
</g>
</svg>
