<?xml version="1.0" encoding="UTF-8" standalone="no"?>
<!-- Generator: Adobe Illustrator 13.0.0, SVG Export Plug-In . SVG Version: 6.00 Build 14576)  -->
<svg id="svg506" xmlns:rdf="http://www.w3.org/1999/02/22-rdf-syntax-ns#" xmlns="http://www.w3.org/2000/svg" enable-background="new 0 0 47.999 47.131" xml:space="preserve" height="48" width="47.999" version="1.0" y="0px" x="0px" xmlns:cc="http://creativecommons.org/ns#" xmlns:dc="http://purl.org/dc/elements/1.1/" viewBox="0 0 47.999 47.131"><metadata id="metadata817"><rdf:RDF><cc:Work rdf:about=""><dc:format>image/svg+xml</dc:format><dc:type rdf:resource="http://purl.org/dc/dcmitype/StillImage"/></cc:Work></rdf:RDF></metadata>
<g id="Layer_2" opacity=".3">
	<g id="g742">
		<g id="g744">
			<path id="path746" d="m44.088 2.002h-5.74c-2.158 0-3.912 1.753-3.912 3.912v5.169c-0.548-0.292-1.164-0.474-1.827-0.474h-5.739c-2.157 0-3.913 1.756-3.913 3.914v5.169c-0.547-0.292-1.163-0.474-1.826-0.474h-5.739c-2.158 0-3.912 1.756-3.912 3.914v5.169c-0.548-0.292-1.164-0.474-1.828-0.474h-5.739c-2.158 0-3.912 1.753-3.912 3.911v11.479c0 2.158 1.753 3.914 3.912 3.914h5.739c1.138 0 2.154-0.496 2.87-1.273 0.715 0.777 1.731 1.273 2.869 1.273h5.739c1.138 0 2.154-0.496 2.869-1.273 0.716 0.777 1.732 1.273 2.87 1.273h5.739c1.138 0 2.154-0.496 2.869-1.273 0.716 0.777 1.731 1.273 2.87 1.273h5.74c2.157 0 3.911-1.754 3.911-3.912v-37.305c0.001-2.159-1.753-3.912-3.91-3.912zm-32.523 41.216c0 1.057-0.857 1.913-1.913 1.913h-5.739c-1.057 0-1.913-0.857-1.913-1.913v-11.479c0-1.057 0.856-1.913 1.913-1.913h5.739c1.056 0 1.913 0.856 1.913 1.913v11.479zm11.478 0c0 1.057-0.856 1.913-1.913 1.913h-5.739c-1.056 0-1.913-0.856-1.913-1.913v-20.087c0-1.057 0.857-1.913 1.913-1.913h5.739c1.057 0 1.913 0.856 1.913 1.913v20.087zm11.478 0c0 1.057-0.856 1.913-1.913 1.913h-5.739c-1.056 0-1.913-0.856-1.913-1.913v-28.696c0-1.057 0.857-1.913 1.913-1.913h5.739c1.057 0 1.913 0.856 1.913 1.913v28.696zm11.479 0c0 1.057-0.856 1.913-1.913 1.913h-5.739c-1.057 0-1.913-0.856-1.913-1.913v-37.305c0-1.056 0.856-1.913 1.913-1.913h5.739c1.057 0 1.913 0.857 1.913 1.913v37.305z"/>
		</g>
	</g>
</g>
<g id="Layer_1" opacity=".3">
	<g id="g749">
		<g id="g751">
			<g id="g753" fill="url(#SVGID_1_)">
				<linearGradient id="SVGID_1_" y2="4.0005" gradientUnits="userSpaceOnUse" x2="24" y1="45.131" x1="24">
					<stop id="stop756" stop-color="#9B9B9B" offset="0"/>
					<stop id="stop758" stop-color="#ECECEC" offset="1"/>
				</linearGradient>
				<path id="path760" d="m9.652 29.826h-5.739c-1.057 0-1.913 0.857-1.913 1.913v11.479c0 1.057 0.856 1.913 1.913 1.913h5.739c1.056 0 1.913-0.856 1.913-1.913v-11.479c0-1.056-0.857-1.913-1.913-1.913zm11.478-8.608h-5.739c-1.056 0-1.913 0.856-1.913 1.913v20.087c0 1.057 0.857 1.913 1.913 1.913h5.739c1.057 0 1.913-0.856 1.913-1.913v-20.087c0-1.057-0.856-1.913-1.913-1.913zm11.478-8.609h-5.739c-1.056 0-1.913 0.856-1.913 1.913v28.696c0 1.057 0.857 1.913 1.913 1.913h5.739c1.057 0 1.913-0.856 1.913-1.913v-28.696c0-1.057-0.856-1.913-1.913-1.913zm11.479-8.609h-5.739c-1.057 0-1.913 0.857-1.913 1.913v37.305c0 1.057 0.856 1.913 1.913 1.913h5.739c1.057 0 1.913-0.856 1.913-1.913v-37.305c0-1.056-0.856-1.913-1.913-1.913z"/>
				<path id="path767" d="m9.652 29.826h-5.739c-1.057 0-1.913 0.857-1.913 1.913v11.479c0 1.057 0.856 1.913 1.913 1.913h5.739c1.056 0 1.913-0.856 1.913-1.913v-11.479c0-1.056-0.857-1.913-1.913-1.913zm11.478-8.608h-5.739c-1.056 0-1.913 0.856-1.913 1.913v20.087c0 1.057 0.857 1.913 1.913 1.913h5.739c1.057 0 1.913-0.856 1.913-1.913v-20.087c0-1.057-0.856-1.913-1.913-1.913zm11.478-8.609h-5.739c-1.056 0-1.913 0.856-1.913 1.913v28.696c0 1.057 0.857 1.913 1.913 1.913h5.739c1.057 0 1.913-0.856 1.913-1.913v-28.696c0-1.057-0.856-1.913-1.913-1.913zm11.479-8.609h-5.739c-1.057 0-1.913 0.857-1.913 1.913v37.305c0 1.057 0.856 1.913 1.913 1.913h5.739c1.057 0 1.913-0.856 1.913-1.913v-37.305c0-1.056-0.856-1.913-1.913-1.913z"/>
			</g>
		</g>
	</g>
	<g id="g769">
		<g id="g771">
			<g id="g773" fill="url(#SVGID_1_)">
				<path id="path780" d="m9.652 29.826h-5.739c-1.057 0-1.913 0.857-1.913 1.913v11.479c0 1.057 0.856 1.913 1.913 1.913h5.739c1.056 0 1.913-0.856 1.913-1.913v-11.479c0-1.056-0.857-1.913-1.913-1.913zm11.478-8.608h-5.739c-1.056 0-1.913 0.856-1.913 1.913v20.087c0 1.057 0.857 1.913 1.913 1.913h5.739c1.057 0 1.913-0.856 1.913-1.913v-20.087c0-1.057-0.856-1.913-1.913-1.913zm11.478-8.609h-5.739c-1.056 0-1.913 0.856-1.913 1.913v28.696c0 1.057 0.857 1.913 1.913 1.913h5.739c1.057 0 1.913-0.856 1.913-1.913v-28.696c0-1.057-0.856-1.913-1.913-1.913zm11.479-8.609h-5.739c-1.057 0-1.913 0.857-1.913 1.913v37.305c0 1.057 0.856 1.913 1.913 1.913h5.739c1.057 0 1.913-0.856 1.913-1.913v-37.305c0-1.056-0.856-1.913-1.913-1.913z"/>
				<path id="path787" d="m9.652 29.826h-5.739c-1.057 0-1.913 0.857-1.913 1.913v11.479c0 1.057 0.856 1.913 1.913 1.913h5.739c1.056 0 1.913-0.856 1.913-1.913v-11.479c0-1.056-0.857-1.913-1.913-1.913zm11.478-8.608h-5.739c-1.056 0-1.913 0.856-1.913 1.913v20.087c0 1.057 0.857 1.913 1.913 1.913h5.739c1.057 0 1.913-0.856 1.913-1.913v-20.087c0-1.057-0.856-1.913-1.913-1.913zm11.478-8.609h-5.739c-1.056 0-1.913 0.856-1.913 1.913v28.696c0 1.057 0.857 1.913 1.913 1.913h5.739c1.057 0 1.913-0.856 1.913-1.913v-28.696c0-1.057-0.856-1.913-1.913-1.913zm11.479-8.609h-5.739c-1.057 0-1.913 0.857-1.913 1.913v37.305c0 1.057 0.856 1.913 1.913 1.913h5.739c1.057 0 1.913-0.856 1.913-1.913v-37.305c0-1.056-0.856-1.913-1.913-1.913z"/>
			</g>
		</g>
	</g>
</g>
<g id="Layer_4" opacity=".4">
	<g id="g790">
		<g id="g792">
			<path id="path794" fill="#fff" d="m21.13 21.218h-5.739c-1.056 0-1.913 0.856-1.913 1.913v20.087c0 0.432 0.148 0.825 0.389 1.145-0.087-0.219-0.139-0.457-0.139-0.707v-20.088c0-1.057 0.857-1.913 1.913-1.913h5.739c0.625 0 1.175 0.304 1.524 0.769-0.281-0.706-0.967-1.206-1.774-1.206zm22.957-17.218h-5.739c-1.057 0-1.913 0.857-1.913 1.913v37.305c0 0.432 0.147 0.825 0.389 1.145-0.087-0.219-0.139-0.457-0.139-0.707v-37.305c0-1.056 0.856-1.913 1.913-1.913h5.739c0.625 0 1.175 0.305 1.524 0.769-0.281-0.707-0.967-1.207-1.774-1.207zm-34.435 25.826h-5.739c-1.057 0-1.913 0.857-1.913 1.913v11.479c0 0.432 0.148 0.825 0.389 1.145-0.087-0.219-0.139-0.457-0.139-0.707v-11.479c0-1.057 0.856-1.913 1.913-1.913h5.739c0.625 0 1.175 0.305 1.524 0.769-0.281-0.707-0.968-1.207-1.774-1.207zm22.956-17.217h-5.739c-1.056 0-1.913 0.856-1.913 1.913v28.696c0 0.431 0.148 0.824 0.389 1.145-0.087-0.219-0.139-0.457-0.139-0.707v-28.697c0-1.057 0.857-1.913 1.913-1.913h5.739c0.625 0 1.175 0.304 1.524 0.768-0.28-0.705-0.967-1.205-1.774-1.205z"/>
		</g>
	</g>
</g>
<g id="Layer_5">
	<g id="g797">
		<path id="path799" opacity=".3" d="m14.931 19.998c-0.642 0-1.242-0.247-1.691-0.699l-3.24-3.239-3.241 3.241c-0.443 0.443-1.061 0.697-1.691 0.697-0.628 0-1.222-0.241-1.674-0.679l-2.694-2.696c-0.438-0.425-0.7-1.05-0.7-1.692 0-0.629 0.256-1.246 0.701-1.691l3.239-3.24-3.239-3.239c-0.927-0.937-0.927-2.447-0.011-3.375l2.685-2.682c0.452-0.454 1.053-0.704 1.692-0.704 0.646 0 1.25 0.253 1.701 0.712l3.232 3.23 3.239-3.239c0.425-0.439 1.05-0.702 1.691-0.702 0.63 0 1.246 0.256 1.692 0.702l2.674 2.674c0.439 0.425 0.701 1.05 0.701 1.692 0 0.629-0.256 1.246-0.701 1.691l-3.238 3.24 3.239 3.239c0.454 0.452 0.701 1.053 0.701 1.691 0 0.64-0.247 1.24-0.701 1.692l-2.672 2.676c-0.452 0.453-1.053 0.7-1.694 0.7z"/>
		<linearGradient id="SVGID_5_" y2="17.857" gradientUnits="userSpaceOnUse" x2="9.999" y1="1.8574" x1="9.999">
			<stop id="stop802" stop-color="#FF6363" offset="0"/>
			<stop id="stop804" stop-color="#c00" offset="1"/>
		</linearGradient>
		<path id="path806" fill="url(#SVGID_5_)" d="m13.231 9.858l4.652-4.653c0.073-0.073 0.115-0.175 0.115-0.278s-0.042-0.205-0.115-0.279l-2.675-2.674c-0.073-0.074-0.175-0.115-0.278-0.115-0.104 0-0.206 0.041-0.278 0.115l-4.653 4.652-4.653-4.652c-0.153-0.154-0.402-0.154-0.557 0l-2.674 2.673c-0.154 0.154-0.154 0.404 0 0.558l4.652 4.653-4.653 4.652c-0.073 0.073-0.115 0.175-0.115 0.278s0.042 0.205 0.115 0.278l2.675 2.675c0.073 0.073 0.175 0.115 0.278 0.115 0.104 0 0.206-0.042 0.278-0.115l4.653-4.652 4.653 4.652c0.074 0.074 0.173 0.115 0.278 0.115s0.204-0.041 0.278-0.115l2.675-2.675c0.074-0.074 0.115-0.173 0.115-0.278s-0.041-0.204-0.115-0.278l-4.651-4.652z"/>
		<g id="g808" opacity=".4">
			<g id="g810">
				<path id="path812" fill="#fff" d="m15.209 1.974c-0.073-0.074-0.175-0.115-0.278-0.115-0.104 0-0.206 0.042-0.278 0.115l-4.498 4.496 0.531 0.531 4.653-4.652c0.043-0.043 0.096-0.071 0.153-0.091l-0.283-0.284zm-7.754 8.259l-4.652-4.653c-0.154-0.153-0.154-0.403 0-0.558l2.674-2.674c0.044-0.044 0.097-0.072 0.153-0.091l-0.284-0.283c-0.153-0.154-0.402-0.154-0.557 0l-2.674 2.674c-0.154 0.154-0.154 0.404 0 0.557l4.652 4.653-4.653 4.653c-0.073 0.073-0.115 0.175-0.115 0.278s0.042 0.205 0.115 0.278l2.675 2.675c0.073 0.073 0.175 0.115 0.278 0.115 0.043 0 0.084-0.012 0.125-0.024l-2.391-2.391c-0.073-0.073-0.115-0.175-0.115-0.278s0.042-0.205 0.115-0.278l4.654-4.653zm3.075 3.388l4.122 4.121c0.074 0.074 0.173 0.115 0.278 0.115 0.044 0 0.085-0.011 0.125-0.024l-4.369-4.368-0.156 0.156z"/>
			</g>
		</g>
	</g>
</g>
</svg>
