<?xml version="1.0" encoding="UTF-8" standalone="no"?>
<!-- Created with Inkscape (http://www.inkscape.org/) -->
<svg id="svg3425" xmlns:rdf="http://www.w3.org/1999/02/22-rdf-syntax-ns#" xmlns="http://www.w3.org/2000/svg" height="48" width="48" version="1.0" xmlns:cc="http://creativecommons.org/ns#" xmlns:xlink="http://www.w3.org/1999/xlink" xmlns:dc="http://purl.org/dc/elements/1.1/">
 <metadata id="metadata55">
  <rdf:RDF>
   <cc:Work rdf:about="">
    <dc:format>image/svg+xml</dc:format>
    <dc:type rdf:resource="http://purl.org/dc/dcmitype/StillImage"/>
   </cc:Work>
  </rdf:RDF>
 </metadata>
 <defs id="defs3427">
  <linearGradient id="SVGID_1_" y2="15.271" gradientUnits="userSpaceOnUse" x2="46.006" gradientTransform="matrix(-.0019160 -1 1 -.0019160 8.819 39.254)" y1="15.188" x1="2.5846">
   <stop id="stop248" stop-color="#9b9b9b" offset="0"/>
   <stop id="stop250" stop-color="#ececec" offset="1"/>
  </linearGradient>
  <linearGradient id="linearGradient3396">
   <stop id="stop3398" stop-color="#fff" offset="0"/>
   <stop id="stop3400" stop-color="#fff" stop-opacity="0" offset="1"/>
  </linearGradient>
  <linearGradient id="linearGradient2445" y2="2.5628" xlink:href="#SVGID_1_" gradientUnits="userSpaceOnUse" x2="46.349" gradientTransform="matrix(-.0014446 -.99676 0.754 -.0019098 1.3855 48.001)" y1="28.49" x1="1.993"/>
  <linearGradient id="linearGradient2450" y2="6.0324" gradientUnits="userSpaceOnUse" x2="7.211" gradientTransform="matrix(-.0014467 -6.2074 .75509 -.011893 24.598 85.834)" y1="6.042" x1="12.205">
   <stop id="stop265" stop-color="#a9a9a9" offset="0"/>
   <stop id="stop267" stop-color="#7e7e7e" offset="1"/>
  </linearGradient>
  <linearGradient id="linearGradient2460" y2="2.5628" xlink:href="#SVGID_1_" gradientUnits="userSpaceOnUse" x2="46.349" gradientTransform="matrix(-.0014859 -.99937 .77554 -.0019148 24.225 48.006)" y1="28.49" x1="1.993"/>
  <linearGradient id="linearGradient3319" y2="11" xlink:href="#linearGradient3396" gradientUnits="userSpaceOnUse" x2="4" gradientTransform="translate(0 3.0214)" y1="16" x1="9"/>
  <linearGradient id="linearGradient3321" y2="17" xlink:href="#linearGradient3396" gradientUnits="userSpaceOnUse" x2="4" gradientTransform="translate(0 3.0214)" y1="22" x1="9"/>
  <linearGradient id="linearGradient3323" y2="17" xlink:href="#linearGradient3396" gradientUnits="userSpaceOnUse" x2="10" gradientTransform="translate(0 3.0214)" y1="22" x1="15"/>
  <linearGradient id="linearGradient3325" y2="27.471" xlink:href="#linearGradient3396" gradientUnits="userSpaceOnUse" x2="15.076" y1="28.796" x1="20.67"/>
  <linearGradient id="linearGradient3327" y2="11" xlink:href="#linearGradient3396" gradientUnits="userSpaceOnUse" x2="10" gradientTransform="translate(0 3.0214)" y1="16" x1="15"/>
  <linearGradient id="linearGradient3329" y2="23.023" xlink:href="#linearGradient3396" gradientUnits="userSpaceOnUse" x2="4.0147" gradientTransform="translate(0 3.0214)" y1="27.979" x1="8.9773"/>
  <linearGradient id="linearGradient3331" y2="23.023" xlink:href="#linearGradient3396" gradientUnits="userSpaceOnUse" x2="10.015" gradientTransform="translate(0 3.0214)" y1="27.979" x1="14.977"/>
  <linearGradient id="linearGradient3333" y2="29.023" xlink:href="#linearGradient3396" gradientUnits="userSpaceOnUse" x2="4.0147" gradientTransform="translate(0 3.0214)" y1="33.979" x1="8.9773"/>
  <linearGradient id="linearGradient3335" y2="29.023" xlink:href="#linearGradient3396" gradientUnits="userSpaceOnUse" x2="10.015" gradientTransform="translate(0 3.0214)" y1="33.979" x1="14.977"/>
  <linearGradient id="linearGradient3337" y2="35.023" xlink:href="#linearGradient3396" gradientUnits="userSpaceOnUse" x2="10.015" gradientTransform="translate(0 3.0214)" y1="39.979" x1="14.977"/>
  <linearGradient id="linearGradient3339" y2="35.023" xlink:href="#linearGradient3396" gradientUnits="userSpaceOnUse" x2="4.0147" gradientTransform="translate(0 3.0214)" y1="39.979" x1="8.9773"/>
  <linearGradient id="linearGradient3345" y2="11" xlink:href="#linearGradient3396" gradientUnits="userSpaceOnUse" x2="4" gradientTransform="translate(0 -2.9571)" y1="16" x1="9"/>
  <linearGradient id="linearGradient3347" y2="11" xlink:href="#linearGradient3396" gradientUnits="userSpaceOnUse" x2="10" gradientTransform="translate(0 -2.9571)" y1="16" x1="15"/>
 </defs>
 <g id="Layer_2" transform="matrix(-.0015065 -.99944 .78629 -.0019149 24.062 48.008)">
  <g id="g238" opacity=".3">
   <g id="g240">
    <path id="path242" d="m38.274 4.975h-31.423c-0.541 0-0.979 0.438-0.979 0.979v18.733c0 0.54 0.439 0.979 0.979 0.979h31.424c0.54 0 0.979-0.439 0.979-0.979v-18.733c0-0.541-0.44-0.979-0.98-0.979zm-1.018 18.692h-29.386v-16.694h29.386v16.694zm7.833-15.237v-4.473c0-2.183-1.777-3.957-3.959-3.957h-37.173c-2.183 0-3.957 1.774-3.957 3.957v22.538c0 2.183 1.774 3.957 3.957 3.957h37.173c2.183 0 3.959-1.774 3.959-3.957v-4.519c1.609-0.039 2.909-1.357 2.909-2.977v-7.591c0-1.618-1.3-2.939-2.909-2.978zm0.91 10.569c0 0.541-0.438 0.979-0.979 0.979h-1.93v6.518c0 1.082-0.877 1.958-1.959 1.958h-37.173c-1.082 0-1.958-0.876-1.958-1.958v-22.538c0-1.082 0.877-1.959 1.958-1.959h37.173c1.082 0 1.959 0.877 1.959 1.959v6.471h1.93c0.541 0 0.979 0.438 0.979 0.979v7.591z"/>
   </g>
  </g>
 </g>
 <path id="path252" fill="url(#linearGradient2460)" d="m39.651 2.9765l0.003 1.9288 5.055-0.0125c0.839-0.0021 1.52 0.8727 1.521 1.954l0.056 37.149c0.001 1.082-0.677 1.959-1.516 1.961l-17.478 0.043c-0.839 0.002-1.521-0.873-1.522-1.953l-0.056-37.15c-0.001-1.0808 0.678-1.959 1.517-1.961l5.018-0.0124-0.003-1.9288c0-0.5407 0.339-0.9792 0.758-0.9803l5.886-0.0145c0.421-0.001 0.76 0.4359 0.761 0.9765zm-10.867 5.7892c-0.419 0.0011-0.758 0.4406-0.757 0.9803l0.046 31.404c0.001 0.541 0.341 0.978 0.761 0.977l14.528-0.036c0.419-0.001 0.759-0.441 0.758-0.981l-0.047-31.404c-0.001-0.5393-0.342-0.9772-0.76-0.9762l-14.529 0.0359z"/>
 <g id="Layer_7" transform="matrix(-.0014859 -.99944 .77554 -.0019149 24.225 48.006)">
  <g id="g255" opacity=".15">
   <g id="g257">
    <path id="path259" fill="#fff" d="m38.274 3.975h-31.424c-1.091 0-1.979 0.887-1.979 1.978v18.735c0 1.091 0.889 1.979 1.979 1.979h31.424c1.091 0 1.979-0.889 1.979-1.979v-18.735c0.001-1.091-0.888-1.978-1.979-1.978zm0.98 20.712c0 0.54-0.439 0.979-0.979 0.979h-31.424c-0.541 0-0.979-0.439-0.979-0.979v-18.733c0-0.541 0.439-0.979 0.979-0.979h31.424c0.54 0 0.979 0.438 0.979 0.979v18.733zm5.766-14.258h-1.93v-6.471c0-1.082-0.877-1.959-1.959-1.959h-37.173c-1.082 0-1.958 0.877-1.958 1.959v22.537c0 1.082 0.877 1.958 1.958 1.958h37.173c1.082 0 1.959-0.876 1.959-1.958v-6.518h1.93c0.541 0 0.979-0.438 0.979-0.979v-7.59c0-0.541-0.438-0.979-0.979-0.979zm-0.021 8.57l-1.909-0.021c-0.553 0-1 0.447-1 1v6.517c0 0.527-0.432 0.959-0.959 0.959h-37.174c-0.528 0-0.957-0.432-0.957-0.959v-22.537c0-0.527 0.429-0.958 0.957-0.958h37.174c0.527 0 0.959 0.431 0.959 0.959v6.471c0 0.553 0.447 1 1 1h1.931l-0.022 7.569z"/>
   </g>
  </g>
  <g id="g3341" opacity=".3">
   <g id="g3343">
    <path id="path3345" fill="#fff" d="m44.904 19.919c0.099-0.374 0.131-0.814 0.095-0.92l0.022-7.569h-1.931c-0.553 0-1-0.447-1-1v-6.471c0-0.528-0.432-0.959-0.959-0.959h-37.174c-0.6325 0.1059-1.2064-0.0211-1.8975 0.3176 0.407-0.7901 0.8165-1.3186 1.8985-1.3186h37.173c1.082 0 1.959 0.877 1.959 1.959v6.471h1.93c0.541 0 0.979 0.438 0.979 0.979v7.59c0 0.541-0.33 0.939-1.095 0.921zm-2.798 0.287l1-0.001-0.016 6.29c-0.114 0.768-0.407 1.758-1.466 1.882 0.41-0.941 0.466-1.882 0.466-1.882l0.016-6.289zm-5.831 5.456c0.717 0.024 1.201 0.056 1.994-0.011-0.407 0.623-1.136 0.604-1.994 0.605l-29.424 0.003c-0.8572-0.057-1.465-0.377-1.6395-1.57l-0.0038-16.735c0.0317-1.0331-0.0066-1.8297 0.7006-2.2381-0.081 0.669-0.0635 1.5778-0.0401 2.2381l0.0038 16.733c0 0.54 0.438 0.979 0.979 0.979l29.424-0.004z"/>
   </g>
  </g>
 </g>
 <path id="path269" fill="url(#linearGradient2450)" d="m29.15 41l-0.007-31 13.714 0.018v30.96l-13.707 0.022z"/>
 <path id="polygon271" opacity=".25" fill="#fff" d="m29.156 10v1 5 25h0.844v-29.781l12.844 0.031v-1.219l-13.688-0.031z"/>
 <path id="path2463" opacity=".3" d="m20.406 2.9062l-16.968 0.0313c-1.717 0.0042-3.4413 1.788-3.438 3.9687l0.0625 37.156c0.003289 2.182 1.721 3.942 3.4375 3.938l16.969-0.031c1.716-0.004 3.534-1.787 3.531-3.969l-0.062-37.156c-0.004-2.182-1.815-3.9419-3.532-3.9378zm0 2c0.851-0.002 1.561 0.8562 1.563 1.9376l0.031 37.156c0.002 1.081-0.68 1.967-1.531 1.969l-16.969 0.031c-0.8508 0.002-1.5296-0.857-1.5312-1.938l-0.0626-37.156c-0.0016-1.0811 0.6805-1.9664 1.5313-1.9685l16.968-0.0313z"/>
 <path id="path2465" fill="url(#linearGradient2445)" d="m20.469 5l-17 0.0312c-0.8161 0.0021-1.4706 0.8903-1.469 1.9688l0.0625 37.062c0.0016 1.078 0.6529 1.94 1.4687 1.938l17-0.031c0.816-0.002 1.471-0.891 1.469-1.969l-0.062-37.062c-0.002-1.079-0.653-1.9401-1.469-1.938zm-14.719 3.9837c0.5978 0.0265 1.1954-0.0555 1.7812 0.0625 0.6065 0.2602 0.439 0.9798 0.4688 1.4998 0.0045 0.527 0.0888 1.27-0.5938 1.406-0.6461 0.008-1.3017 0.079-1.9374-0.031-0.6473-0.301-0.42-1.091-0.4688-1.656-0.0519-0.5337 0.0497-1.2871 0.75-1.2813zm6 0c0.598 0.0265 1.195-0.0555 1.781 0.0625 0.607 0.2602 0.439 0.9798 0.469 1.4998 0.004 0.527 0.089 1.27-0.594 1.406-0.646 0.008-1.302 0.079-1.937-0.031-0.647-0.301-0.42-1.091-0.469-1.656-0.052-0.5337 0.05-1.2871 0.75-1.2813zm-6.25 6.0003h2c0.277 0 0.5 0.223 0.5 0.5v2c0 0.277-0.223 0.5-0.5 0.5h-2c-0.277 0-0.5-0.223-0.5-0.5v-2c0-0.277 0.223-0.5 0.5-0.5zm6 0h2c0.277 0 0.5 0.223 0.5 0.5v2c0 0.277-0.223 0.5-0.5 0.5h-2c-0.277 0-0.5-0.223-0.5-0.5v-2c0-0.277 0.223-0.5 0.5-0.5zm5 1.016h2c0.277 0 0.5 0.223 0.5 0.5v18c0 0.277-0.223 0.5-0.5 0.5h-2c-0.277 0-0.5-0.223-0.5-0.5v-18c0-0.277 0.223-0.5 0.5-0.5zm-11 4.984h2c0.277 0 0.5 0.223 0.5 0.5v2c0 0.277-0.223 0.5-0.5 0.5h-2c-0.277 0-0.5-0.223-0.5-0.5v-2c0-0.277 0.223-0.5 0.5-0.5zm6 0h2c0.277 0 0.5 0.223 0.5 0.5v2c0 0.277-0.223 0.5-0.5 0.5h-2c-0.277 0-0.5-0.223-0.5-0.5v-2c0-0.277 0.223-0.5 0.5-0.5zm-6 6h2c0.277 0 0.5 0.223 0.5 0.5v2c0 0.277-0.223 0.5-0.5 0.5h-2c-0.277 0-0.5-0.223-0.5-0.5v-2c0-0.277 0.223-0.5 0.5-0.5zm6 0h2c0.277 0 0.5 0.223 0.5 0.5v2c0 0.277-0.223 0.5-0.5 0.5h-2c-0.277 0-0.5-0.223-0.5-0.5v-2c0-0.277 0.223-0.5 0.5-0.5zm-6 6h2c0.277 0 0.5 0.223 0.5 0.5v2c0 0.277-0.223 0.5-0.5 0.5h-2c-0.277 0-0.5-0.223-0.5-0.5v-2c0-0.277 0.223-0.5 0.5-0.5zm6 0h2c0.277 0 0.5 0.223 0.5 0.5v2c0 0.277-0.223 0.5-0.5 0.5h-2c-0.277 0-0.5-0.223-0.5-0.5v-2c0-0.277 0.223-0.5 0.5-0.5zm-6 6h2c0.277 0 0.5 0.223 0.5 0.5v2c0 0.277-0.223 0.5-0.5 0.5h-2c-0.277 0-0.5-0.223-0.5-0.5v-2c0-0.277 0.223-0.5 0.5-0.5zm6 0h2c0.277 0 0.5 0.223 0.5 0.5v2c0 0.277-0.223 0.5-0.5 0.5h-2c-0.277 0-0.5-0.223-0.5-0.5v-2c0-0.277 0.223-0.5 0.5-0.5z"/>
 <g id="g2467" transform="matrix(-.0014446 -.99676 0.754 -.0019098 .55218 48.001)">
  <g id="g2469" opacity=".15">
   <g id="g2471">
    <path id="path2473" fill="#fff" d="m43.09 3.958c0-1.082-0.877-1.959-1.959-1.959h-37.173c-1.082 0-1.958 0.877-1.958 1.959v22.537c0 1.082 0.877 1.958 1.958 1.958h37.173c1.082 0 1.959-0.876 1.959-1.958v-22.537zm-1 22.537c0 0.527-0.432 0.959-0.959 0.959h-37.174c-0.528 0-0.957-0.432-0.957-0.959v-22.537c0-0.527 0.429-0.958 0.957-0.958h37.174c0.527 0 0.959 0.431 0.959 0.959v22.536z"/>
   </g>
  </g>
  <g id="g2475" opacity=".3">
   <g id="g2477">
    <path id="path2479" fill="#fff" d="m42.09 3.959c0-0.528-0.432-0.959-0.959-0.959h-37.174c-0.6325 0.1059-1.2064-0.0211-1.8975 0.3176 0.407-0.7901 0.8165-1.3186 1.8985-1.3186h37.173c1.082 0 1.959 0.877 1.959 1.959l-1 0.001zm1 22.536c-0.114 0.768-0.407 1.758-1.466 1.882 0.41-0.941 0.466-1.882 0.466-1.882h1z"/>
   </g>
  </g>
 </g>
 <path id="path3317" opacity=".3" stroke-linejoin="miter" style="enable-background:accumulate;" marker-end="none" d="m5.5 14.553c-0.925-0.008-1.0373 0.992-0.9688 1.695 0.0646 0.745-0.2622 1.769 0.5926 2.166 0.8398 0.144 1.7174 0.066 2.5708 0.056 0.9015-0.179 0.78-1.179 0.7742-1.874-0.0395-0.685 0.2084-1.624-0.5926-1.967-0.7739-0.155-1.5865-0.041-2.3762-0.076z" marker-start="none" stroke-dashoffset="0" marker-mid="none" stroke="url(#linearGradient3319)" stroke-linecap="butt" stroke-miterlimit="4" stroke-width=".99999" fill="none"/>
 <path id="path3315" opacity=".3" stroke-linejoin="miter" style="enable-background:accumulate;" marker-end="none" d="m11.5 14.553c-0.925-0.008-1.037 0.992-0.969 1.695 0.065 0.745-0.262 1.769 0.593 2.166 0.84 0.144 1.717 0.066 2.571 0.056 0.901-0.179 0.78-1.179 0.774-1.874-0.04-0.685 0.208-1.624-0.593-1.967-0.774-0.155-1.586-0.041-2.376-0.076z" marker-start="none" stroke-dashoffset="0" marker-mid="none" stroke="url(#linearGradient3327)" stroke-linecap="butt" stroke-miterlimit="4" stroke-width=".99999" fill="none"/>
 <path id="path3313" opacity=".3" stroke-linejoin="miter" style="enable-background:accumulate;" marker-end="none" d="m16.5 15.531c-0.925-0.007-1.037 0.992-0.969 1.696v17.273c-0.007 0.925 0.992 1.037 1.696 0.969 0.744-0.065 1.768 0.262 2.165-0.593 0.162-1.011 0.038-2.058 0.077-3.085v-15.291c0.007-0.925-0.992-1.037-1.696-0.969h-1.273z" marker-start="none" stroke-dashoffset="0" marker-mid="none" stroke="url(#linearGradient3325)" stroke-linecap="butt" stroke-miterlimit="4" stroke-width=".99999" fill="none"/>
 <path id="path3311" opacity=".3" stroke-linejoin="miter" style="enable-background:accumulate;" marker-end="none" d="m5.5 20.553c-0.925-0.008-1.0373 0.992-0.9688 1.695 0.0646 0.745-0.2622 1.769 0.5926 2.166 0.8398 0.144 1.7174 0.066 2.5708 0.056 0.9015-0.179 0.78-1.179 0.7742-1.874-0.0395-0.685 0.2084-1.624-0.5926-1.967-0.7739-0.155-1.5865-0.041-2.3762-0.076z" marker-start="none" stroke-dashoffset="0" marker-mid="none" stroke="url(#linearGradient3321)" stroke-linecap="butt" stroke-miterlimit="4" stroke-width=".99999" fill="none"/>
 <path id="path3309" opacity=".3" stroke-linejoin="miter" style="enable-background:accumulate;" marker-end="none" d="m11.5 20.553c-0.925-0.008-1.037 0.992-0.969 1.695 0.065 0.745-0.262 1.769 0.593 2.166 0.84 0.144 1.717 0.066 2.571 0.056 0.901-0.179 0.78-1.179 0.774-1.874-0.04-0.685 0.208-1.624-0.593-1.967-0.774-0.155-1.586-0.041-2.376-0.076z" marker-start="none" stroke-dashoffset="0" marker-mid="none" stroke="url(#linearGradient3323)" stroke-linecap="butt" stroke-miterlimit="4" stroke-width=".99999" fill="none"/>
 <path id="path3307" opacity=".3" stroke-linejoin="miter" style="enable-background:accumulate;" marker-end="none" d="m5.5 26.553c-0.925-0.008-1.0373 0.992-0.9688 1.695 0.0646 0.745-0.2622 1.769 0.5926 2.166 0.8398 0.144 1.7174 0.066 2.5708 0.056 0.9015-0.179 0.78-1.179 0.7742-1.874-0.0395-0.685 0.2084-1.624-0.5926-1.967-0.7739-0.155-1.5865-0.041-2.3762-0.076z" marker-start="none" stroke-dashoffset="0" marker-mid="none" stroke="url(#linearGradient3329)" stroke-linecap="butt" stroke-miterlimit="4" stroke-width=".99999" fill="none"/>
 <path id="path3305" opacity=".3" stroke-linejoin="miter" style="enable-background:accumulate;" marker-end="none" d="m11.5 26.553c-0.925-0.008-1.037 0.992-0.969 1.695 0.065 0.745-0.262 1.769 0.593 2.166 0.84 0.144 1.717 0.066 2.571 0.056 0.901-0.179 0.78-1.179 0.774-1.874-0.04-0.685 0.208-1.624-0.593-1.967-0.774-0.155-1.586-0.041-2.376-0.076z" marker-start="none" stroke-dashoffset="0" marker-mid="none" stroke="url(#linearGradient3331)" stroke-linecap="butt" stroke-miterlimit="4" stroke-width=".99999" fill="none"/>
 <path id="path3303" opacity=".3" stroke-linejoin="miter" style="enable-background:accumulate;" marker-end="none" d="m5.5 32.553c-0.925-0.008-1.0373 0.992-0.9688 1.695 0.0646 0.745-0.2622 1.769 0.5926 2.166 0.8398 0.144 1.7174 0.066 2.5708 0.056 0.9015-0.179 0.78-1.179 0.7742-1.874-0.0395-0.685 0.2084-1.624-0.5926-1.967-0.7739-0.155-1.5865-0.041-2.3762-0.076z" marker-start="none" stroke-dashoffset="0" marker-mid="none" stroke="url(#linearGradient3333)" stroke-linecap="butt" stroke-miterlimit="4" stroke-width=".99999" fill="none"/>
 <path id="path3301" opacity=".3" stroke-linejoin="miter" style="enable-background:accumulate;" marker-end="none" d="m11.5 32.553c-0.925-0.008-1.037 0.992-0.969 1.695 0.065 0.745-0.262 1.769 0.593 2.166 0.84 0.144 1.717 0.066 2.571 0.056 0.901-0.179 0.78-1.179 0.774-1.874-0.04-0.685 0.208-1.624-0.593-1.967-0.774-0.155-1.586-0.041-2.376-0.076z" marker-start="none" stroke-dashoffset="0" marker-mid="none" stroke="url(#linearGradient3335)" stroke-linecap="butt" stroke-miterlimit="4" stroke-width=".99999" fill="none"/>
 <path id="path3299" opacity=".3" stroke-linejoin="miter" style="enable-background:accumulate;" marker-end="none" d="m5.5 38.553c-0.925-0.008-1.0373 0.992-0.9688 1.695 0.0646 0.745-0.2622 1.769 0.5926 2.166 0.8398 0.144 1.7174 0.066 2.5708 0.056 0.9015-0.179 0.78-1.179 0.7742-1.874-0.0395-0.685 0.2084-1.624-0.5926-1.967-0.7739-0.155-1.5865-0.041-2.3762-0.076z" marker-start="none" stroke-dashoffset="0" marker-mid="none" stroke="url(#linearGradient3339)" stroke-linecap="butt" stroke-miterlimit="4" stroke-width=".99999" fill="none"/>
 <path id="path3284" opacity=".3" stroke-linejoin="miter" style="enable-background:accumulate;" marker-end="none" d="m11.5 38.553c-0.925-0.008-1.037 0.992-0.969 1.695 0.065 0.745-0.262 1.769 0.593 2.166 0.84 0.144 1.717 0.066 2.571 0.056 0.901-0.179 0.78-1.179 0.774-1.874-0.04-0.685 0.208-1.624-0.593-1.967-0.774-0.155-1.586-0.041-2.376-0.076z" marker-start="none" stroke-dashoffset="0" marker-mid="none" stroke="url(#linearGradient3337)" stroke-linecap="butt" stroke-miterlimit="4" stroke-width=".99999" fill="none"/>
 <path id="path3341" opacity=".3" stroke-linejoin="miter" style="enable-background:accumulate;" marker-end="none" d="m5.5 8.5741c-0.925-0.0077-1.0373 0.992-0.9688 1.6959 0.0646 0.744-0.2622 1.768 0.5926 2.165 0.8398 0.144 1.7174 0.066 2.5708 0.057 0.9015-0.18 0.78-1.18 0.7742-1.874-0.0395-0.6855 0.2084-1.6243-0.5926-1.9674-0.7739-0.1556-1.5865-0.0416-2.3762-0.0765z" marker-start="none" stroke-dashoffset="0" marker-mid="none" stroke="url(#linearGradient3345)" stroke-linecap="butt" stroke-miterlimit="4" stroke-width=".99999" fill="none"/>
 <path id="path3343" opacity=".3" stroke-linejoin="miter" style="enable-background:accumulate;" marker-end="none" d="m11.5 8.5741c-0.925-0.0077-1.037 0.992-0.969 1.6959 0.065 0.744-0.262 1.768 0.593 2.165 0.84 0.144 1.717 0.066 2.571 0.057 0.901-0.18 0.78-1.18 0.774-1.874-0.04-0.6855 0.208-1.6243-0.593-1.9674-0.774-0.1556-1.586-0.0416-2.376-0.0765z" marker-start="none" stroke-dashoffset="0" marker-mid="none" stroke="url(#linearGradient3347)" stroke-linecap="butt" stroke-miterlimit="4" stroke-width=".99999" fill="none"/>
</svg>
