<?xml version="1.0" encoding="UTF-8" standalone="no"?>
<!-- Generator: Adobe Illustrator 13.0.0, SVG Export Plug-In . SVG Version: 6.00 Build 14576)  -->
<svg id="svg2" xmlns:rdf="http://www.w3.org/1999/02/22-rdf-syntax-ns#" xmlns="http://www.w3.org/2000/svg" enable-background="new 0 0 35.291 47.998" xml:space="preserve" height="47.998" width="48" version="1.0" y="0px" x="0px" xmlns:cc="http://creativecommons.org/ns#" xmlns:dc="http://purl.org/dc/elements/1.1/" viewBox="0 0 35.291 47.998"><metadata id="metadata286"><rdf:RDF><cc:Work rdf:about=""><dc:format>image/svg+xml</dc:format><dc:type rdf:resource="http://purl.org/dc/dcmitype/StillImage"/></cc:Work></rdf:RDF></metadata><defs id="defs284"><linearGradient id="usb_1_" y2="1464.8" gradientUnits="userSpaceOnUse" x2="286.65" y1="1489.8" x1="286.65">
			<stop id="stop2207" stop-color="#262626" offset="0"/>
			<stop id="stop2209" stop-color="#5C5C5C" offset=".989"/>
		</linearGradient><linearGradient id="SVGID_35_" y2="1455.5" gradientUnits="userSpaceOnUse" x2="271.08" y1="1498.6" x1="302.34">
				<stop id="stop2188" stop-color="#9B9B9B" offset="0"/>
				<stop id="stop2190" stop-color="#ECECEC" offset="1"/>
			</linearGradient></defs>
<g id="Layer_20" transform="translate(-268.42 -1453)">
	<g id="g2177">
		<g id="g2179" opacity=".3">
			<g id="g2181">
				<path id="path2183" d="m301.35 1453h-29.28c-1.66 0-3.01 1.4-3.01 3v42c0 1.7 1.35 3 3.01 3h29.28c1.66 0 3.01-1.3 3.01-3v-42c0-1.6-1.35-3-3.01-3zm1.01 45c0 0.6-0.45 1-1.01 1h-29.28c-0.56 0-1.01-0.4-1.01-1v-42c0-0.5 0.45-1 1.01-1h29.28c0.56 0 1.01 0.5 1.01 1v42z"/>
			</g>
		</g>
		<g id="g2185">
			<path id="path2192" fill="url(#SVGID_35_)" d="m302.36 1498c0 0.6-0.45 1-1.01 1h-29.28c-0.56 0-1.01-0.4-1.01-1v-42c0-0.5 0.45-1 1.01-1h29.28c0.56 0 1.01 0.5 1.01 1v42z"/>
		</g>
		<g id="g2194" opacity=".2">
			<g id="g2196">
				<path id="path2198" fill="#fff" d="m301.35 1455h-29.28c-0.56 0-1.01 0.5-1.01 1v42c0 0.6 0.45 1 1.01 1h29.28c0.56 0 1.01-0.4 1.01-1v-42c0-0.5-0.45-1-1.01-1zm0 43h-29.28l-0.01-42h29.29l0.01 42h-0.01z"/>
			</g>
		</g>
		<g id="g2200" opacity=".2">
			<g id="g2202">
				<path id="path2204" fill="#fff" d="m272.06 1456h30.29c0-0.5-0.45-1-1-1h-29.28c-0.56 0-1.01 0.5-1.01 1v42c0 0.6 0.45 1 1.01 1l-0.01-43z"/>
			</g>
		</g>
		<path id="usb_2_" fill="url(#usb_1_)" d="m294.66 1470.9h-4.71v4.7h1.63c-0.14 2.8-1.8 2.9-3.26 3.1h-0.26v-9.3h2.36l-3.29-4.6-3.31 4.6h2.36v12.1h-0.33c-1.41-0.2-2.99-0.4-3.24-2.8 0.99-0.5 1.68-1.5 1.68-2.6 0-1.6-1.27-2.8-2.83-2.8s-2.83 1.2-2.83 2.8c0 1.5 1.13 2.7 2.58 2.8 0.36 3.1 2.49 3.7 3.93 3.9-1.08 0.7-1.8 1.8-1.8 3.2 0 2.1 1.69 3.8 3.78 3.8 2.08 0 3.77-1.7 3.77-3.8 0-1.8-1.2-3.2-2.83-3.6v-2.3h0.4c1.43-0.1 4.35-0.5 4.53-4.5h1.67v-4.7z"/>
		<path id="path2212" opacity=".6" fill="#fff" d="m280.33 1478.7c0.27 0.2 0.58 0.3 0.92 0.4-0.01 0-0.03-0.1-0.04-0.2-0.31 0-0.6-0.1-0.88-0.2zm4.56 4.3c0.08-0.1 0.16-0.2 0.25-0.2-0.51-0.1-1.11-0.2-1.69-0.5 0.46 0.3 0.96 0.5 1.44 0.7zm5.64-7h1.02c0.01-0.2 0.03-0.3 0.03-0.4h-1.05v0.4zm-2.47-6.6v9.3h0.26 0.32v-9h2.36l-3.28-4.6-0.18 0.3 2.88 4h-2.36zm-4.87 9.6c0.99-0.4 1.68-1.4 1.68-2.6s-0.72-2.2-1.75-2.6c0.71 0.5 1.17 1.4 1.17 2.3 0 1.1-0.69 2.1-1.68 2.6 0.15 1.5 0.79 2.1 1.59 2.4-0.51-0.4-0.9-1-1.01-2.1zm11.47-7.8v4.4h-1.66c-0.19 4-3.11 4.3-4.54 4.5h-0.4v2.3c0.2 0 0.4 0.1 0.59 0.2v-2.1c0.12 0 0.26-0.1 0.4-0.1 1.43-0.1 4.34-0.4 4.53-4.4h1.67v-4.8h-0.59zm-8.48-1.8h-1.54l-0.24 0.3h1.78v-0.3zm3.07 13.5c0.99 0.7 1.64 1.8 1.64 3.1 0 2.1-1.69 3.8-3.77 3.8-0.57 0-1.1-0.2-1.58-0.4 0.61 0.4 1.35 0.7 2.16 0.7 2.09 0 3.78-1.7 3.78-3.8 0-1.5-0.92-2.8-2.23-3.4z"/>
	</g>
</g></svg>
