<?xml version="1.0" encoding="UTF-8" standalone="no"?>
<!-- Created with Inkscape (http://www.inkscape.org/) -->
<svg id="svg2050" xmlns:rdf="http://www.w3.org/1999/02/22-rdf-syntax-ns#" xmlns="http://www.w3.org/2000/svg" xml:space="preserve" height="48" width="47.998" version="1.0" xmlns:cc="http://creativecommons.org/ns#" xmlns:dc="http://purl.org/dc/elements/1.1/" viewBox="0 0 47.998 42.362"><metadata id="metadata146"><rdf:RDF><cc:Work rdf:about=""><dc:format>image/svg+xml</dc:format><dc:type rdf:resource="http://purl.org/dc/dcmitype/StillImage"/></cc:Work></rdf:RDF></metadata>
<g id="Layer_2" transform="translate(0 2.945)">
	<g id="g2286" opacity=".3">
		<g id="g2288">
			<path id="path2290" d="m44.842 12.742c1.741 0 3.156-1.416 3.156-3.157v-1.545c0-1.741-1.415-3.157-3.156-3.157h-9.71v-1.988c0-1.598-1.298-2.895-2.893-2.895h-10.006c-0.188 0-0.377 0.019-0.565 0.058-7.5 0.582-13.811 5.546-16.182 12.583h-1.958c-1.945 0-3.528 1.583-3.528 3.53v4.896c0 1.945 1.583 3.528 3.528 3.528h1.96c2.368 7.037 8.68 12.002 16.179 12.583 0.188 0.039 0.378 0.058 0.565 0.058h10.006c1.595 0 2.893-1.297 2.893-2.893v-1.988h9.71c1.741 0 3.156-1.418 3.156-3.159v-1.543c0-1.741-1.415-3.157-3.156-3.157h-9.71v-11.754h9.711zm-0.001 13.753c0.64 0 1.158 0.519 1.158 1.158v1.544c0 0.64-0.519 1.158-1.158 1.158h-11.708v3.989c0 0.492-0.399 0.893-0.894 0.893h-10.007c-0.087 0-0.17-0.016-0.25-0.04-7.297-0.496-13.301-5.7-14.996-12.601h-3.457c-0.845 0-1.53-0.685-1.53-1.529v-4.897c0-0.845 0.685-1.53 1.53-1.53h3.458c1.695-6.899 7.699-12.104 14.995-12.6 0.08-0.024 0.163-0.04 0.25-0.04h10.007c0.494 0 0.894 0.4 0.894 0.894v3.988h11.708c0.64 0 1.158 0.519 1.158 1.158v1.544c0 0.639-0.519 1.158-1.158 1.158h-11.708v15.751h11.708v0.002z"/>
		</g>
	</g>
</g>
<g id="Layer_1" transform="translate(0 2.945)">
	<g id="g2293">
		<linearGradient id="SVGID_1_" y2="3.3749" gradientUnits="userSpaceOnUse" x2="15.834" y1="35.006" x1="38.815">
			<stop id="stop2296" stop-color="#9b9b9b" offset="0"/>
			<stop id="stop2298" stop-color="#ececec" offset="1"/>
		</linearGradient>
		<path id="path2300" fill="url(#SVGID_1_)" d="m44.841 10.743c0.64 0 1.158-0.519 1.158-1.158v-1.544c0-0.64-0.519-1.158-1.158-1.158h-11.708v-3.989c0-0.494-0.4-0.894-0.894-0.894h-10.007c-0.087 0-0.17 0.016-0.25 0.04-7.296 0.496-13.3 5.701-14.995 12.601h-3.458c-0.845 0-1.53 0.685-1.53 1.53v4.896c0 0.845 0.685 1.529 1.53 1.529h3.458c1.695 6.9 7.699 12.104 14.996 12.601 0.08 0.024 0.163 0.04 0.25 0.04h10.007c0.494 0 0.894-0.4 0.894-0.893v-3.989h11.708c0.64 0 1.158-0.519 1.158-1.158v-1.544c0-0.64-0.519-1.158-1.158-1.158h-11.709v-15.752h11.708z"/>
	</g>
</g>
<g id="Layer_3">
</g>
<g id="Layer_4" transform="translate(0 2.945)">
	<g id="g2304" opacity=".4">
		<path id="path2306" fill="#fff" d="m45.959 7.842c-0.098-0.541-0.549-0.959-1.118-0.959h-11.093v0.833h11.708c0.183 0 0.35 0.051 0.503 0.126zm-1.118 18.653h-11.093v0.834h11.708c0.183 0 0.35 0.051 0.503 0.126-0.097-0.541-0.549-0.96-1.118-0.96zm-37.613-3.065c0.606 2.004 1.578 3.846 2.842 5.451-1.127-1.632-1.98-3.468-2.467-5.451h-0.375zm25.011-21.43h-10.007c-0.087 0-0.17 0.016-0.25 0.04-7.296 0.496-13.3 5.701-14.995 12.601h-3.458c-0.845 0-1.53 0.685-1.53 1.53v4.896c0 0.533 0.274 1.002 0.688 1.275-0.042-0.141-0.072-0.287-0.072-0.441v-4.897c0-0.845 0.685-1.53 1.53-1.53h3.458c1.694-6.899 7.698-12.104 14.995-12.6 0.08-0.024 0.163-0.04 0.25-0.04h10.007c0.099 0 0.188 0.026 0.277 0.056-0.003-0.493-0.401-0.89-0.893-0.89z"/>
	</g>
</g>
<g id="Layer_5">
</g>
<g id="Layer_6" transform="translate(0 2.945)">
	<g id="g2310" opacity=".2">
		<g id="g2312">
			<path id="path2314" fill="#fff" d="m44.841 10.743c0.64 0 1.158-0.519 1.158-1.158v-1.544c0-0.64-0.519-1.158-1.158-1.158h-11.708v-3.989c0-0.494-0.4-0.894-0.894-0.894h-10.007c-0.087 0-0.17 0.016-0.25 0.04-7.296 0.496-13.3 5.701-14.995 12.601h-3.458c-0.845 0-1.53 0.685-1.53 1.53v4.896c0 0.845 0.685 1.529 1.53 1.529h3.458c1.695 6.9 7.699 12.104 14.996 12.601 0.08 0.024 0.163 0.04 0.25 0.04h10.007c0.494 0 0.894-0.4 0.894-0.893v-3.989h11.708c0.64 0 1.158-0.519 1.158-1.158v-1.544c0-0.64-0.519-1.158-1.158-1.158h-11.709v-15.752h11.708zm-11.708 16.751h11.707c0.089 0 0.159 0.07 0.159 0.159v1.545c0 0.088-0.07 0.156-0.159 0.156h-11.707c-0.553 0-1 0.447-1 1v3.884h-9.9c-0.068-0.021-0.109-0.033-0.182-0.039-6.803-0.463-12.466-5.22-14.093-11.842-0.109-0.445-0.512-0.761-0.972-0.761h-3.458c-0.293 0-0.53-0.237-0.53-0.53v-4.896c0-0.292 0.237-0.53 0.53-0.53h3.458c0.46 0 0.862-0.315 0.972-0.761 1.627-6.621 7.29-11.379 14.093-11.84 0.072-0.006 0.165-0.025 0.233-0.045l9.849 0.006v3.883c0 0.553 0.447 1 1 1h11.707c0.089 0 0.159 0.07 0.159 0.159v1.542c0 0.089-0.07 0.159-0.159 0.159h-11.707c-0.553 0-1 0.448-1 1v15.751c0 0.552 0.447 1 1 1z"/>
		</g>
	</g>
</g>
<g id="Layer_7" fill="none" transform="translate(0 2.945)">
	<line id="line2317" y2="30.696" x2="28.281" stroke="#919191" y1="5.862" x1="28.281"/>
	<line id="line2319" opacity=".3" y2="30.696" x2="29.052" stroke="#fff" y1="5.862" x1="29.052"/>
	<line id="line2321" y2="30.696" x2="25.281" stroke="#919191" y1="5.862" x1="25.281"/>
	<line id="line2323" opacity=".3" y2="30.696" x2="26.052" stroke="#fff" y1="5.862" x1="26.052"/>
</g>
</svg>
