<?xml version="1.0" encoding="UTF-8" standalone="no"?>
<!-- Generator: Adobe Illustrator 13.0.0, SVG Export Plug-In . SVG Version: 6.00 Build 14576)  -->
<svg id="svg2" xmlns:rdf="http://www.w3.org/1999/02/22-rdf-syntax-ns#" xmlns="http://www.w3.org/2000/svg" enable-background="new 0 0 45.662 48" xml:space="preserve" height="48" width="48" version="1.0" y="0px" x="0px" xmlns:cc="http://creativecommons.org/ns#" xmlns:dc="http://purl.org/dc/elements/1.1/" viewBox="0 0 45.662 48"><metadata id="metadata266"><rdf:RDF><cc:Work rdf:about=""><dc:format>image/svg+xml</dc:format><dc:type rdf:resource="http://purl.org/dc/dcmitype/StillImage"/></cc:Work></rdf:RDF></metadata>
<g id="Layer_2">
	<g id="g238" opacity=".3">
		<g id="g240">
			<path id="path242" d="m42.355 0.001h-7.722c-1.822 0-3.307 1.345-3.307 2.998v42.001c0 1.652 1.484 2.998 3.307 2.998h7.722c1.823 0 3.307-1.346 3.307-2.998v-42.001c0-1.653-1.484-2.998-3.307-2.998zm1.103 44.999c0 0.553-0.493 1-1.103 1h-7.721c-0.609 0-1.103-0.447-1.103-1v-42c0-0.552 0.493-1 1.103-1h7.721c0.609 0 1.103 0.448 1.103 1v42zm-38.24-44.174c-0.882-0.826-2.197-1.06-3.332-0.577-1.13 0.477-1.873 1.581-1.886 2.812v41.861c0.013 1.245 0.752 2.348 1.884 2.832 1.146 0.48 2.456 0.244 3.352-0.595l22.745-20.869c0.495-0.449 0.836-1.065 0.958-1.728 0.032-0.17 0.05-0.368 0.05-0.567 0-0.876-0.374-1.713-1.03-2.298l-22.741-20.871zm21.684 23.368c-0.041 0.224-0.155 0.427-0.323 0.58l-22.764 20.886c-0.299 0.282-0.738 0.361-1.117 0.2-0.379-0.16-0.626-0.53-0.629-0.939v-41.84c0.003-0.411 0.251-0.778 0.63-0.939s0.818-0.083 1.117 0.199l22.763 20.887c0.27 0.244 0.393 0.61 0.323 0.966z"/>
		</g>
	</g>
</g>
<g id="Layer_1">
	<g id="g245">
			<linearGradient id="SVGID_1_" y2="-0.638" gradientUnits="userSpaceOnUse" x2="66.912" gradientTransform="matrix(-1.1029 0 0 1 82.355 0)" y1="48.662" x1="41.105">
			<stop id="stop248" stop-color="#9B9B9B" offset="0"/>
			<stop id="stop250" stop-color="#ECECEC" offset="1"/>
		</linearGradient>
		<path id="path252" fill="url(#SVGID_1_)" d="m33.532 45v-42c0-0.552 0.493-1 1.103-1h7.721c0.609 0 1.103 0.448 1.103 1v42c0 0.553-0.493 1-1.103 1h-7.721c-0.61 0-1.103-0.447-1.103-1zm-31.463-0.079v-41.84c0.003-0.411 0.251-0.778 0.63-0.939s0.818-0.083 1.117 0.199l22.763 20.887c0.271 0.244 0.394 0.61 0.323 0.966-0.041 0.224-0.155 0.427-0.323 0.58l-22.764 20.886c-0.299 0.282-0.738 0.361-1.117 0.2-0.378-0.16-0.626-0.53-0.629-0.939z"/>
	</g>
</g>
<g id="Layer_3">
</g>
<g id="Layer_4">
	<path id="path256" opacity=".4" fill="#a8a8a8" d="m2.069 44.921v-0.019c0.26 0 0.516-0.087 0.711-0.271l22.763-20.888c0.169-0.152 0.283-0.356 0.323-0.579 0.049-0.242 0-0.485-0.115-0.694l0.827 0.758c0.271 0.244 0.394 0.61 0.323 0.966-0.041 0.224-0.155 0.427-0.323 0.58l-22.763 20.886c-0.299 0.282-0.738 0.361-1.117 0.2-0.378-0.16-0.626-0.53-0.629-0.939z"/>
	<path id="path258" opacity=".4" fill="#fff" d="m33.532 45v-42c0-0.552 0.493-1 1.103-1h7.721c0.609 0 1.103 0.448 1.103 1h-7.721c-0.609 0-1.103 0.448-1.103 1v42c-0.61 0-1.103-0.447-1.103-1z"/>
</g>
<g id="Layer_5">
	<path id="path3302_2_" opacity=".3" fill="#fff" d="m3.622 45.79c-0.279 0.163-0.63 0.193-0.938 0.063-0.379-0.16-0.611-0.523-0.614-0.933v-41.839c0.002-0.411 0.235-0.772 0.614-0.934 0.308-0.129 0.659-0.098 0.938 0.065-0.32 0.181-0.515 0.499-0.518 0.869v41.84c0.003 0.37 0.198 0.689 0.518 0.869z"/>
	<rect id="rect3406_2_" opacity=".3" height="42" width="1.103" y="3" x="42.355" enable-background="new    " fill="#8c8c8c"/>
</g>
</svg>
