<?xml version="1.0" encoding="UTF-8" standalone="no"?>
<!-- Generator: Adobe Illustrator 13.0.0, SVG Export Plug-In . SVG Version: 6.00 Build 14576)  -->
<svg id="svg2" xmlns:rdf="http://www.w3.org/1999/02/22-rdf-syntax-ns#" xmlns="http://www.w3.org/2000/svg" enable-background="new 0 0 47.998 46.771" xml:space="preserve" height="48" width="47.998" version="1.0" y="0px" x="0px" xmlns:cc="http://creativecommons.org/ns#" xmlns:xlink="http://www.w3.org/1999/xlink" viewBox="0 0 47.998 46.771" xmlns:dc="http://purl.org/dc/elements/1.1/"><metadata id="metadata324"><rdf:RDF><cc:Work rdf:about=""><dc:format>image/svg+xml</dc:format><dc:type rdf:resource="http://purl.org/dc/dcmitype/StillImage"/></cc:Work></rdf:RDF></metadata><defs id="defs322">
			<linearGradient id="linearGradient2829" y2="3.6406" gradientUnits="userSpaceOnUse" x2="24" y1="44.771" x1="24"><stop id="stop272" stop-color="#9B9B9B" offset="0"/><stop id="stop274" stop-color="#ECECEC" offset="1"/></linearGradient>
		</defs>
<g id="Layer_2" opacity=".3">
	<g id="g238">
		<g id="g240">
			<path id="path242" d="m44.087 1.642h-5.74c-2.158 0-3.912 1.753-3.912 3.912v5.169c-0.548-0.292-1.164-0.474-1.827-0.474h-5.739c-2.157 0-3.913 1.756-3.913 3.914v5.169c-0.547-0.292-1.163-0.474-1.826-0.474h-5.74c-2.158 0-3.912 1.756-3.912 3.914v5.169c-0.548-0.292-1.164-0.474-1.828-0.474h-5.738c-2.159 0-3.912 1.753-3.912 3.911v11.479c0 2.158 1.753 3.914 3.912 3.914h5.739c1.138 0 2.154-0.496 2.87-1.273 0.715 0.777 1.731 1.273 2.869 1.273h5.739c1.138 0 2.154-0.496 2.869-1.273 0.716 0.777 1.732 1.273 2.87 1.273h5.739c1.138 0 2.154-0.496 2.869-1.273 0.716 0.777 1.731 1.273 2.87 1.273h5.74c2.157 0 3.911-1.754 3.911-3.912v-37.305c0.001-2.158-1.753-3.912-3.91-3.912zm-32.523 41.216c0 1.057-0.857 1.913-1.913 1.913h-5.739c-1.057 0-1.913-0.856-1.913-1.913v-11.479c0-1.057 0.856-1.913 1.913-1.913h5.739c1.056 0 1.913 0.856 1.913 1.913v11.479zm11.478 0c0 1.057-0.856 1.913-1.913 1.913h-5.739c-1.056 0-1.913-0.856-1.913-1.913v-20.087c0-1.057 0.857-1.913 1.913-1.913h5.739c1.057 0 1.913 0.856 1.913 1.913v20.087zm11.479 0c0 1.057-0.856 1.913-1.913 1.913h-5.739c-1.056 0-1.913-0.856-1.913-1.913v-28.696c0-1.057 0.857-1.913 1.913-1.913h5.739c1.057 0 1.913 0.856 1.913 1.913v28.696zm11.478 0c0 1.057-0.856 1.913-1.913 1.913h-5.739c-1.057 0-1.913-0.856-1.913-1.913v-37.305c0-1.056 0.856-1.913 1.913-1.913h5.739c1.057 0 1.913 0.857 1.913 1.913v37.305z"/>
		</g>
	</g>
</g>
<g id="g2885"><path id="path2873" fill="url(#linearGradient2829)" d="m21.129 20.858h-5.739c-1.056 0-1.913 0.856-1.913 1.913v20.087c0 1.057 0.857 1.913 1.913 1.913h5.739c1.057 0 1.913-0.856 1.913-1.913v-20.087c0-1.057-0.856-1.913-1.913-1.913z"/><path id="path2859" opacity=".4" fill="#fff" d="m21.129 20.858h-5.739c-1.056 0-1.913 0.856-1.913 1.913v20.087c0 0.432 0.148 0.825 0.389 1.145-0.087-0.219-0.139-0.457-0.139-0.707v-20.088c0-1.057 0.857-1.913 1.913-1.913h5.739c0.625 0 1.175 0.304 1.524 0.769-0.281-0.706-0.967-1.206-1.774-1.206z"/></g><g id="g2877" opacity=".3"><path id="path276" fill="url(#linearGradient2829)" d="m44.086 3.64h-5.739c-1.057 0-1.913 0.857-1.913 1.913v37.305c0 1.057 0.856 1.913 1.913 1.913h5.739c1.057 0 1.913-0.856 1.913-1.913v-37.305c0-1.056-0.856-1.913-1.913-1.913z"/><path id="path2857" opacity=".4" fill="#fff" d="m44.086 3.64h-5.739c-1.057 0-1.913 0.857-1.913 1.913v37.305c0 0.432 0.147 0.825 0.389 1.145-0.087-0.219-0.139-0.457-0.139-0.707v-37.305c0-1.056 0.856-1.913 1.913-1.913h5.739c0.625 0 1.175 0.305 1.524 0.769-0.281-0.706-0.967-1.207-1.774-1.207z"/></g><g id="g2889"><path id="path2875" fill="url(#linearGradient2829)" d="m9.651 29.466h-5.739c-1.057 0-1.913 0.856-1.913 1.913v11.479c0 1.057 0.856 1.913 1.913 1.913h5.739c1.056 0 1.913-0.856 1.913-1.913v-11.479c0-1.056-0.856-1.913-1.913-1.913z"/><path id="path2855" opacity=".4" fill="#fff" d="m9.651 29.466h-5.739c-1.057 0-1.913 0.856-1.913 1.913v11.479c0 0.432 0.148 0.825 0.389 1.145-0.087-0.219-0.139-0.457-0.139-0.707v-11.479c0-1.057 0.856-1.913 1.913-1.913h5.739c0.625 0 1.175 0.305 1.524 0.769-0.281-0.707-0.968-1.207-1.774-1.207z"/></g><g id="g2881" opacity=".3"><path id="path2871" fill="url(#linearGradient2829)" d="m32.607 12.249h-5.739c-1.056 0-1.913 0.856-1.913 1.913v28.696c0 1.057 0.857 1.913 1.913 1.913h5.739c1.057 0 1.913-0.856 1.913-1.913v-28.696c0.001-1.057-0.856-1.913-1.913-1.913z"/><path id="path290" opacity=".4" fill="#fff" d="m32.607 12.249h-5.739c-1.056 0-1.913 0.856-1.913 1.913v28.696c0 0.431 0.148 0.824 0.389 1.145-0.087-0.219-0.139-0.457-0.139-0.707v-28.696c0-1.057 0.857-1.913 1.913-1.913h5.739c0.625 0 1.175 0.304 1.524 0.768-0.28-0.706-0.967-1.206-1.774-1.206z"/></g>
<g id="Layer_5">
	<g id="Layer_8">
		<g id="g294" opacity=".3">
			<g id="g296">
				<path id="path298" fill="#231f20" d="m22.288 5.447c0.056-0.185 0.084-0.378 0.084-0.576v-2.113c0-0.784-0.457-1.495-1.17-1.82-0.687-0.312-1.423-0.549-2.187-0.706-0.751-0.154-1.543-0.232-2.353-0.232-2.275 0-4.132 0.656-5.521 1.952-0.074 0.068-0.137 0.144-0.207 0.214-0.304-0.461-0.699-0.864-1.185-1.186-1.005-0.659-2.339-0.98-4.078-0.98-0.577 0-1.177 0.043-1.783 0.128-0.59 0.084-1.196 0.214-1.806 0.384-0.862 0.243-1.457 1.03-1.457 1.926v1.928c0 0.674 0.339 1.305 0.904 1.675 0.129 0.084 0.265 0.152 0.407 0.203v1.739c0 0.029 0 0.058 0.002 0.088-0.282 0.034-0.555 0.129-0.804 0.283-0.59 0.363-0.947 1.007-0.947 1.699v2.03c0 0.865 0.555 1.632 1.376 1.901 0.606 0.199 1.233 0.351 1.868 0.452 0.633 0.101 1.27 0.152 1.893 0.152 1.913 0 3.391-0.372 4.515-1.136 0.431-0.293 0.789-0.639 1.086-1.025 0.058 0.06 0.11 0.124 0.171 0.182 1.374 1.312 3.198 1.979 5.422 1.979 0.893 0 1.775-0.097 2.628-0.288 0.856-0.193 1.689-0.485 2.477-0.868 0.689-0.335 1.125-1.035 1.125-1.8v-4.908c0-0.485-0.172-0.932-0.46-1.277zm-13.574 6.352c-0.775 0.526-1.905 0.79-3.391 0.79-0.524 0-1.049-0.042-1.576-0.126s-1.047-0.211-1.562-0.379v-2.03c0.492 0.246 0.981 0.432 1.466 0.557s0.963 0.188 1.432 0.188c0.697 0 1.231-0.121 1.603-0.362s0.557-0.588 0.557-1.039c0-0.465-0.19-0.817-0.571-1.056s-0.941-0.361-1.684-0.361h-1.052v-1.695h1.107c0.661 0 1.153-0.104 1.477-0.311s0.485-0.523 0.485-0.947c0-0.392-0.157-0.695-0.472-0.909s-0.759-0.322-1.333-0.322c-0.424 0-0.852 0.048-1.285 0.144s-0.864 0.237-1.292 0.424v-1.928c0.52-0.146 1.035-0.255 1.545-0.328s1.012-0.109 1.504-0.109c1.326 0 2.318 0.217 2.977 0.652s0.988 1.09 0.988 1.965c0 0.597-0.157 1.086-0.472 1.466s-0.779 0.649-1.394 0.804c0.688 0.178 1.211 0.486 1.569 0.926s0.537 0.999 0.537 1.678c-0.001 1.012-0.388 1.781-1.163 2.308zm12.035-0.168c-0.656 0.319-1.337 0.558-2.044 0.718s-1.436 0.239-2.188 0.239c-1.7 0-3.046-0.475-4.04-1.425s-1.49-2.239-1.49-3.866c0-1.645 0.506-2.939 1.518-3.883s2.397-1.414 4.156-1.414c0.679 0 1.33 0.064 1.952 0.191s1.209 0.317 1.76 0.567v2.112c-0.57-0.324-1.136-0.565-1.699-0.725s-1.127-0.239-1.692-0.239c-1.048 0-1.856 0.293-2.423 0.878s-0.851 1.423-0.851 2.512c0 1.08 0.273 1.914 0.82 2.502s1.324 0.882 2.331 0.882c0.273 0 0.527-0.017 0.762-0.051s0.445-0.088 0.632-0.161v-1.981h-1.606v-1.764h4.102v4.908z"/>
			</g>
		</g>
	</g>
</g>
<g id="Layer_7">
	<g id="g301">
		<g id="g303">
			<linearGradient id="SVGID_5_" y2="1.9995" gradientUnits="userSpaceOnUse" x2="6.0308" y1="12.588" x1="6.0308">
				<stop id="stop306" stop-color="#9B9B9B" offset="0"/>
				<stop id="stop308" stop-color="#ECECEC" offset="1"/>
			</linearGradient>
			<path id="path310" fill="url(#SVGID_5_)" d="m7.771 6.887c0.688 0.178 1.211 0.486 1.569 0.926s0.537 0.999 0.537 1.678c0 1.012-0.387 1.781-1.162 2.307s-1.905 0.79-3.391 0.79c-0.524 0-1.049-0.042-1.576-0.126s-1.047-0.211-1.562-0.379v-2.03c0.492 0.246 0.981 0.432 1.466 0.557s0.963 0.188 1.432 0.188c0.697 0 1.231-0.121 1.603-0.362s0.557-0.588 0.557-1.039c0-0.465-0.19-0.817-0.571-1.056s-0.942-0.36-1.685-0.36h-1.052v-1.695h1.107c0.661 0 1.153-0.104 1.477-0.311s0.485-0.523 0.485-0.947c0-0.392-0.157-0.695-0.472-0.909s-0.759-0.322-1.333-0.322c-0.424 0-0.852 0.048-1.285 0.144s-0.864 0.237-1.292 0.424v-1.928c0.52-0.146 1.035-0.255 1.545-0.328s1.012-0.109 1.504-0.109c1.326 0 2.318 0.217 2.977 0.652s0.988 1.09 0.988 1.965c0 0.597-0.157 1.086-0.472 1.466s-0.779 0.649-1.394 0.804z"/>
		</g>
		<g id="g312">
			<linearGradient id="SVGID_6_" y2="1.9995" gradientUnits="userSpaceOnUse" x2="15.868" y1="12.588" x1="15.868">
				<stop id="stop315" stop-color="#9B9B9B" offset="0"/>
				<stop id="stop317" stop-color="#ECECEC" offset="1"/>
			</linearGradient>
			<path id="path319" fill="url(#SVGID_6_)" d="m20.749 11.631c-0.656 0.319-1.337 0.558-2.044 0.718s-1.436 0.239-2.188 0.239c-1.7 0-3.046-0.475-4.04-1.425s-1.49-2.239-1.49-3.866c0-1.645 0.506-2.939 1.518-3.883s2.397-1.414 4.156-1.414c0.679 0 1.33 0.064 1.952 0.191s1.209 0.317 1.76 0.567v2.112c-0.57-0.324-1.136-0.565-1.699-0.725s-1.127-0.239-1.692-0.239c-1.048 0-1.856 0.293-2.423 0.878s-0.851 1.423-0.851 2.512c0 1.08 0.273 1.914 0.82 2.502s1.324 0.882 2.331 0.882c0.273 0 0.527-0.017 0.762-0.051s0.445-0.088 0.632-0.161v-1.981h-1.606v-1.764h4.102v4.908z"/>
		</g>
	</g>
</g>
</svg>
