<?xml version="1.0" encoding="UTF-8" standalone="no"?>
<!-- Generator: Adobe Illustrator 13.0.0, SVG Export Plug-In . SVG Version: 6.00 Build 14576)  -->
<svg id="svg2" xmlns:rdf="http://www.w3.org/1999/02/22-rdf-syntax-ns#" xmlns="http://www.w3.org/2000/svg" enable-background="new 0 0 47.999 31.965" xml:space="preserve" height="48" width="47.999" version="1.0" y="0px" x="0px" xmlns:cc="http://creativecommons.org/ns#" xmlns:xlink="http://www.w3.org/1999/xlink" viewBox="0 0 47.999 31.965" xmlns:dc="http://purl.org/dc/elements/1.1/"><metadata id="metadata52"><rdf:RDF><cc:Work rdf:about=""><dc:format>image/svg+xml</dc:format><dc:type rdf:resource="http://purl.org/dc/dcmitype/StillImage"/></cc:Work></rdf:RDF></metadata><defs id="defs50"><linearGradient id="SVGID_10_" y2="741.89" gradientUnits="userSpaceOnUse" y1="769.86" x2="287.02" x1="287.02">
				<stop id="stop1533" stop-color="#9B9B9B" offset="0"/>
				<stop id="stop1535" stop-color="#ECECEC" offset="1"/>
			</linearGradient>
	<linearGradient id="linearGradient6474" y2="741.89" xlink:href="#SVGID_10_" gradientUnits="userSpaceOnUse" x2="287.02" y1="769.86" x1="287.02"/><linearGradient id="linearGradient6502" y2="741.89" xlink:href="#SVGID_10_" gradientUnits="userSpaceOnUse" x2="287.02" gradientTransform="translate(-263.03 -739.88)" y1="769.86" x1="287.02"/></defs>
<path id="path6335" opacity=".3" fill="#000" d="m23.75-0.00188c-0.546 0-1.075 0.01302-1.626 0.03125-0.01-0.0001-0.02-0.00008-0.031 0-0.527 0.02516-1.015 0.1731-1.5 0.53125-0.484 0.35813-1.029 1.0942-0.969 2.0313 0.088 1.4067 0.163 2.8128 0.25 4.2187-0.27-1.3831-0.541-2.7732-0.812-4.1562-0.18-0.923-0.878-1.4955-1.438-1.7188-0.559-0.22328-1.107-0.23512-1.624-0.12498-0.001 0.0104-0.001 0.02083 0 0.03125-1.083 0.24493-2.156 0.49623-3.219 0.81253-0.011 0.0102-0.021 0.0207-0.031 0.0312-0.501 0.158-0.965 0.4081-1.344 0.875s-0.704 1.3221-0.406 2.2188c0.485 1.4692 0.952 2.9386 1.437 4.4062-0.676-1.3914-1.354-2.7948-2.031-4.1875-0.4197-0.8565-1.2468-1.2146-1.844-1.2812-0.5972-0.0667-1.1246 0.0741-1.5937 0.3125-1.0084 0.5281-1.9991 1.0924-2.9688 1.6875-0.0105 0.0103-0.0209 0.0207-0.0312 0.0312-0.4394 0.2794-0.8112 0.6136-1.0625 1.1563-0.2514 0.5426-0.3755 1.4703 0.1562 2.2812 1.892 2.8804 3.7954 5.7764 5.6875 8.6564 0.247 0.367 0.6414 0.485 1 0.656h-1.5937c-0.6849 0-1.2987 0.255-1.75 0.75-0.0001 0.011-0.0001 0.021 0 0.031l-5.8126 6.469c-0.38877 0.433-0.5937 0.958-0.5937 1.563-0.00001999 0.252 0.05141 0.568 0.15625 0.843l0.8125 2.25c0.34155 0.936 1.2168 1.563 2.2188 1.563h41.594c1.002 0 1.908-0.609 2.25-1.563l0.812-2.281c0.091-0.254 0.157-0.56 0.157-0.812 0-0.577-0.221-1.142-0.594-1.563h-0.032l-5.781-6.469c-0.462-0.514-1.096-0.781-1.781-0.781h-2.031c0.373-0.175 0.778-0.271 1.031-0.656 1.892-2.88 3.765-5.778 5.656-8.6564 0.533-0.8124 0.407-1.7387 0.156-2.2812-0.25-0.5426-0.621-0.9072-1.062-1.1875-0.01-0.0001-0.021-0.0001-0.031 0-0.969-0.594-1.929-1.1594-2.938-1.6875-0.01-0.0001-0.021-0.0001-0.031 0-0.47-0.2388-0.966-0.3791-1.562-0.3125-0.597 0.0665-1.457 0.4171-1.876 1.2812-0.677 1.3947-1.353 2.7935-2.031 4.1875 0.486-1.4696 0.983-2.9368 1.469-4.4062 0.293-0.8977-0.059-1.7524-0.438-2.2188-0.378-0.4664-0.839-0.7174-1.343-0.875-0.011-0.0001-0.021-0.0001-0.031 0-1.064-0.3168-2.108-0.5983-3.188-0.84373-0.01-0.01055-0.021-0.02095-0.031-0.03125-0.518-0.11012-1.035-0.09775-1.594 0.125-0.559 0.22278-1.285 0.79968-1.469 1.7188-0.268 1.372-0.512 2.753-0.781 4.125l0.25-4.1875c0.06-0.9372-0.485-1.6731-0.969-2.0313-0.484-0.35814-1.003-0.50603-1.531-0.53123-0.01-0.0001-0.021-0.00008-0.031 0-0.551-0.01824-1.111-0.03125-1.656-0.03125zm0.031 2c0.526 0 1.033 0.0138 1.562 0.0313 0.335 0.016 0.608 0.2195 0.594 0.4375l-0.656 10.312c-0.014 0.218-0.21 0.385-0.438 0.375-0.72-0.033-1.436-0.033-2.156 0-0.229 0.01-0.423-0.157-0.437-0.375-0.216-3.4386-0.441-6.8731-0.657-10.312-0.013-0.2182 0.259-0.4216 0.594-0.4376 0.529-0.0175 1.067-0.0313 1.594-0.0313zm-7.125 0.75c0.226 0.0149 0.406 0.1513 0.437 0.3125 0.662 3.381 1.338 6.743 2 10.125 0.042 0.214-0.119 0.42-0.343 0.468-0.709 0.151-1.401 0.347-2.094 0.563-0.22 0.069-0.462-0.042-0.532-0.25-1.08-3.271-2.168-6.5416-3.25-9.8126-0.068-0.21 0.146-0.4615 0.469-0.5625 1.021-0.304 2.054-0.5765 3.094-0.8125 0.083-0.0175 0.143-0.0362 0.219-0.0313zm14.218 0c0.076-0.0049 0.168 0.0138 0.25 0.0313 1.039 0.2349 2.042 0.5085 3.063 0.8125 0.323 0.102 0.537 0.3545 0.469 0.5625-1.082 3.271-2.169 6.5416-3.25 9.8126-0.069 0.208-0.312 0.319-0.532 0.25-0.692-0.216-1.385-0.411-2.093-0.563-0.225-0.048-0.386-0.254-0.344-0.468 0.661-3.3804 1.339-6.7434 2-10.125 0.032-0.1616 0.212-0.298 0.437-0.3129zm-22.75 2.9688c0.226-0.0457 0.428 0.0092 0.5 0.1562 1.5055 3.099 2.9935 6.2139 4.4995 9.3129 0.096 0.196 0.022 0.424-0.187 0.531-0.663 0.337-1.309 0.727-1.937 1.125-0.204 0.127-0.474 0.058-0.594-0.125-1.8922-2.88-3.7967-5.746-5.6877-8.6251-0.1201-0.183 0.0185-0.4693 0.3125-0.6563 0.932-0.572 1.8757-1.118 2.8437-1.625 0.0768-0.039 0.1747-0.0785 0.25-0.0937zm31.094 0c0.132-0.0148 0.285 0.0157 0.438 0.0937 0.968 0.507 1.912 1.054 2.844 1.625 0.294 0.187 0.433 0.4733 0.312 0.6563-1.891 2.8791-3.796 5.7761-5.688 8.6561-0.119 0.183-0.361 0.221-0.562 0.094-0.629-0.397-1.274-0.788-1.938-1.125-0.208-0.106-0.314-0.334-0.218-0.531 1.506-3.098 3.025-6.2149 4.531-9.3129 0.048-0.098 0.149-0.1415 0.281-0.1562zm-18.406 8.2811c0.471 0.682 1.139 1.193 1.969 1.156 0.659-0.03 1.309-0.03 1.969 0 0.828 0.036 1.528-0.47 2-1.156 0.281 0.783 0.808 1.45 1.624 1.625 0.649 0.138 1.274 0.303 1.907 0.5 0.814 0.254 1.645-0.104 2.281-0.687 0.051 0.864 0.398 1.678 1.156 2.062 0.587 0.299 1.133 0.651 1.688 1h-23.282c0.56-0.351 1.134-0.702 1.719-1 0.76-0.385 1.11-1.194 1.157-2.062 0.635 0.579 1.434 0.943 2.25 0.687 0.632-0.197 1.285-0.36 1.937-0.5 0.817-0.174 1.345-0.838 1.625-1.625zm-15.719 12.688c0.359 0.272 0.7994 0.415 1.25 0.406l24.407 0.031c0.189 0.006 0.378-0.015 0.562-0.062h0.031c0.155 0.028 0.312 0.039 0.469 0.031l9.906 0.031c0.429-0.004 0.846-0.147 1.188-0.406l0.844 0.969-0.094 0.281h-39.313l-0.1247-0.313 0.875-0.968z"/><path id="path6337" fill="url(#linearGradient6502)" d="m8.1558 20.498c-0.1061 0-0.2093 0.046-0.2813 0.125l-5.7812 6.438c-0.062 0.069-0.0938 0.156-0.0938 0.25 0 0.045-0.016 0.114 0 0.156l0.8438 2.25c0.054 0.148 0.1857 0.25 0.3437 0.25h41.594c0.158 0 0.291-0.102 0.343-0.25l0.844-2.25c0.015-0.042 0.032-0.111 0.032-0.156 0-0.094-0.032-0.18-0.094-0.25l-5.813-6.438c-0.071-0.079-0.175-0.125-0.281-0.125h-31.656zm0.8437 1.438h20.374l1.376 3.187-24.407-0.031 2.6565-3.156zm21.312 0h8.625l2.781 3.187-9.906-0.031-1.5-3.156z"/><g id="g6339" opacity=".8" transform="translate(-263.03 -739.88)"><g id="g6341"><path id="path6343" fill="url(#linearGradient6474)" d="m279.16 753.84c0.07 0.21 0.31 0.32 0.53 0.25 0.69-0.22 1.39-0.4 2.1-0.55 0.23-0.05 0.37-0.26 0.33-0.47-0.66-3.39-1.32-6.77-1.98-10.15-0.05-0.21-0.35-0.34-0.68-0.26-1.04 0.23-2.06 0.5-3.08 0.8-0.32 0.1-0.53 0.36-0.46 0.57l3.24 9.81z"/><path id="path6345" opacity=".4" fill="#fff" d="m279.47 742.64c-1.04 0.23-2.06 0.5-3.08 0.8-0.32 0.1-0.53 0.36-0.46 0.57l3.24 9.81c0.07 0.18 0.25 0.28 0.45 0.26-1.06-3.22-2.12-6.44-3.19-9.66-0.07-0.2 0.14-0.46 0.46-0.56 1.02-0.3 2.04-0.57 3.08-0.81 0.07-0.01 0.14-0.01 0.2-0.01-0.01-0.05-0.01-0.09-0.02-0.14-0.05-0.21-0.35-0.34-0.68-0.26z"/></g><g id="g6347"><path id="path6349" fill="url(#linearGradient6474)" d="m273.44 756.61c0.12 0.18 0.38 0.22 0.58 0.1 0.63-0.4 1.27-0.77 1.94-1.11 0.21-0.1 0.3-0.34 0.2-0.54-1.5-3.1-3.01-6.2-4.51-9.3-0.1-0.19-0.43-0.23-0.73-0.08-0.97 0.51-1.91 1.04-2.84 1.62-0.3 0.18-0.44 0.49-0.32 0.67 1.9 2.88 3.79 5.76 5.68 8.64z"/><path id="path6351" opacity=".4" fill="#fff" d="m268.59 747.69c0.93-0.57 1.87-1.1 2.84-1.61 0.12-0.06 0.24-0.09 0.35-0.09-0.04-0.08-0.08-0.17-0.12-0.25-0.1-0.2-0.42-0.23-0.73-0.08-0.97 0.51-1.91 1.04-2.84 1.62-0.3 0.18-0.44 0.48-0.32 0.67 1.9 2.88 3.79 5.76 5.68 8.64 0.07 0.11 0.2 0.16 0.33 0.16-1.84-2.79-3.67-5.59-5.51-8.38-0.12-0.19 0.02-0.49 0.32-0.68z"/></g><g id="g6353"><path id="path6355" fill="url(#linearGradient6474)" d="m285.72 753.03c0.72-0.03 1.44-0.03 2.16 0 0.23 0.01 0.43-0.15 0.44-0.37l0.64-10.32c0.02-0.21-0.24-0.41-0.58-0.42-1.05-0.04-2.1-0.04-3.16 0-0.33 0.01-0.59 0.21-0.58 0.42 0.22 3.44 0.43 6.88 0.64 10.32 0.02 0.22 0.21 0.38 0.44 0.37z"/><path id="path6357" opacity=".4" fill="#fff" d="m288.4 741.9c-1.06-0.04-2.11-0.04-3.17 0-0.33 0.01-0.59 0.2-0.58 0.42 0.22 3.44 0.43 6.88 0.65 10.32 0.01 0.22 0.2 0.38 0.43 0.37h0.06c-0.21-3.42-0.42-6.85-0.64-10.27-0.01-0.22 0.25-0.41 0.58-0.43 1.06-0.03 2.11-0.03 3.17 0 0.02 0 0.05 0.01 0.08 0.02v-0.01c0.01-0.22-0.25-0.41-0.58-0.42z"/></g><g id="g6359"><path id="path6361" fill="url(#linearGradient6474)" d="m297.65 755.6c0.66 0.34 1.31 0.71 1.94 1.11 0.2 0.12 0.46 0.08 0.58-0.1l5.67-8.64c0.12-0.18-0.02-0.49-0.31-0.67-0.93-0.58-1.87-1.11-2.84-1.62-0.31-0.15-0.64-0.11-0.73 0.08-1.51 3.1-3.01 6.2-4.52 9.3-0.1 0.2 0 0.44 0.21 0.54z"/><path id="path6363" opacity=".4" fill="#fff" d="m305.54 747.28c-0.93-0.58-1.88-1.11-2.84-1.62-0.31-0.15-0.64-0.12-0.73 0.08-1.51 3.1-3.01 6.2-4.52 9.3-0.1 0.2 0 0.44 0.21 0.54 0.09 0.05 0.18 0.11 0.28 0.16-0.04-0.09-0.04-0.19 0.01-0.28 1.51-3.1 3.01-6.2 4.52-9.3 0.09-0.2 0.42-0.24 0.73-0.08 0.89 0.47 1.76 0.97 2.62 1.49-0.06-0.11-0.15-0.21-0.28-0.29z"/></g><g id="g6365"><path id="path6367" fill="url(#linearGradient6474)" d="m291.81 753.54c0.71 0.15 1.41 0.33 2.11 0.55 0.22 0.07 0.45-0.04 0.52-0.25l3.24-9.81c0.07-0.21-0.13-0.47-0.46-0.57-1.02-0.3-2.04-0.57-3.08-0.8-0.33-0.07-0.63 0.05-0.67 0.26-0.66 3.39-1.33 6.77-1.99 10.15-0.04 0.21 0.11 0.42 0.33 0.47z"/><path id="path6369" opacity=".4" fill="#fff" d="m297.24 743.44c-1.03-0.3-2.05-0.57-3.09-0.81-0.33-0.07-0.63 0.06-0.67 0.27-0.66 3.38-1.32 6.76-1.99 10.14-0.04 0.22 0.11 0.43 0.33 0.48 0.06 0.01 0.12 0.03 0.18 0.04-0.01-0.03-0.01-0.06-0.01-0.1 0.67-3.38 1.33-6.76 1.99-10.14 0.04-0.22 0.34-0.34 0.67-0.27 1.03 0.23 2.04 0.5 3.05 0.8-0.04-0.17-0.22-0.33-0.46-0.41z"/></g></g><path id="path6371" opacity=".4" fill="#fff" d="m29.553 22.325l1.195 2.79-23.546-0.035-0.3477 0.416 24.395 0.036-1.375-3.207h-0.321zm9.906 0h-0.139l2.416 2.787-9.607-0.032 0.195 0.416 9.912 0.033-2.777-3.204zm-36.958 5.395c0-0.095 0.036-0.186 0.098-0.254l5.798-6.461c0.071-0.078 0.174-0.125 0.281-0.125h31.647c0.018 0 0.034 0.01 0.053 0.012l-0.271-0.303c-0.07-0.08-0.175-0.125-0.281-0.125h-31.648c-0.1057 0-0.2087 0.045-0.2807 0.125l-5.798 6.459c-0.062 0.069-0.097 0.16-0.097 0.254 0 0.045 0.007 0.088 0.023 0.129l0.829 2.278c0.054 0.148 0.196 0.248 0.354 0.248h0.084l-0.767-2.108c-0.017-0.043-0.024-0.086-0.024-0.129z"/></svg>
