<?xml version="1.0" encoding="UTF-8" standalone="no"?>
<!-- Created with Inkscape (http://www.inkscape.org/) -->
<svg id="svg2879" xmlns="http://www.w3.org/2000/svg" height="48" width="48" version="1.0" xmlns:xlink="http://www.w3.org/1999/xlink">
 <defs id="defs2881">
  <linearGradient id="linearGradient4575" y2="15.183" gradientUnits="userSpaceOnUse" x2="12.151" gradientTransform="matrix(.11489 0 0 .98252 -15.384 46.253)" y1="15.233" x1="38.307">
   <stop id="stop274" stop-color="#ff6363" offset="0"/>
   <stop id="stop276" stop-color="#c00" offset="1"/>
  </linearGradient>
  <linearGradient id="linearGradient4573" y2="15.129" gradientUnits="userSpaceOnUse" x2="7.1936" gradientTransform="matrix(-.0019020 -2.609 .99273 -.0049987 45.658 60.768)" y1="15.134" x1="9.885">
   <stop id="stop265" stop-color="#ff6363" offset="0"/>
   <stop id="stop267" stop-color="#c00" offset="1"/>
  </linearGradient>
  <linearGradient id="linearGradient3423" y2="33.382" xlink:href="#linearGradient3396" gradientUnits="userSpaceOnUse" x2="5.2775" gradientTransform="translate(0 4.0788)" y1="38.827" x1="5.2775"/>
  <linearGradient id="linearGradient3396">
   <stop id="stop3398" stop-color="#fff" offset="0"/>
   <stop id="stop3400" stop-color="#fff" stop-opacity="0" offset="1"/>
  </linearGradient>
  <linearGradient id="linearGradient3402" y2="33.382" xlink:href="#linearGradient3396" gradientUnits="userSpaceOnUse" x2="5.2775" y1="38.827" x1="5.2775"/>
  <linearGradient id="linearGradient3359" y2="5.9883" gradientUnits="userSpaceOnUse" x2="12" y1="30" x1="12">
   <stop id="stop3355" stop-color="#fff" offset="0"/>
   <stop id="stop3357" stop-color="#fff" stop-opacity="0" offset="1"/>
  </linearGradient>
  <linearGradient id="linearGradient3391" y2="2.5628" xlink:href="#SVGID_1_" gradientUnits="userSpaceOnUse" x2="46.349" gradientTransform="matrix(-.0014446 -.99676 0.754 -.0019098 1.3855 48.001)" y1="28.49" x1="1.993"/>
  <linearGradient id="SVGID_1_" y2="15.271" gradientUnits="userSpaceOnUse" x2="46.006" gradientTransform="matrix(-.0019160 -1 1 -.0019160 8.819 39.254)" y1="15.188" x1="2.5846">
   <stop id="stop248" stop-color="#9b9b9b" offset="0"/>
   <stop id="stop250" stop-color="#ececec" offset="1"/>
  </linearGradient>
  <linearGradient id="linearGradient2525" y2="2.5628" xlink:href="#SVGID_1_" gradientUnits="userSpaceOnUse" x2="46.349" gradientTransform="matrix(-.0014859 -.99937 .77554 -.0019148 24.225 48.006)" y1="28.49" x1="1.993"/>
 </defs>
 <g id="layer1">
  <g id="g2781" transform="translate(.0000023651 -.0000036164)">
   <g id="Layer_2" transform="matrix(-.0015065 -.99944 .78629 -.0019149 24.062 48.008)">
    <g id="g238" opacity=".3">
     <g id="g240">
      <path id="path242" d="m38.274 4.975h-31.423c-0.541 0-0.979 0.438-0.979 0.979v18.733c0 0.54 0.439 0.979 0.979 0.979h31.424c0.54 0 0.979-0.439 0.979-0.979v-18.733c0-0.541-0.44-0.979-0.98-0.979zm-1.018 18.692h-29.386v-16.694h29.386v16.694zm7.833-15.237v-4.473c0-2.183-1.777-3.957-3.959-3.957h-37.173c-2.183 0-3.957 1.774-3.957 3.957v22.538c0 2.183 1.774 3.957 3.957 3.957h37.173c2.183 0 3.959-1.774 3.959-3.957v-4.519c1.609-0.039 2.909-1.357 2.909-2.977v-7.591c0-1.618-1.3-2.939-2.909-2.978zm0.91 10.569c0 0.541-0.438 0.979-0.979 0.979h-1.93v6.518c0 1.082-0.877 1.958-1.959 1.958h-37.173c-1.082 0-1.958-0.876-1.958-1.958v-22.538c0-1.082 0.877-1.959 1.958-1.959h37.173c1.082 0 1.959 0.877 1.959 1.959v6.471h1.93c0.541 0 0.979 0.438 0.979 0.979v7.591z"/>
     </g>
    </g>
   </g>
   <path id="path252" fill="url(#linearGradient2525)" d="m39.651 2.9765l0.003 1.9288 5.055-0.0125c0.839-0.0021 1.52 0.8727 1.521 1.954l0.056 37.149c0.001 1.082-0.677 1.959-1.516 1.961l-17.478 0.043c-0.839 0.002-1.521-0.873-1.522-1.953l-0.056-37.15c-0.001-1.0808 0.678-1.959 1.517-1.961l5.018-0.0124-0.003-1.9288c0-0.5407 0.339-0.9792 0.758-0.9803l5.886-0.0145c0.421-0.001 0.76 0.4359 0.761 0.9765zm-10.867 5.7892c-0.419 0.0011-0.758 0.4406-0.757 0.9803l0.046 31.404c0.001 0.541 0.341 0.978 0.761 0.977l14.528-0.036c0.419-0.001 0.759-0.441 0.758-0.981l-0.047-31.404c-0.001-0.5393-0.342-0.9772-0.76-0.9762l-14.529 0.0359z"/>
   <g id="Layer_7" transform="matrix(-.0014859 -.99944 .77554 -.0019149 24.225 48.006)">
    <g id="g255" opacity=".15">
     <g id="g257">
      <path id="path259" fill="#fff" d="m38.274 3.975h-31.424c-1.091 0-1.979 0.887-1.979 1.978v18.735c0 1.091 0.889 1.979 1.979 1.979h31.424c1.091 0 1.979-0.889 1.979-1.979v-18.735c0.001-1.091-0.888-1.978-1.979-1.978zm0.98 20.712c0 0.54-0.439 0.979-0.979 0.979h-31.424c-0.541 0-0.979-0.439-0.979-0.979v-18.733c0-0.541 0.439-0.979 0.979-0.979h31.424c0.54 0 0.979 0.438 0.979 0.979v18.733zm5.766-14.258h-1.93v-6.471c0-1.082-0.877-1.959-1.959-1.959h-37.173c-1.082 0-1.958 0.877-1.958 1.959v22.537c0 1.082 0.877 1.958 1.958 1.958h37.173c1.082 0 1.959-0.876 1.959-1.958v-6.518h1.93c0.541 0 0.979-0.438 0.979-0.979v-7.59c0-0.541-0.438-0.979-0.979-0.979zm-0.021 8.57l-1.909-0.021c-0.553 0-1 0.447-1 1v6.517c0 0.527-0.432 0.959-0.959 0.959h-37.174c-0.528 0-0.957-0.432-0.957-0.959v-22.537c0-0.527 0.429-0.958 0.957-0.958h37.174c0.527 0 0.959 0.431 0.959 0.959v6.471c0 0.553 0.447 1 1 1h1.931l-0.022 7.569z"/>
     </g>
    </g>
    <g id="g3341" opacity=".3">
     <g id="g3343">
      <path id="path3345" fill="#fff" d="m44.904 19.919c0.099-0.374 0.131-0.814 0.095-0.92l0.022-7.569h-1.931c-0.553 0-1-0.447-1-1v-6.471c0-0.528-0.432-0.959-0.959-0.959h-37.174c-0.6325 0.1059-1.2064-0.0211-1.8975 0.3176 0.407-0.7901 0.8165-1.3186 1.8985-1.3186h37.173c1.082 0 1.959 0.877 1.959 1.959v6.471h1.93c0.541 0 0.979 0.438 0.979 0.979v7.59c0 0.541-0.33 0.939-1.095 0.921zm-2.798 0.287l1-0.001-0.016 6.29c-0.114 0.768-0.407 1.758-1.466 1.882 0.41-0.941 0.466-1.882 0.466-1.882l0.016-6.289zm-5.831 5.456c0.717 0.024 1.201 0.056 1.994-0.011-0.407 0.623-1.136 0.604-1.994 0.605l-29.424 0.003c-0.8572-0.057-1.465-0.377-1.6395-1.57l-0.0038-16.735c0.0317-1.0331-0.0066-1.8297 0.7006-2.2381-0.081 0.669-0.0635 1.5778-0.0401 2.2381l0.0038 16.733c0 0.54 0.438 0.979 0.979 0.979l29.424-0.004z"/>
     </g>
    </g>
   </g>
   <path id="path2463" opacity=".3" d="m20.406 2.9062l-16.968 0.0313c-1.717 0.0042-3.4413 1.788-3.438 3.9687l0.0625 37.156c0.003289 2.182 1.721 3.942 3.4375 3.938l16.969-0.031c1.716-0.004 3.534-1.787 3.531-3.969l-0.062-37.156c-0.004-2.182-1.815-3.9419-3.532-3.9378zm0 2c0.851-0.002 1.561 0.8562 1.563 1.9376l0.031 37.156c0.002 1.081-0.68 1.967-1.531 1.969l-16.969 0.031c-0.8508 0.002-1.5296-0.857-1.5312-1.938l-0.0626-37.156c-0.0016-1.0811 0.6805-1.9664 1.5313-1.9685l16.968-0.0313zm-15.406 2.0938c-0.554 0-1 0.446-1 1v20c0 0.554 0.446 1 1 1h14c0.554 0 1-0.446 1-1v-20c0-0.554-0.446-1-1-1h-14zm1.5 2h11c0.277 0 0.5 0.223 0.5 0.5v17c0 0.277-0.223 0.5-0.5 0.5h-11c-0.277 0-0.5-0.223-0.5-0.5v-17c0-0.277 0.223-0.5 0.5-0.5z"/>
   <path id="path2465" fill="url(#linearGradient3391)" d="m20.469 5l-17 0.0312c-0.8161 0.0021-1.4706 0.8903-1.469 1.9688l0.0625 37.062c0.0016 1.078 0.6529 1.94 1.4687 1.938l17-0.031c0.816-0.002 1.471-0.891 1.469-1.969l-0.062-37.062c-0.002-1.079-0.653-1.9401-1.469-1.938zm-15.469 2h14c0.554 0 1 0.446 1 1v20c0 0.554-0.446 1-1 1h-14c-0.554 0-1-0.446-1-1v-20c0-0.554 0.446-1 1-1zm0.5 27.906c0.828 0 1.5 0.672 1.5 1.5s-0.672 1.5-1.5 1.5-1.5-0.672-1.5-1.5 0.672-1.5 1.5-1.5zm4.3438 0c0.8282 0 1.5002 0.672 1.5002 1.5s-0.672 1.5-1.5002 1.5c-0.828 0-1.5-0.672-1.5-1.5s0.672-1.5 1.5-1.5zm4.3122 0c0.828 0 1.5 0.672 1.5 1.5s-0.672 1.5-1.5 1.5-1.5-0.672-1.5-1.5 0.672-1.5 1.5-1.5zm4.344 0c0.828 0 1.5 0.672 1.5 1.5s-0.672 1.5-1.5 1.5-1.5-0.672-1.5-1.5 0.672-1.5 1.5-1.5zm-13 4.094c0.828 0 1.5 0.672 1.5 1.5s-0.672 1.5-1.5 1.5-1.5-0.672-1.5-1.5 0.672-1.5 1.5-1.5zm4.3438 0c0.8282 0 1.5002 0.672 1.5002 1.5s-0.672 1.5-1.5002 1.5c-0.828 0-1.5-0.672-1.5-1.5s0.672-1.5 1.5-1.5zm4.3122 0c0.828 0 1.5 0.672 1.5 1.5s-0.672 1.5-1.5 1.5-1.5-0.672-1.5-1.5 0.672-1.5 1.5-1.5zm4.344 0c0.828 0 1.5 0.672 1.5 1.5s-0.672 1.5-1.5 1.5-1.5-0.672-1.5-1.5 0.672-1.5 1.5-1.5z"/>
   <g id="g2467" transform="matrix(-.0014446 -.99676 0.754 -.0019098 .55218 48.001)">
    <g id="g2469" opacity=".15">
     <g id="g2471">
      <path id="path2473" fill="#fff" d="m43.09 3.958c0-1.082-0.877-1.959-1.959-1.959h-37.173c-1.082 0-1.958 0.877-1.958 1.959v22.537c0 1.082 0.877 1.958 1.958 1.958h37.173c1.082 0 1.959-0.876 1.959-1.958v-22.537zm-1 22.537c0 0.527-0.432 0.959-0.959 0.959h-37.174c-0.528 0-0.957-0.432-0.957-0.959v-22.537c0-0.527 0.429-0.958 0.957-0.958h37.174c0.527 0 0.959 0.431 0.959 0.959v22.536z"/>
     </g>
    </g>
    <g id="g2475" opacity=".3">
     <g id="g2477">
      <path id="path2479" fill="#fff" d="m42.09 3.959c0-0.528-0.432-0.959-0.959-0.959h-37.174c-0.6325 0.1059-1.2064-0.0211-1.8975 0.3176 0.407-0.7901 0.8165-1.3186 1.8985-1.3186h37.173c1.082 0 1.959 0.877 1.959 1.959l-1 0.001zm1 22.536c-0.114 0.768-0.407 1.758-1.466 1.882 0.41-0.941 0.466-1.882 0.466-1.882h1z"/>
     </g>
    </g>
   </g>
   <rect id="rect3350" opacity=".4" stroke-linejoin="miter" style="enable-background:accumulate;" stroke-dasharray="none" marker-end="none" marker-start="none" stroke-dashoffset="0" rx="1.3593" ry="1.3593" marker-mid="none" height="23" width="17" stroke="url(#linearGradient3359)" stroke-linecap="butt" stroke-miterlimit="4" y="6.5" x="3.5" stroke-width="1" fill="none"/>
   <path id="path3394" opacity=".4" stroke-linejoin="miter" style="enable-background:accumulate;" marker-end="none" d="m7.5 36.5c0 1.104-0.896 2-2 2s-2-0.896-2-2 0.896-2 2-2 2 0.896 2 2zm4.326 0c0 1.104-0.896 2-1.9995 2-1.104 0-2-0.896-2-2s0.896-2 2-2c1.1035 0 1.9995 0.896 1.9995 2zm4.33 0c0 1.104-0.896 2-2 2s-2-0.896-2-2 0.896-2 2-2 2 0.896 2 2zm4.328 0c0 1.104-0.896 2-2 2s-2-0.896-2-2 0.896-2 2-2 2 0.896 2 2z" marker-start="none" stroke-dashoffset="0" marker-mid="none" stroke="url(#linearGradient3402)" stroke-linecap="butt" stroke-miterlimit="4" stroke-width="1.089" fill="none"/>
   <path id="path3421" opacity=".4" stroke-linejoin="miter" style="enable-background:accumulate;" marker-end="none" d="m7.5 40.579c0 1.104-0.896 2-2 2s-2-0.896-2-2 0.896-2 2-2 2 0.896 2 2zm4.326 0c0 1.104-0.896 2-1.9995 2-1.104 0-2-0.896-2-2s0.896-2 2-2c1.1035 0 1.9995 0.896 1.9995 2zm4.33 0c0 1.104-0.896 2-2 2s-2-0.896-2-2 0.896-2 2-2 2 0.896 2 2zm4.328 0c0 1.104-0.896 2-2 2s-2-0.896-2-2 0.896-2 2-2 2 0.896 2 2z" marker-start="none" stroke-dashoffset="0" marker-mid="none" stroke="url(#linearGradient3423)" stroke-linecap="butt" stroke-miterlimit="4" stroke-width="1.089" fill="none"/>
   <g id="g4569" transform="matrix(.77517 0 0 1 -11.047 -.92486)">
    <path id="path2847" fill="url(#linearGradient4573)" d="m51.672 41.925l-0.009-7.022 18 0.004v7.013l-17.991 0.005z"/>
    <rect id="rect2849" opacity=".3" transform="matrix(-.0020515 -1 1 -.0017894 0 0)" height="18.012" width="23.968" y="51.64" x="-34.996" fill="url(#linearGradient4575)"/>
   </g>
   <path id="polygon271" opacity=".25" fill="#fff" d="m29.156 33.844v7.156h0.844v-5.938l12.844 0.032v-1.219l-13.688-0.031z"/>
  </g>
 </g>
</svg>
