<?xml version="1.0" encoding="UTF-8" standalone="no"?>
<!-- Generator: Adobe Illustrator 13.0.0, SVG Export Plug-In . SVG Version: 6.00 Build 14576)  -->
<svg id="svg2" xmlns:rdf="http://www.w3.org/1999/02/22-rdf-syntax-ns#" xmlns="http://www.w3.org/2000/svg" enable-background="new 0 0 28.804 47.999" xml:space="preserve" height="47.999" width="48" version="1.0" y="0px" x="0px" xmlns:cc="http://creativecommons.org/ns#" xmlns:dc="http://purl.org/dc/elements/1.1/" viewBox="0 0 28.804 47.999"><metadata id="metadata262"><rdf:RDF><cc:Work rdf:about=""><dc:format>image/svg+xml</dc:format><dc:type rdf:resource="http://purl.org/dc/dcmitype/StillImage"/></cc:Work></rdf:RDF></metadata>
<g id="Layer_4">
	<g id="g238" opacity=".3">
		<g id="g240">
			<path id="path242" d="m28.75 23.439c-0.119-0.652-0.458-1.254-0.935-1.686l-22.698-20.926c-0.565-0.534-1.306-0.827-2.084-0.827-0.41 0-0.811 0.081-1.184 0.241-1.119 0.473-1.843 1.56-1.849 2.781v41.961c0.006 1.205 0.729 2.292 1.845 2.773 0.377 0.16 0.778 0.241 1.188 0.241 0.778 0 1.517-0.293 2.065-0.811l22.7-20.929c0.789-0.71 1.152-1.797 0.952-2.818zm-2.29 1.334l-22.718 20.943c-0.298 0.282-0.736 0.361-1.114 0.199-0.378-0.161-0.626-0.53-0.628-0.941v-41.951c0.003-0.411 0.25-0.781 0.628-0.942s0.816-0.082 1.114 0.2l22.718 20.944c0.169 0.153 0.282 0.357 0.323 0.58 0.071 0.357-0.052 0.724-0.323 0.968z"/>
		</g>
	</g>
</g>
<g id="Layer_2">
		<linearGradient id="path3235_4_" y2="-93.478" gradientUnits="userSpaceOnUse" x2="-125.9" gradientTransform="matrix(0 1 1 0 88.919 127.54)" y1="-68.478" x1="-82.601">
		<stop id="stop246" stop-color="#8A8A8A" offset="0"/>
		<stop id="stop248" stop-color="#fff" offset="1"/>
	</linearGradient>
	<path id="path3235_1_" fill="url(#path3235_4_)" d="m26.783 23.805c-0.041-0.223-0.154-0.427-0.323-0.58l-22.718-20.944c-0.298-0.282-0.736-0.361-1.114-0.2s-0.626 0.531-0.628 0.942v41.951c0.003 0.411 0.25 0.78 0.628 0.941 0.378 0.162 0.816 0.083 1.114-0.199l22.718-20.943c0.271-0.244 0.394-0.611 0.323-0.968z"/>
</g>
<g id="Layer_3">
	<g id="g252" opacity=".2">
		<g id="g254">
			<path id="path256" fill="#fff" d="m26.783 23.805c-0.041-0.223-0.154-0.427-0.323-0.58l-22.718-20.944c-0.298-0.282-0.736-0.361-1.114-0.2s-0.626 0.531-0.628 0.942v41.951c0.003 0.411 0.25 0.78 0.628 0.941 0.378 0.162 0.816 0.083 1.114-0.199l22.718-20.943c0.271-0.244 0.394-0.611 0.323-0.968zm-23.72 21.176l-0.029 0.019c-0.004 0-0.008-0.002-0.01-0.002l-0.025-41.975 22.782 20.938-22.718 21.02z"/>
		</g>
	</g>
	<path id="path3302_2_" fill-opacity=".14850" fill="#fff" d="m3.548 2.152c-0.278-0.164-0.629-0.194-0.935-0.065-0.379 0.162-0.611 0.525-0.613 0.936v41.951c0.003 0.411 0.235 0.774 0.613 0.936 0.307 0.13 0.657 0.1 0.936-0.064-0.318-0.181-0.513-0.5-0.516-0.871v-41.952c0.002-0.371 0.197-0.69 0.515-0.871z"/>
</g>
</svg>
