<?xml version="1.0" encoding="UTF-8" standalone="no"?>
<!-- Generator: Adobe Illustrator 13.0.0, SVG Export Plug-In . SVG Version: 6.00 Build 14576)  -->
<svg id="svg2" xmlns:rdf="http://www.w3.org/1999/02/22-rdf-syntax-ns#" xmlns="http://www.w3.org/2000/svg" enable-background="new 0 0 47.998 43.016" xml:space="preserve" height="48" width="48" version="1.0" y="0px" x="0px" xmlns:cc="http://creativecommons.org/ns#" xmlns:dc="http://purl.org/dc/elements/1.1/" viewBox="0 0 47.998 43.016"><metadata id="metadata263"><rdf:RDF><cc:Work rdf:about=""><dc:format>image/svg+xml</dc:format><dc:type rdf:resource="http://purl.org/dc/dcmitype/StillImage"/></cc:Work></rdf:RDF></metadata>
<g id="Layer_2">
	<g id="g238" opacity=".3">
		<g id="g240">
			<path id="path242" d="m3.685 28.018h40.646c1.195-0.013 2.268-0.73 2.73-1.822 0.47-1.098 0.243-2.368-0.56-3.221l-20.265-21.978c-0.569-0.634-1.381-0.997-2.231-0.997-0.194 0-0.386 0.019-0.551 0.049-0.644 0.118-1.242 0.448-1.678 0.926l-20.264 21.983c-0.815 0.865-1.044 2.132-0.578 3.239 0.471 1.095 1.542 1.808 2.751 1.821zm-0.718-3.687l20.281-22c0.148-0.163 0.346-0.273 0.562-0.312 0.346-0.068 0.701 0.05 0.938 0.312l20.281 22c0.273 0.289 0.35 0.713 0.193 1.079s-0.514 0.605-0.912 0.608h-40.624c-0.398-0.003-0.756-0.242-0.913-0.608-0.155-0.367-0.079-0.79 0.194-1.079zm42.033 5.688h-42.002c-1.653 0-2.998 1.346-2.998 2.998v7.001c0 1.653 1.345 2.998 2.998 2.998h42.002c1.652 0 2.998-1.345 2.998-2.998v-7.001c0-1.652-1.346-2.998-2.998-2.998zm0.999 9.999c0 0.553-0.447 1-1 1h-42c-0.552 0-1-0.447-1-1v-7c0-0.553 0.448-1 1-1h42c0.553 0 1 0.447 1 1v7z"/>
		</g>
	</g>
</g>
<g id="Layer_1">
	<linearGradient id="SVGID_1_" y2="5.6741" gradientUnits="userSpaceOnUse" x2="8.1525" y1="55.945" x1="37.176">
		<stop id="stop246" stop-color="#666" offset="0"/>
		<stop id="stop248" stop-color="#B6B6B6" offset=".5615"/>
		<stop id="stop250" stop-color="#fff" offset="1"/>
	</linearGradient>
	<path id="path252" fill="url(#SVGID_1_)" d="m44.999 32.018h-42c-0.552 0-1 0.447-1 1v7c0 0.553 0.448 1 1 1h42c0.553 0 1-0.447 1-1v-7c0-0.553-0.448-1-1-1zm-41.313-6h40.625c0.398-0.003 0.756-0.242 0.912-0.608s0.08-0.79-0.193-1.079l-20.281-22c-0.236-0.262-0.592-0.381-0.938-0.312-0.217 0.04-0.415 0.149-0.562 0.312l-20.281 22c-0.273 0.289-0.35 0.713-0.194 1.079s0.514 0.605 0.912 0.608z"/>
	<path id="path3302_2_" fill-opacity=".14850" d="m2.842 24.518c-0.159 0.27-0.188 0.609-0.062 0.906 0.156 0.366 0.508 0.591 0.906 0.594h40.625c0.398-0.003 0.75-0.228 0.906-0.594 0.126-0.297 0.097-0.637-0.062-0.906-0.175 0.309-0.484 0.497-0.844 0.5h-40.625c-0.36-0.003-0.669-0.191-0.844-0.5z"/>
		<rect id="rect3406_2_" opacity=".4" fill-opacity="0.198" height="1" width="42" y="40.018" x="2.999" enable-background="new    "/>
</g>
<g id="Layer_3">
</g>
<g id="Layer_4">
	<path id="path258" opacity=".4" fill="#fff" d="m3.686 26.018h0.017c0-0.251 0.085-0.498 0.264-0.688l20.281-22c0.148-0.163 0.346-0.273 0.562-0.312 0.234-0.046 0.471 0 0.674 0.112l-0.736-0.799c-0.236-0.262-0.592-0.381-0.938-0.312-0.217 0.04-0.415 0.149-0.562 0.312l-20.281 22c-0.273 0.289-0.35 0.713-0.194 1.079 0.157 0.366 0.515 0.605 0.913 0.608zm41.313 6h-42c-0.552 0-1 0.447-1 1v7c0 0.553 0.448 1 1 1v-7c0-0.553 0.448-1 1-1h42c0-0.553-0.448-1-1-1z"/>
</g>
</svg>
