<?xml version="1.0" encoding="UTF-8" standalone="no"?>
<!-- Created with Inkscape (http://www.inkscape.org/) -->
<svg id="svg3405" xmlns:rdf="http://www.w3.org/1999/02/22-rdf-syntax-ns#" xmlns="http://www.w3.org/2000/svg" height="48" width="48" version="1.0" xmlns:cc="http://creativecommons.org/ns#" xmlns:xlink="http://www.w3.org/1999/xlink" xmlns:dc="http://purl.org/dc/elements/1.1/">
 <metadata id="metadata59">
  <rdf:RDF>
   <cc:Work rdf:about="">
    <dc:format>image/svg+xml</dc:format>
    <dc:type rdf:resource="http://purl.org/dc/dcmitype/StillImage"/>
   </cc:Work>
  </rdf:RDF>
 </metadata>
 <defs id="defs3407">
  <linearGradient id="linearGradient3396">
   <stop id="stop3398" stop-color="#fff" offset="0"/>
   <stop id="stop3400" stop-color="#fff" stop-opacity="0" offset="1"/>
  </linearGradient>
  <linearGradient id="linearGradient3259" y2="41.969" xlink:href="#linearGradient3396" gradientUnits="userSpaceOnUse" x2="24" y1="7.0312" x1="24"/>
  <linearGradient id="linearGradient3262" y2="90.291" gradientUnits="userSpaceOnUse" x2="269.28" gradientTransform="matrix(.13403 0 0 .76034 -12.092 -61.652)" y1="99.539" x1="269.28">
   <stop id="stop274" stop-color="#bebebe" offset="0"/>
   <stop id="stop276" stop-color="#8c8c8c" offset="1"/>
  </linearGradient>
  <linearGradient id="linearGradient3268" y2="15.714" xlink:href="#linearGradient3396" gradientUnits="userSpaceOnUse" x2="16.772" y1="43.5" x1="35.5"/>
  <linearGradient id="linearGradient3271" y2="20.128" xlink:href="#linearGradient3396" gradientUnits="userSpaceOnUse" x2="33.16" y1="1.9946" x1="9.988"/>
  <linearGradient id="linearGradient3274" y2="-82.62" gradientUnits="userSpaceOnUse" x2="7.1995" gradientTransform="matrix(-.0014467 -6.2074 .75509 -.011893 76.396 85.834)" y1="-82.609" x1="12.858">
   <stop id="stop265" stop-color="#a9a9a9" offset="0"/>
   <stop id="stop267" stop-color="#7e7e7e" offset="1"/>
  </linearGradient>
  <linearGradient id="linearGradient3278" y2="-57.206" gradientUnits="userSpaceOnUse" x2="46.264" gradientTransform="matrix(-.0014446 -.99676 0.754 -.0019098 53.183 48.001)" y1="-20.105" x1="2.0259">
   <stop id="stop248" stop-color="#9b9b9b" offset="0"/>
   <stop id="stop250" stop-color="#ececec" offset="1"/>
  </linearGradient>
 </defs>
 <path id="rect2406" opacity=".3" stroke-linejoin="miter" style="enable-background:accumulate;" marker-end="none" d="m21 1h6c6.648 0 12 4.1032 12 9.2v27.6c0 5.097-5.352 9.2-12 9.2h-6c-6.648 0-12-4.103-12-9.2v-27.6c0-5.0968 5.352-9.2 12-9.2zm3 1v12" marker-start="none" stroke-dashoffset="0" marker-mid="none" stroke="#000" stroke-linecap="round" stroke-miterlimit="4" stroke-width="2" fill="none"/>
 <path id="path3329" style="enable-background:accumulate;" marker-end="none" d="m21 2c-4.133-0.0184-8.788 1.8089-10.531 5.8125-0.7688 2.0972-0.369 4.3765-0.469 6.5625 0.009 7.954-0.0312 15.89 0 23.844 0.324 4.06 4.243 6.718 7.938 7.469 2.904 0.551 5.874 0.231 8.812 0.312 4.095 0.08 8.68-1.601 10.625-5.438 0.995-2.14 0.514-4.532 0.625-6.812-0.009-7.989 0.031-15.98 0-23.969-0.324-4.0601-4.243-6.7176-7.938-7.4685-1.665-0.3928-3.365-0.307-5.062-0.3125v11c0 0.355-0.28 1-1 1-0.736 0-1-0.596-1-1v-11h-2zm8 4c0.19-0.0174 0.77 0.0317 1.094 0.1562 2.911 1.0688 4.906 3.1316 4.906 5.4998v25.063c0 3.474-4.214 6.281-9.438 6.281h-3.124c-5.224 0-9.438-2.807-9.438-6.281v-25.063c0-2.3699 1.992-4.4316 4.906-5.4998 0.738-0.2789 3.094-0.1562 3.094 0.8438v6s0 3 3 3 3-2.938 3-2.938v-5.9995c0-1.0625 1.43-1.0102 2-1.0625z" fill-rule="nonzero" marker-start="none" marker-mid="none" fill="url(#linearGradient3278)"/>
 <path id="path3352" opacity=".3" stroke-linejoin="miter" style="enable-background:accumulate;" marker-end="none" d="m29.031 6.5c-0.337 0.0309-0.764 0.028-1.093 0.125-0.165 0.0485-0.284 0.1267-0.344 0.1875s-0.094 0.0947-0.094 0.25v5.9995s-0.002 0.835-0.438 1.688c-0.435 0.853-1.401 1.75-3.062 1.75-1.664 0-2.629-0.914-3.062-1.781-0.434-0.868-0.438-1.719-0.438-1.719v-6c0-0.0567-0.01-0.0945-0.156-0.1875-0.147-0.093-0.388-0.1655-0.688-0.2187-0.6-0.1065-1.378-0.0384-1.562 0.0312-0.011 0.0003-0.021 0.0003-0.032 0-2.79 1.0227-4.562 2.9368-4.562 5.031v25.063c0 1.538 0.921 2.959 2.531 4.031s3.883 1.75 6.407 1.75h3.124c2.524 0 4.797-0.678 6.407-1.75s2.531-2.493 2.531-4.031v-25.063c0-2.0918-1.775-4.0077-4.562-5.031-0.011 0.0003-0.021 0.0003-0.032 0-0.18-0.0694-0.859-0.1264-0.875-0.125z" marker-start="none" stroke-dashoffset="0" marker-mid="none" stroke="#000" stroke-linecap="butt" stroke-miterlimit="4" stroke-dasharray="none" stroke-width="1" fill="none"/>
 <path id="path3356" style="enable-background:accumulate;" marker-end="none" d="m14 14v22.719c0 1.332 0.802 2.588 2.312 3.593 1.511 1.006 3.693 1.688 6.126 1.688h3.124c2.433 0 4.615-0.682 6.126-1.688 1.51-1.005 2.312-2.261 2.312-3.593v-22.719h-6.125c-0.068 0.305-0.163 0.646-0.344 1-0.498 0.975-1.704 2-3.531 2-1.834 0-3.037-1.074-3.531-2.062-0.167-0.333-0.243-0.649-0.313-0.938h-6.156z" fill-rule="nonzero" marker-start="none" marker-mid="none" fill="url(#linearGradient3274)"/>
 <path id="path3386" stroke-linejoin="miter" style="enable-background:accumulate;" marker-end="none" d="m21 2.5c-3.977-0.0177-8.416 1.7276-10.062 5.4688-0.004 0.0095 0.003 0.0216 0 0.0312-0.693 1.9206-0.34 4.135-0.438 6.375v0.031c0.009 7.935-0.031 15.852 0 23.782v0.031c0.159 1.867 1.133 3.399 2.531 4.593 1.407 1.202 3.231 2.016 5 2.376 2.809 0.533 5.735 0.229 8.719 0.312 3.953 0.077 8.358-1.547 10.188-5.156 0.905-1.95 0.452-4.239 0.562-6.594v-0.031c-0.009-7.97 0.031-15.942 0-23.906v-0.0318c-0.159-1.8669-1.133-3.3992-2.531-4.5937-1.407-1.2012-3.231-2.0154-5-2.375-0.011-0.0099-0.022-0.0204-0.031-0.0313-1.421-0.3351-2.903-0.2864-4.438-0.2812v10.5c0 0.307-0.107 0.634-0.344 0.938-0.236 0.303-0.648 0.562-1.156 0.562-0.502 0-0.915-0.227-1.156-0.531-0.241-0.305-0.344-0.66-0.344-0.969v-10.5h-1.5z" marker-start="none" stroke-dashoffset="0" marker-mid="none" stroke="url(#linearGradient3271)" stroke-linecap="butt" stroke-miterlimit="4" stroke-dasharray="none" stroke-width="1" fill="none"/>
 <path id="path3400" opacity=".4" stroke-linejoin="miter" style="enable-background:accumulate;" marker-end="none" d="m28.969 5.5c-0.233 0.0213-0.783 0.0315-1.313 0.1875-0.265 0.078-0.554 0.1751-0.781 0.4063-0.227 0.2311-0.375 0.5911-0.375 0.9687v5.9995s0.001 0.636-0.312 1.25c-0.314 0.615-0.851 1.188-2.188 1.188-1.334 0-1.872-0.588-2.188-1.219-0.315-0.631-0.312-1.281-0.312-1.281v-6c0-0.4461-0.305-0.7967-0.625-1s-0.681-0.3386-1.063-0.4062c-0.763-0.1354-1.537-0.1167-2.093 0.0937-3.041 1.1143-5.219 3.3189-5.219 5.9685v25.063c0 1.939 1.165 3.642 2.969 4.843 1.804 1.202 4.267 1.938 6.969 1.938h3.124c2.702 0 5.165-0.736 6.969-1.938 1.804-1.201 2.969-2.904 2.969-4.843v-25.063c0-2.6486-2.182-4.8535-5.219-5.9685-0.469-0.1806-0.945-0.2211-1.312-0.1875z" marker-start="none" stroke-dashoffset="0" marker-mid="none" stroke="url(#linearGradient3268)" stroke-linecap="butt" stroke-miterlimit="4" stroke-dasharray="none" stroke-width="1" fill="none"/>
 <path id="path3720" opacity=".3" style="enable-background:accumulate;" marker-end="none" d="m29.094 7c-0.391 0.0359-0.805 0.0584-1.032 0.125-0.053 0.0157-0.041-0.0105-0.062 0v5.937s0.003 0.418-0.125 0.969l6.125-0.031v-2.344c0-1.8055-1.591-3.5862-4.25-4.5622-0.01 0.0001-0.021 0.0001-0.031 0-0.032-0.0123-0.79-0.0787-0.625-0.0938zm-10.375 0.0625c-0.265 0.0118-0.473 0.0326-0.469 0.0313-2.662 0.9755-4.25 2.7537-4.25 4.5622v2.375h6.156c-0.145-0.585-0.156-1.031-0.156-1.031v-5.7812c-0.09-0.0419-0.225-0.0874-0.438-0.125-0.258-0.0458-0.579-0.0431-0.843-0.0313z" fill-rule="nonzero" marker-start="none" marker-mid="none" fill="url(#linearGradient3262)"/>
 <path id="path3360" opacity=".3" stroke-linejoin="miter" style="enable-background:accumulate;" marker-end="none" d="m29.125 7.5312c-0.293 0.0269-0.421 0.0435-0.594 0.0626v5.4682s0.032 1.054-0.531 2.157-2 2.312-4 2.312c-2.011 0-3.442-1.228-4-2.343-0.558-1.116-0.531-2.188-0.531-2.188v-5.4062c-0.429-0.0761-1.238 0.0781-1.031 0-2.529 0.9264-3.907 2.5512-3.907 4.0622v25.063c0 1.117 0.688 2.22 2.094 3.156s3.475 1.594 5.813 1.594h3.124c2.338 0 4.407-0.658 5.813-1.594s2.094-2.039 2.094-3.156v-25.063c0-1.507-1.382-3.1353-3.907-4.0622-0.01 0.0001-0.02 0.0001-0.031 0 0.123 0.0473-0.759-0.0302-0.406-0.0626zm-14.091 6.9798h4.725m8.933 0h4.726" marker-start="none" stroke-dashoffset="0" marker-mid="none" stroke="url(#linearGradient3259)" stroke-linecap="butt" stroke-miterlimit="4" stroke-dasharray="none" stroke-width="1" fill="none"/>
</svg>
