<?xml version="1.0" encoding="UTF-8" standalone="no"?>
<!-- Generator: Adobe Illustrator 13.0.0, SVG Export Plug-In . SVG Version: 6.00 Build 14576)  -->
<svg id="svg2" xmlns:rdf="http://www.w3.org/1999/02/22-rdf-syntax-ns#" xmlns="http://www.w3.org/2000/svg" enable-background="new 0 0 45.661 48" xml:space="preserve" height="48" width="48" version="1.0" y="0px" x="0px" xmlns:cc="http://creativecommons.org/ns#" xmlns:dc="http://purl.org/dc/elements/1.1/" viewBox="0 0 45.661 48"><metadata id="metadata266"><rdf:RDF><cc:Work rdf:about=""><dc:format>image/svg+xml</dc:format><dc:type rdf:resource="http://purl.org/dc/dcmitype/StillImage"/></cc:Work></rdf:RDF></metadata>
<g id="Layer_2">
	<g id="g238" opacity=".3">
		<g id="g240">
			<path id="path242" d="m11.028 0.002h-7.721c-1.823 0-3.307 1.345-3.307 2.998v42c0 1.652 1.484 2.998 3.307 2.998h7.722c1.823 0 3.307-1.346 3.307-2.998v-42c-0.001-1.653-1.484-2.998-3.308-2.998zm1.103 44.998c0 0.553-0.493 1-1.103 1h-7.72c-0.609 0-1.103-0.447-1.103-1v-42c0-0.552 0.493-1 1.103-1h7.721c0.609 0 1.103 0.448 1.103 1v42h-0.001zm31.646-44.754c-1.146-0.48-2.456-0.244-3.352 0.595l-22.744 20.869c-0.495 0.449-0.836 1.065-0.958 1.728-0.032 0.17-0.05 0.368-0.05 0.567 0 0.876 0.374 1.713 1.03 2.298l22.74 20.87c0.882 0.827 2.196 1.061 3.332 0.577 1.13-0.477 1.873-1.581 1.886-2.812v-41.86c-0.013-1.245-0.752-2.348-1.884-2.832zm-0.185 44.672c-0.003 0.411-0.25 0.778-0.629 0.939s-0.818 0.083-1.117-0.199l-22.763-20.886c-0.271-0.244-0.394-0.61-0.323-0.966 0.041-0.224 0.155-0.427 0.323-0.58l22.763-20.886c0.299-0.282 0.738-0.361 1.117-0.2 0.379 0.16 0.626 0.53 0.629 0.939v41.839z"/>
		</g>
	</g>
</g>
<g id="Layer_1">
	<g id="g245">
			<linearGradient id="SVGID_1_" y2="-1.113" gradientUnits="userSpaceOnUse" x2="39.71" gradientTransform="translate(-31.328)" y1="49.096" x1="68.698">
			<stop id="stop248" stop-color="#9B9B9B" offset="0"/>
			<stop id="stop250" stop-color="#ECECEC" offset="1"/>
		</linearGradient>
		<path id="path252" fill="url(#SVGID_1_)" d="m2.205 45v-42c0-0.552 0.493-1 1.103-1h7.721c0.609 0 1.103 0.448 1.103 1v42c0 0.553-0.493 1-1.103 1h-7.721c-0.61 0-1.103-0.447-1.103-1zm41.387-41.921v41.839c-0.003 0.411-0.25 0.778-0.629 0.939s-0.818 0.083-1.117-0.199l-22.763-20.886c-0.271-0.244-0.394-0.61-0.323-0.966 0.041-0.224 0.155-0.427 0.323-0.58l22.763-20.886c0.299-0.282 0.738-0.361 1.117-0.2 0.379 0.16 0.626 0.53 0.629 0.939z"/>
	</g>
</g>
<g id="Layer_3">
</g>
<g id="Layer_4" fill="#fff">
	<path id="path256" opacity=".4" d="m43.592 3.079v0.019c-0.26 0-0.516 0.087-0.711 0.271l-22.763 20.888c-0.169 0.152-0.283 0.356-0.323 0.579-0.049 0.242 0 0.485 0.115 0.694l-0.827-0.758c-0.271-0.244-0.394-0.61-0.323-0.966 0.041-0.224 0.155-0.427 0.323-0.58l22.763-20.886c0.299-0.282 0.738-0.361 1.117-0.2 0.379 0.16 0.626 0.53 0.629 0.939z"/>
	<path id="path258" opacity=".4" d="m2.205 45v-42c0-0.552 0.493-1 1.103-1h7.721c0.609 0 1.103 0.448 1.103 1h-7.722c-0.609 0-1.102 0.449-1.102 1v42c-0.61 0-1.103-0.447-1.103-1z"/>
</g>
<g id="Layer_5">
	<path id="path3302_2_" opacity=".3" fill="#808080" d="m42.04 2.21c0.278-0.163 0.63-0.193 0.938-0.063 0.379 0.16 0.611 0.523 0.614 0.933v41.839c-0.003 0.411-0.235 0.772-0.614 0.934-0.308 0.129-0.659 0.099-0.938-0.064 0.319-0.181 0.515-0.499 0.518-0.869v-41.841c-0.003-0.37-0.199-0.689-0.518-0.869z"/>
	<rect id="rect3406_2_" opacity=".3" height="42" width="1.103" y="3" x="11.028" enable-background="new    " fill="#8c8c8c"/>
</g>
</svg>
