<?xml version="1.0" encoding="UTF-8" standalone="no"?>
<!-- Generator: Adobe Illustrator 13.0.0, SVG Export Plug-In . SVG Version: 6.00 Build 14576)  -->
<svg id="svg2" xmlns:rdf="http://www.w3.org/1999/02/22-rdf-syntax-ns#" xmlns="http://www.w3.org/2000/svg" enable-background="new 0 0 47.998 45.758" xml:space="preserve" height="48" width="47.998" version="1.0" y="0px" x="0px" xmlns:cc="http://creativecommons.org/ns#" xmlns:xlink="http://www.w3.org/1999/xlink" viewBox="0 0 47.998 45.758" xmlns:dc="http://purl.org/dc/elements/1.1/"><metadata id="metadata267"><rdf:RDF><cc:Work rdf:about=""><dc:format>image/svg+xml</dc:format><dc:type rdf:resource="http://purl.org/dc/dcmitype/StillImage"/></cc:Work></rdf:RDF></metadata><defs id="defs265"><linearGradient id="linearGradient3090" y2="7.5698" gradientUnits="userSpaceOnUse" x2="13.965" y1="42.162" x1="39.098"><stop id="stop252" stop-color="#9B9B9B" offset="0"/><stop id="stop254" stop-color="#ECECEC" offset="1"/></linearGradient><linearGradient id="linearGradient3888" y2="29.068" gradientUnits="userSpaceOnUse" x2="37.841" y1="13.068" x1="37.841"><stop id="stop3770" stop-color="#FF6363" offset="0"/><stop id="stop3772" stop-color="#c00" offset="1"/></linearGradient></defs>
<g id="g238" opacity=".3">
		<g id="g240">
			<path id="path242" d="m19.267 7.046c-0.59-0.289-1.251-0.441-1.907-0.441-0.958 0-1.902 0.324-2.664 0.912l-7.211 5.598-3.145 0.002c-1.143 0-2.263 0.462-3.07 1.271-0.808 0.805-1.27 1.926-1.27 3.069v10.846c0 2.396 1.948 4.344 4.419 4.344h3.066l7.217 5.602c0.759 0.584 1.702 0.905 2.655 0.905 0.661 0 1.321-0.152 1.911-0.441 1.502-0.736 2.432-2.23 2.432-3.901v-23.869c-0.003-1.671-0.933-3.163-2.433-3.897zm0.435 27.765c0 0.898-0.508 1.711-1.312 2.105-0.328 0.16-0.68 0.238-1.031 0.238-0.51 0-1.016-0.166-1.435-0.49l-7.754-6.017h-3.83c-1.293 0-2.342-1.049-2.342-2.344v-10.847c0-0.617 0.25-1.22 0.686-1.655 0.437-0.437 1.039-0.687 1.656-0.687l3.832-0.001 7.75-6.016c0.708-0.549 1.662-0.647 2.467-0.253s1.312 1.206 1.312 2.104v23.863h0.001z"/>
		</g>
	</g><path id="path256" fill="url(#linearGradient3090)" d="m19.702 10.947v23.864c0 0.898-0.508 1.711-1.312 2.105-0.328 0.16-0.68 0.238-1.031 0.238-0.51 0-1.016-0.166-1.435-0.49l-7.754-6.017h-3.75-0.08c-1.293 0-2.342-1.049-2.342-2.344v-10.847c0-0.617 0.25-1.22 0.686-1.655 0.437-0.437 1.039-0.687 1.656-0.687l3.832-0.001 7.75-6.016c0.708-0.549 1.662-0.647 2.467-0.253s1.312 1.206 1.313 2.103z"/><path id="path262" opacity=".5" fill="#fff" d="m8.653 31.022l7.27 5.643c0.163 0.126 0.342 0.221 0.527 0.299l-7.654-5.941h-0.143v-0.001zm7.269-21.925l-7.75 6.016-3.832 0.001c-0.617 0-1.219 0.25-1.656 0.687-0.436 0.436-0.686 1.039-0.686 1.655v10.847c0 0.991 0.617 1.834 1.486 2.177-0.521-0.43-0.861-1.072-0.861-1.802v-10.847c0-0.617 0.25-1.22 0.686-1.655 0.437-0.437 1.039-0.687 1.656-0.687l3.832-0.001 7.75-6.016c0.669-0.519 1.554-0.619 2.329-0.298-0.148-0.126-0.307-0.242-0.487-0.33-0.805-0.394-1.758-0.297-2.467 0.253z"/>
<g id="Layer_5" transform="translate(.21921 43.21)">
</g><g id="Layer_6" transform="translate(.21921 43.21)">
</g><g id="g3875" transform="translate(0 -1.5405)"><g id="Layer_7" transform="translate(.21921 3.21)">
	<path id="path3766" opacity=".3" d="m42.772 31.208c-0.642 0-1.242-0.247-1.691-0.699l-3.239-3.239-3.241 3.241c-0.443 0.443-1.061 0.697-1.691 0.697-0.628 0-1.222-0.241-1.674-0.679l-2.694-2.696c-0.438-0.425-0.699-1.05-0.699-1.692 0-0.629 0.256-1.246 0.701-1.691l3.239-3.239-3.239-3.239c-0.927-0.937-0.927-2.447-0.011-3.375l2.685-2.682c0.452-0.454 1.053-0.704 1.692-0.704 0.646 0 1.25 0.253 1.701 0.712l3.231 3.23 3.239-3.239c0.425-0.439 1.05-0.702 1.691-0.702 0.63 0 1.246 0.256 1.692 0.702l2.674 2.674c0.439 0.425 0.701 1.05 0.701 1.692 0 0.629-0.256 1.246-0.701 1.691l-3.239 3.239 3.239 3.239c0.454 0.452 0.701 1.053 0.701 1.691 0 0.64-0.247 1.24-0.701 1.692l-2.672 2.676c-0.451 0.453-1.052 0.7-1.694 0.7z"/>
</g><g id="Layer_9" transform="translate(.21921 3.21)">
	<path id="path3774" fill="url(#linearGradient3888)" d="m41.073 21.069l4.652-4.653c0.073-0.073 0.115-0.175 0.115-0.278s-0.042-0.205-0.115-0.279l-2.675-2.674c-0.073-0.074-0.175-0.115-0.278-0.115-0.104 0-0.206 0.041-0.278 0.115l-4.653 4.652-4.653-4.652c-0.153-0.154-0.402-0.154-0.557 0l-2.674 2.674c-0.154 0.154-0.154 0.404 0 0.558l4.652 4.653-4.653 4.652c-0.073 0.073-0.115 0.175-0.115 0.278s0.042 0.205 0.115 0.278l2.675 2.675c0.073 0.073 0.175 0.115 0.278 0.115 0.104 0 0.206-0.042 0.278-0.115l4.653-4.652 4.653 4.652c0.074 0.074 0.173 0.115 0.278 0.115s0.204-0.041 0.278-0.115l2.675-2.675c0.074-0.074 0.115-0.173 0.115-0.278s-0.041-0.204-0.115-0.278l-4.651-4.653z"/>
</g><g id="Layer_8" transform="translate(.21921 3.21)">
	<g id="g3778" opacity=".4">
		<g id="g3780">
			<path id="path3782" fill="#fff" d="m43.051 13.184c-0.073-0.074-0.175-0.115-0.278-0.115-0.104 0-0.206 0.042-0.278 0.115l-4.497 4.497 0.531 0.531 4.653-4.652c0.043-0.043 0.096-0.071 0.153-0.091l-0.284-0.285zm-7.754 8.26l-4.652-4.653c-0.154-0.153-0.154-0.403 0-0.558l2.674-2.674c0.045-0.044 0.098-0.072 0.153-0.091l-0.284-0.284c-0.153-0.154-0.402-0.154-0.557 0l-2.674 2.674c-0.154 0.154-0.154 0.404 0 0.557l4.652 4.653-4.653 4.653c-0.073 0.073-0.115 0.175-0.115 0.278s0.042 0.205 0.115 0.278l2.675 2.675c0.073 0.073 0.175 0.115 0.278 0.115 0.043 0 0.084-0.012 0.125-0.024l-2.391-2.391c-0.073-0.073-0.115-0.175-0.115-0.278s0.042-0.205 0.115-0.278l4.654-4.652zm3.075 3.388l4.122 4.121c0.074 0.074 0.173 0.115 0.278 0.115 0.044 0 0.085-0.011 0.125-0.024l-4.369-4.368-0.156 0.156z"/>
		</g>
	</g>
</g></g></svg>
