<?xml version="1.0" encoding="UTF-8" standalone="no"?>
<!-- Generator: Adobe Illustrator 13.0.0, SVG Export Plug-In . SVG Version: 6.00 Build 14576)  -->
<!DOCTYPE svg  PUBLIC '-//W3C//DTD SVG 1.1//EN'  'http://www.w3.org/Graphics/SVG/1.1/DTD/svg11.dtd'>
<svg xmlns="http://www.w3.org/2000/svg" xml:space="preserve" height="48px" width="48px" version="1.1" y="0px" x="0px" xmlns:xlink="http://www.w3.org/1999/xlink" viewBox="0 0 48 48" enable-background="new 0 0 48 48">
<g id="Layer_4">
	<path opacity=".3" d="m42.904 22.624h-2.189v-9.414c0-1.154-0.937-2.09-2.091-2.09h-2.054c-2.719-3.504-8.212-9.435-11.29-10.758-0.558-0.243-1.061-0.362-1.536-0.362h-11.323c-1.659 0-3.113 1.458-3.113 3.124v8.002c-1.072 0.091-1.916 0.988-1.916 2.084v9.413h-2.192c-2.714 0-5.094 2.215-5.094 4.744v17.008c0 1.294 0.893 2.432 2.146 2.752 0.229 0.067 0.47 0.104 0.71 0.104h2.984c0.383 0.469 0.968 0.769 1.619 0.769h32.975c0.651 0 1.236-0.301 1.618-0.769h2.983c1.578 0 2.858-1.281 2.858-2.856v-17.007c0.001-2.529-2.381-4.744-5.095-4.744zm3.005 21.751c0 0.422-0.345 0.767-0.767 0.767h-4.602v0.768h-32.976v-0.768h-4.601c-0.053 0-0.103-0.011-0.149-0.03-0.349-0.071-0.618-0.367-0.618-0.736v-17.008c0-1.459 1.527-2.653 3.004-2.653h4.282v-11.504h1.917v-10.087c0-0.506 0.521-1.033 1.022-1.033h11.322c0.192 0 0.429 0.07 0.694 0.188 2.672 1.147 8.57 7.459 11.089 10.933h3.098v11.503h4.281c1.477 0 3.004 1.194 3.004 2.653v17.007z"/>
</g>
<g id="Layer_1">
</g>
<g id="Layer_2" opacity=".3">
		<linearGradient id="SVGID_1_" y2="13.211" gradientUnits="userSpaceOnUse" x2="24.053" y1="26.248" x1="24.053">
			<stop stop-color="#0D0D0D" offset="0"/>
			<stop stop-color="#8C8C8C" offset="1"/>
		</linearGradient>
		<rect y="13.211" x="9.482" height="13.038" width="29.142" fill="url(#SVGID_1_)"/>
		<path d="m45.909 40.436v-13.068c0-1.459-1.527-2.653-3.004-2.653h-37.705c-1.477 0-3.004 1.194-3.004 2.653v13.068h43.713z" fill="#ECEBF7"/>
				<linearGradient id="SVGID_2_" y2="-349.48" gradientUnits="userSpaceOnUse" x2="306.05" gradientTransform="matrix(1 0 0 -1 -282 -324)" y1="-364.43" x1="306.05">
				<stop stop-color="#9B9B9B" offset="0"/>
				<stop stop-color="#ECECEC" offset="1"/>
			</linearGradient>
			<path d="m45.525 40.436v-12.304c0-1.458-1.187-2.651-2.637-2.651h-37.671c-1.45 0-2.637 1.193-2.637 2.651v12.304h42.945z" fill="url(#SVGID_2_)"/>
		<path d="m45.909 40.157v4.218c0 0.422-0.345 0.767-0.767 0.767h-42.179c-0.422 0-0.767-0.345-0.767-0.767v-4.218h43.713z" fill="#333"/>
			<path d="m2.58 40.923v3.835c0 0.211 0.172 0.383 0.384 0.383h42.179c0.211 0 0.383-0.172 0.383-0.383v-3.835h-42.946z" fill="#333"/>
		<path d="m39.007 37.368c0 0.422-0.345 0.767-0.767 0.767h-28.375c-0.421 0-0.766-0.345-0.766-0.767v-8.436c0-0.422 0.345-0.767 0.766-0.767h28.375c0.422 0 0.767 0.345 0.767 0.767v8.436z" fill="#CBC8E6"/>
			<linearGradient id="SVGID_3_" y2="25.812" gradientUnits="userSpaceOnUse" x2="24.053" y1="37.752" x1="24.053">
				<stop stop-color="#0D0D0D" offset="0"/>
				<stop stop-color="#8C8C8C" offset="1"/>
			</linearGradient>
			<rect y="25.812" x="9.482" height="11.939" width="29.142" fill="url(#SVGID_3_)"/>
			<linearGradient id="SVGID_4_" y2="-367.61" gradientUnits="userSpaceOnUse" x2="321.58" gradientTransform="matrix(1 0 0 -1 -282 -324)" y1="-366.07" x1="321.58">
			<stop stop-color="#ECEBF7" offset=".1917"/>
			<stop stop-color="#9E9E9E" offset=".53"/>
		</linearGradient>
		<rect y="42.074" x="38.624" height="3.835" width="1.917" fill="url(#SVGID_4_)"/>
			<linearGradient id="SVGID_5_" y2="-367.61" gradientUnits="userSpaceOnUse" x2="290.52" gradientTransform="matrix(1 0 0 -1 -282 -324)" y1="-366.07" x1="290.52">
			<stop stop-color="#ECEBF7" offset=".1917"/>
			<stop stop-color="#9E9E9E" offset=".53"/>
		</linearGradient>
		<rect y="42.074" x="7.564" height="3.835" width="1.917" fill="url(#SVGID_5_)"/>
			<linearGradient id="SVGID_6_" y2="-369.22" gradientUnits="userSpaceOnUse" x2="306.05" gradientTransform="matrix(1 0 0 -1 -282 -324)" y1="-368.76" x1="306.05">
			<stop stop-color="#ECEBF7" offset=".1917"/>
			<stop stop-color="#9E9E9E" offset=".53"/>
		</linearGradient>
		<rect y="44.758" x="9.482" height="1.15" width="29.142" fill="url(#SVGID_6_)"/>
			<linearGradient id="SVGID_7_" y2="-365.31" gradientUnits="userSpaceOnUse" x2="306.05" gradientTransform="matrix(1 0 0 -1 -282 -324)" y1="-368.33" x1="306.05">
			<stop stop-color="#727275" offset="0"/>
			<stop stop-color="#151517" offset=".53"/>
		</linearGradient>
		<polygon points="38.624 42.074 38.624 44.758 9.482 44.758 9.482 42.074 9.865 41.307 38.24 41.307" fill="url(#SVGID_7_)"/>
		<rect y="24.714" x="9.482" height="1.15" width="29.142" fill="#333336"/>
			<linearGradient id="SVGID_8_" y2="-349.48" gradientUnits="userSpaceOnUse" x2="306.05" gradientTransform="matrix(1 0 0 -1 -282 -324)" y1="-326.09" x1="306.05">
			<stop stop-color="#FCFCFC" offset="0"/>
			<stop stop-color="#fff" offset=".1742"/>
			<stop stop-color="#fff" offset=".8258"/>
			<stop stop-color="#A2A2A3" offset="1"/>
		</linearGradient>
		<path d="m36.706 25.865h-25.307v-22.741s0.521-1.033 1.022-1.033h11.3c2.697 0 12.985 11.629 12.985 13.23v10.544z" fill="url(#SVGID_8_)"/>
			<linearGradient id="SVGID_9_" y2="-349.48" gradientUnits="userSpaceOnUse" x2="306.05" gradientTransform="matrix(1 0 0 -1 -282 -324)" y1="-326.09" x1="306.05">
			<stop stop-color="#FCFCFC" offset="0"/>
			<stop stop-color="#eee" offset=".1742"/>
			<stop stop-color="#eee" offset=".8258"/>
			<stop stop-color="#A2A2A3" offset="1"/>
		</linearGradient>
		<path d="m36.323 25.865h-24.541v-22.741s0.505-1.033 0.991-1.033h10.97c2.612 0 12.58 11.629 12.58 13.23v10.544z" fill="url(#SVGID_9_)"/>
			<radialGradient id="SVGID_10_" gradientUnits="userSpaceOnUse" cy="-335.41" cx="314.86" gradientTransform="matrix(.8757 -.131 -.1048 -.7 -279.6 -181.88)" r="5.981">
			<stop stop-color="#C4C4C4" offset=".2135"/>
			<stop stop-color="#eee" offset=".927"/>
		</radialGradient>
		<path d="m34.876 12.804c0.288 1.927-0.425 3.631-2.837 3.992-2.409 0.361-5.605-0.758-5.894-2.685-0.289-1.928 0.586-2.558 2.996-2.919 2.411-0.36 3.856 0.521 5.735 1.612z" fill="url(#SVGID_10_)"/>
			<linearGradient id="SVGID_11_" y2="-335.65" gradientUnits="userSpaceOnUse" x2="312.93" gradientTransform="matrix(1 0 0 -1 -282 -324)" y1="-325.39" x1="310.49">
			<stop stop-color="#FCFDFD" offset="0"/>
			<stop stop-color="#eee" offset="1"/>
		</linearGradient>
		<path d="m36.706 15.321c0-3.088-10.257-3.093-10.257-3.093-0.01 1.022 0.104-10.138-2.729-10.138 2.698 0.001 12.986 12.2 12.986 13.231z" fill="url(#SVGID_11_)"/>
		<rect y="25.865" x="9.482" height=".384" width="29.078" fill="#333336"/>
</g>
<g id="Layer_3">
				<path d="m10.219 26.72h-5.903c-0.514 0-0.932-0.418-0.932-0.932v-5.821c0-0.514 0.418-0.931 0.932-0.931h5.902c0.514 0 0.932 0.417 0.932 0.931v5.821c0 0.514-0.418 0.932-0.931 0.932zm0-8.243h-5.903c-0.514 0-0.932-0.417-0.932-0.931v-0.8c0-1.045 0.219-1.989 0.646-2.809 0.416-0.798 1.221-1.747 2.467-2.897l1.053-0.955c0.55-0.497 0.946-0.96 1.182-1.374 0.209-0.362 0.311-0.702 0.311-1.043 0-0.634-0.252-0.913-0.443-1.07-0.352-0.29-0.891-0.435-1.602-0.435-0.773 0-1.631 0.166-2.549 0.494-0.951 0.34-1.967 0.853-3.011 1.532-0.154 0.1-0.33 0.15-0.506 0.15-0.152 0-0.307-0.039-0.445-0.113-0.301-0.163-0.487-0.476-0.487-0.818v-5.136c0-0.396 0.252-0.748 0.625-0.878 1.352-0.471 2.607-0.821 3.736-1.047 1.151-0.228 2.276-0.347 3.34-0.347 2.857 0 5.098 0.613 6.654 1.823 1.629 1.264 2.453 3.11 2.453 5.486 0 1.211-0.248 2.317-0.736 3.287-0.479 0.951-1.252 1.928-2.369 2.981l-1.068 0.95c-0.861 0.789-1.156 1.207-1.258 1.385-0.154 0.273-0.227 0.566-0.227 0.897v0.735c0 0.516-0.418 0.933-0.931 0.933z"/>
				<path d="m10.219 17.547h-5.903v-0.802c0-0.895 0.18-1.688 0.539-2.379 0.361-0.693 1.117-1.573 2.273-2.643l1.047-0.947c0.621-0.567 1.076-1.102 1.365-1.604s0.435-1.002 0.435-1.503c0-0.764-0.262-1.36-0.785-1.791s-1.254-0.646-2.192-0.646c-0.883 0-1.838 0.184-2.861 0.549-1.026 0.365-2.094 0.907-3.207 1.627v-5.136c1.32-0.458 2.525-0.796 3.615-1.014s2.143-0.327 3.156-0.327c2.66 0 4.689 0.543 6.084 1.627 1.395 1.085 2.094 2.669 2.094 4.751 0 1.069-0.213 2.025-0.639 2.87-0.426 0.846-1.15 1.753-2.176 2.723l-1.045 0.934c-0.742 0.675-1.227 1.218-1.455 1.627-0.23 0.408-0.346 0.858-0.346 1.349v0.735zm-5.903 2.42h5.902v5.821h-5.902v-5.821z"/>
				<linearGradient id="SVGID_12_" y2="25.789" gradientUnits="userSpaceOnUse" x2="8.4043" y1=".9312" x1="8.4043">
					<stop stop-color="#FF6363" offset="0"/>
					<stop stop-color="#c00" offset="1"/>
				</linearGradient>
				<path d="m10.219 17.547h-5.903v-0.802c0-0.895 0.18-1.688 0.539-2.379 0.361-0.693 1.117-1.573 2.273-2.643l1.047-0.947c0.621-0.567 1.076-1.102 1.365-1.604s0.435-1.002 0.435-1.503c0-0.764-0.262-1.36-0.785-1.791s-1.254-0.646-2.192-0.646c-0.883 0-1.838 0.184-2.861 0.549-1.026 0.365-2.094 0.907-3.207 1.627v-5.136c1.32-0.458 2.525-0.796 3.615-1.014s2.143-0.327 3.156-0.327c2.66 0 4.689 0.543 6.084 1.627 1.395 1.085 2.094 2.669 2.094 4.751 0 1.069-0.213 2.025-0.639 2.87-0.426 0.846-1.15 1.753-2.176 2.723l-1.045 0.934c-0.742 0.675-1.227 1.218-1.455 1.627-0.23 0.408-0.346 0.858-0.346 1.349v0.735zm-5.903 2.42h5.902v5.821h-5.902v-5.821z" fill="url(#SVGID_12_)"/>
		<path opacity=".4" d="m9.975 7.669c0 0.501-0.145 1.002-0.434 1.504s-0.744 1.036-1.365 1.604l-1.047 0.947c-1.156 1.069-1.912 1.949-2.273 2.643-0.359 0.691-0.539 1.484-0.539 2.379v0.802h0.348v-0.259c0-0.895 0.18-1.688 0.541-2.38 0.359-0.692 1.117-1.573 2.273-2.641l1.045-0.948c0.623-0.567 1.078-1.102 1.367-1.604 0.289-0.501 0.434-1.002 0.434-1.504 0-0.625-0.186-1.133-0.537-1.535 0.122 0.292 0.187 0.621 0.187 0.992zm-5.659 18.12h0.348v-5.279h5.555v-0.543h-5.903v5.822zm9.469-23.231c-1.395-1.084-3.424-1.627-6.084-1.627-1.014 0-2.066 0.109-3.156 0.327s-2.295 0.556-3.615 1.014v5.136c0.117-0.076 0.234-0.142 0.35-0.214v-4.379c1.32-0.458 2.523-0.796 3.615-1.014 1.09-0.218 2.141-0.327 3.156-0.327 2.66 0 4.688 0.543 6.082 1.627 0.391 0.303 0.719 0.648 1 1.029-0.336-0.605-0.781-1.13-1.348-1.572z" fill="#fff"/>
</g>
</svg>
