<?xml version="1.0" encoding="UTF-8" standalone="no"?>
<!-- Created with Inkscape (http://www.inkscape.org/) -->
<svg id="svg3756" xmlns:rdf="http://www.w3.org/1999/02/22-rdf-syntax-ns#" xmlns="http://www.w3.org/2000/svg" height="48" width="48" version="1.0" xmlns:cc="http://creativecommons.org/ns#" xmlns:xlink="http://www.w3.org/1999/xlink" xmlns:dc="http://purl.org/dc/elements/1.1/">
 <metadata id="metadata14">
  <rdf:RDF>
   <cc:Work rdf:about="">
    <dc:format>image/svg+xml</dc:format>
    <dc:type rdf:resource="http://purl.org/dc/dcmitype/StillImage"/>
    <dc:title/>
   </cc:Work>
  </rdf:RDF>
 </metadata>
 <defs id="defs3758">
  <linearGradient id="linearGradient3752" y2="10.428" gradientUnits="userSpaceOnUse" x2="45.572" gradientTransform="matrix(-.00026857 -1.049 1.049 -.00026857 -.019470 56.026)" y1="33.335" x1="15.132">
   <stop id="stop252" stop-color="#9b9b9b" offset="0"/>
   <stop id="stop254" stop-color="#ececec" offset="1"/>
  </linearGradient>
 </defs>
 <g id="layer1">
  <path id="path2685" opacity=".3" d="m24.02 6.0343c-8.198-0.0184-13.526 2.5851-19.298 6.4627l-0.93952 0.90415c-0.52867 0.4698-0.84627 1.1254-0.84787 1.8419-0.00149 0.66398 0.32635 1.2742 0.79417 1.7462l0.78007 1.0235 1.0193 1.3374 0.79668 1.0453c0.3998 0.40264 0.70311 0.55229 1.2327 0.62584-0.021709 0.50063-0.12494 0.80178 0.31179 1.4007l1.1844 1.554 0.86483 1.1347 0.81552 1.07c0.41027 0.41106 0.71071 0.47422 1.2455 0.5457-0.1394 0.49806-0.16334 0.99015 0.25109 1.418l1.0845 1.423 0.77012 1.0105 0.89857 1.179c0.43025 0.43314 0.47755 0.65472 1.1623 0.55644-0.30231 0.63196-0.069 0.85991 0.15851 1.1766l1.4885 1.953 4.3702 5.7342c0.51424 0.36979 1.2815 0.87653 2.027 0.76385 0.79534-0.11808 1.4541-0.59904 1.9029-1.1806l5.7697-7.4769c0.33882-0.35659 0.3136-0.77455 0.21535-1.2014 0.58407-0.04043 0.60753 0.0015 1.0555-0.44538l0.72279-0.93666 0.38641-0.50075 0.38992-0.5053 1.3648-1.7686c0.39741-0.40506 0.28414-0.83353 0.17998-1.3049 0.39987 0.0388 0.81748-0.11076 1.2306-0.52313l1.1887-1.5404 0.87178-1.1297 0.93674-1.2139c0.4016-0.40084 0.32112-0.88763 0.20215-1.2777 0.53198-0.07015 0.77066-0.0956 1.1702-0.50065l0.79147-1.0257 0.92181-1.1946 0.84501-1.095c0.47729-0.47411 0.73785-1.1174 0.73936-1.7908l0.000111-0.03124c-0.0111-0.68816-0.30307-1.3435-0.77727-1.783l-0.999-0.941c-5.771-3.9256-11.057-6.5223-19.28-6.5407zm-0.0048 2.2247h0.03124c7.4287 0.016618 12.801 2.5074 17.812 5.913l0.99783 0.87058c0.08165 0.0778 0.12253 0.16719 0.12437 0.28153-0.00021 0.11225-0.08431 0.2803-0.16418 0.35986l-0.72965 1.0754-0.93695 1.2142-0.77633 1.006c-0.1619 0.16118-0.3221 0.19448-0.48958 0.03676l-1.026-0.83c-4.829-3.284-8.659-4.982-14.79-4.996-6.162-0.012-11.186 2.111-14.788 4.899l-1.0313 0.825c-0.16713 0.15487-0.35197 0.19336-0.51315 0.03146l-0.7702-1.01c-0.4322-0.434-0.6146-0.94-1.0458-1.373l-0.7662-1.003c-0.081629-0.0799-0.12558-0.19846-0.12428-0.31279s0.042587-0.20353 0.12563-0.28097l1.0031-0.865c6.0801-3.782 10.432-5.8586 17.859-5.842h-0.000042zm0.01497 7.282c5.5773 0.01248 9.0439 1.7085 13.198 4.405l1.155 0.962c0.08784 0.07317 0.12214 0.1672 0.124 0.28152-0.000208 0.11224-0.07312 0.32779-0.153 0.40734l-0.68721 0.89102c-0.40686 0.40503-0.45932 0.72015-0.86827 1.1252l-0.77633 1.006c-0.1619 0.16117-0.24004 0.25355-0.40647 0.09793l-0.93561-0.71903c-3.6169-2.4788-6.3369-3.6394-10.661-3.6512-4.3311-0.0076-7.9168 1.4344-10.381 3.4794l-1 0.76212c-0.16818 0.15486-0.37783 0.24643-0.54005 0.08348l-0.75859-0.99537c-0.40503-0.40686-0.48432-0.76145-0.8904-1.1683l-0.84077-1.1032c-0.081639-0.0799-0.12703-0.32357-0.12573-0.4379 0.00241-0.11434 0.20025-0.26668 0.28433-0.34413l1.1322-0.867c3.7952-2.52 7.5538-4.2275 13.13-4.215h0.000009-0.000043zm-0.04739 7.218h0.03124c3.7689 0 6.5634 1.2848 9.0061 2.998l0.96679 0.777c0.08467 0.07682 0.12246 0.09847 0.1243 0.2128-0.000309 0.11224 0.04842 0.307-0.02938 0.38654l-0.79147 1.0257-0.80187 1.0391-0.72279 0.93666c-0.1598 0.15908-0.39888 0.17411-0.56532 0.02061l-0.18634-0.19917c-2.1756-1.7307-4.4258-2.663-7.0104-2.6719-2.5857-0.0016-3.9944 0.62202-6.0896 1.8303l-0.87593 0.71027c-0.16817 0.15277-0.6513 0.42502-0.81143 0.26417l-0.718-0.94c-0.36108-0.3627-0.41009-0.64674-0.77012-1.0105l-0.78516-1.0302c-0.08164-0.08199-0.20836-0.13618-0.20601-0.25051 0.0023-0.11433-0.03888-0.17425 0.04626-0.25168l0.971-0.773c2.6967-1.8926 5.4507-3.0824 9.2174-3.074h-0.000005z"/>
  <path id="path2847" opacity=".3" fill="url(#linearGradient3752)" d="m23.938 8.2205c-3.714 0.001-7.426 0.7037-10.947 2.1065-1.761 0.701-3.4738 1.577-5.1152 2.628-1.0396 0.766-1.6595 1.069-2.3824 1.613-0.2248 0.184-0.4505 0.322-0.5212 0.587-0.076614 0.28666-0.17218 0.29573 0.0171 0.51883l0.816 1.083 0.8217 1.222 0.763 1.014c0.33147 0.29742 0.76491 0.0087 0.9306-0.14653 0.71764-0.50083 1.4689-1.0854 2.3346-1.6415 1.372-0.87982 2.7988-1.6121 4.2626-2.1975 2.9277-1.1708 6.0032-1.754 9.0835-1.7553 3.0656 0.000145 6.13 0.58561 9.0484 1.7566 1.4592 0.58548 2.8819 1.3174 4.25 2.1957l2.564 1.8076c0.16787 0.1573 0.42046 0.14463 0.58196-0.01695l0.77094-1.0313 0.91691-1.2266 0.81212-1.0864c0.07969-0.07974 0.04508-0.26011 0.04507-0.37235-0.0022-0.11434-0.12348-0.26386-0.20532-0.34146-1.2504-1.0593-1.8134-1.4094-2.7272-1.9913-1.6448-1.0503-3.3615-1.9256-5.1259-2.6257-1.764-0.7005-3.576-1.2255-5.411-1.5754-1.836-0.3498-3.694-0.5245-5.552-0.524l-0.03123-6e-7 -0.000062-0.0000403z"/>
  <path id="path2889" fill="url(#linearGradient3752)" d="m23.941 22.721c-1.8834 0.000449-3.7584 0.3604-5.5453 1.0718-0.89343 0.35571-1.7648 0.7993-2.6042 1.3298-0.67326 0.44571-1.2104 0.82649-1.8956 1.355-0.08494 0.07765-0.27558 0.23952-0.27869 0.35386-0.002 0.11434-0.12735 0.28408-0.04554 0.36588l0.96696 1.1513 0.7634 1.0132 0.71076 0.94334c0.16054 0.15939 0.50498 0.05723 0.67277-0.09591 0.46227-0.42042 0.96937-0.83447 1.5995-1.1927 0.60081-0.37699 1.2177-0.68797 1.8451-0.93515 1.2547-0.49438 2.5509-0.73542 3.8433-0.73551 1.2923-0.000036 2.589 0.2406 3.844 0.73433 0.62752 0.24687 1.2446 0.55746 1.8456 0.93401l1.7558 1.3424c0.16577 0.15311 0.3948 0.13124 0.55525-0.02929l0.70734-0.94616 0.75972-1.0163 0.77468-1.0363c0.0776-0.07974 0.09754-0.22064 0.09752-0.33288-0.0022-0.11434-0.04113-0.23487-0.12508-0.31247-0.74099-0.63506-1.4534-1.2092-2.0417-1.568-0.84265-0.53039-1.7176-0.9733-2.6145-1.3281-1.7937-0.7096-3.6749-1.0667-5.5599-1.0662l-0.03127 0.00006 0.000005-0.000024 0.00004 0.000051 0.000013-0.000007-0.000003-0.000036zm0.033 6.8125c-0.26155-0.0033-0.52216-0.0038-0.78123 0.03143-1.204 0.16405-2.3208 0.4951-3.3216 1.0176-0.50042 0.26127-0.96912 0.57707-1.4083 0.94926-0.23028 0.19515-0.39385 0.35117-0.6506 0.67744-0.06415 0.08148-0.06465 0.17225-0.06461 0.28387 0.00007 0.15314 0.0815 0.2336 0.19007 0.32532l5.6639 7.0589c0.08893 0.11088 0.22186 0.15624 0.37504 0.15616 0.15314-0.000071 0.28325-0.04777 0.37496-0.15635 2.0408-2.3137 3.7831-4.8052 5.8084-7.1279 0.10852-0.09178-0.0014-0.34069-0.0016-0.49384-0.25428-0.29383-0.35409-0.42596-0.67247-0.7262-0.43732-0.37432-0.90802-0.68777-1.4086-0.94875-1.0011-0.52202-2.1199-0.83607-3.3222-1.0159-0.26091-0.01876-0.51971-0.03444-0.78126-0.03104l0.00001 0.000006 0.000036 0.000004z"/>
  <path id="path256" opacity=".3" fill="url(#linearGradient3752)" d="m23.971 15.502c-2.7881 0.000675-5.575 0.53842-8.2243 1.6006-1.3247 0.53107-2.6149 1.1932-3.8538 1.985-0.82282 0.57918-1.4491 0.87064-2.1773 1.5267-0.083889 0.07765-0.2341 0.31768-0.2362 0.43199-0.00102 0.11434-0.00483 0.3439 0.077004 0.4236l0.69408 1.1862 0.75392 1.133 0.763 1.0132c0.26352 0.29741 0.61407 0.06564 0.78186-0.08961 1.0477-0.88495 1.3687-1.0627 1.9931-1.492 0.97817-0.62539 1.9911-1.1461 3.0272-1.5625 2.0722-0.83279 4.2372-1.2484 6.4028-1.25 2.1624 0.00047 4.3284 0.41524 6.4022 1.2471 1.0369 0.41593 2.0508 0.93614 3.0296 1.561l2.1984 1.5335c0.16576 0.15522 0.3867 0.15233 0.54925-0.01034l0.75969-1.0162 0.74996-1.1365 0.746-1.0714c0.06442-0.09252 0.10006-0.14802 0.1-0.26029-0.0022-0.11434 0.08394-0.25752-0.000004-0.33511-0.99434-0.82351-1.5312-1.124-2.4562-1.8386-1.2392-0.79109-2.5297-1.4526-3.8546-1.983-2.6497-1.0608-5.4369-1.5971-8.2255-1.5963l-0.000002-0.000041-0.000021-0.000022z"/>
  <path id="path3659" opacity=".5" fill="#fff" d="m25.771 22.834c-3.8213-0.48161-7.8564 0.66438-11.303 3.203l-0.66985 0.53246c-0.43835 0.28399-0.07043 0.49011-0.03645 0.69399l2.1194 2.8256c0.2929 0.40755 0.66714 0.07938 0.66714 0.07938l-2.1709-3.0143 0.49275-0.41028c3.4779-2.6648 7.2723-4.0259 11.094-3.545 3.8394 0.48529 5.1237 1.5223 7.75 3.4104l0.32148 0.19806-0.51473-0.66343c-1.9991-1.5297-3.91-2.8239-7.75-3.3099zm-0.7408 6.767c-2.2495-0.28347-4.7144 0.34593-6.7857 2.1044l-0.28716 0.27873c-0.26065 0.18788-0.10926 0.61617-0.10927 0.61617l5.559 7.062 0.43593 0.27963-5.4357-7.2791 0.27741-0.26414c2.0712-1.758 4.03-2.6168 6.2796-2.3338 2.2602 0.28572 3.3506 0.66812 4.9254 2.2206l0.305 0.12-0.394-0.578c-1.377-1.305-2.795-1.972-4.771-2.227z"/>
 </g>
</svg>
