<?xml version="1.0" encoding="UTF-8" standalone="no"?>
<!-- Generator: Adobe Illustrator 13.0.0, SVG Export Plug-In . SVG Version: 6.00 Build 14576)  -->
<svg id="svg2" xmlns:rdf="http://www.w3.org/1999/02/22-rdf-syntax-ns#" xmlns="http://www.w3.org/2000/svg" enable-background="new 0 0 35.291 47.998" xml:space="preserve" height="47.998" width="48" version="1.0" y="0px" x="0px" xmlns:cc="http://creativecommons.org/ns#" xmlns:xlink="http://www.w3.org/1999/xlink" viewBox="0 0 35.291 47.998" xmlns:dc="http://purl.org/dc/elements/1.1/"><metadata id="metadata286"><rdf:RDF><cc:Work rdf:about=""><dc:format>image/svg+xml</dc:format><dc:type rdf:resource="http://purl.org/dc/dcmitype/StillImage"/></cc:Work></rdf:RDF></metadata><defs id="defs284">
<linearGradient id="linearGradient2542" y2="1455.5" gradientUnits="userSpaceOnUse" x2="271.08" y1="1498.6" x1="302.34"><stop id="stop2188" stop-color="#9B9B9B" offset="0"/><stop id="stop2190" stop-color="#ECECEC" offset="1"/></linearGradient>
	</defs>
<g id="g2179" opacity=".3" transform="translate(-268.42 -1453)">
			<g id="g2181">
				<path id="path2183" d="m306.35 1454h-40.28c-1.66 0-3.01 1.4-3.01 3v40c0 1.7 1.35 3 3.01 3h40.28c1.66 0 3.01-1.3 3.01-3v-40c0-1.6-1.35-3-3.01-3zm1.01 43c0 0.6-0.45 1-1.01 1h-40.28c-0.56 0-1.01-0.4-1.01-1v-40c0-0.5 0.45-1 1.01-1h40.28c0.56 0 1.01 0.5 1.01 1v40z"/>
			</g>
		</g><g id="g2185" transform="translate(-268.42 -1453)">
			<path id="path2192" fill="url(#linearGradient2542)" d="m307.36 1497c0 0.6-0.45 1-1.01 1h-40.28c-0.56 0-1.01-0.4-1.01-1v-40c0-0.5 0.45-1 1.01-1h40.28c0.56 0 1.01 0.5 1.01 1v40z"/>
		</g><g id="g2194" opacity=".2" transform="translate(-268.42 -1453)">
			<g id="g2196">
				<path id="path2198" fill="#fff" d="m306.35 1456h-40.28c-0.56 0-1.01 0.5-1.01 1v40c0 0.6 0.45 1 1.01 1h40.28c0.56 0 1.01-0.4 1.01-1v-40c0-0.5-0.45-1-1.01-1zm0 41h-40.28l-0.01-40h40.29l0.01 40h-0.01z"/>
			</g>
		</g><g id="g2200" opacity=".2" transform="translate(-268.42 -1453)">
			<g id="g2202">
				<path id="path2204" fill="#fff" d="m266.06 1457h41.29c0-0.5-0.45-1-1-1h-40.28c-0.56 0-1.01 0.5-1.01 1v40c0 0.6 0.45 1 1.01 1l-0.01-41z"/>
			</g>
		</g></svg>
