<?xml version="1.0" encoding="UTF-8" standalone="no"?>
<!-- Created with Inkscape (http://www.inkscape.org/) -->

<svg
   xmlns:dc="http://purl.org/dc/elements/1.1/"
   xmlns:cc="http://creativecommons.org/ns#"
   xmlns:rdf="http://www.w3.org/1999/02/22-rdf-syntax-ns#"
   xmlns:svg="http://www.w3.org/2000/svg"
   xmlns="http://www.w3.org/2000/svg"
   xmlns:xlink="http://www.w3.org/1999/xlink"
   xmlns:sodipodi="http://sodipodi.sourceforge.net/DTD/sodipodi-0.dtd"
   xmlns:inkscape="http://www.inkscape.org/namespaces/inkscape"
   version="1.1"
   width="16"
   height="16"
   id="svg3882"
   inkscape:version="0.48.0 r9654"
   sodipodi:docname="edit-find-option-symbolic.svg">
  <sodipodi:namedview
     pagecolor="#ffffff"
     bordercolor="#666666"
     borderopacity="1"
     objecttolerance="10"
     gridtolerance="10"
     guidetolerance="10"
     inkscape:pageopacity="0"
     inkscape:pageshadow="2"
     inkscape:window-width="1280"
     inkscape:window-height="753"
     id="namedview12"
     showgrid="true"
     inkscape:zoom="33.9375"
     inkscape:cx="7.9705341"
     inkscape:cy="8"
     inkscape:window-x="0"
     inkscape:window-y="24"
     inkscape:window-maximized="1"
     inkscape:current-layer="svg3882">
    <inkscape:grid
       type="xygrid"
       id="grid2989" />
  </sodipodi:namedview>
  <defs
     id="defs3884">
    <linearGradient
       id="linearGradient3587-6-5-3-5-7">
      <stop
         id="stop3589-9-2-2-6-2"
         style="stop-color:#000000;stop-opacity:1"
         offset="0" />
      <stop
         id="stop3591-7-4-73-5-1"
         style="stop-color:#363636;stop-opacity:1"
         offset="1" />
    </linearGradient>
    <linearGradient
       inkscape:collect="always"
       xlink:href="#linearGradient3587-6-5-3-5-7"
       id="linearGradient3766"
       gradientUnits="userSpaceOnUse"
       gradientTransform="matrix(-0.4100229,0,0,0.5447147,27.02322,-5.9219706)"
       x1="46.395508"
       y1="12.707516"
       x2="46.395508"
       y2="38.409042" />
  </defs>
  <metadata
     id="metadata3887">
    <rdf:RDF>
      <cc:Work
         rdf:about="">
        <dc:format>image/svg+xml</dc:format>
        <dc:type
           rdf:resource="http://purl.org/dc/dcmitype/StillImage" />
        <dc:title></dc:title>
      </cc:Work>
    </rdf:RDF>
  </metadata>
  <path
     style="opacity:0.6;color:#000000;fill:#ffffff;fill-opacity:1;fill-rule:nonzero;stroke:none;stroke-width:1;marker:none;visibility:visible;display:inline;overflow:visible;enable-background:accumulate"
     d="M 5,2 C 2.2385763,2 0,4.2385763 0,7 c 0,2.7614237 2.2385763,5 5,5 0.9847834,0 1.8822735,-0.289667 2.65625,-0.78125 l 4.46875,4.625 c 0.09558,0.105267 0.226186,0.164519 0.375,0.15625 0.148816,-0.0083 0.303095,-0.07119 0.40625,-0.1875 l 0.9375,-1.0625 c 0.191938,-0.220889 0.195486,-0.535924 0,-0.71875 L 9.25,9.625 C 9.727599,8.8586522 10,7.9694836 10,7 10,4.2385763 7.7614237,2 5,2 z M 5,4 C 6.6568542,4 8,5.3431458 8,7 8,8.6568542 6.6568542,10 5,10 3.3431458,10 2,8.6568542 2,7 2,5.3431458 3.3431458,4 5,4 z m 6,3 2.5,4 2.5,-4 z"
     id="path3220-5"
     inkscape:connector-curvature="0"
     sodipodi:nodetypes="ssscccccccssssssscccc" />
  <path
     style="opacity:0.7;color:#000000;fill:url(#linearGradient3766);fill-opacity:1;fill-rule:nonzero;stroke:none;stroke-width:1;marker:none;visibility:visible;display:inline;overflow:visible;enable-background:accumulate"
     d="M 5,1 C 2.2385763,1 0,3.2385763 0,6 c 0,2.7614237 2.2385763,5 5,5 0.9847834,0 1.8822735,-0.289667 2.65625,-0.78125 l 4.46875,4.625 c 0.09558,0.105267 0.226186,0.164519 0.375,0.15625 0.148816,-0.0083 0.303095,-0.07119 0.40625,-0.1875 l 0.9375,-1.0625 c 0.191938,-0.220889 0.195486,-0.535924 0,-0.71875 L 9.25,8.625 C 9.727599,7.8586522 10,6.9694836 10,6 10,3.2385763 7.7614237,1 5,1 z M 5,3 C 6.6568542,3 8,4.3431458 8,6 8,7.6568542 6.6568542,9 5,9 3.3431458,9 2,7.6568542 2,6 2,4.3431458 3.3431458,3 5,3 z m 6,3 2.5,4 2.5,-4 z"
     id="path3220"
     inkscape:connector-curvature="0"
     sodipodi:nodetypes="ssscccccccssssssscccc" />
</svg>
