<?xml version="1.0" encoding="UTF-8" standalone="no"?>
<!-- Created with Inkscape (http://www.inkscape.org/) -->

<svg
   xmlns:dc="http://purl.org/dc/elements/1.1/"
   xmlns:cc="http://creativecommons.org/ns#"
   xmlns:rdf="http://www.w3.org/1999/02/22-rdf-syntax-ns#"
   xmlns:svg="http://www.w3.org/2000/svg"
   xmlns="http://www.w3.org/2000/svg"
   xmlns:sodipodi="http://sodipodi.sourceforge.net/DTD/sodipodi-0.dtd"
   xmlns:inkscape="http://www.inkscape.org/namespaces/inkscape"
   version="1.1"
   width="16"
   height="16"
   id="svg7384"
   inkscape:version="0.48.2 r9819"
   sodipodi:docname="folder-music-symbolic.svg">
  <sodipodi:namedview
     pagecolor="#ffffff"
     bordercolor="#666666"
     borderopacity="1"
     objecttolerance="10"
     gridtolerance="10"
     guidetolerance="10"
     inkscape:pageopacity="0"
     inkscape:pageshadow="2"
     inkscape:window-width="1129"
     inkscape:window-height="664"
     id="namedview7"
     showgrid="false"
     inkscape:zoom="14.75"
     inkscape:cx="-11.932203"
     inkscape:cy="8"
     inkscape:window-x="0"
     inkscape:window-y="24"
     inkscape:window-maximized="0"
     inkscape:current-layer="svg7384" />
  <title
     id="title9167">Gnome Symbolic Icon Theme</title>
  <defs
     id="defs11" />
  <metadata
     id="metadata90">
    <rdf:RDF>
      <cc:Work
         rdf:about="">
        <dc:format>image/svg+xml</dc:format>
        <dc:type
           rdf:resource="http://purl.org/dc/dcmitype/StillImage" />
        <dc:title>Gnome Symbolic Icon Theme</dc:title>
      </cc:Work>
    </rdf:RDF>
  </metadata>
  <path
     style="opacity:1;color:#bebebe;fill:#bebebe;fill-opacity:1;fill-rule:nonzero;stroke:none;stroke-width:1;marker:none;visibility:visible;display:inline;overflow:visible;enable-background:accumulate"
     d="M 12.375,2.0082226e-8 C 10.017897,0.37983517 6.8505507,0.7864515 4.5,1.1875 3.9553666,1.4532299 4.0001739,2.0597888 4,2.59375 L 4,10 c -0.4815543,-0.019282 -0.9822585,0.121889 -1.46875,0.40625 -1.2695902,0.742094 -1.88553027,2.273377 -1.34375,3.4375 0.5417803,1.164123 2.0116598,1.492094 3.28125,0.75 C 5.4502409,14.020054 6.0397431,12.986545 6,12 L 6,4.46875 C 6.2855763,4.4476 10.61103,3.6174533 11,3.5625 L 11,9 c -0.481554,-0.019282 -0.982259,0.1218886 -1.46875,0.40625 -1.2695902,0.742094 -1.8855303,2.273377 -1.34375,3.4375 0.5417803,1.164123 2.01166,1.492094 3.28125,0.75 C 12.450241,13.020054 13.039743,11.986545 13,11 L 13,0.65625002 C 12.95514,0.33049137 12.74142,-0.02351408 12.375,2.0082226e-8 z"
     id="path4031"
     inkscape:connector-curvature="0"
     sodipodi:nodetypes="ccccsssccccsssccc" />
</svg>
