<?xml version="1.0" encoding="UTF-8" standalone="no"?>
<!-- Generator: Adobe Illustrator 13.0.0, SVG Export Plug-In . SVG Version: 6.00 Build 14576)  -->
<svg id="svg2" xmlns:rdf="http://www.w3.org/1999/02/22-rdf-syntax-ns#" xmlns="http://www.w3.org/2000/svg" enable-background="new 0 0 47.998 46.587" xml:space="preserve" height="48" width="47.998" version="1.0" y="0px" x="0px" xmlns:cc="http://creativecommons.org/ns#" xmlns:xlink="http://www.w3.org/1999/xlink" viewBox="0 0 47.998 46.587" xmlns:dc="http://purl.org/dc/elements/1.1/"><metadata id="metadata312"><rdf:RDF><cc:Work rdf:about=""><dc:format>image/svg+xml</dc:format><dc:type rdf:resource="http://purl.org/dc/dcmitype/StillImage"/></cc:Work></rdf:RDF></metadata><defs id="defs310">
			<linearGradient id="linearGradient2774" y2="3.4565" gradientUnits="userSpaceOnUse" x2="24" y1="44.587" x1="24"><stop id="stop279" stop-color="#9B9B9B" offset="0"/><stop id="stop281" stop-color="#ECECEC" offset="1"/></linearGradient>
		</defs>
<g id="Layer_2" opacity=".3">
	<g id="g238">
		<g id="g240">
			<path id="path242" d="m44.087 1.458h-5.74c-2.158 0-3.912 1.753-3.912 3.912v5.169c-0.548-0.292-1.164-0.474-1.827-0.474h-5.739c-2.157 0-3.913 1.756-3.913 3.914v5.169c-0.547-0.292-1.163-0.474-1.826-0.474h-5.74c-2.158 0-3.912 1.756-3.912 3.914v5.169c-0.548-0.292-1.164-0.474-1.828-0.474h-5.738c-2.159 0-3.912 1.753-3.912 3.911v11.479c0 2.158 1.753 3.914 3.912 3.914h5.739c1.138 0 2.154-0.496 2.87-1.273 0.715 0.777 1.731 1.273 2.869 1.273h5.739c1.138 0 2.154-0.496 2.869-1.273 0.716 0.777 1.732 1.273 2.87 1.273h5.739c1.138 0 2.154-0.496 2.869-1.273 0.716 0.777 1.731 1.273 2.87 1.273h5.74c2.157 0 3.911-1.754 3.911-3.912v-37.305c0.001-2.159-1.753-3.912-3.91-3.912zm-32.523 41.216c0 1.057-0.857 1.913-1.913 1.913h-5.739c-1.057 0-1.913-0.856-1.913-1.913v-11.479c0-1.057 0.856-1.913 1.913-1.913h5.739c1.056 0 1.913 0.856 1.913 1.913v11.479zm11.478 0c0 1.057-0.856 1.913-1.913 1.913h-5.739c-1.056 0-1.913-0.856-1.913-1.913v-20.087c0-1.057 0.857-1.913 1.913-1.913h5.739c1.057 0 1.913 0.856 1.913 1.913v20.087zm11.479 0c0 1.057-0.856 1.913-1.913 1.913h-5.739c-1.056 0-1.913-0.856-1.913-1.913v-28.696c0-1.057 0.857-1.913 1.913-1.913h5.739c1.057 0 1.913 0.856 1.913 1.913v28.696zm11.478 0c0 1.057-0.856 1.913-1.913 1.913h-5.739c-1.057 0-1.913-0.856-1.913-1.913v-37.305c0-1.056 0.856-1.913 1.913-1.913h5.739c1.057 0 1.913 0.857 1.913 1.913v37.305z"/>
		</g>
	</g>
</g>
<g id="g2825"><path id="path2813" fill="url(#linearGradient2774)" d="m21.129 20.674h-5.739c-1.056 0-1.913 0.856-1.913 1.913v20.087c0 1.057 0.857 1.913 1.913 1.913h5.739c1.057 0 1.913-0.856 1.913-1.913v-20.087c0-1.057-0.856-1.913-1.913-1.913z"/><path id="path2807" opacity=".4" fill="#fff" d="m21.129 20.674h-5.739c-1.056 0-1.913 0.856-1.913 1.913v20.087c0 0.432 0.148 0.825 0.389 1.145-0.087-0.219-0.139-0.457-0.139-0.707v-20.088c0-1.057 0.857-1.913 1.913-1.913h5.739c0.625 0 1.175 0.304 1.524 0.769-0.281-0.706-0.967-1.206-1.774-1.206z"/></g><g id="g2817" opacity=".3"><path id="path283" fill="url(#linearGradient2774)" d="m44.086 3.456h-5.739c-1.057 0-1.913 0.857-1.913 1.913v37.305c0 1.057 0.856 1.913 1.913 1.913h5.739c1.057 0 1.913-0.856 1.913-1.913v-37.305c0-1.056-0.856-1.913-1.913-1.913z"/><path id="path2805" opacity=".4" fill="#fff" d="m44.086 3.456h-5.739c-1.057 0-1.913 0.857-1.913 1.913v37.305c0 0.432 0.147 0.825 0.389 1.145-0.087-0.219-0.139-0.457-0.139-0.707v-37.305c0-1.056 0.856-1.913 1.913-1.913h5.739c0.625 0 1.175 0.305 1.524 0.769-0.281-0.706-0.967-1.207-1.774-1.207z"/></g><g id="g2829"><path id="path2815" fill="url(#linearGradient2774)" d="m9.651 29.282h-5.739c-1.057 0-1.913 0.856-1.913 1.913v11.479c0 1.057 0.856 1.913 1.913 1.913h5.739c1.056 0 1.913-0.856 1.913-1.913v-11.479c0-1.056-0.856-1.913-1.913-1.913z"/><path id="path2803" opacity=".4" fill="#fff" d="m9.651 29.282h-5.739c-1.057 0-1.913 0.856-1.913 1.913v11.479c0 0.432 0.148 0.825 0.389 1.145-0.088-0.219-0.139-0.458-0.139-0.708v-11.478c0-1.057 0.856-1.913 1.913-1.913h5.739c0.625 0 1.175 0.305 1.524 0.769-0.281-0.707-0.968-1.207-1.774-1.207z"/></g><g id="g2821"><path id="path2811" fill="url(#linearGradient2774)" d="m32.607 12.065h-5.739c-1.056 0-1.913 0.856-1.913 1.913v28.696c0 1.057 0.857 1.913 1.913 1.913h5.739c1.057 0 1.913-0.856 1.913-1.913v-28.696c0.001-1.057-0.856-1.913-1.913-1.913z"/><path id="path290" opacity=".4" fill="#fff" d="m32.607 12.065h-5.739c-1.056 0-1.913 0.856-1.913 1.913v28.696c0 0.431 0.148 0.824 0.389 1.145-0.087-0.219-0.139-0.457-0.139-0.707v-28.696c0-1.057 0.857-1.913 1.913-1.913h5.739c0.625 0 1.175 0.304 1.524 0.768-0.28-0.706-0.967-1.206-1.774-1.206z"/></g>
<g id="Layer_6_copy">
	<g id="g293" opacity=".3">
		<g id="g295">
			<path id="path297" d="m11.432 0h-2.633c-0.941 0-1.728 0.647-1.942 1.521-0.213-0.874-1-1.521-1.941-1.521h-2.633c-1.105 0-1.999 0.894-1.999 2v10.207c0 1.105 0.894 1.999 1.999 1.999h2.632c0.941 0 1.729-0.647 1.942-1.521 0.214 0.874 1.001 1.521 1.942 1.521h2.632c1.105 0 2-0.894 2-1.999v-10.207c0-1.106-0.894-2-1.999-2zm-0.001 12.206h-2.632v-4.327h-3.883v4.327h-2.632v-10.206h2.632v3.89h3.883v-3.89h2.632v10.206z"/>
		</g>
	</g>
</g>
<g id="Layer_11">
	<g id="g300">
		<linearGradient id="SVGID_5_" y2="2" gradientUnits="userSpaceOnUse" x2="6.8574" y1="12.206" x1="6.8574">
			<stop id="stop303" stop-color="#9B9B9B" offset="0"/>
			<stop id="stop305" stop-color="#ECECEC" offset="1"/>
		</linearGradient>
		<path id="path307" fill="url(#SVGID_5_)" d="m2.284 2h2.632v3.89h3.883v-3.89h2.632v10.206h-2.632v-4.327h-3.883v4.327h-2.632v-10.206z"/>
	</g>
</g>
</svg>
