<?xml version="1.0" encoding="UTF-8" standalone="no"?>
<!-- Created with Inkscape (http://www.inkscape.org/) -->

<svg
   xmlns:dc="http://purl.org/dc/elements/1.1/"
   xmlns:cc="http://creativecommons.org/ns#"
   xmlns:rdf="http://www.w3.org/1999/02/22-rdf-syntax-ns#"
   xmlns:svg="http://www.w3.org/2000/svg"
   xmlns="http://www.w3.org/2000/svg"
   xmlns:xlink="http://www.w3.org/1999/xlink"
   xmlns:sodipodi="http://sodipodi.sourceforge.net/DTD/sodipodi-0.dtd"
   xmlns:inkscape="http://www.inkscape.org/namespaces/inkscape"
   width="48"
   height="48"
   id="svg4097"
   version="1.1"
   inkscape:version="0.48.1 r9760"
   sodipodi:docname="notification-download-complete.svg">
  <defs
     id="defs4099">
    <linearGradient
       inkscape:collect="always"
       xlink:href="#linearGradient4056"
       id="linearGradient4054"
       gradientUnits="userSpaceOnUse"
       gradientTransform="matrix(1.0746673,0,0,1.3620658,-50.74054,-18.153535)"
       x1="77.922295"
       y1="33.150772"
       x2="77.922295"
       y2="13.327943" />
    <linearGradient
       id="linearGradient4056">
      <stop
         id="stop4058"
         style="stop-color:#ffffff;stop-opacity:1;"
         offset="0" />
      <stop
         offset="0.37037033"
         style="stop-color:#ffffff;stop-opacity:0.23529412;"
         id="stop4060" />
      <stop
         id="stop4062"
         style="stop-color:#ffffff;stop-opacity:0.15686275;"
         offset="0.59259254" />
      <stop
         id="stop4064"
         style="stop-color:#ffffff;stop-opacity:0.39215687;"
         offset="1" />
    </linearGradient>
    <linearGradient
       inkscape:collect="always"
       xlink:href="#linearGradient3967-8"
       id="linearGradient3079-7-1-3"
       gradientUnits="userSpaceOnUse"
       gradientTransform="matrix(1.0746673,0,0,1.3620658,-50.74054,-18.153535)"
       x1="73.85141"
       y1="6.7203326"
       x2="73.85141"
       y2="34.619133" />
    <linearGradient
       id="linearGradient3967-8">
      <stop
         offset="0"
         style="stop-color:#ffffff;stop-opacity:1;"
         id="stop3969-8" />
      <stop
         id="stop3971-4"
         style="stop-color:#ffffff;stop-opacity:0.23529412;"
         offset="0.55263156" />
      <stop
         offset="0.8157894"
         style="stop-color:#ffffff;stop-opacity:0.15686275;"
         id="stop3973-0" />
      <stop
         offset="1"
         style="stop-color:#ffffff;stop-opacity:0.39215687;"
         id="stop3975-0" />
    </linearGradient>
    <linearGradient
       id="linearGradient5578-678-854-806-6-9">
      <stop
         style="stop-color:#dadada;stop-opacity:1;"
         offset="0"
         id="stop2504-4-1" />
      <stop
         style="stop-color:#717171;stop-opacity:1;"
         offset="1"
         id="stop2506-3-9" />
    </linearGradient>
    <linearGradient
       y2="39.117203"
       x2="24.638437"
       y1="7.4950299"
       x1="24.638437"
       gradientTransform="matrix(1.4297879,0,0,1.3899564,-10.404266,-8.4248417)"
       gradientUnits="userSpaceOnUse"
       id="linearGradient4095"
       xlink:href="#linearGradient5578-678-854-806-6-9"
       inkscape:collect="always" />
  </defs>
  <sodipodi:namedview
     id="base"
     pagecolor="#ffffff"
     bordercolor="#666666"
     borderopacity="1.0"
     inkscape:pageopacity="0.0"
     inkscape:pageshadow="2"
     inkscape:zoom="11.197802"
     inkscape:cx="16"
     inkscape:cy="16"
     inkscape:current-layer="layer1"
     showgrid="true"
     inkscape:grid-bbox="true"
     inkscape:document-units="px"
     inkscape:window-width="453"
     inkscape:window-height="438"
     inkscape:window-x="0"
     inkscape:window-y="339"
     inkscape:window-maximized="0" />
  <metadata
     id="metadata4102">
    <rdf:RDF>
      <cc:Work
         rdf:about="">
        <dc:format>image/svg+xml</dc:format>
        <dc:type
           rdf:resource="http://purl.org/dc/dcmitype/StillImage" />
        <dc:title></dc:title>
      </cc:Work>
    </rdf:RDF>
  </metadata>
  <g
     id="layer1"
     inkscape:label="Layer 1"
     inkscape:groupmode="layer"
     transform="translate(0,16)">
    <path
       transform="translate(0,-16)"
       sodipodi:type="inkscape:offset"
       inkscape:radius="0.52989584"
       inkscape:original="M 28 7.5 C 23.548005 7.5 19.69239 10.049508 17.78125 13.75 C 16.542581 12.962895 15.076275 12.5 13.5 12.5 C 9.081722 12.5 5.5 16.081722 5.5 20.5 C 5.5 21.202506 5.6111857 21.882076 5.78125 22.53125 C 2.5902344 24.683516 0.5 28.345 0.5 32.5 C 0.5 39.148 5.852 44.5 12.5 44.5 L 35.5 44.5 C 42.148 44.5 47.5 39.148 47.5 32.5 C 47.5 27.191243 44.072844 22.715491 39.3125 21.125 C 39.441675 20.434986 39.5 19.7275 39.5 19 C 39.5 12.648725 34.351275 7.5 28 7.5 z M 17.5 16.5 L 30.5 16.5 L 30.5 27.5 L 35.5 27.5 L 24 42 L 12.5 27.5 L 17.5 27.5 L 17.5 16.5 z "
       style="color:#000000;fill:url(#linearGradient4095);fill-opacity:1;fill-rule:nonzero;stroke:none;stroke-width:1.005;marker:none;visibility:visible;display:block;overflow:visible;enable-background:accumulate"
       id="path3890"
       d="m 28,6.96875 c -4.47649,0 -8.335946,2.4929158 -10.40625,6.125 -1.222083,-0.678727 -2.596547,-1.125 -4.09375,-1.125 -4.704655,0 -8.53125,3.826595 -8.53125,8.53125 0,0.636877 0.1170966,1.228364 0.25,1.8125 -3.1678158,2.271284 -5.25,5.982698 -5.25,10.1875 0,6.932397 5.5988534,12.53125 12.53125,12.53125 l 23,0 c 6.932397,0 12.53125,-5.598853 12.53125,-12.53125 0,-5.383285 -3.399604,-9.942695 -8.15625,-11.71875 C 39.960788,20.193575 40.03125,19.60695 40.03125,19 40.03125,12.362348 34.637652,6.96875 28,6.96875 z m -9.96875,10.0625 11.9375,0 0,10.46875 A 0.52994883,0.52994883 0 0 0 30.5,28.03125 l 3.90625,0 L 24,41.15625 l -10.40625,-13.125 3.90625,0 A 0.52994883,0.52994883 0 0 0 18.03125,27.5 l 0,-10.46875 z" />
    <path
       inkscape:connector-curvature="0"
       style="opacity:0.4;color:#000000;fill:none;stroke:url(#linearGradient3079-7-1-3);stroke-width:1;stroke-linecap:round;stroke-linejoin:miter;stroke-miterlimit:4;stroke-opacity:1;stroke-dasharray:none;stroke-dashoffset:0;marker:none;visibility:visible;display:inline;overflow:visible;enable-background:accumulate"
       d="m 28,-8.5 c -4.451995,0 -8.30761,2.549508 -10.21875,6.25 C 16.542581,-3.037105 15.076275,-3.5 13.5,-3.5 c -4.418278,0 -8,3.581722 -8,8 0,0.702506 0.1111857,1.382076 0.28125,2.03125 C 2.5902344,8.683516 0.5,12.345 0.5,16.5 c 0,6.648 5.352,12 12,12 l 23,0 c 6.648,0 12,-5.352 12,-12 C 47.5,11.191243 44.072844,6.715491 39.3125,5.125 39.441675,4.434986 39.5,3.7275 39.5,3 39.5,-3.351275 34.351275,-8.5 28,-8.5 z"
       id="path4052" />
    <path
       inkscape:connector-curvature="0"
       style="opacity:0.4;color:#000000;fill:none;stroke:url(#linearGradient4054);stroke-width:1;stroke-linecap:round;stroke-linejoin:miter;stroke-miterlimit:4;stroke-opacity:1;stroke-dasharray:none;stroke-dashoffset:0;marker:none;visibility:visible;display:inline;overflow:visible;enable-background:accumulate"
       d="m 17.5,0.5 13,0 0,11 5,0 L 24,26 12.5,11.5 l 5,0 0,-11 z"
       id="rect4519" />
  </g>
</svg>
