<?xml version="1.0" encoding="UTF-8" standalone="no"?>
<!-- Created with Inkscape (http://www.inkscape.org/) -->

<svg
   xmlns:dc="http://purl.org/dc/elements/1.1/"
   xmlns:cc="http://creativecommons.org/ns#"
   xmlns:rdf="http://www.w3.org/1999/02/22-rdf-syntax-ns#"
   xmlns:svg="http://www.w3.org/2000/svg"
   xmlns="http://www.w3.org/2000/svg"
   xmlns:xlink="http://www.w3.org/1999/xlink"
   xmlns:sodipodi="http://sodipodi.sourceforge.net/DTD/sodipodi-0.dtd"
   xmlns:inkscape="http://www.inkscape.org/namespaces/inkscape"
   width="48"
   height="48"
   id="svg5453"
   version="1.1"
   inkscape:version="0.91 r13725"
   sodipodi:docname="folder-publicshare.svg"
   viewBox="0 0 48 48">
  <defs
     id="defs5455">
    <linearGradient
       id="linearGradient4315"
       inkscape:collect="always">
      <stop
         id="stop4317"
         offset="0"
         style="stop-color:#000000;stop-opacity:0.19607843" />
      <stop
         id="stop4319"
         offset="1"
         style="stop-color:#000000;stop-opacity:0;" />
    </linearGradient>
    <radialGradient
       inkscape:collect="always"
       xlink:href="#Shadow"
       id="radialGradient4200"
       cx="44"
       cy="42.500004"
       fx="44"
       fy="42.500004"
       r="1.5"
       gradientTransform="matrix(-5.6193736e-6,2.6666648,-2.0000014,-4.2145212e-6,521.57182,415.46493)"
       gradientUnits="userSpaceOnUse" />
    <linearGradient
       inkscape:collect="always"
       id="Shadow">
      <stop
         style="stop-color:#000000;stop-opacity:1;"
         offset="0"
         id="stop4186" />
      <stop
         style="stop-color:#000000;stop-opacity:0;"
         offset="1"
         id="stop4188" />
    </linearGradient>
    <linearGradient
       gradientTransform="translate(392.57147,490.79807)"
       inkscape:collect="always"
       xlink:href="#Shadow"
       id="linearGradient4190"
       x1="24"
       y1="42"
       x2="24"
       y2="46"
       gradientUnits="userSpaceOnUse" />
    <radialGradient
       inkscape:collect="always"
       xlink:href="#Shadow"
       id="radialGradient4208"
       cx="4"
       cy="42.5"
       fx="4"
       fy="42.5"
       r="1.5"
       gradientTransform="matrix(-2.0000015,-2.9351808e-6,3.9135817e-6,-2.6666645,404.57133,646.13124)"
       gradientUnits="userSpaceOnUse" />
    <linearGradient
       gradientTransform="translate(-2.1263e-4,4.5495e-4)"
       inkscape:collect="always"
       xlink:href="#Shadow"
       id="linearGradient4273"
       x1="416.57144"
       y1="525.79797"
       x2="416.57144"
       y2="528.79797"
       gradientUnits="userSpaceOnUse" />
    <linearGradient
       inkscape:collect="always"
       xlink:href="#linearGradient4315"
       id="linearGradient4313"
       x1="24.000002"
       y1="19.999992"
       x2="24.000002"
       y2="36.999992"
       gradientUnits="userSpaceOnUse" />
  </defs>
  <sodipodi:namedview
     id="base"
     pagecolor="#ffffff"
     bordercolor="#666666"
     borderopacity="1.0"
     inkscape:pageopacity="0"
     inkscape:pageshadow="2"
     inkscape:zoom="17.333333"
     inkscape:cx="24"
     inkscape:cy="24"
     inkscape:document-units="px"
     inkscape:current-layer="layer1"
     showgrid="true"
     fit-margin-top="0"
     fit-margin-left="0"
     fit-margin-right="0"
     fit-margin-bottom="0"
     inkscape:window-width="2560"
     inkscape:window-height="1017"
     inkscape:window-x="0"
     inkscape:window-y="0"
     inkscape:window-maximized="1"
     inkscape:showpageshadow="false"
     borderlayer="true"
     showguides="true">
    <inkscape:grid
       type="xygrid"
       id="grid4115"
       originx="-8.0000133"
       originy="-7.9999916" />
    <sodipodi:guide
       position="5,43"
       orientation="37.999969,0"
       id="guide4157" />
    <sodipodi:guide
       position="5,5.0000305"
       orientation="0,38"
       id="guide4159" />
    <sodipodi:guide
       position="43,5.0000305"
       orientation="-37.999969,0"
       id="guide4161" />
    <sodipodi:guide
       position="43,43"
       orientation="0,-38"
       id="guide4163" />
    <sodipodi:guide
       position="0,48"
       orientation="47.999969,0"
       id="guide4165" />
    <sodipodi:guide
       position="0,3.0517578e-05"
       orientation="0,48"
       id="guide4167" />
    <sodipodi:guide
       position="48,3.0517578e-05"
       orientation="-47.999969,0"
       id="guide4169" />
    <sodipodi:guide
       position="48,48"
       orientation="0,-48"
       id="guide4171" />
    <sodipodi:guide
       position="13.999987,29.000008"
       orientation="21.999969,0"
       id="guide4166" />
    <sodipodi:guide
       position="33.999987,10.000008"
       orientation="0,22"
       id="guide4168" />
    <sodipodi:guide
       position="33.999987,13.000008"
       orientation="-21.999969,0"
       id="guide4170" />
    <sodipodi:guide
       position="13.999987,30.000008"
       orientation="0,-22"
       id="guide4172" />
    <sodipodi:guide
       position="16.000002,27.999996"
       orientation="15.999969,0"
       id="guide4174" />
    <sodipodi:guide
       position="16.000002,12.000026"
       orientation="0,16"
       id="guide4176" />
    <sodipodi:guide
       position="32.000002,12.000026"
       orientation="-15.999969,0"
       id="guide4178" />
    <sodipodi:guide
       position="32.000002,27.999996"
       orientation="0,-16"
       id="guide4180" />
    <sodipodi:guide
       position="16.000002,27.999996"
       orientation="7.9999695,0"
       id="guide4208" />
    <sodipodi:guide
       position="19.999987,20.000008"
       orientation="0,8"
       id="guide4210" />
    <sodipodi:guide
       position="24.000002,20.000026"
       orientation="-7.9999695,0"
       id="guide4212" />
    <sodipodi:guide
       position="24.000002,27.999996"
       orientation="0,-8"
       id="guide4214" />
  </sodipodi:namedview>
  <metadata
     id="metadata5458">
    <rdf:RDF>
      <cc:Work
         rdf:about="">
        <dc:format>image/svg+xml</dc:format>
        <dc:type
           rdf:resource="http://purl.org/dc/dcmitype/StillImage" />
        <dc:title />
      </cc:Work>
    </rdf:RDF>
  </metadata>
  <g
     inkscape:label="Capa 1"
     inkscape:groupmode="layer"
     id="layer1"
     transform="translate(-392.57144,-491.798)">
    <path
       style="opacity:1;fill:#0288d1;fill-opacity:1;stroke:none;stroke-width:2;stroke-linecap:round;stroke-linejoin:round;stroke-miterlimit:4;stroke-dasharray:none;stroke-opacity:0.52777782"
       d="m 407.57149,499.79804 0,2.99994 0,10 0,4.00003 32.00001,0 0,-5.00003 0,-9 c 0,-1.66193 -1.33803,-3.00749 -3,-2.99994 l -22.00001,0 -4,0 z"
       id="rect4161"
       inkscape:connector-curvature="0"
       sodipodi:nodetypes="ccccccssccc" />
    <rect
       style="color:#000000;clip-rule:nonzero;display:inline;overflow:visible;visibility:visible;opacity:1;isolation:auto;mix-blend-mode:normal;color-interpolation:sRGB;color-interpolation-filters:linearRGB;solid-color:#000000;solid-opacity:1;fill:#039be5;fill-opacity:1;fill-rule:nonzero;stroke:none;stroke-width:1;stroke-linecap:butt;stroke-linejoin:miter;stroke-miterlimit:4;stroke-dasharray:none;stroke-dashoffset:0;stroke-opacity:1;color-rendering:auto;image-rendering:auto;shape-rendering:auto;text-rendering:auto;enable-background:accumulate"
       id="rect4157-54"
       width="5.0000024"
       height="4.9999957"
       x="385.5715"
       y="-514.79852"
       transform="scale(1,-1)" />
    <rect
       style="color:#000000;clip-rule:nonzero;display:inline;overflow:visible;visibility:visible;opacity:1;isolation:auto;mix-blend-mode:normal;color-interpolation:sRGB;color-interpolation-filters:linearRGB;solid-color:#000000;solid-opacity:1;fill:#03a9f4;fill-opacity:1;fill-rule:nonzero;stroke:none;stroke-width:1;stroke-linecap:butt;stroke-linejoin:miter;stroke-miterlimit:4;stroke-dasharray:none;stroke-dashoffset:0;stroke-opacity:1;color-rendering:auto;image-rendering:auto;shape-rendering:auto;text-rendering:auto;enable-background:accumulate"
       id="rect4157-5"
       width="5.0000024"
       height="4.9999957"
       x="385.5715"
       y="-506.79782"
       transform="scale(1,-1)" />
    <rect
       style="color:#000000;clip-rule:nonzero;display:inline;overflow:visible;visibility:visible;opacity:1;isolation:auto;mix-blend-mode:normal;color-interpolation:sRGB;color-interpolation-filters:linearRGB;solid-color:#000000;solid-opacity:1;fill:#0288d1;fill-opacity:1;fill-rule:nonzero;stroke:none;stroke-width:1;stroke-linecap:butt;stroke-linejoin:miter;stroke-miterlimit:4;stroke-dasharray:none;stroke-dashoffset:0;stroke-opacity:1;color-rendering:auto;image-rendering:auto;shape-rendering:auto;text-rendering:auto;enable-background:accumulate"
       id="rect4157-8"
       width="5.0000024"
       height="4.9999957"
       x="385.5715"
       y="517.79877" />
    <path
       inkscape:connector-curvature="0"
       style="opacity:0.7;fill:url(#radialGradient4200);fill-opacity:1;stroke:none;stroke-width:2;stroke-linecap:butt;stroke-linejoin:round;stroke-miterlimit:4;stroke-dasharray:none;stroke-opacity:1"
       d="m 436.5715,532.798 0,4 1,0 c 1.108,0 2,-0.892 2,-2 l 0,-2 -3,0 z"
       id="path4174" />
    <path
       inkscape:connector-curvature="0"
       style="opacity:0.7;fill:url(#linearGradient4190);fill-opacity:1;stroke:none;stroke-width:2;stroke-linecap:butt;stroke-linejoin:round;stroke-miterlimit:4;stroke-dasharray:none;stroke-opacity:1"
       d="m 396.57147,532.798 0,4 40.00003,0 0,-4 -40.00003,0 z"
       id="path4169" />
    <path
       inkscape:connector-curvature="0"
       style="opacity:0.7;fill:url(#radialGradient4208);fill-opacity:1;stroke:none;stroke-width:2;stroke-linecap:butt;stroke-linejoin:round;stroke-miterlimit:4;stroke-dasharray:none;stroke-opacity:1"
       d="m 393.57147,532.798 0,2 c 0,1.108 0.892,2 2,2 l 1,0 0,-4 -3,0 z"
       id="rect4157" />
    <path
       inkscape:connector-curvature="0"
       style="opacity:1;fill:#e8e5dc;fill-opacity:1;stroke:none;stroke-width:2;stroke-linecap:butt;stroke-linejoin:round;stroke-miterlimit:4;stroke-dasharray:none;stroke-opacity:1"
       d="m 413.57149,501.79801 22.00001,0 c 1.108,0 2,0.892 2,2 l 0,3 c 0,1.108 -0.892,2 -2,2 l -22.00001,0 c -1.108,0 -2,-0.892 -2,-2 l 0,-3 c 0,-1.108 0.892,-2 2,-2 z"
       id="rect4188" />
    <path
       inkscape:connector-curvature="0"
       style="opacity:1;fill:#fffbec;fill-opacity:1;stroke:none;stroke-width:2;stroke-linecap:butt;stroke-linejoin:round;stroke-miterlimit:4;stroke-dasharray:none;stroke-opacity:1"
       d="m 413.57149,502.79801 22.00001,0 c 0.554,0 1,0.446 1,1 l 0,4 c 0,0.554 -0.446,1 -1,1 l -22.00001,0 c -0.554,0 -1,-0.446 -1,-1 l 0,-4 c 0,-0.554 0.446,-1 1,-1 z"
       id="rect4190"
       sodipodi:nodetypes="sssssssss" />
    <rect
       y="493.79791"
       x="377.57147"
       height="4.9999957"
       width="5.0000024"
       id="rect4200"
       style="color:#000000;clip-rule:nonzero;display:inline;overflow:visible;visibility:visible;opacity:1;isolation:auto;mix-blend-mode:normal;color-interpolation:sRGB;color-interpolation-filters:linearRGB;solid-color:#000000;solid-opacity:1;fill:#fffbec;fill-opacity:1;fill-rule:nonzero;stroke:none;stroke-width:1;stroke-linecap:butt;stroke-linejoin:miter;stroke-miterlimit:4;stroke-dasharray:none;stroke-dashoffset:0;stroke-opacity:1;color-rendering:auto;image-rendering:auto;shape-rendering:auto;text-rendering:auto;enable-background:accumulate" />
    <rect
       y="501.79791"
       x="377.57147"
       height="4.9999957"
       width="5.0000024"
       id="rect4202"
       style="color:#000000;clip-rule:nonzero;display:inline;overflow:visible;visibility:visible;opacity:1;isolation:auto;mix-blend-mode:normal;color-interpolation:sRGB;color-interpolation-filters:linearRGB;solid-color:#000000;solid-opacity:1;fill:#e8e5dc;fill-opacity:1;fill-rule:nonzero;stroke:none;stroke-width:1;stroke-linecap:butt;stroke-linejoin:miter;stroke-miterlimit:4;stroke-dasharray:none;stroke-dashoffset:0;stroke-opacity:1;color-rendering:auto;image-rendering:auto;shape-rendering:auto;text-rendering:auto;enable-background:accumulate" />
    <path
       inkscape:connector-curvature="0"
       style="opacity:1;fill:#039be5;fill-opacity:1;stroke:none;stroke-width:2;stroke-linecap:round;stroke-linejoin:round;stroke-miterlimit:4;stroke-dasharray:none;stroke-opacity:0.52777782"
       d="m 396.57147,496.79808 c -1.66199,10e-6 -3,1.33797 -3,2.99991 l 0,32.0001 c 0,1.66194 1.33801,2.99991 3,2.99991 l 15.00002,0 6,0 19.00001,0 c 1.66199,0 3,-1.33797 3,-2.99991 l 0,-24.00016 c 0,-1.66194 -1.33801,-2.99998 -3,-2.99991 l -19.00001,0 -2,-6.99999 c -0.15219,-0.53267 -0.446,-1.00029 -1,-0.99998 l -2,0 -1,0 z"
       id="path4221"
       sodipodi:nodetypes="ssssccsssscssccs" />
    <path
       inkscape:connector-curvature="0"
       style="opacity:1;fill:#03a9f4;fill-opacity:1;stroke:none;stroke-width:2;stroke-linecap:round;stroke-linejoin:round;stroke-miterlimit:4;stroke-dasharray:none;stroke-opacity:0.52777782"
       d="m 396.57147,497.79918 c -1.10799,0 -2,0.89198 -2,1.99993 l 0,31.99895 c 0,1.10796 0.89201,1.99994 2,1.99994 l 15.00002,0 5,0 20.00001,0 c 1.108,0 2,-0.89198 2,-1.99994 l 0,-23.99926 c 0,-1.10795 -0.89201,-2.00547 -2,-1.99994 l -20.00001,0 -2,-6.99971 c -0.15219,-0.53267 -0.44669,-1.02764 -1,-0.99997 l -2,0 z"
       id="path4183"
       sodipodi:nodetypes="ssssccsssscsscs" />
    <rect
       y="493.79788"
       x="385.5715"
       height="4.9999957"
       width="5.0000024"
       id="rect4250"
       style="color:#000000;clip-rule:nonzero;display:inline;overflow:visible;visibility:visible;opacity:1;isolation:auto;mix-blend-mode:normal;color-interpolation:sRGB;color-interpolation-filters:linearRGB;solid-color:#000000;solid-opacity:1;fill:#b3e5fc;fill-opacity:1;fill-rule:nonzero;stroke:none;stroke-width:1;stroke-linecap:butt;stroke-linejoin:miter;stroke-miterlimit:4;stroke-dasharray:none;stroke-dashoffset:0;stroke-opacity:1;color-rendering:auto;image-rendering:auto;shape-rendering:auto;text-rendering:auto;enable-background:accumulate" />
    <rect
       style="opacity:1;fill:url(#linearGradient4273);fill-opacity:1;stroke:none;stroke-width:2;stroke-linecap:round;stroke-linejoin:round;stroke-miterlimit:4;stroke-dasharray:none;stroke-opacity:0.52777782"
       id="rect4271"
       width="13.999985"
       height="1.000018"
       x="409.57144"
       y="527.79797" />
    <path
       style="opacity:1;fill:url(#linearGradient4313);fill-opacity:1;stroke:none"
       d="M 23.996094 21 L 19 25.996094 L 19 27 L 20.824219 27 L 21 27 L 21 30 L 21 32 L 27 32 L 27 30 L 27 27 L 28 27 L 29 27 L 29 25.996094 L 24.003906 21 L 23.996094 21 z M 24 23.824219 L 26.175781 26 L 26 26 L 25 26 L 25 30 L 23 30 L 23 26 L 22 26 L 21.824219 26 L 24 23.824219 z M 17 29 L 17 35 L 19 35 L 19 31 L 20 31 L 20 29 L 19 29 L 17 29 z M 28 29 L 28 31 L 29 31 L 29 35 L 31 35 L 31 29 L 29 29 L 28 29 z "
       transform="translate(392.57144,491.798)"
       id="path4308" />
    <path
       style="opacity:1;fill:#b3e5fc;fill-opacity:1;stroke:none"
       d="M 23.996094 20 L 19 24.996094 L 19 26 L 20.824219 26 L 21 26 L 21 29 L 21 31 L 27 31 L 27 29 L 27 26 L 28 26 L 29 26 L 29 24.996094 L 24.003906 20 L 24 20 L 23.996094 20 z M 24 22.824219 L 26.175781 25 L 26 25 L 25 25 L 25 29 L 23 29 L 23 25 L 22 25 L 21.824219 25 L 24 22.824219 z M 17 28 L 17 34 L 17 36 L 19 36 L 31 36 L 31 34 L 31 28 L 29 28 L 28 28 L 28 30 L 29 30 L 29 34 L 19 34 L 19 30 L 20 30 L 20 28 L 19 28 L 17 28 z "
       transform="translate(392.57144,491.798)"
       id="rect4240" />
  </g>
</svg>
