<?xml version="1.0" encoding="UTF-8" standalone="no"?>
<!-- Created with Inkscape (http://www.inkscape.org/) -->

<svg
   xmlns:dc="http://purl.org/dc/elements/1.1/"
   xmlns:cc="http://creativecommons.org/ns#"
   xmlns:rdf="http://www.w3.org/1999/02/22-rdf-syntax-ns#"
   xmlns:svg="http://www.w3.org/2000/svg"
   xmlns="http://www.w3.org/2000/svg"
   xmlns:xlink="http://www.w3.org/1999/xlink"
   xmlns:sodipodi="http://sodipodi.sourceforge.net/DTD/sodipodi-0.dtd"
   xmlns:inkscape="http://www.inkscape.org/namespaces/inkscape"
   width="48"
   height="48"
   id="svg5453"
   version="1.1"
   inkscape:version="0.91 r13725"
   sodipodi:docname="folder-music.svg"
   viewBox="0 0 48 48">
  <defs
     id="defs5455">
    <linearGradient
       inkscape:collect="always"
       id="linearGradient4331">
      <stop
         style="stop-color:#000000;stop-opacity:0.19607843"
         offset="0"
         id="stop4333" />
      <stop
         style="stop-color:#000000;stop-opacity:0;"
         offset="1"
         id="stop4335" />
    </linearGradient>
    <linearGradient
       id="Shadow"
       inkscape:collect="always">
      <stop
         id="stop4186"
         offset="0"
         style="stop-color:#000000;stop-opacity:1;" />
      <stop
         id="stop4188"
         offset="1"
         style="stop-color:#000000;stop-opacity:0;" />
    </linearGradient>
    <linearGradient
       gradientUnits="userSpaceOnUse"
       y2="46"
       x2="24"
       y1="42"
       x1="24"
       id="linearGradient4190"
       xlink:href="#Shadow"
       inkscape:collect="always"
       gradientTransform="translate(392.57146,490.798)" />
    <radialGradient
       gradientUnits="userSpaceOnUse"
       gradientTransform="matrix(-5.6193702e-6,2.666668,-2.0000002,-4.214526e-6,521.57173,415.46478)"
       r="1.5"
       fy="42.500004"
       fx="44"
       cy="42.500004"
       cx="44"
       id="radialGradient4200"
       xlink:href="#Shadow"
       inkscape:collect="always" />
    <radialGradient
       gradientUnits="userSpaceOnUse"
       gradientTransform="matrix(-2.0000003,-2.935184e-6,3.9135795e-6,-2.6666677,404.5713,646.13139)"
       r="1.5"
       fy="42.5"
       fx="4"
       cy="42.5"
       cx="4"
       id="radialGradient4208"
       xlink:href="#Shadow"
       inkscape:collect="always" />
    <linearGradient
       inkscape:collect="always"
       xlink:href="#linearGradient4331"
       id="linearGradient4319"
       x1="24.999987"
       y1="20.999992"
       x2="24.999987"
       y2="27.999992"
       gradientUnits="userSpaceOnUse" />
    <radialGradient
       inkscape:collect="always"
       xlink:href="#Shadow"
       id="radialGradient4325"
       cx="411.57144"
       cy="525.79797"
       fx="411.57144"
       fy="525.79797"
       r="2.9999847"
       gradientTransform="matrix(1,0,0,1.0000051,0,-0.00267436)"
       gradientUnits="userSpaceOnUse" />
    <radialGradient
       inkscape:collect="always"
       xlink:href="#Shadow"
       id="radialGradient4329"
       gradientUnits="userSpaceOnUse"
       gradientTransform="matrix(1,0,0,1.0000051,10,-0.00267436)"
       cx="411.57144"
       cy="525.79797"
       fx="411.57144"
       fy="525.79797"
       r="2.9999847" />
  </defs>
  <sodipodi:namedview
     id="base"
     pagecolor="#ffffff"
     bordercolor="#666666"
     borderopacity="1.0"
     inkscape:pageopacity="0"
     inkscape:pageshadow="2"
     inkscape:zoom="17.333333"
     inkscape:cx="27.564508"
     inkscape:cy="27.576652"
     inkscape:document-units="px"
     inkscape:current-layer="layer1"
     showgrid="true"
     fit-margin-top="0"
     fit-margin-left="0"
     fit-margin-right="0"
     fit-margin-bottom="0"
     inkscape:window-width="2560"
     inkscape:window-height="1017"
     inkscape:window-x="0"
     inkscape:window-y="0"
     inkscape:window-maximized="1"
     inkscape:showpageshadow="false"
     borderlayer="true"
     showguides="true">
    <inkscape:grid
       type="xygrid"
       id="grid4115"
       originx="-8.0000133"
       originy="-7.9999916" />
    <sodipodi:guide
       position="5,43"
       orientation="37.999969,0"
       id="guide4157" />
    <sodipodi:guide
       position="5,5.0000305"
       orientation="0,38"
       id="guide4159" />
    <sodipodi:guide
       position="43,5.0000305"
       orientation="-37.999969,0"
       id="guide4161" />
    <sodipodi:guide
       position="43,43"
       orientation="0,-38"
       id="guide4163" />
    <sodipodi:guide
       position="0,48"
       orientation="47.999969,0"
       id="guide4165" />
    <sodipodi:guide
       position="0,3.0517578e-05"
       orientation="0,48"
       id="guide4167" />
    <sodipodi:guide
       position="48,3.0517578e-05"
       orientation="-47.999969,0"
       id="guide4169" />
    <sodipodi:guide
       position="48,48"
       orientation="0,-48"
       id="guide4171" />
    <sodipodi:guide
       position="13.999987,29.000008"
       orientation="21.999969,0"
       id="guide4166" />
    <sodipodi:guide
       position="33.999987,10.000008"
       orientation="0,22"
       id="guide4168" />
    <sodipodi:guide
       position="33.999987,13.000008"
       orientation="-21.999969,0"
       id="guide4170" />
    <sodipodi:guide
       position="13.999987,30.000008"
       orientation="0,-22"
       id="guide4172" />
    <sodipodi:guide
       position="16.000002,27.999996"
       orientation="15.999969,0"
       id="guide4174" />
    <sodipodi:guide
       position="16.000002,12.000026"
       orientation="0,16"
       id="guide4176" />
    <sodipodi:guide
       position="32.000002,12.000026"
       orientation="-15.999969,0"
       id="guide4178" />
    <sodipodi:guide
       position="32.000002,27.999996"
       orientation="0,-16"
       id="guide4180" />
    <sodipodi:guide
       position="16.000002,27.999996"
       orientation="7.9999695,0"
       id="guide4208" />
    <sodipodi:guide
       position="19.999987,20.000008"
       orientation="0,8"
       id="guide4210" />
    <sodipodi:guide
       position="24.000002,20.000026"
       orientation="-7.9999695,0"
       id="guide4212" />
    <sodipodi:guide
       position="24.000002,27.999996"
       orientation="0,-8"
       id="guide4214" />
  </sodipodi:namedview>
  <metadata
     id="metadata5458">
    <rdf:RDF>
      <cc:Work
         rdf:about="">
        <dc:format>image/svg+xml</dc:format>
        <dc:type
           rdf:resource="http://purl.org/dc/dcmitype/StillImage" />
        <dc:title />
      </cc:Work>
    </rdf:RDF>
  </metadata>
  <g
     inkscape:label="Capa 1"
     inkscape:groupmode="layer"
     id="layer1"
     transform="translate(-392.57144,-491.798)">
    <path
       style="opacity:1;fill:#0288d1;fill-opacity:1;stroke:none;stroke-width:2;stroke-linecap:round;stroke-linejoin:round;stroke-miterlimit:4;stroke-dasharray:none;stroke-opacity:0.52777782"
       d="m 407.57146,499.79797 0,3 0,10 0,4.00003 32,0 0,-5.00003 0,-9 c 0,-1.66199 -1.33803,-3.00755 -3,-3 l -22,0 -4,0 z"
       id="rect4161"
       inkscape:connector-curvature="0"
       sodipodi:nodetypes="ccccccssccc" />
    <rect
       style="color:#000000;clip-rule:nonzero;display:inline;overflow:visible;visibility:visible;opacity:1;isolation:auto;mix-blend-mode:normal;color-interpolation:sRGB;color-interpolation-filters:linearRGB;solid-color:#000000;solid-opacity:1;fill:#039be5;fill-opacity:1;fill-rule:nonzero;stroke:none;stroke-width:1;stroke-linecap:butt;stroke-linejoin:miter;stroke-miterlimit:4;stroke-dasharray:none;stroke-dashoffset:0;stroke-opacity:1;color-rendering:auto;image-rendering:auto;shape-rendering:auto;text-rendering:auto;enable-background:accumulate"
       id="rect4157-54"
       width="5"
       height="5"
       x="385.57144"
       y="-514.79803"
       transform="scale(1,-1)" />
    <rect
       style="color:#000000;clip-rule:nonzero;display:inline;overflow:visible;visibility:visible;opacity:1;isolation:auto;mix-blend-mode:normal;color-interpolation:sRGB;color-interpolation-filters:linearRGB;solid-color:#000000;solid-opacity:1;fill:#03a9f4;fill-opacity:1;fill-rule:nonzero;stroke:none;stroke-width:1;stroke-linecap:butt;stroke-linejoin:miter;stroke-miterlimit:4;stroke-dasharray:none;stroke-dashoffset:0;stroke-opacity:1;color-rendering:auto;image-rendering:auto;shape-rendering:auto;text-rendering:auto;enable-background:accumulate"
       id="rect4157-5"
       width="5"
       height="5"
       x="385.57144"
       y="-506.798"
       transform="scale(1,-1)" />
    <rect
       style="color:#000000;clip-rule:nonzero;display:inline;overflow:visible;visibility:visible;opacity:1;isolation:auto;mix-blend-mode:normal;color-interpolation:sRGB;color-interpolation-filters:linearRGB;solid-color:#000000;solid-opacity:1;fill:#0288d1;fill-opacity:1;fill-rule:nonzero;stroke:none;stroke-width:1;stroke-linecap:butt;stroke-linejoin:miter;stroke-miterlimit:4;stroke-dasharray:none;stroke-dashoffset:0;stroke-opacity:1;color-rendering:auto;image-rendering:auto;shape-rendering:auto;text-rendering:auto;enable-background:accumulate"
       id="rect4157-8"
       width="5"
       height="5"
       x="385.57144"
       y="517.79803" />
    <path
       inkscape:connector-curvature="0"
       style="opacity:0.7;fill:url(#radialGradient4200);fill-opacity:1;stroke:none;stroke-width:2;stroke-linecap:butt;stroke-linejoin:round;stroke-miterlimit:4;stroke-dasharray:none;stroke-opacity:1"
       d="m 436.57146,532.798 0,4 1,0 c 1.108,0 2,-0.892 2,-2 l 0,-2 -3,0 z"
       id="path4174" />
    <path
       inkscape:connector-curvature="0"
       style="opacity:0.7;fill:url(#linearGradient4190);fill-opacity:1;stroke:none;stroke-width:2;stroke-linecap:butt;stroke-linejoin:round;stroke-miterlimit:4;stroke-dasharray:none;stroke-opacity:1"
       d="m 396.57146,532.798 0,4 40,0 0,-4 -40,0 z"
       id="path4169" />
    <path
       inkscape:connector-curvature="0"
       style="opacity:0.7;fill:url(#radialGradient4208);fill-opacity:1;stroke:none;stroke-width:2;stroke-linecap:butt;stroke-linejoin:round;stroke-miterlimit:4;stroke-dasharray:none;stroke-opacity:1"
       d="m 393.57146,532.798 0,2 c 0,1.108 0.892,2 2,2 l 1,0 0,-4 -3,0 z"
       id="rect4157" />
    <path
       inkscape:connector-curvature="0"
       style="opacity:1;fill:#e8e5dc;fill-opacity:1;stroke:none;stroke-width:2;stroke-linecap:butt;stroke-linejoin:round;stroke-miterlimit:4;stroke-dasharray:none;stroke-opacity:1"
       d="m 413.57146,501.798 22,0 c 1.108,0 2,0.892 2,2 l 0,3 c 0,1.108 -0.892,2 -2,2 l -22,0 c -1.108,0 -2,-0.892 -2,-2 l 0,-3 c 0,-1.108 0.892,-2 2,-2 z"
       id="rect4188" />
    <path
       inkscape:connector-curvature="0"
       style="opacity:1;fill:#fffbec;fill-opacity:1;stroke:none;stroke-width:2;stroke-linecap:butt;stroke-linejoin:round;stroke-miterlimit:4;stroke-dasharray:none;stroke-opacity:1"
       d="m 413.57146,502.798 22,0 c 0.554,0 1,0.446 1,1 l 0,4 c 0,0.554 -0.446,1 -1,1 l -22,0 c -0.554,0 -1,-0.446 -1,-1 l 0,-4 c 0,-0.554 0.446,-1 1,-1 z"
       id="rect4190"
       sodipodi:nodetypes="sssssssss" />
    <rect
       y="493.79794"
       x="377.57141"
       height="5"
       width="5"
       id="rect4200"
       style="color:#000000;clip-rule:nonzero;display:inline;overflow:visible;visibility:visible;opacity:1;isolation:auto;mix-blend-mode:normal;color-interpolation:sRGB;color-interpolation-filters:linearRGB;solid-color:#000000;solid-opacity:1;fill:#fffbec;fill-opacity:1;fill-rule:nonzero;stroke:none;stroke-width:1;stroke-linecap:butt;stroke-linejoin:miter;stroke-miterlimit:4;stroke-dasharray:none;stroke-dashoffset:0;stroke-opacity:1;color-rendering:auto;image-rendering:auto;shape-rendering:auto;text-rendering:auto;enable-background:accumulate" />
    <rect
       y="501.79794"
       x="377.57141"
       height="5"
       width="5"
       id="rect4202"
       style="color:#000000;clip-rule:nonzero;display:inline;overflow:visible;visibility:visible;opacity:1;isolation:auto;mix-blend-mode:normal;color-interpolation:sRGB;color-interpolation-filters:linearRGB;solid-color:#000000;solid-opacity:1;fill:#e8e5dc;fill-opacity:1;fill-rule:nonzero;stroke:none;stroke-width:1;stroke-linecap:butt;stroke-linejoin:miter;stroke-miterlimit:4;stroke-dasharray:none;stroke-dashoffset:0;stroke-opacity:1;color-rendering:auto;image-rendering:auto;shape-rendering:auto;text-rendering:auto;enable-background:accumulate" />
    <path
       inkscape:connector-curvature="0"
       style="opacity:1;fill:#039be5;fill-opacity:1;stroke:none;stroke-width:2;stroke-linecap:round;stroke-linejoin:round;stroke-miterlimit:4;stroke-dasharray:none;stroke-opacity:0.52777782"
       d="m 396.57146,496.79801 c -1.66199,1e-5 -3,1.33797 -3,2.99991 l 0,32.00017 c 0,1.66194 1.33801,2.99991 3,2.99991 l 15,0 6,0 19,0 c 1.66199,0 3,-1.33797 3,-2.99991 l 0,-24.00017 c 0,-1.66194 -1.33801,-2.99998 -3,-2.99991 l -19,0 -2,-7.00005 c -0.15219,-0.53267 -0.446,-1.00029 -1,-0.99998 l -2,0 -1,0 z"
       id="path4221"
       sodipodi:nodetypes="ssssccsssscssccs" />
    <path
       inkscape:connector-curvature="0"
       style="opacity:1;fill:#03a9f4;fill-opacity:1;stroke:none;stroke-width:2;stroke-linecap:round;stroke-linejoin:round;stroke-miterlimit:4;stroke-dasharray:none;stroke-opacity:0.52777782"
       d="m 396.57146,497.79911 c -1.10799,0 -2,0.89198 -2,1.99993 l 0,31.99902 c 0,1.10796 0.89201,1.99994 2,1.99994 l 15,0 5,0 20,0 c 1.108,0 2,-0.89198 2,-1.99994 l 0,-23.99927 c 0,-1.10795 -0.89201,-2.00547 -2,-1.99994 l -20,0 -2,-6.99977 c -0.15219,-0.53267 -0.44669,-1.02764 -1,-0.99997 l -2,0 z"
       id="path4183"
       sodipodi:nodetypes="ssssccsssscsscs" />
    <rect
       y="493.79791"
       x="385.57144"
       height="5"
       width="5"
       id="rect4250"
       style="color:#000000;clip-rule:nonzero;display:inline;overflow:visible;visibility:visible;opacity:1;isolation:auto;mix-blend-mode:normal;color-interpolation:sRGB;color-interpolation-filters:linearRGB;solid-color:#000000;solid-opacity:1;fill:#b3e5fc;fill-opacity:1;fill-rule:nonzero;stroke:none;stroke-width:1;stroke-linecap:butt;stroke-linejoin:miter;stroke-miterlimit:4;stroke-dasharray:none;stroke-dashoffset:0;stroke-opacity:1;color-rendering:auto;image-rendering:auto;shape-rendering:auto;text-rendering:auto;enable-background:accumulate" />
    <path
       style="opacity:1;fill:url(#linearGradient4319);fill-opacity:1;stroke:none"
       d="M 20 21 L 20 23 L 20 24 L 20 26 L 20 28 L 22 28 L 22 26 L 30 26 L 30 28 L 32 28 L 32 21 L 20 21 z M 22 23 L 30 23 L 30 24 L 22 24 L 22 23 z "
       transform="translate(392.57144,491.798)"
       id="path4314" />
    <ellipse
       style="opacity:1;fill:url(#radialGradient4325);fill-opacity:1;stroke:none;stroke-width:2;stroke-linecap:round;stroke-linejoin:round;stroke-miterlimit:4;stroke-dasharray:none;stroke-opacity:0.52777782"
       id="path4321"
       cx="411.57144"
       cy="525.79797"
       rx="2.9999847"
       ry="3" />
    <ellipse
       ry="3"
       rx="2.9999847"
       cy="525.79797"
       cx="421.57144"
       id="ellipse4327"
       style="opacity:1;fill:url(#radialGradient4329);fill-opacity:1;stroke:none;stroke-width:2;stroke-linecap:round;stroke-linejoin:round;stroke-miterlimit:4;stroke-dasharray:none;stroke-opacity:0.52777782" />
    <path
       style="opacity:1;fill:#b3e5fc;fill-opacity:1;stroke:none"
       d="M 20 20 L 20 22 L 20 23 L 20 25 L 20 30.175781 A 2.9999924 2.9999924 0 0 0 19 30 A 2.9999924 2.9999924 0 0 0 16 33 A 2.9999924 2.9999924 0 0 0 19 36 A 2.9999924 2.9999924 0 0 0 22 33 L 22 25 L 30 25 L 30 30.175781 A 2.9999924 2.9999924 0 0 0 29 30 A 2.9999924 2.9999924 0 0 0 26 33 A 2.9999924 2.9999924 0 0 0 29 36 A 2.9999924 2.9999924 0 0 0 32 33 L 32 20 L 20 20 z M 22 22 L 30 22 L 30 23 L 22 23 L 22 22 z "
       id="path4185"
       transform="translate(392.57144,491.798)" />
  </g>
</svg>
