<?xml version="1.0" encoding="UTF-8" standalone="no"?>
<!-- Created with Inkscape (http://www.inkscape.org/) -->

<svg
   xmlns:dc="http://purl.org/dc/elements/1.1/"
   xmlns:cc="http://creativecommons.org/ns#"
   xmlns:rdf="http://www.w3.org/1999/02/22-rdf-syntax-ns#"
   xmlns:svg="http://www.w3.org/2000/svg"
   xmlns="http://www.w3.org/2000/svg"
   xmlns:xlink="http://www.w3.org/1999/xlink"
   xmlns:sodipodi="http://sodipodi.sourceforge.net/DTD/sodipodi-0.dtd"
   xmlns:inkscape="http://www.inkscape.org/namespaces/inkscape"
   width="64"
   height="64"
   viewBox="0 0 64 64.000003"
   id="svg2"
   version="1.1"
   inkscape:version="0.91 r13725"
   sodipodi:docname="utilities-system-monitor.svg">
  <defs
     id="defs4">
    <linearGradient
       inkscape:collect="always"
       id="Shadow">
      <stop
         style="stop-color:#000000;stop-opacity:1;"
         offset="0"
         id="stop4186" />
      <stop
         style="stop-color:#000000;stop-opacity:0;"
         offset="1"
         id="stop4188" />
    </linearGradient>
    <radialGradient
       inkscape:collect="always"
       xlink:href="#Shadow"
       id="radialGradient4259-4"
       gradientUnits="userSpaceOnUse"
       gradientTransform="matrix(-2.0000003,-2.935184e-6,3.9135795e-6,-2.6666677,14.999835,1228.853)"
       cx="4"
       cy="42.5"
       fx="4"
       fy="42.5"
       r="1.5" />
    <linearGradient
       inkscape:collect="always"
       xlink:href="#Shadow"
       id="linearGradient4257-1"
       gradientUnits="userSpaceOnUse"
       gradientTransform="translate(9.999995,1073.5196)"
       x1="24"
       y1="42"
       x2="24"
       y2="46" />
    <radialGradient
       inkscape:collect="always"
       xlink:href="#Shadow"
       id="radialGradient4166"
       gradientUnits="userSpaceOnUse"
       gradientTransform="matrix(2.0000003,-2.935184e-6,-3.9135795e-6,-2.6666677,49.00016,1228.853)"
       cx="4"
       cy="42.5"
       fx="4"
       fy="42.5"
       r="1.5" />
    <linearGradient
       inkscape:collect="always"
       xlink:href="#Shadow"
       id="linearGradient4241"
       x1="20"
       y1="1083.5197"
       x2="20"
       y2="1085.5197"
       gradientUnits="userSpaceOnUse"
       gradientTransform="translate(0,-1058.5196)" />
    <linearGradient
       inkscape:collect="always"
       xlink:href="#Shadow"
       id="linearGradient4276"
       gradientUnits="userSpaceOnUse"
       gradientTransform="translate(0,-1058.5196)"
       x1="32"
       y1="1082.5197"
       x2="32"
       y2="1085.5197" />
    <radialGradient
       inkscape:collect="always"
       xlink:href="#Shadow"
       id="radialGradient4281"
       cx="28.03688"
       cy="20.251009"
       fx="28.03688"
       fy="20.251009"
       r="1.5"
       gradientTransform="matrix(-2.0000003,4.0350247e-7,-3.6402565e-7,-2.0000003,87.073776,64.502013)"
       gradientUnits="userSpaceOnUse" />
    <radialGradient
       inkscape:collect="always"
       xlink:href="#Shadow"
       id="radialGradient4293"
       gradientUnits="userSpaceOnUse"
       gradientTransform="matrix(2.0000003,5.5236982e-7,5.1285266e-7,-1.9998927,-23.073779,1123.0196)"
       cx="28.03688"
       cy="20.251009"
       fx="28.03688"
       fy="20.251009"
       r="1.5" />
    <radialGradient
       inkscape:collect="always"
       xlink:href="#Shadow"
       id="radialGradient4300"
       cx="24.5"
       cy="20"
       fx="24.5"
       fy="20"
       r="1.5"
       gradientTransform="matrix(-9.1111153e-7,1.3333335,-1.3333333,-9.111114e-7,50.666689,-11.666655)"
       gradientUnits="userSpaceOnUse" />
    <linearGradient
       inkscape:collect="always"
       xlink:href="#Shadow"
       id="linearGradient4317"
       gradientUnits="userSpaceOnUse"
       gradientTransform="translate(0,-1058.5196)"
       x1="23"
       y1="1079.5197"
       x2="23"
       y2="1081.5197" />
    <linearGradient
       inkscape:collect="always"
       xlink:href="#Shadow"
       id="linearGradient4327"
       gradientUnits="userSpaceOnUse"
       gradientTransform="translate(0,-1058.5196)"
       x1="23"
       y1="1075.5197"
       x2="23"
       y2="1077.5197" />
    <radialGradient
       inkscape:collect="always"
       xlink:href="#Shadow"
       id="radialGradient4334"
       gradientUnits="userSpaceOnUse"
       gradientTransform="matrix(-9.1111153e-7,1.3333335,-1.3333333,-9.111114e-7,50.666689,-11.666655)"
       cx="21.500002"
       cy="20.000002"
       fx="21.500002"
       fy="20.000002"
       r="1.5" />
    <linearGradient
       inkscape:collect="always"
       xlink:href="#Shadow"
       id="linearGradient4348"
       gradientUnits="userSpaceOnUse"
       gradientTransform="translate(0,-1058.5196)"
       x1="14"
       y1="1082.5197"
       x2="14"
       y2="1085.5197" />
    <radialGradient
       inkscape:collect="always"
       xlink:href="#Shadow"
       id="radialGradient4357"
       cx="15.07529"
       cy="19.049137"
       fx="15.07529"
       fy="19.049137"
       r="1.2666014"
       gradientTransform="matrix(-6.6324984e-7,1.579029,-1.5790292,-6.3113016e-7,45.079155,-6.8043076)"
       gradientUnits="userSpaceOnUse" />
    <linearGradient
       inkscape:collect="always"
       xlink:href="#Shadow"
       id="linearGradient4359"
       gradientUnits="userSpaceOnUse"
       gradientTransform="translate(0,-1058.5196)"
       x1="14"
       y1="1075.5197"
       x2="14"
       y2="1077.5197" />
    <radialGradient
       inkscape:collect="always"
       xlink:href="#Shadow"
       id="radialGradient4363"
       cx="12.333338"
       cy="18.998844"
       fx="12.333338"
       fy="18.998844"
       r="2"
       gradientTransform="matrix(-1.5,-8.8976801e-8,8.8976891e-8,-1.5,31.500005,52.498268)"
       gradientUnits="userSpaceOnUse" />
    <radialGradient
       inkscape:collect="always"
       xlink:href="#Shadow"
       id="radialGradient4365"
       cx="14.305916"
       cy="25.767641"
       fx="14.305916"
       fy="25.767641"
       r="1.2666015"
       gradientTransform="matrix(7.6628565e-7,2.3685427,-1.5790292,5.349947e-7,55.687847,-9.8841854)"
       gradientUnits="userSpaceOnUse" />
    <radialGradient
       inkscape:collect="always"
       xlink:href="#Shadow"
       id="radialGradient4373"
       gradientUnits="userSpaceOnUse"
       gradientTransform="matrix(-2.0000002,2.2568749e-7,-1.1284378e-7,-1.000001,37.666682,40.665531)"
       cx="12.833339"
       cy="23.66551"
       fx="12.833339"
       fy="23.66551"
       r="2" />
  </defs>
  <sodipodi:namedview
     id="base"
     pagecolor="#ffffff"
     bordercolor="#666666"
     borderopacity="1.0"
     inkscape:pageopacity="0.0"
     inkscape:pageshadow="2"
     inkscape:zoom="37.653436"
     inkscape:cx="20.513415"
     inkscape:cy="40.543074"
     inkscape:document-units="px"
     inkscape:current-layer="layer1"
     showgrid="true"
     units="px"
     inkscape:showpageshadow="false"
     borderlayer="true"
     inkscape:window-width="2560"
     inkscape:window-height="1017"
     inkscape:window-x="0"
     inkscape:window-y="0"
     inkscape:window-maximized="1"
     showguides="true">
    <inkscape:grid
       type="xygrid"
       id="grid4136" />
    <sodipodi:guide
       position="5,59.000069"
       orientation="54,0"
       id="guide4142" />
    <sodipodi:guide
       position="5,5.0000688"
       orientation="0,54"
       id="guide4144" />
    <sodipodi:guide
       position="59,5.0000688"
       orientation="-54,0"
       id="guide4146" />
    <sodipodi:guide
       position="59,59.000069"
       orientation="0,-54"
       id="guide4148" />
    <sodipodi:guide
       position="0,64.000069"
       orientation="64,0"
       id="guide4150" />
    <sodipodi:guide
       position="0,6.875e-05"
       orientation="0,64"
       id="guide4152" />
    <sodipodi:guide
       position="64,4.0000002"
       orientation="-64,0"
       id="guide4154" />
    <sodipodi:guide
       position="64,64.000069"
       orientation="0,-64"
       id="guide4156" />
  </sodipodi:namedview>
  <metadata
     id="metadata7">
    <rdf:RDF>
      <cc:Work
         rdf:about="">
        <dc:format>image/svg+xml</dc:format>
        <dc:type
           rdf:resource="http://purl.org/dc/dcmitype/StillImage" />
        <dc:title />
      </cc:Work>
    </rdf:RDF>
  </metadata>
  <g
     inkscape:label="Capa 1"
     inkscape:groupmode="layer"
     id="layer1"
     transform="translate(0,-1058.5196)">
    <path
       inkscape:connector-curvature="0"
       style="opacity:0.7;fill:url(#radialGradient4166);fill-opacity:1;stroke:none;stroke-width:2;stroke-linecap:butt;stroke-linejoin:round;stroke-miterlimit:4;stroke-dasharray:none;stroke-opacity:1"
       d="m 60,1115.5196 0,2 c 0,1.108 -0.892,2 -2,2 l -1,0 0,-4 3,0 z"
       id="path4164" />
    <path
       id="path4251-7"
       d="m 6.999995,1115.5196 0,4 50,0 0,-4 z"
       style="opacity:0.7;fill:url(#linearGradient4257-1);fill-opacity:1;stroke:none;stroke-width:2;stroke-linecap:butt;stroke-linejoin:round;stroke-miterlimit:4;stroke-dasharray:none;stroke-opacity:1"
       inkscape:connector-curvature="0"
       sodipodi:nodetypes="ccccc" />
    <path
       id="path4253-6"
       d="m 3.999995,1115.5196 0,2 c 0,1.108 0.892,2 2,2 l 1,0 0,-4 -3,0 z"
       style="opacity:0.7;fill:url(#radialGradient4259-4);fill-opacity:1;stroke:none;stroke-width:2;stroke-linecap:butt;stroke-linejoin:round;stroke-miterlimit:4;stroke-dasharray:none;stroke-opacity:1"
       inkscape:connector-curvature="0" />
    <rect
       style="fill:#37474f;fill-opacity:1"
       id="rect3362"
       width="56"
       height="47.999931"
       x="4"
       y="1069.5197"
       ry="2.9999466" />
    <rect
       style="opacity:1;fill:#455a64;fill-opacity:1;stroke:none;stroke-width:1;stroke-linecap:round;stroke-linejoin:round;stroke-miterlimit:4;stroke-dasharray:none;stroke-opacity:1"
       id="rect4166"
       width="54"
       height="46"
       x="5"
       y="1070.5197"
       ry="1.9999467" />
    <path
       style="fill:#26c6da;fill-opacity:1;fill-rule:evenodd;stroke:none;stroke-width:1px;stroke-linecap:butt;stroke-linejoin:miter;stroke-opacity:1"
       d="m 53,30 -16,9 -2,-1 -3,-2 -4,-1 -13,7 -5,-2 -5,4 0,12 c 0,1.10797 0.8920295,2 2,2 l 50,0 c 1.10797,0 2,-0.89203 2,-2 l 0,-25 -4,1 z"
       transform="translate(0,1058.5196)"
       id="path4355"
       inkscape:connector-curvature="0"
       sodipodi:nodetypes="ccccccccssssccc" />
    <path
       style="fill:#4dd0e1;fill-opacity:1;fill-rule:evenodd;stroke:none;stroke-width:1px;stroke-linecap:butt;stroke-linejoin:miter;stroke-opacity:1"
       d="m 28,1093.5196 0,23 9,0 0,-19 -5,-3 z"
       id="path4360"
       inkscape:connector-curvature="0"
       sodipodi:nodetypes="cccccc" />
    <path
       style="fill:#4dd0e1;fill-opacity:1;fill-rule:evenodd;stroke:none;stroke-width:1px;stroke-linecap:butt;stroke-linejoin:miter;stroke-opacity:1"
       d="m 53,30 0,28 4,0 c 1.10797,0 2,-0.89203 2,-2 l 0,-25 -4,1 z"
       transform="translate(0,1058.5196)"
       id="path4362"
       inkscape:connector-curvature="0"
       sodipodi:nodetypes="ccssccc" />
    <path
       style="fill:#00bcd4;fill-opacity:1;fill-rule:evenodd;stroke:none;stroke-width:1px;stroke-linecap:butt;stroke-linejoin:miter;stroke-opacity:1"
       d="m 10,40 -5,4 0,12 c 0,1.10797 0.8920295,2 2,2 l 3,0 z"
       transform="translate(0,1058.5196)"
       id="path4367"
       inkscape:connector-curvature="0"
       sodipodi:nodetypes="ccsscc" />
    <path
       style="fill:#00acc1;fill-opacity:1;fill-rule:evenodd;stroke:none;stroke-width:1px;stroke-linecap:butt;stroke-linejoin:miter;stroke-opacity:1"
       d="M 59 31 L 58 31.25 L 58 56 C 58 56.55397 57.55397 57 57 57 L 7 57 C 6.4460296 57 6 56.55397 6 56 L 6 43.199219 L 5 44 L 5 56 C 5 57.10797 5.8920295 58 7 58 L 57 58 C 58.10797 58 59 57.10797 59 56 L 59 31 z "
       transform="translate(0,1058.5196)"
       id="path4166" />
    <path
       style="opacity:1;fill:url(#radialGradient4365);fill-opacity:1;stroke:none;stroke-width:1.99999988;stroke-linecap:round;stroke-linejoin:round;stroke-miterlimit:4;stroke-dasharray:none;stroke-opacity:1"
       d="M 15 24.822266 L 15 26.896484 A 4.999999 4.999999 0 0 0 17.533203 25.533203 L 16.119141 24.119141 A 2.999999 2.999999 0 0 1 15 24.822266 z "
       id="path4346"
       transform="translate(0,1058.5196)" />
    <path
       style="opacity:1;fill:url(#linearGradient4348);fill-opacity:1;stroke:none;stroke-width:1.99999988;stroke-linecap:round;stroke-linejoin:round;stroke-miterlimit:4;stroke-dasharray:none;stroke-opacity:1"
       d="M 13 24.824219 L 13 26.894531 A 4.999999 4.999999 0 0 0 14 27 A 4.999999 4.999999 0 0 0 15 26.896484 L 15 24.822266 A 2.999999 2.999999 0 0 1 14 25 A 2.999999 2.999999 0 0 1 13 24.824219 z "
       id="path4353"
       transform="translate(0,1058.5196)" />
    <path
       style="opacity:1;fill:url(#radialGradient4363);fill-opacity:1;stroke:none;stroke-width:1.99999988;stroke-linecap:round;stroke-linejoin:round;stroke-miterlimit:4;stroke-dasharray:none;stroke-opacity:1"
       d="M 11.175781 21 L 9.1074219 21 A 4.999999 4.999999 0 0 0 9 22 A 4.999999 4.999999 0 0 0 13 26.894531 L 13 24.824219 A 2.999999 2.999999 0 0 1 11 22 A 2.999999 2.999999 0 0 1 11.175781 21 z "
       id="path4371"
       transform="translate(0,1058.5196)" />
    <path
       style="opacity:1;fill:url(#radialGradient4373);fill-opacity:1;stroke:none;stroke-width:1.99999988;stroke-linecap:round;stroke-linejoin:round;stroke-miterlimit:4;stroke-dasharray:none;stroke-opacity:1"
       d="M 13 17.101562 A 4.999999 4.999999 0 0 0 9.1074219 21 L 11.175781 21 A 2.999999 2.999999 0 0 1 13 19.173828 L 13 17.101562 z "
       id="path4351"
       transform="translate(0,1058.5196)" />
    <path
       style="opacity:1;fill:url(#linearGradient4359);fill-opacity:1;stroke:none;stroke-width:1.99999988;stroke-linecap:round;stroke-linejoin:round;stroke-miterlimit:4;stroke-dasharray:none;stroke-opacity:1"
       d="M 13 17.101562 L 13 19.173828 A 2.999999 2.999999 0 0 1 14 19 A 2.999999 2.999999 0 0 1 15 19.175781 L 15 17.105469 A 4.999999 4.999999 0 0 0 14 17 A 4.999999 4.999999 0 0 0 13 17.101562 z "
       id="path4344"
       transform="translate(0,1058.5196)" />
    <path
       style="opacity:1;fill:url(#radialGradient4357);fill-opacity:1;stroke:none;stroke-width:1.99999988;stroke-linecap:round;stroke-linejoin:round;stroke-miterlimit:4;stroke-dasharray:none;stroke-opacity:1"
       d="M 15 17.105469 L 15 19.175781 A 2.999999 2.999999 0 0 1 16.119141 19.880859 L 17.533203 18.466797 A 4.999999 4.999999 0 0 0 15 17.105469 z "
       id="path4233"
       transform="translate(0,1058.5196)" />
    <path
       style="opacity:1;fill:#b0bec5;fill-opacity:1;stroke:none;stroke-width:1.99999988;stroke-linecap:round;stroke-linejoin:round;stroke-miterlimit:4;stroke-dasharray:none;stroke-opacity:1"
       d="m 14,1074.5196 a 4.999999,4.999999 0 0 0 -5,5 4.999999,4.999999 0 0 0 5,5 4.999999,4.999999 0 0 0 3.533203,-1.4668 l -1.414062,-1.4141 A 2.999999,2.999999 0 0 1 14,1082.5196 a 2.999999,2.999999 0 0 1 -3,-3 2.999999,2.999999 0 0 1 3,-3 2.999999,2.999999 0 0 1 2.119141,0.8809 l 1.414062,-1.4141 A 4.999999,4.999999 0 0 0 14,1074.5196 Z"
       id="path4200"
       inkscape:connector-curvature="0" />
    <path
       style="opacity:1;fill:url(#linearGradient4317);fill-opacity:1.0;stroke:none;stroke-width:1.99999988;stroke-linecap:round;stroke-linejoin:round;stroke-miterlimit:4;stroke-dasharray:none;stroke-opacity:1"
       d="M 21 21 L 21 23 L 22 23 L 24 23 L 24 21 L 22 21 L 21 21 z "
       id="path4315"
       transform="translate(0,1058.5196)" />
    <path
       style="opacity:1;fill:url(#linearGradient4241);fill-opacity:1;stroke:none;stroke-width:1.99999988;stroke-linecap:round;stroke-linejoin:round;stroke-miterlimit:4;stroke-dasharray:none;stroke-opacity:1"
       d="M 21 17 L 19 17 L 19 20 L 19 27 L 21 27 L 21 23 L 21 21 L 21 20 L 21 19 L 21 17 z "
       id="path4313"
       transform="translate(0,1058.5196)" />
    <path
       style="opacity:1;fill:url(#linearGradient4327);fill-opacity:1.0;stroke:none;stroke-width:1.99999988;stroke-linecap:round;stroke-linejoin:round;stroke-miterlimit:4;stroke-dasharray:none;stroke-opacity:1"
       d="M 21 17 L 21 19 L 22 19 L 24 19 L 24 17 L 22 17 L 21 17 z "
       id="path4298"
       transform="translate(0,1058.5196)" />
    <path
       style="opacity:1;fill:url(#radialGradient4300);fill-opacity:1;stroke:none;stroke-width:1.99999988;stroke-linecap:round;stroke-linejoin:round;stroke-miterlimit:4;stroke-dasharray:none;stroke-opacity:1"
       d="M 25 20 C 25 20.554 24.553985 21 24 21 L 24 23 C 25.661985 23 27 21.662 27 20 L 25 20 z "
       transform="translate(0,1058.5196)"
       id="path4332" />
    <path
       style="opacity:1;fill:url(#radialGradient4334);fill-opacity:1;stroke:none;stroke-width:1.99999988;stroke-linecap:round;stroke-linejoin:round;stroke-miterlimit:4;stroke-dasharray:none;stroke-opacity:1"
       d="M 24 17 L 24 19 L 26.587891 19 C 26.14917 17.888901 25.270702 17 24 17 z "
       id="path4235"
       transform="translate(0,1058.5196)" />
    <path
       style="opacity:1;fill:#b0bec5;fill-opacity:1;stroke:none;stroke-width:1.99999988;stroke-linecap:round;stroke-linejoin:round;stroke-miterlimit:4;stroke-dasharray:none;stroke-opacity:1"
       d="m 19,1074.5196 0,3 0,7 2,0 0,-4 1,0 2,0 c 1.661985,0 3,-1.338 3,-3 0,-1.662 -1.338015,-3 -3,-3 l -2,0 -1,0 -2,0 z m 2,2 1,0 2,0 c 0.553985,0 1,0.446 1,1 0,0.554 -0.446015,1 -1,1 l -2,0 -1,0 0,-1 0,-1 z"
       id="rect4208"
       inkscape:connector-curvature="0" />
    <path
       style="opacity:1;fill:url(#linearGradient4276);fill-opacity:1;stroke:none;stroke-width:1.99999988;stroke-linecap:round;stroke-linejoin:round;stroke-miterlimit:4;stroke-dasharray:none;stroke-opacity:1"
       d="M 31 24.587891 L 31 26.798828 C 31.327324 26.884869 31.644933 27 32 27 C 32.355067 27 32.672676 26.884869 33 26.798828 L 33 24.587891 C 32.692406 24.780524 32.391197 25 32 25 C 31.608803 25 31.307594 24.780524 31 24.587891 z "
       id="path4279"
       transform="translate(0,1058.5196)" />
    <path
       style="opacity:1;fill:url(#radialGradient4281);fill-opacity:1.0;stroke:none;stroke-width:1.99999988;stroke-linecap:round;stroke-linejoin:round;stroke-miterlimit:4;stroke-dasharray:none;stroke-opacity:1"
       d="M 28 17 L 28 21 L 28 23 C 28 24.860933 29.284471 26.347883 31 26.798828 L 31 24.587891 C 30.436385 24.234922 30 23.716803 30 23 L 30 22 L 30 18 L 30 17 L 28 17 z "
       id="path4237"
       transform="translate(0,1058.5196)" />
    <path
       id="path4291"
       d="m 36,1075.5196 0,4.0001 0,2 c 0,1.861 -1.284471,3.348 -3,3.7989 l 0,-2.2109 c 0.563615,-0.3531 1,-0.8712 1,-1.588 l 0,-1 0,-4.0001 0,-1 2,0 z"
       style="opacity:1;fill:url(#radialGradient4293);fill-opacity:1;stroke:none;stroke-width:1.99999988;stroke-linecap:round;stroke-linejoin:round;stroke-miterlimit:4;stroke-dasharray:none;stroke-opacity:1"
       inkscape:connector-curvature="0" />
    <path
       style="opacity:1;fill:#b0bec5;fill-opacity:1;stroke:none;stroke-width:1.99999988;stroke-linecap:round;stroke-linejoin:round;stroke-miterlimit:4;stroke-dasharray:none;stroke-opacity:1"
       d="m 28,1074.5196 0,4 0,2 c 0,2.216 1.784,4 4,4 2.216,0 4,-1.784 4,-4 l 0,-2 0,-4 -2,0 0,1 0,4 0,1 c 0,1.108 -0.892,2 -2,2 -1.108,0 -2,-0.892 -2,-2 l 0,-1 0,-4 0,-1 -2,0 z"
       id="rect4222"
       inkscape:connector-curvature="0" />
  </g>
</svg>
