<?xml version="1.0" encoding="UTF-8" standalone="no"?>
<!-- Created with Inkscape (http://www.inkscape.org/) -->

<svg
   xmlns:dc="http://purl.org/dc/elements/1.1/"
   xmlns:cc="http://creativecommons.org/ns#"
   xmlns:rdf="http://www.w3.org/1999/02/22-rdf-syntax-ns#"
   xmlns:svg="http://www.w3.org/2000/svg"
   xmlns="http://www.w3.org/2000/svg"
   xmlns:xlink="http://www.w3.org/1999/xlink"
   xmlns:sodipodi="http://sodipodi.sourceforge.net/DTD/sodipodi-0.dtd"
   xmlns:inkscape="http://www.inkscape.org/namespaces/inkscape"
   width="32"
   height="32"
   viewBox="0 0 32 32.000001"
   id="svg2"
   version="1.1"
   inkscape:version="0.91 r13725"
   sodipodi:docname="preferences-system-session-services.svg">
  <defs
     id="defs4">
    <linearGradient
       inkscape:collect="always"
       id="Shadow">
      <stop
         style="stop-color:#000000;stop-opacity:1;"
         offset="0"
         id="stop4181" />
      <stop
         style="stop-color:#000000;stop-opacity:0;"
         offset="1"
         id="stop4183" />
    </linearGradient>
    <radialGradient
       inkscape:collect="always"
       xlink:href="#Shadow"
       id="radialGradient4576"
       gradientUnits="userSpaceOnUse"
       gradientTransform="matrix(3.1111458e-7,2.6666673,-1.9999997,2.3333583e-7,84.99998,973.69551)"
       cx="28"
       cy="28.5"
       fx="28"
       fy="28.5"
       r="1.5" />
    <linearGradient
       inkscape:collect="always"
       xlink:href="#Shadow"
       id="linearGradient4580"
       gradientUnits="userSpaceOnUse"
       gradientTransform="translate(2,1020.3622)"
       x1="16"
       y1="28"
       x2="16"
       y2="32" />
    <radialGradient
       inkscape:collect="always"
       xlink:href="#Shadow"
       id="radialGradient4578"
       gradientUnits="userSpaceOnUse"
       gradientTransform="matrix(-1.9999998,2.4329792e-6,-3.2319946e-6,-2.6666666,18.119531,1131.421)"
       cx="0.55971527"
       cy="31.14706"
       fx="0.55971527"
       fy="31.14706"
       r="1.5" />
    <linearGradient
       inkscape:collect="always"
       xlink:href="#Shadow"
       id="linearGradient4380"
       gradientUnits="userSpaceOnUse"
       gradientTransform="translate(-11,1018.3622)"
       x1="16"
       y1="28"
       x2="16"
       y2="32" />
    <radialGradient
       inkscape:collect="always"
       xlink:href="#Shadow"
       id="radialGradient4382"
       gradientUnits="userSpaceOnUse"
       gradientTransform="matrix(-1.9999998,2.4329792e-6,-3.2319946e-6,-2.6666666,5.119531,1129.421)"
       cx="0.55971527"
       cy="31.14706"
       fx="0.55971527"
       fy="31.14706"
       r="1.5" />
    <radialGradient
       inkscape:collect="always"
       xlink:href="#Shadow"
       id="radialGradient4279"
       gradientUnits="userSpaceOnUse"
       gradientTransform="matrix(3.0000158,-1.7994519e-5,1.7994657e-5,3.000037,-1223.7303,-548.14408)"
       cx="408.57141"
       cy="532.49799"
       fx="408.57141"
       fy="532.49799"
       r="1" />
    <radialGradient
       inkscape:collect="always"
       xlink:href="#Shadow"
       id="radialGradient4414"
       cx="2.0000086"
       cy="1027.3619"
       fx="2.0000086"
       fy="1027.3619"
       r="2.0000086"
       gradientUnits="userSpaceOnUse"
       gradientTransform="translate(0,-0.99986033)" />
  </defs>
  <sodipodi:namedview
     id="base"
     pagecolor="#ffffff"
     bordercolor="#666666"
     borderopacity="1.0"
     inkscape:pageopacity="0.0"
     inkscape:pageshadow="2"
     inkscape:zoom="26"
     inkscape:cx="23.717381"
     inkscape:cy="12.451604"
     inkscape:document-units="px"
     inkscape:current-layer="layer1"
     showgrid="true"
     inkscape:window-width="2560"
     inkscape:window-height="1017"
     inkscape:window-x="0"
     inkscape:window-y="0"
     inkscape:window-maximized="1"
     inkscape:showpageshadow="false"
     borderlayer="true"
     units="px">
    <inkscape:grid
       type="xygrid"
       id="grid4155"
       empspacing="2" />
    <sodipodi:guide
       position="2,30.000018"
       orientation="28,0"
       id="guide4159" />
    <sodipodi:guide
       position="2,2.0000174"
       orientation="0,28"
       id="guide4161" />
    <sodipodi:guide
       position="30,2.0000174"
       orientation="-28,0"
       id="guide4163" />
    <sodipodi:guide
       position="30,30.000018"
       orientation="0,-28"
       id="guide4165" />
  </sodipodi:namedview>
  <metadata
     id="metadata7">
    <rdf:RDF>
      <cc:Work
         rdf:about="">
        <dc:format>image/svg+xml</dc:format>
        <dc:type
           rdf:resource="http://purl.org/dc/dcmitype/StillImage" />
        <dc:title />
      </cc:Work>
    </rdf:RDF>
  </metadata>
  <g
     inkscape:label="Layer 1"
     inkscape:groupmode="layer"
     id="layer1"
     transform="translate(0,-1020.3622)">
    <rect
       style="opacity:1;fill:url(#radialGradient4279);fill-opacity:1;stroke:none;stroke-width:2;stroke-linecap:butt;stroke-linejoin:round;stroke-miterlimit:4;stroke-dasharray:none;stroke-opacity:1"
       id="rect4277"
       width="2"
       height="5"
       x="1.000012"
       y="1047.3622"
       ry="1" />
    <path
       style="opacity:1;fill:url(#linearGradient4380);fill-opacity:1;stroke:none;stroke-width:2;stroke-linecap:round;stroke-linejoin:round;stroke-miterlimit:4;stroke-dasharray:none;stroke-opacity:0.52777782"
       d="m 4,1046.3622 0,4 11,0 0,-4 z"
       id="path4376"
       inkscape:connector-curvature="0"
       sodipodi:nodetypes="ccccc" />
    <path
       style="opacity:1;fill:url(#radialGradient4382);fill-opacity:1;stroke:none;stroke-width:2;stroke-linecap:round;stroke-linejoin:round;stroke-miterlimit:4;stroke-dasharray:none;stroke-opacity:0.52777782"
       d="m 4,1046.3622 -3,0 0,1 c 0,1.662 1.33799,3 3,3 l 0,-4 z"
       id="path4378"
       inkscape:connector-curvature="0" />
    <path
       sodipodi:nodetypes="ccccc"
       inkscape:connector-curvature="0"
       id="path4574"
       d="m 17,1048.3622 0,4 11,0 0,-4 z"
       style="opacity:1;fill:url(#linearGradient4580);fill-opacity:1;stroke:none;stroke-width:2;stroke-linecap:round;stroke-linejoin:round;stroke-miterlimit:4;stroke-dasharray:none;stroke-opacity:0.52777782" />
    <path
       inkscape:connector-curvature="0"
       id="path4572"
       d="m 17,1048.3622 -3,0 0,1 c 0,1.662 1.33799,3 3,3 l 0,-4 z"
       style="opacity:1;fill:url(#radialGradient4578);fill-opacity:1;stroke:none;stroke-width:2;stroke-linecap:round;stroke-linejoin:round;stroke-miterlimit:4;stroke-dasharray:none;stroke-opacity:0.52777782" />
    <path
       inkscape:connector-curvature="0"
       id="path4570"
       d="m 28,1048.3622 0,4 c 1.66201,0 3,-1.338 3,-3 l 0,-1 -3,0 z"
       style="opacity:1;fill:url(#radialGradient4576);fill-opacity:1;stroke:none;stroke-width:2;stroke-linecap:round;stroke-linejoin:round;stroke-miterlimit:4;stroke-dasharray:none;stroke-opacity:0.52777782" />
    <path
       style="opacity:1;fill:#3f51b5;fill-opacity:1;stroke:none;stroke-width:2;stroke-linecap:round;stroke-linejoin:round;stroke-miterlimit:4;stroke-dasharray:none;stroke-opacity:1"
       d="m 16.000017,1028.3622 12.999966,0 c 1.108009,0 2.000017,0.892 2.000017,2 l -8,9 8,8.9999 c 0.736184,0.8282 -0.892008,2.0001 -2.000017,2.0001 l -12.999966,0 C 14.892008,1050.3622 14,1049.4702 14,1048.3621 l 0,-17.9999 c 0,-1.108 0.892008,-2 2.000017,-2 z"
       id="rect4330"
       inkscape:connector-curvature="0"
       sodipodi:nodetypes="ssscssssss" />
    <path
       style="opacity:1;fill:#5c6bc0;fill-opacity:1;stroke:none;stroke-width:2;stroke-linecap:round;stroke-linejoin:round;stroke-miterlimit:4;stroke-dasharray:none;stroke-opacity:1"
       d="m 16.000017,1029.3622 12.999966,0 c 0.277004,0 0.527009,0.1115 0.707762,0.2923 0.180753,0.1807 0.292255,0.4307 0.292255,0.7077 l -8,9 8,9 c 0.368058,0.4141 -0.446008,1 -1.000017,1 l -12.999966,0 c -0.554009,0 -1.000017,-0.446 -1.000017,-1 l 0,-18 c 0,-0.554 0.446008,-1 1.000017,-1 z"
       id="rect4332"
       inkscape:connector-curvature="0"
       sodipodi:nodetypes="sssscssssss" />
    <path
       style="opacity:1;fill:#3f51b5;fill-opacity:1;stroke:none;stroke-width:2;stroke-linecap:round;stroke-linejoin:round;stroke-miterlimit:4;stroke-dasharray:none;stroke-opacity:1"
       d="m 3.000017,1026.3622 9.999966,0 c 1.108009,0 1.649637,0.9489 2.000017,2 l 6,18 c 0.35038,1.0511 -0.892008,2 -2.000017,2 l -15.999966,0 c -1.108009,0 -2.000017,-0.892 -2.000017,-2 l 0,-18 c 0,-1.108 0.892008,-2 2.000017,-2 z"
       id="rect4324"
       inkscape:connector-curvature="0"
       sodipodi:nodetypes="sssssssss" />
    <path
       style="opacity:1;fill:#5c6bc0;fill-opacity:1;stroke:none;stroke-width:2;stroke-linecap:round;stroke-linejoin:round;stroke-miterlimit:4;stroke-dasharray:none;stroke-opacity:1"
       d="m 3.000017,1027.3622 9.999966,0 c 0.554009,0 0.824827,0.4744 1.000017,1 l 6,18 c 0.17519,0.5256 -0.446008,1 -1.000017,1 l -15.999966,0 c -0.554009,0 -1.000017,-0.446 -1.000017,-1 l 0,-18 c 0,-0.554 0.446008,-1 1.000017,-1 z"
       id="rect4327"
       inkscape:connector-curvature="0"
       sodipodi:nodetypes="sssssssss" />
    <path
       style="opacity:1;fill:#3949ab;fill-opacity:1;stroke:none;stroke-width:2;stroke-linecap:round;stroke-linejoin:round;stroke-miterlimit:4;stroke-dasharray:none;stroke-opacity:1"
       d="M 14 28 L 14 28.259766 C 14 29.223392 14.776608 30 15.740234 30 L 16 30 L 19 28 L 16 28 L 14 28 z "
       transform="translate(0,1020.3622)"
       id="rect4342" />
    <rect
       style="opacity:1;fill:#455a64;fill-opacity:1;stroke:none;stroke-width:2;stroke-linecap:round;stroke-linejoin:round;stroke-miterlimit:4;stroke-dasharray:none;stroke-opacity:1"
       id="rect4384"
       width="2"
       height="25.000017"
       x="1"
       y="1025.3622"
       ry="1" />
    <circle
       r="2.0000086"
       cy="1026.3622"
       cx="2.0000086"
       id="circle4410"
       style="opacity:1;fill:url(#radialGradient4414);fill-opacity:1;stroke:none;stroke-width:2;stroke-linecap:round;stroke-linejoin:round;stroke-miterlimit:4;stroke-dasharray:none;stroke-opacity:1" />
    <circle
       style="opacity:1;fill:#ffb74d;fill-opacity:1;stroke:none;stroke-width:2;stroke-linecap:round;stroke-linejoin:round;stroke-miterlimit:4;stroke-dasharray:none;stroke-opacity:1"
       id="path4406"
       cx="2.0000086"
       cy="1025.3624"
       r="2.0000086" />
    <circle
       r="1.0000086"
       cy="1025.3624"
       cx="2.0000086"
       id="circle4408"
       style="opacity:1;fill:#ffcc80;fill-opacity:1;stroke:none;stroke-width:2;stroke-linecap:round;stroke-linejoin:round;stroke-miterlimit:4;stroke-dasharray:none;stroke-opacity:1" />
  </g>
</svg>
