<?xml version="1.0" encoding="UTF-8" standalone="no"?>
<!-- Created with Inkscape (http://www.inkscape.org/) -->

<svg
   xmlns:dc="http://purl.org/dc/elements/1.1/"
   xmlns:cc="http://creativecommons.org/ns#"
   xmlns:rdf="http://www.w3.org/1999/02/22-rdf-syntax-ns#"
   xmlns:svg="http://www.w3.org/2000/svg"
   xmlns="http://www.w3.org/2000/svg"
   xmlns:xlink="http://www.w3.org/1999/xlink"
   xmlns:sodipodi="http://sodipodi.sourceforge.net/DTD/sodipodi-0.dtd"
   xmlns:inkscape="http://www.inkscape.org/namespaces/inkscape"
   width="32"
   height="32"
   viewBox="0 0 32 32.000001"
   id="svg2"
   version="1.1"
   inkscape:version="0.91 r13725"
   sodipodi:docname="preferences-system-windows-action.svg">
  <defs
     id="defs4">
    <linearGradient
       inkscape:collect="always"
       id="Shadow">
      <stop
         style="stop-color:#000000;stop-opacity:1;"
         offset="0"
         id="stop4181" />
      <stop
         style="stop-color:#000000;stop-opacity:0;"
         offset="1"
         id="stop4183" />
    </linearGradient>
    <radialGradient
       inkscape:collect="always"
       xlink:href="#Shadow"
       id="radialGradient4576"
       gradientUnits="userSpaceOnUse"
       gradientTransform="matrix(3.1111458e-7,2.6666673,-1.9999997,2.3333583e-7,84.99998,973.69551)"
       cx="28"
       cy="28.5"
       fx="28"
       fy="28.5"
       r="1.5" />
    <radialGradient
       inkscape:collect="always"
       xlink:href="#Shadow"
       id="radialGradient4578"
       gradientUnits="userSpaceOnUse"
       gradientTransform="matrix(-1.9999998,2.4329792e-6,-3.2319946e-6,-2.6666666,5.119531,1131.421)"
       cx="0.55971527"
       cy="31.14706"
       fx="0.55971527"
       fy="31.14706"
       r="1.5" />
    <linearGradient
       inkscape:collect="always"
       xlink:href="#Shadow"
       id="linearGradient4580"
       gradientUnits="userSpaceOnUse"
       gradientTransform="translate(0,1020.3622)"
       x1="16"
       y1="28"
       x2="16"
       y2="32" />
    <radialGradient
       inkscape:collect="always"
       xlink:href="#linearGradient4164"
       id="radialGradient4205"
       cx="23.000006"
       cy="1031.3624"
       fx="23.000006"
       fy="1031.3624"
       r="6.0000005"
       gradientUnits="userSpaceOnUse"
       gradientTransform="matrix(1,0,0,1.000006,2.9999942,-2.005414)" />
    <linearGradient
       id="linearGradient4164"
       inkscape:collect="always">
      <stop
         id="stop4166"
         offset="0"
         style="stop-color:#000000;stop-opacity:1;" />
      <stop
         style="stop-color:#000000;stop-opacity:1"
         offset="0.66666573"
         id="stop4170" />
      <stop
         id="stop4168"
         offset="1"
         style="stop-color:#000000;stop-opacity:0;" />
    </linearGradient>
  </defs>
  <sodipodi:namedview
     id="base"
     pagecolor="#ffffff"
     bordercolor="#666666"
     borderopacity="1.0"
     inkscape:pageopacity="0.0"
     inkscape:pageshadow="2"
     inkscape:zoom="32"
     inkscape:cx="27.883812"
     inkscape:cy="22.980144"
     inkscape:document-units="px"
     inkscape:current-layer="layer1"
     showgrid="true"
     inkscape:window-width="2560"
     inkscape:window-height="1017"
     inkscape:window-x="0"
     inkscape:window-y="0"
     inkscape:window-maximized="1"
     inkscape:showpageshadow="false"
     borderlayer="true"
     units="px">
    <inkscape:grid
       type="xygrid"
       id="grid4155"
       empspacing="2" />
    <sodipodi:guide
       position="2,30.000018"
       orientation="28,0"
       id="guide4159" />
    <sodipodi:guide
       position="2,2.0000174"
       orientation="0,28"
       id="guide4161" />
    <sodipodi:guide
       position="30,2.0000174"
       orientation="-28,0"
       id="guide4163" />
    <sodipodi:guide
       position="30,30.000018"
       orientation="0,-28"
       id="guide4165" />
  </sodipodi:namedview>
  <metadata
     id="metadata7">
    <rdf:RDF>
      <cc:Work
         rdf:about="">
        <dc:format>image/svg+xml</dc:format>
        <dc:type
           rdf:resource="http://purl.org/dc/dcmitype/StillImage" />
        <dc:title />
      </cc:Work>
    </rdf:RDF>
  </metadata>
  <g
     inkscape:label="Layer 1"
     inkscape:groupmode="layer"
     id="layer1"
     transform="translate(0,-1020.3622)">
    <path
       sodipodi:nodetypes="ccccc"
       inkscape:connector-curvature="0"
       id="path4574"
       d="m 4,1048.3622 0,4 24,0 0,-4 z"
       style="opacity:1;fill:url(#linearGradient4580);fill-opacity:1;stroke:none;stroke-width:2;stroke-linecap:round;stroke-linejoin:round;stroke-miterlimit:4;stroke-dasharray:none;stroke-opacity:0.52777782" />
    <path
       inkscape:connector-curvature="0"
       id="path4572"
       d="m 4,1048.3622 -3,0 0,1 c 0,1.662 1.33799,3 3,3 l 0,-4 z"
       style="opacity:1;fill:url(#radialGradient4578);fill-opacity:1;stroke:none;stroke-width:2;stroke-linecap:round;stroke-linejoin:round;stroke-miterlimit:4;stroke-dasharray:none;stroke-opacity:0.52777782" />
    <path
       inkscape:connector-curvature="0"
       id="path4570"
       d="m 28,1048.3622 0,4 c 1.66201,0 3,-1.338 3,-3 l 0,-1 -3,0 z"
       style="opacity:1;fill:url(#radialGradient4576);fill-opacity:1;stroke:none;stroke-width:2;stroke-linecap:round;stroke-linejoin:round;stroke-miterlimit:4;stroke-dasharray:none;stroke-opacity:0.52777782" />
    <rect
       style="opacity:1;fill:#90a4ae;fill-opacity:1;stroke:none;stroke-width:2;stroke-linecap:round;stroke-linejoin:round;stroke-miterlimit:4;stroke-dasharray:none;stroke-opacity:0.52777782"
       id="rect4163"
       width="30"
       height="25.999983"
       x="1"
       y="1024.3622"
       ry="2.0000174" />
    <path
       style="opacity:1;fill:#eceff1;fill-opacity:1;stroke:none;stroke-width:2;stroke-linecap:round;stroke-linejoin:round;stroke-miterlimit:4;stroke-dasharray:none;stroke-opacity:0.52777782"
       d="m 30,1030.3622 -28,0 0,18 c 0,0.554 0.44599,1 1,1 l 26,0 c 0.55401,0 1,-0.446 1,-1 l 0,-18 z"
       id="path4172"
       inkscape:connector-curvature="0" />
    <path
       style="opacity:1;fill:#e0e0e0;fill-opacity:1;stroke:none;stroke-width:2;stroke-linecap:round;stroke-linejoin:round;stroke-miterlimit:4;stroke-dasharray:none;stroke-opacity:0.52777782"
       d="m 3,1025.3622 c -0.55401,0 -1,0.446 -1,1 l 0,4 28,0 0,-4 c 0,-0.554 -0.44599,-1 -1,-1 l -26,0 z"
       id="rect4165"
       inkscape:connector-curvature="0" />
    <rect
       style="opacity:1;fill:#90a4ae;fill-opacity:1;stroke:none;stroke-width:2;stroke-linecap:round;stroke-linejoin:round;stroke-miterlimit:4;stroke-dasharray:none;stroke-opacity:0.52777782"
       id="rect4167"
       width="28"
       height="1"
       x="2"
       y="1029.3622"
       ry="0" />
    <rect
       style="opacity:1;fill:#fafafa;fill-opacity:1;stroke:none;stroke-width:2;stroke-linecap:round;stroke-linejoin:round;stroke-miterlimit:4;stroke-dasharray:none;stroke-opacity:0.52777782"
       id="rect4175"
       width="26"
       height="17"
       x="3"
       y="1031.3622"
       ry="0" />
    <circle
       style="opacity:1;fill:#ef5350;fill-opacity:1;stroke:none;stroke-width:2;stroke-linecap:round;stroke-linejoin:round;stroke-miterlimit:4;stroke-dasharray:none;stroke-opacity:0.52777782"
       id="path4243"
       cx="28"
       cy="1027.3622"
       r="1" />
    <ellipse
       cy="1029.3621"
       cx="26.000002"
       id="circle4201"
       style="opacity:1;fill:url(#radialGradient4205);fill-opacity:1;stroke:none;stroke-width:2;stroke-linecap:round;stroke-linejoin:round;stroke-miterlimit:4;stroke-dasharray:none;stroke-opacity:1"
       rx="6.0000005"
       ry="6.0000291" />
    <ellipse
       style="opacity:1;fill:#4caf50;fill-opacity:1;stroke:none;stroke-width:2;stroke-linecap:round;stroke-linejoin:round;stroke-miterlimit:4;stroke-dasharray:none;stroke-opacity:1"
       id="path4174"
       cx="26.000002"
       cy="1028.3623"
       rx="6.0000005"
       ry="6.0000291" />
    <ellipse
       ry="5.0000291"
       rx="5.0000052"
       cy="1028.3623"
       cx="26.000002"
       id="ellipse4277"
       style="opacity:1;fill:#66bb6a;fill-opacity:1;stroke:none;stroke-width:2;stroke-linecap:round;stroke-linejoin:round;stroke-miterlimit:4;stroke-dasharray:none;stroke-opacity:1" />
    <path
       style="opacity:1;fill:#fafafa;fill-opacity:1;stroke:none;stroke-width:2;stroke-linecap:round;stroke-linejoin:round;stroke-miterlimit:4;stroke-dasharray:none;stroke-opacity:1"
       d="M 26 4 A 4.00001 4.0000291 0 0 0 25.001953 4.1328125 L 25 4.1328125 L 24.685547 5.3066406 A 3 3 0 0 0 24.322266 5.5136719 L 23.148438 5.1992188 L 23.148438 5.203125 A 4.0000291 4.00001 30 0 0 22.535156 6 A 4.0000291 4.00001 30 0 0 22.148438 6.9316406 L 23.007812 7.7890625 A 3 3 0 0 0 23 8 A 3 3 0 0 0 23.011719 8.2070312 L 22.148438 9.0683594 A 4.00001 4.0000291 60 0 0 22.535156 10 A 4.00001 4.0000291 60 0 0 23.148438 10.796875 L 23.148438 10.800781 L 24.324219 10.484375 A 3 3 0 0 0 24.685547 10.695312 L 25 11.869141 A 4.00001 4.0000291 0 0 0 26 12 A 4.00001 4.0000291 0 0 0 26.998047 11.867188 L 27 11.869141 L 27 11.867188 L 27.314453 10.693359 A 3 3 0 0 0 27.677734 10.486328 L 28.851562 10.800781 L 28.851562 10.796875 A 4.0000291 4.00001 30 0 0 29.464844 10 A 4.0000291 4.00001 30 0 0 29.851562 9.0683594 L 28.992188 8.2109375 A 3 3 0 0 0 29 8 A 3 3 0 0 0 28.988281 7.7929688 L 29.851562 6.9316406 A 4.00001 4.0000291 60 0 0 29.464844 6 A 4.00001 4.0000291 60 0 0 28.851562 5.203125 L 28.851562 5.1992188 L 27.675781 5.515625 A 3 3 0 0 0 27.314453 5.3046875 L 27 4.1308594 A 4.00001 4.0000291 0 0 0 26 4 z M 26 5 A 3 3 0 0 0 25.779297 5.0117188 A 3.0000148 3.0000291 0 0 1 26 5 z M 26 6 A 2 2 0 0 1 28 8 A 2 2 0 0 1 26 10 A 2 2 0 0 1 24 8 A 2 2 0 0 1 26 6 z M 28.515625 6.3691406 A 3.0000148 3.0000291 60 0 1 28.597656 6.5 A 3.0000148 3.0000291 60 0 1 28.613281 6.5292969 A 3 3 0 0 0 28.515625 6.3691406 z M 23.464844 6.3984375 A 3 3 0 0 0 23.371094 6.5605469 A 3.0000291 3.0000148 30 0 1 23.402344 6.5 A 3.0000291 3.0000148 30 0 1 23.464844 6.3984375 z M 26 7 A 1 1 0 0 0 25 8 A 1 1 0 0 0 26 9 A 1 1 0 0 0 27 8 A 1 1 0 0 0 26 7 z M 28.628906 9.4394531 A 3.0000291 3.0000148 30 0 1 28.597656 9.5 A 3.0000291 3.0000148 30 0 1 28.535156 9.6015625 A 3 3 0 0 0 28.628906 9.4394531 z M 23.386719 9.4707031 A 3 3 0 0 0 23.484375 9.6308594 A 3.0000148 3.0000291 60 0 1 23.402344 9.5 A 3.0000148 3.0000291 60 0 1 23.386719 9.4707031 z M 26.220703 10.988281 A 3.0000148 3.0000291 0 0 1 26 11 A 3 3 0 0 0 26.220703 10.988281 z "
       transform="translate(0,1020.3622)"
       id="ellipse4175" />
  </g>
</svg>
