<?xml version="1.0" encoding="UTF-8" standalone="no"?>
<!-- Created with Inkscape (http://www.inkscape.org/) -->

<svg
   xmlns:dc="http://purl.org/dc/elements/1.1/"
   xmlns:cc="http://creativecommons.org/ns#"
   xmlns:rdf="http://www.w3.org/1999/02/22-rdf-syntax-ns#"
   xmlns:svg="http://www.w3.org/2000/svg"
   xmlns="http://www.w3.org/2000/svg"
   xmlns:xlink="http://www.w3.org/1999/xlink"
   xmlns:sodipodi="http://sodipodi.sourceforge.net/DTD/sodipodi-0.dtd"
   xmlns:inkscape="http://www.inkscape.org/namespaces/inkscape"
   version="1.1"
   width="128"
   height="128"
   id="svg4247"
   inkscape:version="0.48.3.1 r9886"
   sodipodi:docname="text-x-generic-template.svg">
  <sodipodi:namedview
     pagecolor="#ffffff"
     bordercolor="#666666"
     borderopacity="1"
     objecttolerance="10"
     gridtolerance="10"
     guidetolerance="10"
     inkscape:pageopacity="0"
     inkscape:pageshadow="2"
     inkscape:window-width="1365"
     inkscape:window-height="697"
     id="namedview49"
     showgrid="false"
     inkscape:zoom="1.2291667"
     inkscape:cx="7.2353071"
     inkscape:cy="112.75864"
     inkscape:window-x="0"
     inkscape:window-y="0"
     inkscape:window-maximized="1"
     inkscape:current-layer="svg4247" />
  <defs
     id="defs4249">
    <radialGradient
       cx="21.171581"
       cy="25.536045"
       r="16"
       fx="21.171581"
       fy="25.536045"
       id="radialGradient3338"
       xlink:href="#linearGradient3827"
       gradientUnits="userSpaceOnUse"
       gradientTransform="matrix(1.1563548,1.7750479e-8,-2.3661307e-8,1.5414157,-2.9825321,-12.701774)" />
    <linearGradient
       id="linearGradient3827">
      <stop
         id="stop3829"
         style="stop-color:#ffffff;stop-opacity:1"
         offset="0" />
      <stop
         id="stop3835"
         style="stop-color:#ffffff;stop-opacity:1"
         offset="0.82282937" />
      <stop
         id="stop3831"
         style="stop-color:#ffffff;stop-opacity:0"
         offset="1" />
    </linearGradient>
    <linearGradient
       x1="23.99999"
       y1="5.5641499"
       x2="23.99999"
       y2="43"
       id="linearGradient3988"
       xlink:href="#linearGradient3977"
       gradientUnits="userSpaceOnUse"
       gradientTransform="matrix(0.89189189,0,0,1.1351351,2.5945999,-4.7432315)" />
    <linearGradient
       id="linearGradient3977">
      <stop
         id="stop3979"
         style="stop-color:#ffffff;stop-opacity:1"
         offset="0" />
      <stop
         id="stop3981"
         style="stop-color:#ffffff;stop-opacity:0.23529412"
         offset="0.03626217" />
      <stop
         id="stop3983"
         style="stop-color:#ffffff;stop-opacity:0.15686275"
         offset="0.95056331" />
      <stop
         id="stop3985"
         style="stop-color:#ffffff;stop-opacity:0.39215687"
         offset="1" />
    </linearGradient>
    <radialGradient
       cx="15.951264"
       cy="8.6004324"
       r="18.000002"
       fx="15.951264"
       fy="8.6004324"
       id="radialGradient3350-4"
       xlink:href="#linearGradient2867-449-88-871-390-598-476-591-434-148-57-177-7"
       gradientUnits="userSpaceOnUse"
       gradientTransform="matrix(-1.8296896e-8,2.5204536,-2.2447219,-1.6295259e-8,43.307494,-27.461211)" />
    <linearGradient
       id="linearGradient2867-449-88-871-390-598-476-591-434-148-57-177-7">
      <stop
         id="stop3750-6"
         style="stop-color:#90dbec;stop-opacity:1"
         offset="0" />
      <stop
         id="stop3752-3"
         style="stop-color:#55c1ec;stop-opacity:1"
         offset="0.26238" />
      <stop
         id="stop3754-1"
         style="stop-color:#3689e6;stop-opacity:1"
         offset="0.704952" />
      <stop
         id="stop3756-7"
         style="stop-color:#2b63a0;stop-opacity:1"
         offset="1" />
    </linearGradient>
    <linearGradient
       x1="-51.786404"
       y1="53.623615"
       x2="-51.786404"
       y2="2.9062471"
       id="linearGradient3352-5"
       xlink:href="#linearGradient3707-319-631-407-324-9"
       gradientUnits="userSpaceOnUse"
       gradientTransform="matrix(0.8074968,0,0,0.8948322,59.410231,-2.9833171)" />
    <linearGradient
       id="linearGradient3707-319-631-407-324-9">
      <stop
         id="stop3760-6"
         style="stop-color:#185f9a;stop-opacity:1"
         offset="0" />
      <stop
         id="stop3762-2"
         style="stop-color:#599ec9;stop-opacity:1"
         offset="1" />
    </linearGradient>
    <radialGradient
       cx="605.71429"
       cy="486.64789"
       r="117.14286"
       fx="605.71429"
       fy="486.64789"
       id="radialGradient3327"
       xlink:href="#linearGradient5060"
       gradientUnits="userSpaceOnUse"
       gradientTransform="matrix(0.02303995,0,0,0.01470022,26.360882,37.040176)" />
    <linearGradient
       id="linearGradient5060">
      <stop
         id="stop5062"
         style="stop-color:#000000;stop-opacity:1"
         offset="0" />
      <stop
         id="stop5064"
         style="stop-color:#000000;stop-opacity:0"
         offset="1" />
    </linearGradient>
    <radialGradient
       cx="605.71429"
       cy="486.64789"
       r="117.14286"
       fx="605.71429"
       fy="486.64789"
       id="radialGradient3330"
       xlink:href="#linearGradient5060"
       gradientUnits="userSpaceOnUse"
       gradientTransform="matrix(-0.02303994,0,0,0.01470022,21.62311,37.040176)" />
    <linearGradient
       id="linearGradient5048">
      <stop
         id="stop5050"
         style="stop-color:#000000;stop-opacity:0"
         offset="0" />
      <stop
         id="stop5056"
         style="stop-color:#000000;stop-opacity:1"
         offset="0.5" />
      <stop
         id="stop5052"
         style="stop-color:#000000;stop-opacity:0"
         offset="1" />
    </linearGradient>
    <linearGradient
       x1="302.85715"
       y1="366.64789"
       x2="302.85715"
       y2="609.50507"
       id="linearGradient4245"
       xlink:href="#linearGradient5048"
       gradientUnits="userSpaceOnUse"
       gradientTransform="matrix(0.06732488,0,0,0.01470022,-0.3411391,37.040146)" />
    <linearGradient
       inkscape:collect="always"
       xlink:href="#linearGradient5048"
       id="linearGradient3812"
       gradientUnits="userSpaceOnUse"
       gradientTransform="matrix(0.06732488,0,0,0.01470022,-0.3411391,37.040146)"
       x1="302.85715"
       y1="366.64789"
       x2="302.85715"
       y2="609.50507" />
    <radialGradient
       inkscape:collect="always"
       xlink:href="#linearGradient5060"
       id="radialGradient3814"
       gradientUnits="userSpaceOnUse"
       gradientTransform="matrix(-0.02303994,0,0,0.01470022,21.62311,37.040176)"
       cx="605.71429"
       cy="486.64789"
       fx="605.71429"
       fy="486.64789"
       r="117.14286" />
    <radialGradient
       inkscape:collect="always"
       xlink:href="#linearGradient5060"
       id="radialGradient3816"
       gradientUnits="userSpaceOnUse"
       gradientTransform="matrix(0.02303995,0,0,0.01470022,26.360882,37.040176)"
       cx="605.71429"
       cy="486.64789"
       fx="605.71429"
       fy="486.64789"
       r="117.14286" />
    <radialGradient
       inkscape:collect="always"
       xlink:href="#linearGradient2867-449-88-871-390-598-476-591-434-148-57-177-7"
       id="radialGradient3818"
       gradientUnits="userSpaceOnUse"
       gradientTransform="matrix(-1.8296896e-8,2.5204536,-2.2447219,-1.6295259e-8,43.307494,-27.461211)"
       cx="15.951264"
       cy="8.6004324"
       fx="15.951264"
       fy="8.6004324"
       r="18.000002" />
    <linearGradient
       inkscape:collect="always"
       xlink:href="#linearGradient3707-319-631-407-324-9"
       id="linearGradient3820"
       gradientUnits="userSpaceOnUse"
       gradientTransform="matrix(0.8074968,0,0,0.8948322,59.410231,-2.9833171)"
       x1="-51.786404"
       y1="53.623615"
       x2="-51.786404"
       y2="2.9062471" />
    <linearGradient
       inkscape:collect="always"
       xlink:href="#linearGradient3977"
       id="linearGradient3822"
       gradientUnits="userSpaceOnUse"
       gradientTransform="matrix(0.89189189,0,0,1.1351351,2.5945999,-4.7432315)"
       x1="23.99999"
       y1="5.5641499"
       x2="23.99999"
       y2="43" />
    <radialGradient
       inkscape:collect="always"
       xlink:href="#linearGradient3827"
       id="radialGradient3824"
       gradientUnits="userSpaceOnUse"
       gradientTransform="matrix(1.1563548,1.7750479e-8,-2.3661307e-8,1.5414157,-2.9825321,-12.701774)"
       cx="21.171581"
       cy="25.536045"
       fx="21.171581"
       fy="25.536045"
       r="16" />
  </defs>
  <metadata
     id="metadata4252">
    <rdf:RDF>
      <cc:Work
         rdf:about="">
        <dc:format>image/svg+xml</dc:format>
        <dc:type
           rdf:resource="http://purl.org/dc/dcmitype/StillImage" />
        <dc:title />
      </cc:Work>
    </rdf:RDF>
  </metadata>
  <g
     id="g3796"
     transform="matrix(0.95833333,0,0,0.95833333,6.5000002,-1.1666664)">
    <g
       transform="matrix(2.5,0,0,2.5,0,8)"
       id="layer1">
      <rect
         style="opacity:0.3;fill:url(#linearGradient3812);fill-opacity:1;fill-rule:nonzero;stroke:none;stroke-width:1;marker:none;visibility:visible;display:inline;overflow:visible"
         id="rect2879"
         y="42.429947"
         x="7.7378473"
         height="3.5700529"
         width="32.508301" />
      <path
         inkscape:connector-curvature="0"
         style="opacity:0.3;fill:url(#radialGradient3814);fill-opacity:1;fill-rule:nonzero;stroke:none;stroke-width:1;marker:none;visibility:visible;display:inline;overflow:visible"
         id="path2881"
         d="m 7.7378475,42.430102 c 0,0 0,3.569856 0,3.569856 -1.1865002,0.0067 -2.8683795,-0.799823 -2.8683795,-1.785158 0,-0.985333 1.3240446,-1.784697 2.8683795,-1.784698 z" />
      <path
         inkscape:connector-curvature="0"
         style="opacity:0.3;fill:url(#radialGradient3816);fill-opacity:1;fill-rule:nonzero;stroke:none;stroke-width:1;marker:none;visibility:visible;display:inline;overflow:visible"
         id="path2883"
         d="m 40.246148,42.430102 c 0,0 0,3.569856 0,3.569856 1.1865,0.0067 2.86838,-0.799823 2.86838,-1.785158 0,-0.985333 -1.324045,-1.784697 -2.86838,-1.784698 z" />
      <path
         inkscape:connector-curvature="0"
         style="color:#000000;fill:url(#radialGradient3818);fill-opacity:1;fill-rule:nonzero;stroke:url(#linearGradient3820);stroke-width:0.99992186;stroke-linecap:butt;stroke-linejoin:round;stroke-miterlimit:4;stroke-opacity:1;stroke-dasharray:none;stroke-dashoffset:0;marker:none;visibility:visible;display:inline;overflow:visible;enable-background:accumulate"
         id="path4160"
         d="m 6.4999609,0.49996093 c 8.0202951,0 35.0000391,0.002801 35.0000391,0.002801 l 4.2e-5,43.99727707 c 0,0 -23.333387,0 -35.0000811,0 0,-14.666693 0,-29.333386 0,-44.00007779 z" />
      <path
         inkscape:connector-curvature="0"
         style="opacity:0.5;fill:none;stroke:url(#linearGradient3822);stroke-width:1;stroke-linecap:round;stroke-linejoin:round;stroke-miterlimit:4;stroke-opacity:1;stroke-dasharray:none;stroke-dashoffset:0"
         id="rect6741-1"
         d="m 40.5,43.5 -33,0 0,-41.9999999 33,0 z" />
      <path
         inkscape:connector-curvature="0"
         style="opacity:0.2;fill:none;stroke:url(#radialGradient3824);stroke-width:0.96299994;stroke-linecap:square;stroke-linejoin:round;stroke-miterlimit:4;stroke-opacity:1;stroke-dasharray:none"
         id="path3318"
         d="m 33.518499,6.5157354 -25.0369991,-0.037 m 3.0369991,-3.9999994 -0.037,41.036998 m 25,2e-6 0.037,-36.6049992 m -20,-4.4320008 -0.037,41.036998 m 5.037,-41.036998 -0.037,41.036998 m 5.037,-41.036998 -0.037,41.036998 m 5.037,-41.036998 -0.037,41.036998 M 39.5185,11.515736 8.4815009,11.478736 m 31.0369991,5.037 -31.0369991,-0.037 m 31.0369991,5.037 -31.0369991,-0.037 m 31.0369991,5.037 -31.0369991,-0.037 m 31.0369991,5.037 -31.0369991,-0.037 m 31.0369991,5.037 -31.0369991,-0.037 m 31.0369991,5.037 -31.0369991,-0.037" />
      <path
         inkscape:connector-curvature="0"
         style="opacity:0.5;fill:none;stroke:#ffffff;stroke-width:0.96299988;stroke-linecap:square;stroke-linejoin:round;stroke-miterlimit:4;stroke-opacity:1;stroke-dasharray:none"
         id="path3962"
         d="m 20.481499,41.47874 17.037,0.037" />
      <path
         inkscape:connector-curvature="0"
         style="opacity:0.5;fill:none;stroke:#ffffff;stroke-width:0.96299988;stroke-linecap:square;stroke-linejoin:round;stroke-miterlimit:4;stroke-opacity:1;stroke-dasharray:none"
         id="path3960"
         d="m 36.481499,43.515736 0.037,-15.036999" />
      <path
         inkscape:connector-curvature="0"
         style="opacity:0.5;fill:none;stroke:#ffffff;stroke-width:0.96299994;stroke-linecap:square;stroke-linejoin:round;stroke-miterlimit:4;stroke-opacity:1;stroke-dasharray:none"
         id="path3554"
         d="m 23.518499,6.5157375 -13.037,-0.037 m 1.037,-1.9999994 -0.037,19.0369989" />
      <path
         inkscape:connector-curvature="0"
         style="font-size:18.4205246px;font-style:normal;font-weight:normal;opacity:0.7;fill:#ffffff;fill-opacity:1;stroke:none;font-family:Bitstream Vera Sans"
         id="text34519"
         d="m 15.418138,14.485451 c -0.984178,0.655811 -0.867847,2.37835 0.205592,2.888211 2.446567,0.889629 4.03338,-0.373088 4.611805,-2.716069 0.01594,-0.345284 0.145762,-0.852771 -0.366912,-0.694374 -1.53566,-0.0742 -2.998979,0.03158 -4.450485,0.522232 z m 6.581859,-1.16849 c 1e-6,1.811225 1e-6,3.622449 1e-6,5.433674 -0.583509,0 -1.167019,0 -1.750528,0 -0.03443,-0.401185 0.06962,-1.254643 -0.05338,-1.366595 -0.685348,0.999506 -1.880735,1.541418 -3.071008,1.593509 -3.191549,0.153979 -4.589253,-1.776793 -3.656989,-4.706193 1.789679,-1.856738 4.352084,-1.533176 6.735433,-1.533988 -0.102484,-3.0989619 -4.019309,-2.394731 -6.105457,-1.780758 -0.553096,0.370674 -0.235482,-0.534077 -0.317946,-0.852318 -0.191423,-0.6987355 0.743586,-0.5876149 1.18473,-0.7923275 1.606758,-0.3878427 3.363654,-0.5006933 4.927038,0.120823 1.637293,0.8020095 1.980037,2.2409525 2.108103,3.8841735 z" />
      <path
         inkscape:connector-curvature="0"
         style="opacity:0.7;fill:#ffffff;fill-opacity:1;stroke:none;display:inline"
         id="path3406"
         d="m 13,21.997237 2.345838,0 0,1 -2.345838,0 0,-1 z m 2.665379,0 2.213403,0 0,1 -2.213403,0 0,-1 z m 2.532944,0 1.948514,0 0,1 -1.948514,0 0,-1 z m 2.268056,0 0.855871,0 0,1 -0.855871,0 0,-1 z m 1.175422,0 1.915398,0 0,1 -1.915398,0 0,-1 z m 2.234949,0 4.961553,0 0,1 -4.961553,0 0,-1 z m 5.281094,0 3.769581,0 0,1 -3.769581,0 0,-1 z m 4.089133,0 1.153856,0 0,1 -1.153856,0 0,-1 z m -20.246977,6 3.691817,0 0,1 -3.691817,0 0,-1 z m 3.965761,0 1.776154,0 0,1 -1.776154,0 0,-1 z m 2.15092,0 0.835125,0 0,1 -0.835125,0 0,-1 z m 1.041852,0 1.608114,0 0,1 -1.608114,0 0,-1 z m 1.882048,0 1.608115,0 0,1 -1.608115,0 0,-1 z m 2.117317,0 2.582748,0 0,1 -2.582748,0 0,-1 z m 2.890296,0 3.389342,0 0,1 -3.389342,0 0,-1 z m 3.864929,0 2.280283,0 0,1 -2.280283,0 0,-1 z m 2.554218,0 0.532659,0 0,1 -0.532659,0 0,-1 z m -20.467341,-4 3.928045,0 0,1 -3.928045,0 0,-1 z m 4.235965,0 4.208949,0 0,1 -4.208949,0 0,-1 z m 4.516869,0 1.680758,0 0,1 -1.680758,0 0,-1 z m 1.988678,0 3.959254,0 0,1 -3.959254,0 0,-1 z m 7.285852,0 1.056505,0 0,1 -1.056505,0 0,-1 z m -3.018678,0 2.710758,0 0,1 -2.710758,0 0,-1 z m 4.383104,0 1,0 0,1 -1,0 0,-1 z m -19.39179,2 4.28514,0 0,1 -4.28514,0 0,-1 z m 4.621053,0 4.59158,0 0,1 -4.59158,0 0,-1 z m 4.927493,0 1.833555,0 0,1 -1.833555,0 0,-1 z m 2.169468,0 4.319185,0 0,1 -4.319185,0 0,-1 z m 7.948201,0 1.152552,0 0,1 -1.152552,0 0,-1 z m -3.293103,0 2.95719,0 0,1 -2.95719,0 0,-1 z M 13,33.997236 l 3.691817,0 0,1 -3.691817,0 0,-1 z m 3.965761,0 1.776154,0 0,1 -1.776154,0 0,-1 z m 2.15092,0 0.835125,0 0,1 -0.835125,0 0,-1 z m 1.041852,0 1.608114,0 0,1 -1.608114,0 0,-1 z m 1.882048,0 1.608115,0 0,1 -1.608115,0 0,-1 z m 2.117317,0 2.582748,0 0,1 -2.582748,0 0,-1 z m 2.890296,0 3.389342,0 0,1 -3.389342,0 0,-1 z m 3.864929,0 2.280283,0 0,1 -2.280283,0 0,-1 z m 2.554218,0 0.532659,0 0,1 -0.532659,0 0,-1 z m -20.467341,-2 3.061572,0 0,1 -3.061572,0 0,-1 z m 3.38681,0 5.083544,0 0,1 -5.083544,0 0,-1 z m 5.408782,0 2.454976,0 0,1 -2.454976,0 0,-1 z m 5.39193,0 1.949485,0 0,1 -1.949485,0 0,-1 z m 2.274723,0 3.128973,0 0,1 -3.128973,0 0,-1 z m -4.886439,0 2.286488,0 0,1 -2.286488,0 0,-1 z M 13,35.995516 l 3.868703,0 0,1 -3.868703,0 0,-1 z m 4.188155,0 1.218185,0 0,1 -1.218185,0 0,-1 0,0 z m 1.537637,0 2.781317,0 0,1 -2.781317,0 0,-1 z m 3.100769,0 1.89781,0 0,1 -1.89781,0 0,-1 z m 2.217262,0 1.8978,0 0,1 -1.8978,0 0,-1 z m 2.217263,0 2.747329,0 0,1 -2.747329,0 0,-1 z m 3.066771,0 0.572556,0 0,1 -0.572556,0 0,-1 z m 0.892008,0 3.562873,0 0,1 -3.562873,0 0,-1 z m -17.219865,2 3.796419,0 0,1 -3.796419,0 0,-1 z m 6.256706,0 2.438723,0 0,1 -2.438723,0 0,-1 z m 2.788936,0 2.235065,0 0,1 -2.235065,0 0,-1 z m 5.990819,0 1.963539,0 0,1 -1.963539,0 0,-1 0,0 z m -1.125747,0 0.775544,0 0,1 -0.775544,0 0,-1 z m -2.279794,0 1.929581,0 0,1 -1.929581,0 0,-1 z m -7.484298,0 1.759881,0 0,1 -1.759881,0 0,-1 0,0 z" />
      <path
         inkscape:connector-curvature="0"
         style="opacity:0.7;fill:none;stroke:#ffffff;stroke-width:0.96299988;stroke-linecap:square;stroke-linejoin:round;stroke-miterlimit:4;stroke-opacity:1;stroke-dasharray:none"
         id="path3342"
         d="m 33.499999,18.497236 10e-4,0 m -1.501,0 0.001,0 m -3.001,0 1.5,0 m -6,0 3,0 m 4,-2 2.000915,0 m -5.500915,0 1.9997,0 m -5.4997,0 2.000693,0 m 5.499307,-2 1,0 m -4,0 1.5,0 m -6,0 3,0 m 4,-2 0.001,0 m -3.501,0 1.9997,0 m -5.4997,0 2.000693,0 m 4.999307,-2 2.000915,0 m -5.500915,0 1.9997,0 m -5.4997,0 2.000693,0" />
    </g>
    <rect
       y="8"
       x="0"
       height="120"
       width="120"
       id="rect3026"
       style="opacity:0;fill:#0000ff;fill-opacity:0;fill-rule:evenodd;stroke:none" />
  </g>
</svg>
