<?xml version="1.0" encoding="UTF-8" standalone="no"?>
<!-- Created with Inkscape (http://www.inkscape.org/) -->

<svg
   xmlns:dc="http://purl.org/dc/elements/1.1/"
   xmlns:cc="http://creativecommons.org/ns#"
   xmlns:rdf="http://www.w3.org/1999/02/22-rdf-syntax-ns#"
   xmlns:svg="http://www.w3.org/2000/svg"
   xmlns="http://www.w3.org/2000/svg"
   xmlns:sodipodi="http://sodipodi.sourceforge.net/DTD/sodipodi-0.dtd"
   xmlns:inkscape="http://www.inkscape.org/namespaces/inkscape"
   version="1.1"
   width="16"
   height="16"
   id="svg7384"
   inkscape:version="0.48.2 r9819"
   sodipodi:docname="edit-clear-rtl-symbolic.svg">
  <sodipodi:namedview
     pagecolor="#ffffff"
     bordercolor="#666666"
     borderopacity="1"
     objecttolerance="10"
     gridtolerance="10"
     guidetolerance="10"
     inkscape:pageopacity="0"
     inkscape:pageshadow="2"
     inkscape:window-width="1129"
     inkscape:window-height="664"
     id="namedview7"
     showgrid="false"
     inkscape:zoom="28.232422"
     inkscape:cx="8"
     inkscape:cy="8"
     inkscape:window-x="0"
     inkscape:window-y="24"
     inkscape:window-maximized="0"
     inkscape:current-layer="svg7384" />
  <title
     id="title9167">Gnome Symbolic Icon Theme</title>
  <defs
     id="defs11" />
  <metadata
     id="metadata90">
    <rdf:RDF>
      <cc:Work
         rdf:about="">
        <dc:format>image/svg+xml</dc:format>
        <dc:type
           rdf:resource="http://purl.org/dc/dcmitype/StillImage" />
        <dc:title>Gnome Symbolic Icon Theme</dc:title>
      </cc:Work>
    </rdf:RDF>
  </metadata>
  <path
     style="color:#bebebe;fill:#bebebe;fill-opacity:1;fill-rule:nonzero;stroke:none;stroke-width:1;marker:none;visibility:visible;display:inline;overflow:visible;enable-background:accumulate"
     d="m 9.4226354,2.999999 a 0.51931882,0.52641945 0 0 1 0.25,0.15625 l 5.1874996,5.3125 a 0.51931882,0.52641945 0 0 1 -0.03125,0.75 L 9.7976354,13.84375 A 0.51931882,0.52641945 0 0 1 9.4538854,14 l -7.90625,0 a 0.51931882,0.52641945 0 0 1 -0.53125,-0.53125 l 0,-9.937501 a 0.51931882,0.52641945 0 0 1 0.53125,-0.53125 l 7.75,0 a 0.51931882,0.52641945 0 0 1 0.0625,0 0.51931882,0.52641945 0 0 1 0.0625,0 z m -1.34375,2.25 -1.8125,1.75 -1.78125,-1.75 -1.46875,1.46875 1.75,1.78125 -1.75,1.84375 1.46875,1.406251 1.78125,-1.750001 1.8125,1.750001 1.4375,-1.437501 -1.75,-1.8125 1.75,-1.78125 -1.4375,-1.46875 z"
     id="path4463"
     inkscape:connector-curvature="0" />
</svg>
