<?xml version="1.0" encoding="UTF-8" standalone="no"?>
<!-- Created with Inkscape (http://www.inkscape.org/) -->

<svg
   xmlns:dc="http://purl.org/dc/elements/1.1/"
   xmlns:cc="http://creativecommons.org/ns#"
   xmlns:rdf="http://www.w3.org/1999/02/22-rdf-syntax-ns#"
   xmlns:svg="http://www.w3.org/2000/svg"
   xmlns="http://www.w3.org/2000/svg"
   xmlns:sodipodi="http://sodipodi.sourceforge.net/DTD/sodipodi-0.dtd"
   xmlns:inkscape="http://www.inkscape.org/namespaces/inkscape"
   version="1.1"
   width="16"
   height="16"
   id="svg7384"
   inkscape:version="0.48.2 r9819"
   sodipodi:docname="view-list-images-symbolic.svg">
  <sodipodi:namedview
     pagecolor="#ffffff"
     bordercolor="#666666"
     borderopacity="1"
     objecttolerance="10"
     gridtolerance="10"
     guidetolerance="10"
     inkscape:pageopacity="0"
     inkscape:pageshadow="2"
     inkscape:window-width="1129"
     inkscape:window-height="664"
     id="namedview7"
     showgrid="false"
     inkscape:zoom="14.75"
     inkscape:cx="10.576271"
     inkscape:cy="8"
     inkscape:window-x="0"
     inkscape:window-y="24"
     inkscape:window-maximized="0"
     inkscape:current-layer="svg7384" />
  <title
     id="title9167">Gnome Symbolic Icon Theme</title>
  <defs
     id="defs11" />
  <metadata
     id="metadata90">
    <rdf:RDF>
      <cc:Work
         rdf:about="">
        <dc:format>image/svg+xml</dc:format>
        <dc:type
           rdf:resource="http://purl.org/dc/dcmitype/StillImage" />
        <dc:title>Gnome Symbolic Icon Theme</dc:title>
      </cc:Work>
    </rdf:RDF>
  </metadata>
  <path
     inkscape:connector-curvature="0"
     id="path9231-9"
     d="m 6.9999998,1.9999999 c -1.1079996,0 -1.9999996,0.892 -1.9999996,2 l -3,0 C 0.89200019,3.9999999 1.95e-7,4.8920002 1.95e-7,6.0000002 L 1.95e-7,12 c 0,1.108 0.891999995,2 2.000000005,2 L 14,14 c 1.108,0 2,-0.892 2,-2 l 0,-5.9999998 c 0,-1.108 -0.892,-2.0000003 -2,-2.0000003 l -3,0 c 0,-1.108 -0.892,-2 -2.0000002,-2 l -2,0 z m 1,4.0000003 c 1.65685,0 3.0000002,1.34315 3.0000002,3 C 11,10.65685 9.6568498,12 7.9999998,12 6.3431498,12 5.0000002,10.65685 5.0000002,9.0000002 c 0,-1.65685 1.3431496,-3 2.9999996,-3 z m 0,2 c -0.55228,0 -1,0.44772 -1,1 0,0.55229 0.44772,0.9999998 1,0.9999998 0.55228,0 1,-0.4477098 1,-0.9999998 0,-0.55228 -0.44772,-1 -1,-1 z"
     style="fill:#bebebe;fill-opacity:1;fill-rule:nonzero;stroke:none;color:#bebebe;stroke-width:1;marker:none;visibility:visible;display:inline;overflow:visible;enable-background:accumulate" />
</svg>
