<?xml version="1.0" encoding="UTF-8" standalone="no"?>
<!-- Generator: Adobe Illustrator 13.0.0, SVG Export Plug-In . SVG Version: 6.00 Build 14576)  -->
<svg id="svg2" xmlns:rdf="http://www.w3.org/1999/02/22-rdf-syntax-ns#" xmlns="http://www.w3.org/2000/svg" enable-background="new 0 0 48 48" xml:space="preserve" height="48px" width="48px" version="1.1" y="0px" x="0px" xmlns:cc="http://creativecommons.org/ns#" xmlns:xlink="http://www.w3.org/1999/xlink" viewBox="0 0 48 48" xmlns:dc="http://purl.org/dc/elements/1.1/"><metadata id="metadata327"><rdf:RDF><cc:Work rdf:about=""><dc:format>image/svg+xml</dc:format><dc:type rdf:resource="http://purl.org/dc/dcmitype/StillImage"/></cc:Work></rdf:RDF></metadata><defs id="defs325">
<linearGradient id="linearGradient2743" y2="12.084" gradientUnits="userSpaceOnUse" x2="24.002" y1="35.918" x1="24.002"><stop id="stop265" stop-color="#1F1F1F" offset="0"/><stop id="stop267" stop-color="#000" offset="1"/></linearGradient>
<linearGradient id="linearGradient2752" y2="16.859" gradientUnits="userSpaceOnUse" x2="9.001" y1=".8604" x1="9.001"><stop id="stop312" stop-color="#FF6363" offset="0"/><stop id="stop314" stop-color="#c00" offset="1"/></linearGradient>
	<linearGradient id="linearGradient2788" y2="30.661" gradientUnits="userSpaceOnUse" x2="31.916" y1="33.673" x1="31.916"><stop id="stop303" stop-color="#fff" offset=".4725"/><stop id="stop305" stop-color="#737373" offset="1"/></linearGradient><linearGradient id="linearGradient2791" y2="30.769" gradientUnits="userSpaceOnUse" x2="16.032" y1="33.567" x1="16.032"><stop id="stop297" stop-color="#fff" offset=".4725"/><stop id="stop299" stop-color="#737373" offset="1"/></linearGradient><linearGradient id="linearGradient2794" y2="30.769" gradientUnits="userSpaceOnUse" x2="19.208" y1="33.567" x1="19.208"><stop id="stop291" stop-color="#fff" offset=".4725"/><stop id="stop293" stop-color="#737373" offset="1"/></linearGradient><linearGradient id="linearGradient2797" y2="30.661" gradientUnits="userSpaceOnUse" x2="25.56" y1="33.673" x1="25.56"><stop id="stop285" stop-color="#fff" offset=".4725"/><stop id="stop287" stop-color="#737373" offset="1"/></linearGradient><linearGradient id="linearGradient2800" y2="30.661" gradientUnits="userSpaceOnUse" x2="28.738" y1="33.673" x1="28.738"><stop id="stop279" stop-color="#fff" offset=".4725"/><stop id="stop281" stop-color="#737373" offset="1"/></linearGradient><linearGradient id="linearGradient2803" y2="30.769" gradientUnits="userSpaceOnUse" x2="22.385" y1="33.567" x1="22.385"><stop id="stop273" stop-color="#fff" offset=".4725"/><stop id="stop275" stop-color="#737373" offset="1"/></linearGradient>
	<linearGradient id="linearGradient2813" y2="-.53960" gradientUnits="userSpaceOnUse" x2="6.1729" y1="48.541" x1="41.832"><stop id="stop248" stop-color="#9B9B9B" offset="0"/><stop id="stop250" stop-color="#ECECEC" offset="1"/></linearGradient>
	</defs>
<g id="g240" opacity=".3">
			<path id="path242" d="m45.003 0h-42c-1.655 0-3 1.345-3 3v42c0 1.655 1.345 3 3 3h42c1.652 0 2.997-1.345 2.997-3v-42c0-1.654-1.345-3-2.997-3zm0.999 45.001c0 0.553-0.447 1-1 1h-42c-0.552 0-1-0.447-1-1v-42.001c0-0.552 0.448-1 1-1h42c0.553 0 1 0.448 1 1v42.001z"/>
		</g>
<path id="path252" opacity=".3" fill="url(#linearGradient2813)" d="m46.002 45.001c0 0.553-0.447 1-1 1h-42c-0.552 0-1-0.447-1-1v-42.001c0-0.552 0.448-1 1-1h42c0.553 0 1 0.448 1 1v42.001z"/>
<g id="g257" opacity=".4">
			<path id="path259" fill="#fff" d="m45.002 2h-42c-0.552 0-1 0.448-1 1v42.001c0 0.553 0.448 1 1 1h42c0.553 0 1-0.447 1-1v-42.001c0-0.552-0.447-1-1-1zm0 43.002h-42l0.001-42.002h41.999v42.002z"/>
		</g>
<path id="path3499_3_" opacity=".4" d="m21.03 13.083v1.986h-5.958v3.973h-3.974v17.876h27.808v-17.876h-3.971v-3.973h-5.961v-1.986h-7.944z" nodetypes="ccccccccccccc" fill="#fff"/>
<path id="path3499_2_" fill="url(#linearGradient2743)" d="m20.03 12.083v1.986h-5.958v3.973h-3.974v17.876h27.808v-17.876h-3.971v-3.973h-5.961v-1.986h-7.944z" nodetypes="ccccccccccccc"/><rect id="rect3503_4_" height="2.799" width="1.541" y="30.769" x="21.615" fill="url(#linearGradient2803)"/><rect id="rect3505_2_" height="3.012" width="1.657" y="30.661" x="27.91" fill="url(#linearGradient2800)"/><rect id="rect3507_2_" height="3.012" width="1.655" y="30.661" x="24.733" fill="url(#linearGradient2797)"/><rect id="rect3509_2_" height="2.799" width="1.54" y="30.769" x="18.438" fill="url(#linearGradient2794)"/><rect id="rect3503_1_" height="2.799" width="1.541" y="30.769" x="15.261" fill="url(#linearGradient2791)"/><rect id="rect3512_2_" height="3.012" width="1.654" y="30.661" x="31.089" fill="url(#linearGradient2788)"/>
<path id="path309" d="m13.932 18.002c-0.372 0-0.722-0.144-0.979-0.405l-3.244-3.242c-0.195-0.195-0.45-0.292-0.707-0.292-0.255 0-0.512 0.097-0.707 0.292l-3.242 3.24c-0.253 0.255-0.621 0.407-0.985 0.407s-0.711-0.142-0.978-0.399l-2.681-2.685c-0.259-0.252-0.409-0.616-0.409-0.986 0-0.36 0.154-0.726 0.409-0.98l3.24-3.242c0.391-0.39 0.391-1.023 0-1.414l-3.238-3.24c-0.536-0.541-0.54-1.426-0.006-1.968l2.678-2.674c0.266-0.268 0.615-0.414 0.985-0.414 0.376 0 0.726 0.148 0.989 0.416l3.238 3.235c0.195 0.195 0.452 0.294 0.707 0.294 0.257 0 0.512-0.099 0.707-0.294l3.24-3.237c0.252-0.261 0.614-0.411 0.982-0.411 0.366 0 0.726 0.15 0.987 0.411l2.672 2.672c0.261 0.252 0.411 0.617 0.411 0.984 0 0.362-0.154 0.728-0.409 0.983l-3.24 3.242c-0.391 0.391-0.391 1.024 0 1.414l3.238 3.24c0.265 0.263 0.411 0.612 0.411 0.982 0 0.378-0.142 0.719-0.409 0.985l-2.672 2.676c-0.267 0.268-0.608 0.41-0.988 0.41z"/><path id="path316" fill="url(#linearGradient2752)" d="m12.233 8.86l4.652-4.653c0.073-0.073 0.115-0.175 0.115-0.278s-0.042-0.205-0.115-0.279l-2.675-2.674c-0.073-0.074-0.175-0.115-0.278-0.115-0.104 0-0.206 0.041-0.278 0.115l-4.653 4.652-4.653-4.652c-0.153-0.154-0.402-0.154-0.557 0l-2.674 2.673c-0.154 0.154-0.154 0.404 0 0.558l4.653 4.653-4.653 4.652c-0.073 0.073-0.115 0.175-0.115 0.278s0.042 0.205 0.115 0.278l2.675 2.675c0.073 0.073 0.175 0.115 0.278 0.115 0.104 0 0.206-0.042 0.278-0.115l4.653-4.652 4.653 4.652c0.074 0.074 0.173 0.115 0.278 0.115s0.204-0.041 0.278-0.115l2.675-2.675c0.074-0.074 0.115-0.173 0.115-0.278s-0.041-0.204-0.115-0.278l-4.652-4.652z"/><g id="g320" opacity=".4">
			<path id="path322" fill="#fff" d="m6.457 9.235l-4.652-4.653c-0.154-0.153-0.154-0.403 0-0.558l2.674-2.674c0.044-0.044 0.098-0.072 0.153-0.091l-0.284-0.283c-0.153-0.154-0.402-0.154-0.557 0l-2.674 2.674c-0.154 0.154-0.154 0.404 0 0.557l4.653 4.653-4.653 4.653c-0.073 0.073-0.115 0.175-0.115 0.278s0.042 0.205 0.115 0.278l2.675 2.675c0.073 0.073 0.175 0.115 0.278 0.115 0.043 0 0.084-0.011 0.125-0.025l-2.39-2.39c-0.073-0.073-0.115-0.175-0.115-0.278s0.042-0.205 0.115-0.278l4.652-4.653zm7.754-8.259c-0.073-0.074-0.175-0.115-0.278-0.115-0.104 0-0.206 0.042-0.278 0.115l-4.498 4.496 0.531 0.531 4.653-4.652c0.042-0.043 0.096-0.071 0.153-0.091l-0.283-0.284zm-4.679 11.647l4.122 4.121c0.074 0.074 0.173 0.115 0.278 0.115 0.043 0 0.085-0.011 0.125-0.024l-4.369-4.368-0.156 0.156z"/>
		</g>
</svg>
