<?xml version="1.0" encoding="UTF-8" standalone="no"?>
<!-- Created with Inkscape (http://www.inkscape.org/) -->
<svg id="svg3756" xmlns:rdf="http://www.w3.org/1999/02/22-rdf-syntax-ns#" xmlns="http://www.w3.org/2000/svg" height="48" width="48" version="1.0" xmlns:cc="http://creativecommons.org/ns#" xmlns:xlink="http://www.w3.org/1999/xlink" xmlns:dc="http://purl.org/dc/elements/1.1/">
 <metadata id="metadata14">
  <rdf:RDF>
   <cc:Work rdf:about="">
    <dc:format>image/svg+xml</dc:format>
    <dc:type rdf:resource="http://purl.org/dc/dcmitype/StillImage"/>
    <dc:title/>
   </cc:Work>
  </rdf:RDF>
 </metadata>
 <defs id="defs3758">
  <linearGradient id="linearGradient3752" y2="10.428" gradientUnits="userSpaceOnUse" x2="45.572" gradientTransform="matrix(-.00026857 -1.049 1.049 -.00026857 -.019470 56.026)" y1="33.335" x1="15.132">
   <stop id="stop252" stop-color="#9b9b9b" offset="0"/>
   <stop id="stop254" stop-color="#ececec" offset="1"/>
  </linearGradient>
  <linearGradient id="linearGradient2642-0" y2="17.857" gradientUnits="userSpaceOnUse" x2="9.999" y1="1.8574" x1="9.999">
   <stop id="stop802-0" stop-color="#ff6363" offset="0"/>
   <stop id="stop804-0" stop-color="#c00" offset="1"/>
  </linearGradient>
 </defs>
 <g id="layer1">
  <path id="path2685" opacity=".3" d="m24.031 6.0312c-8.198-0.0183-13.54 2.5913-19.312 6.4688l-0.9378 0.906c-0.5286 0.47-0.8421 1.128-0.8437 1.844-0.0015 0.664 0.3134 1.278 0.7813 1.75l0.7812 1 1.0312 1.344 0.7813 1.062c0.3998 0.403 0.7204 0.552 1.25 0.625-0.0217 0.501-0.1242 0.808 0.3125 1.407l1.1875 1.531 0.8437 1.156 0.8128 1.063c0.41 0.411 0.715 0.459 1.25 0.531-0.14 0.498-0.165 1.009 0.25 1.437l1.093 1.406 0.782 1 0.875 1.188c0.43 0.433 0.502 0.661 1.187 0.562-0.302 0.632-0.071 0.871 0.156 1.188l1.469 1.938 4.375 5.75c0.514 0.369 1.286 0.862 2.032 0.75 0.795-0.119 1.457-0.606 1.906-1.188l5.781-7.469c0.339-0.356 0.286-0.76 0.187-1.187 0.585-0.041 0.615-0.022 1.063-0.469l0.719-0.937 0.406-0.5 0.375-0.5 1.375-1.75c0.397-0.406 0.292-0.842 0.188-1.313 0.399 0.039 0.805-0.119 1.218-0.531l1.188-1.532 0.875-1.124 0.937-1.219c0.402-0.401 0.307-0.891 0.188-1.281 0.532-0.071 0.788-0.095 1.187-0.5l0.781-1.032 0.938-1.187 0.844-1.094c0.477-0.474 0.717-1.108 0.718-1.781v-0.032c-0.011-0.688-0.275-1.372-0.75-1.812l-1-0.938c-5.77-3.9249-11.058-6.5124-19.281-6.5308zm-0.031 2.2188h0.031c7.429 0.0166 12.802 2.532 17.813 5.938l1 0.843c0.081 0.078 0.123 0.167 0.125 0.281 0 0.113-0.077 0.296-0.157 0.376l-0.718 1.062-0.938 1.219-0.781 1c-0.162 0.161-0.333 0.22-0.5 0.062l-1.031-0.843c-4.829-3.285-8.65-4.986-14.782-5-6.161-0.012-11.179 2.118-14.781 4.906l-1.031 0.812c-0.1671 0.155-0.3388 0.193-0.5 0.032l-0.7812-1c-0.4323-0.434-0.6314-0.942-1.0626-1.376l-0.75-1c-0.0816-0.079-0.1263-0.198-0.125-0.312 0.0014-0.114 0.042-0.204 0.125-0.281l1-0.875c6.0808-3.782 10.417-5.8606 17.844-5.844zm0.031 7.281c5.578 0.013 9.034 1.71 13.188 4.407l1.156 0.968c0.088 0.073 0.123 0.167 0.125 0.282 0 0.112-0.076 0.326-0.156 0.406l-0.688 0.906c-0.407 0.405-0.435 0.72-0.844 1.125l-0.781 1c-0.162 0.161-0.24 0.249-0.406 0.094l-0.937-0.719c-3.617-2.479-6.333-3.644-10.657-3.656-4.331-0.008-7.942 1.424-10.406 3.468l-1 0.782c-0.168 0.155-0.369 0.225-0.531 0.062l-0.75-0.968c-0.405-0.407-0.5-0.781-0.906-1.188l-0.8442-1.094c-0.0817-0.08-0.1264-0.323-0.125-0.437 0.0024-0.115 0.2284-0.267 0.3124-0.344l1.1248-0.875c3.795-2.52 7.549-4.231 13.125-4.219zm-0.062 7.219h0.031c3.769 0 6.589 1.287 9.031 3l0.969 0.781c0.085 0.077 0.123 0.105 0.125 0.219 0 0.112 0.047 0.295-0.031 0.375l-0.813 1.031-0.781 1.032-0.719 0.937c-0.16 0.159-0.427 0.185-0.593 0.031l-0.188-0.187c-2.176-1.731-4.415-2.679-7-2.688-2.586-0.001-3.999 0.636-6.094 1.844l-0.875 0.687c-0.168 0.153-0.652 0.443-0.812 0.282l-0.719-0.938c-0.361-0.362-0.39-0.667-0.75-1.031l-0.781-1.031c-0.082-0.082-0.221-0.136-0.219-0.25 0.002-0.115-0.054-0.173 0.031-0.25l0.969-0.75c2.697-1.893 5.452-3.102 9.219-3.094zm0 6.781c0.261-0.003 0.52 0.013 0.781 0.031 1.202 0.18 2.311 0.51 3.312 1.032 0.501 0.261 1.001 0.563 1.438 0.937 0.318 0.3 0.402 0.425 0.656 0.719 0 0.153 0.109 0.408 0 0.5-2.025 2.323-3.771 4.811-5.812 7.125-0.092 0.109-0.222 0.156-0.375 0.156s-0.286-0.045-0.375-0.156l-5.656-7.063c-0.109-0.091-0.188-0.159-0.188-0.312 0-0.112-0.002-0.2 0.062-0.281 0.257-0.327 0.426-0.493 0.657-0.688 0.439-0.372 0.906-0.676 1.406-0.937 1.001-0.523 2.108-0.867 3.313-1.032 0.259-0.035 0.519-0.034 0.781-0.031z"/>
  <path id="path2847" opacity=".3" fill="url(#linearGradient3752)" d="m23.938 8.2205c-3.714 0.001-7.426 0.7037-10.947 2.1065-1.761 0.701-3.4738 1.577-5.1152 2.628-1.0396 0.766-1.6595 1.069-2.3824 1.613-0.2248 0.184-0.4505 0.322-0.5212 0.587-0.076614 0.28666-0.17218 0.29573 0.0171 0.51883l0.816 1.083 0.8217 1.222 0.763 1.014c0.33147 0.29742 0.76491 0.0087 0.9306-0.14653 0.71764-0.50083 1.4689-1.0854 2.3346-1.6415 1.372-0.87982 2.7988-1.6121 4.2626-2.1975 2.9277-1.1708 6.0032-1.754 9.0835-1.7553 3.0656 0.000145 6.13 0.58561 9.0484 1.7566 1.4592 0.58548 2.8819 1.3174 4.25 2.1957l2.564 1.8076c0.16787 0.1573 0.42046 0.14463 0.58196-0.01695l0.77094-1.0313 0.91691-1.2266 0.81212-1.0864c0.07969-0.07974 0.04508-0.26011 0.04507-0.37235-0.0022-0.11434-0.12348-0.26386-0.20532-0.34146-1.2504-1.0593-1.8134-1.4094-2.7272-1.9913-1.6448-1.0503-3.3615-1.9256-5.1259-2.6257-1.764-0.7005-3.576-1.2255-5.411-1.5754-1.836-0.3498-3.694-0.5245-5.552-0.524l-0.03123-6e-7 -0.000062-0.0000403z"/>
  <path id="path2934" opacity=".3" fill="url(#linearGradient3752)" d="m23.941 22.721c-1.8834 0.000449-3.7584 0.3604-5.5453 1.0718-0.89343 0.35571-1.7648 0.7993-2.6042 1.3298-0.67326 0.44571-1.2104 0.82649-1.8956 1.355-0.08494 0.07765-0.27558 0.23952-0.27869 0.35386-0.002 0.11434-0.12735 0.28408-0.04554 0.36588l0.96696 1.1513 0.7634 1.0132 0.71076 0.94334c0.16054 0.15939 0.50498 0.05723 0.67277-0.09591 0.46227-0.42042 0.96937-0.83447 1.5995-1.1927 0.60081-0.37699 1.2177-0.68797 1.8451-0.93515 1.2547-0.49438 2.5509-0.73542 3.8433-0.73551 1.2923-0.000036 2.589 0.2406 3.844 0.73433 0.62752 0.24687 1.2446 0.55746 1.8456 0.93401l1.7558 1.3424c0.16577 0.15311 0.3948 0.13124 0.55525-0.02929l0.70734-0.94616 0.75972-1.0163 0.77468-1.0363c0.0776-0.07974 0.09754-0.22064 0.09752-0.33288-0.0022-0.11434-0.04113-0.23487-0.12508-0.31247-0.74099-0.63506-1.4534-1.2092-2.0417-1.568-0.84265-0.53039-1.7176-0.9733-2.6145-1.3281-1.7937-0.7096-3.6749-1.0667-5.5599-1.0662l-0.03127 0.00006 0.000005-0.000024 0.00004 0.000051 0.000013-0.000007-0.000003-0.000036z"/>
  <path id="path2889" opacity=".3" fill="url(#linearGradient3752)" d="m23.974 29.533c-0.26155-0.0033-0.52216-0.0038-0.78123 0.03143-1.204 0.16405-2.3208 0.4951-3.3216 1.0176-0.50042 0.26127-0.96912 0.57707-1.4083 0.94926-0.23028 0.19515-0.39385 0.35117-0.6506 0.67744-0.06415 0.08148-0.06465 0.17225-0.06461 0.28387 0.00007 0.15314 0.0815 0.2336 0.19007 0.32532l5.6639 7.0589c0.08893 0.11088 0.22186 0.15624 0.37504 0.15616 0.15314-0.000071 0.28325-0.04777 0.37496-0.15635 2.0408-2.3137 3.7831-4.8052 5.8084-7.1279 0.10852-0.09178-0.0014-0.34069-0.0016-0.49384-0.25428-0.29383-0.35409-0.42596-0.67247-0.7262-0.43732-0.37432-0.90802-0.68777-1.4086-0.94875-1.0011-0.52202-2.1199-0.83607-3.3222-1.0159-0.26091-0.01876-0.51971-0.03444-0.78126-0.03104l0.00001 0.000006 0.000036 0.000004z"/>
  <path id="path256" opacity=".3" fill="url(#linearGradient3752)" d="m23.971 15.502c-2.7881 0.000675-5.575 0.53842-8.2243 1.6006-1.3247 0.53107-2.6149 1.1932-3.8538 1.985-0.82282 0.57918-1.4491 0.87064-2.1773 1.5267-0.083889 0.07765-0.2341 0.31768-0.2362 0.43199-0.00102 0.11434-0.00483 0.3439 0.077004 0.4236l0.69408 1.1862 0.75392 1.133 0.763 1.0132c0.26352 0.29741 0.61407 0.06564 0.78186-0.08961 1.0477-0.88495 1.3687-1.0627 1.9931-1.492 0.97817-0.62539 1.9911-1.1461 3.0272-1.5625 2.0722-0.83279 4.2372-1.2484 6.4028-1.25 2.1624 0.00047 4.3284 0.41524 6.4022 1.2471 1.0369 0.41593 2.0508 0.93614 3.0296 1.561l2.1984 1.5335c0.16576 0.15522 0.3867 0.15233 0.54925-0.01034l0.75969-1.0162 0.74996-1.1365 0.746-1.0714c0.06442-0.09252 0.10006-0.14802 0.1-0.26029-0.0022-0.11434 0.08394-0.25752-0.000004-0.33511-0.99434-0.82351-1.5312-1.124-2.4562-1.8386-1.2392-0.79109-2.5297-1.4526-3.8546-1.983-2.6497-1.0608-5.4369-1.5971-8.2255-1.5963l-0.000002-0.000041-0.000021-0.000022z"/>
 </g>
 <g id="Layer_5" transform="translate(28,23.002)">
  <g id="g797">
   <path id="path799" opacity=".3" d="m14.931 19.998c-0.642 0-1.242-0.247-1.691-0.699l-3.24-3.239-3.241 3.241c-0.443 0.443-1.061 0.697-1.691 0.697-0.628 0-1.222-0.241-1.674-0.679l-2.694-2.696c-0.438-0.425-0.7-1.05-0.7-1.692 0-0.629 0.256-1.246 0.701-1.691l3.239-3.24-3.239-3.239c-0.927-0.937-0.927-2.447-0.011-3.375l2.685-2.682c0.452-0.454 1.053-0.704 1.692-0.704 0.646 0 1.25 0.253 1.701 0.712l3.232 3.23 3.239-3.239c0.425-0.439 1.05-0.702 1.691-0.702 0.63 0 1.246 0.256 1.692 0.702l2.674 2.674c0.439 0.425 0.701 1.05 0.701 1.692 0 0.629-0.256 1.246-0.701 1.691l-3.238 3.24 3.239 3.239c0.454 0.452 0.701 1.053 0.701 1.691 0 0.64-0.247 1.24-0.701 1.692l-2.672 2.676c-0.452 0.453-1.053 0.7-1.694 0.7z"/>
   <path id="path806" fill="url(#linearGradient2642-0)" d="m13.231 9.858 4.652-4.653c0.073-0.073 0.115-0.175 0.115-0.278s-0.042-0.205-0.115-0.279l-2.675-2.674c-0.073-0.074-0.175-0.115-0.278-0.115-0.104 0-0.206 0.041-0.278 0.115l-4.653 4.652-4.653-4.652c-0.153-0.154-0.402-0.154-0.557 0l-2.674 2.673c-0.154 0.154-0.154 0.404 0 0.558l4.652 4.653-4.653 4.652c-0.073 0.073-0.115 0.175-0.115 0.278s0.042 0.205 0.115 0.278l2.675 2.675c0.073 0.073 0.175 0.115 0.278 0.115 0.104 0 0.206-0.042 0.278-0.115l4.653-4.652 4.653 4.652c0.074 0.074 0.173 0.115 0.278 0.115s0.204-0.041 0.278-0.115l2.675-2.675c0.074-0.074 0.115-0.173 0.115-0.278s-0.041-0.204-0.115-0.278l-4.651-4.652z"/>
   <g id="g808" opacity=".4">
    <g id="g810">
     <path id="path812" fill="#fff" d="m15.209 1.974c-0.073-0.074-0.175-0.115-0.278-0.115-0.104 0-0.206 0.042-0.278 0.115l-4.498 4.496 0.531 0.531 4.653-4.652c0.043-0.043 0.096-0.071 0.153-0.091l-0.283-0.284zm-7.754 8.259-4.652-4.653c-0.154-0.153-0.154-0.403 0-0.558l2.674-2.674c0.044-0.044 0.097-0.072 0.153-0.091l-0.284-0.283c-0.153-0.154-0.402-0.154-0.557 0l-2.674 2.674c-0.154 0.154-0.154 0.404 0 0.557l4.652 4.653-4.653 4.653c-0.073 0.073-0.115 0.175-0.115 0.278s0.042 0.205 0.115 0.278l2.675 2.675c0.073 0.073 0.175 0.115 0.278 0.115 0.043 0 0.084-0.012 0.125-0.024l-2.391-2.391c-0.073-0.073-0.115-0.175-0.115-0.278s0.042-0.205 0.115-0.278l4.654-4.653zm3.075 3.388 4.122 4.121c0.074 0.074 0.173 0.115 0.278 0.115 0.044 0 0.085-0.011 0.125-0.024l-4.369-4.368-0.156 0.156z"/>
    </g>
   </g>
  </g>
 </g>
</svg>
