<?xml version="1.0" encoding="UTF-8" standalone="no"?>
<!-- Generator: Adobe Illustrator 13.0.0, SVG Export Plug-In . SVG Version: 6.00 Build 14576)  -->
<svg id="svg2" xmlns:rdf="http://www.w3.org/1999/02/22-rdf-syntax-ns#" xmlns="http://www.w3.org/2000/svg" enable-background="new 0 0 47.998 45.758" xml:space="preserve" height="48" width="47.998" version="1.0" y="0px" x="0px" xmlns:cc="http://creativecommons.org/ns#" xmlns:xlink="http://www.w3.org/1999/xlink" viewBox="0 0 47.998 45.758" xmlns:dc="http://purl.org/dc/elements/1.1/"><metadata id="metadata267"><rdf:RDF><cc:Work rdf:about=""><dc:format>image/svg+xml</dc:format><dc:type rdf:resource="http://purl.org/dc/dcmitype/StillImage"/></cc:Work></rdf:RDF></metadata><defs id="defs265">
			<linearGradient id="linearGradient2680" y2="7.5698" gradientUnits="userSpaceOnUse" x2="13.965" y1="42.162" x1="39.098"><stop id="stop252" stop-color="#9B9B9B" offset="0"/><stop id="stop254" stop-color="#ECECEC" offset="1"/></linearGradient>
				</defs>
<g id="Layer_3">
	<g id="g238" opacity=".3">
		<g id="g240">
			<path id="path242" d="m39.414 1.7l-0.869-0.91c-0.449-0.503-1.098-0.79-1.781-0.79-0.633 0-1.25 0.256-1.699 0.703l-0.926 0.931-1.031 1.03-0.881 0.881c-0.383 0.382-0.609 0.867-0.678 1.372-0.545 0.062-1.059 0.31-1.428 0.689l-0.914 0.912-0.969 0.97-0.859 0.858c-0.391 0.392-0.621 0.885-0.688 1.395-0.529 0.06-1.025 0.293-1.432 0.689l-0.878 0.883-0.862 0.862-0.807 0.807c-0.916 0.914-0.945 2.375-0.08 3.313l0.768 0.846c1.539 1.696 2.356 3.681 2.36 5.734-0.004 2.061-0.821 4.046-2.362 5.745l-0.756 0.831c-0.875 0.951-0.846 2.412 0.07 3.326l0.803 0.803 0.436 0.438 0.431 0.431 0.9 0.901c0.387 0.378 0.879 0.609 1.406 0.669 0.066 0.51 0.297 1.003 0.691 1.396l0.855 0.853 0.969 0.972 0.916 0.916c0.383 0.382 0.889 0.625 1.426 0.688 0.068 0.507 0.295 0.994 0.682 1.374l0.877 0.875 1.035 1.035 0.928 0.929c0.453 0.454 1.057 0.703 1.699 0.703h0.043c0.656-0.012 1.281-0.293 1.699-0.746l0.906-0.956c5.535-5.832 8.584-13.354 8.584-21.193 0-7.816-3.049-15.33-8.584-21.165zm-11.31 31.283l-0.844 0.92c-0.074 0.08-0.18 0.129-0.289 0.131h-0.008c-0.107 0-0.211-0.043-0.287-0.117l-0.881-0.883-0.863-0.863-0.807-0.807c-0.152-0.152-0.158-0.398-0.012-0.557l0.766-0.844c1.949-2.146 2.875-4.619 2.878-7.083-0.004-2.465-0.93-4.938-2.878-7.084l-0.766-0.843c-0.146-0.16-0.141-0.405 0.012-0.558l0.807-0.806c0.345-0.345 0.517-0.518 0.863-0.862l0.881-0.882c0.078-0.078 0.186-0.121 0.295-0.119s0.215 0.05 0.289 0.131l0.844 0.919c2.682 2.918 4.068 6.495 4.068 10.086v0.003 0.015c0 3.593-1.381 7.177-4.068 10.103zm4.896 4.803l-0.885 0.945c-0.074 0.08-0.18 0.127-0.289 0.129h-0.006c-0.107 0-0.211-0.043-0.287-0.119l-0.916-0.916c-0.387-0.387-0.58-0.58-0.967-0.969l-0.857-0.856c-0.154-0.154-0.158-0.402-0.01-0.561l0.824-0.887c3.184-3.42 4.742-7.545 4.744-11.667-0.002-4.129-1.559-8.258-4.742-11.68l-0.826-0.886c-0.148-0.16-0.145-0.407 0.01-0.562l0.857-0.855c0.387-0.387 0.58-0.581 0.967-0.969l0.918-0.916c0.076-0.078 0.182-0.12 0.291-0.119 0.109 0.002 0.215 0.048 0.289 0.128l0.885 0.947c4 4.268 6.033 9.583 6.033 14.899v0.015c0 5.317-2.033 10.631-6.033 14.899zm4.963 4.894l-0.904 0.955c-0.074 0.078-0.178 0.123-0.287 0.125h-0.006c-0.107 0-0.209-0.043-0.285-0.119l-0.93-0.928c-0.412-0.412-0.619-0.619-1.031-1.033l-0.881-0.879c-0.154-0.154-0.158-0.404-0.008-0.564l0.855-0.904c4.469-4.73 6.688-10.574 6.689-16.419-0.002-5.874-2.207-11.741-6.689-16.487l-0.855-0.904c-0.148-0.159-0.146-0.409 0.008-0.563l0.881-0.88c0.412-0.413 0.619-0.62 1.031-1.032l0.93-0.929c0.076-0.078 0.182-0.12 0.291-0.119s0.213 0.047 0.287 0.126l0.904 0.954c5.338 5.625 8.035 12.705 8.035 19.785v0.016c0 7.082-2.693 14.17-8.035 19.799zm-18.696-35.634c-0.59-0.289-1.251-0.441-1.907-0.441-0.958 0-1.902 0.324-2.664 0.912l-7.211 5.598-3.145 0.002c-1.143 0-2.263 0.462-3.07 1.271-0.808 0.805-1.27 1.926-1.27 3.069v10.846c0 2.396 1.948 4.344 4.419 4.344h3.066l7.217 5.602c0.759 0.584 1.702 0.905 2.655 0.905 0.661 0 1.321-0.152 1.911-0.441 1.502-0.736 2.432-2.23 2.432-3.901v-23.869c-0.003-1.671-0.933-3.163-2.433-3.897zm0.435 27.765c0 0.898-0.508 1.711-1.312 2.105-0.328 0.16-0.68 0.238-1.031 0.238-0.51 0-1.016-0.166-1.435-0.49l-7.754-6.017h-3.83c-1.293 0-2.342-1.049-2.342-2.344v-10.847c0-0.617 0.25-1.22 0.686-1.655 0.437-0.437 1.039-0.687 1.656-0.687l3.832-0.001 7.75-6.016c0.708-0.549 1.662-0.647 2.467-0.253s1.312 1.206 1.312 2.104v23.863h0.001z"/>
		</g>
	</g>
</g>
<path id="path2701" fill="url(#linearGradient2680)" d="m19.702 10.947v23.864c0 0.898-0.508 1.711-1.312 2.105-0.328 0.16-0.68 0.238-1.031 0.238-0.51 0-1.016-0.166-1.435-0.49l-7.754-6.017h-3.75-0.08c-1.293 0-2.342-1.049-2.342-2.344v-10.847c0-0.617 0.25-1.22 0.686-1.655 0.437-0.437 1.039-0.687 1.656-0.687l3.832-0.001 7.75-6.016c0.708-0.549 1.662-0.647 2.467-0.253s1.312 1.206 1.313 2.103z"/><path id="path2693" opacity=".5" fill="#fff" d="m8.653 31.022l7.27 5.643c0.163 0.126 0.342 0.221 0.527 0.299l-7.654-5.941h-0.143v-0.001z"/><path id="path2691" opacity=".5" fill="#fff" d="m15.922 9.097l-7.75 6.016-3.832 0.001c-0.617 0-1.219 0.25-1.656 0.687-0.436 0.436-0.686 1.039-0.686 1.655v10.847c0 0.991 0.617 1.834 1.486 2.177-0.521-0.43-0.861-1.072-0.861-1.802v-10.847c0-0.617 0.25-1.22 0.686-1.655 0.437-0.437 1.039-0.687 1.656-0.687l3.832-0.001 7.75-6.016c0.669-0.519 1.554-0.619 2.329-0.298-0.148-0.126-0.307-0.242-0.487-0.33-0.805-0.394-1.758-0.297-2.467 0.253z"/><g id="g2711" opacity=".3"><path id="path256" fill="url(#linearGradient2680)" d="m26.676 33.917c0.076 0.074 0.18 0.117 0.287 0.117h0.008c0.109-0.002 0.215-0.051 0.289-0.131l0.844-0.92c2.688-2.926 4.068-6.51 4.068-10.104v-0.011-0.004-0.003c0-3.591-1.387-7.167-4.068-10.086l-0.844-0.919c-0.074-0.081-0.18-0.128-0.289-0.131-0.109-0.002-0.217 0.041-0.295 0.119l-0.881 0.882c-0.346 0.345-0.518 0.517-0.863 0.862l-0.807 0.806c-0.152 0.153-0.158 0.398-0.012 0.558l0.766 0.843c1.949 2.147 2.875 4.62 2.878 7.084-0.004 2.464-0.93 4.937-2.878 7.083l-0.766 0.844c-0.146 0.158-0.141 0.404 0.012 0.557l0.807 0.807c0.345 0.346 0.517 0.518 0.863 0.863l0.881 0.884z"/><path id="path2689" opacity=".5" fill="#fff" d="m25.504 30.338c1.949-2.146 2.875-4.619 2.879-7.083-0.004-2.465-0.93-4.938-2.879-7.084l-0.765-0.843c-0.146-0.16-0.141-0.405 0.012-0.558l0.806-0.806c0.346-0.345 0.518-0.518 0.863-0.862l0.881-0.882c0.055-0.054 0.125-0.084 0.199-0.101l-0.24-0.262c-0.074-0.081-0.18-0.128-0.289-0.131-0.109-0.002-0.217 0.041-0.295 0.119l-0.881 0.882c-0.346 0.345-0.518 0.517-0.863 0.862l-0.807 0.806c-0.152 0.153-0.158 0.398-0.012 0.558l0.766 0.843c1.949 2.147 2.875 4.62 2.878 7.084-0.004 2.464-0.93 4.937-2.878 7.083l-0.766 0.844c-0.146 0.158-0.141 0.404 0.012 0.557l0.807 0.807c0.345 0.346 0.517 0.518 0.863 0.863l0.881 0.883c0.076 0.074 0.18 0.117 0.287 0.117h0.008c0.021 0 0.039-0.01 0.06-0.014l-0.61-0.611-0.863-0.863-0.806-0.807c-0.152-0.152-0.158-0.398-0.012-0.557l0.764-0.844z"/></g><g id="g2703" opacity=".3"><path id="path2699" fill="url(#linearGradient2680)" d="m36.48 43.641c0.076 0.076 0.178 0.119 0.285 0.119h0.006c0.109-0.002 0.213-0.047 0.287-0.125l0.904-0.955c5.342-5.629 8.035-12.717 8.035-19.801v-0.008-0.008c0-7.08-2.697-14.16-8.035-19.785l-0.904-0.954c-0.074-0.079-0.177-0.124-0.287-0.125-0.109-0.001-0.215 0.041-0.291 0.119l-0.93 0.929c-0.412 0.413-0.619 0.619-1.031 1.032l-0.881 0.88c-0.154 0.154-0.156 0.405-0.008 0.563l0.855 0.904c4.482 4.746 6.688 10.614 6.689 16.487-0.002 5.845-2.221 11.689-6.689 16.419l-0.855 0.904c-0.15 0.16-0.146 0.41 0.008 0.564l0.881 0.879c0.412 0.414 0.619 0.621 1.031 1.033l0.93 0.929z"/><path id="path2687" opacity=".5" fill="#fff" d="m35.145 42.055l-0.881-0.879c-0.154-0.154-0.158-0.404-0.008-0.564l0.855-0.904c4.469-4.73 6.688-10.574 6.689-16.419-0.002-5.874-2.207-11.741-6.689-16.487l-0.855-0.904c-0.148-0.159-0.146-0.409 0.008-0.563l0.881-0.88c0.412-0.413 0.619-0.62 1.031-1.032l0.93-0.929c0.056-0.056 0.128-0.086 0.204-0.103l-0.251-0.265c-0.075-0.081-0.178-0.126-0.288-0.127s-0.214 0.041-0.291 0.118l-0.93 0.929c-0.412 0.413-0.619 0.619-1.031 1.032l-0.881 0.88c-0.154 0.154-0.156 0.405-0.008 0.563l0.855 0.904c4.482 4.746 6.688 10.614 6.689 16.487-0.002 5.845-2.221 11.689-6.689 16.419l-0.855 0.904c-0.15 0.16-0.146 0.41 0.008 0.564l0.881 0.879c0.412 0.414 0.619 0.621 1.031 1.033l0.93 0.928c0.076 0.076 0.178 0.119 0.285 0.119h0.006c0.022 0 0.042-0.01 0.063-0.014l-0.659-0.658c-0.411-0.41-0.618-0.617-1.03-1.031z"/></g><g id="g2707" opacity=".3"><path id="path2697" fill="url(#linearGradient2680)" d="m31.533 38.741c0.076 0.076 0.18 0.119 0.287 0.119h0.006c0.109-0.002 0.215-0.049 0.289-0.129l0.885-0.945c4-4.268 6.033-9.582 6.033-14.899v-0.007-0.008c0-5.316-2.033-10.631-6.033-14.899l-0.885-0.946c-0.074-0.08-0.18-0.126-0.289-0.128-0.109-0.001-0.215 0.041-0.291 0.119l-0.918 0.916c-0.387 0.388-0.58 0.582-0.967 0.969l-0.857 0.855c-0.154 0.154-0.158 0.402-0.01 0.562l0.826 0.886c3.184 3.422 4.74 7.551 4.742 11.68-0.002 4.123-1.561 8.248-4.744 11.667l-0.824 0.887c-0.148 0.158-0.145 0.406 0.01 0.561l0.857 0.855c0.387 0.389 0.58 0.582 0.967 0.969l0.916 0.916z"/><path id="path262" opacity=".5" fill="#fff" d="m30.275 37.231l-0.857-0.855c-0.154-0.154-0.158-0.402-0.01-0.561l0.824-0.887c3.184-3.42 4.742-7.545 4.744-11.667-0.002-4.129-1.559-8.258-4.742-11.68l-0.826-0.886c-0.148-0.16-0.145-0.407 0.01-0.562l0.857-0.855c0.387-0.387 0.58-0.581 0.967-0.969l0.918-0.916c0.055-0.056 0.126-0.086 0.202-0.102l-0.247-0.264c-0.074-0.08-0.18-0.126-0.289-0.128-0.109-0.001-0.215 0.041-0.291 0.119l-0.918 0.916c-0.387 0.388-0.58 0.582-0.967 0.969l-0.857 0.855c-0.154 0.154-0.158 0.402-0.01 0.562l0.826 0.886c3.184 3.422 4.74 7.551 4.742 11.68-0.002 4.123-1.561 8.248-4.744 11.667l-0.824 0.887c-0.148 0.158-0.145 0.406 0.01 0.561l0.857 0.855c0.387 0.389 0.58 0.582 0.967 0.969l0.916 0.916c0.076 0.076 0.18 0.119 0.287 0.119h0.006c0.021 0 0.041-0.01 0.062-0.014l-0.646-0.646c-0.387-0.387-0.58-0.58-0.967-0.969z"/></g>
</svg>
