<?xml version="1.0" encoding="UTF-8" standalone="no"?>
<!-- Generator: Adobe Illustrator 13.0.0, SVG Export Plug-In . SVG Version: 6.00 Build 14576)  -->
<svg id="svg2" xmlns:rdf="http://www.w3.org/1999/02/22-rdf-syntax-ns#" xmlns="http://www.w3.org/2000/svg" enable-background="new 0 0 47.998 48" xml:space="preserve" height="48px" width="47.998px" version="1.1" y="0px" x="0px" xmlns:cc="http://creativecommons.org/ns#" xmlns:xlink="http://www.w3.org/1999/xlink" viewBox="0 0 47.998 48" xmlns:dc="http://purl.org/dc/elements/1.1/"><metadata id="metadata263"><rdf:RDF><cc:Work rdf:about=""><dc:format>image/svg+xml</dc:format><dc:type rdf:resource="http://purl.org/dc/dcmitype/StillImage"/></cc:Work></rdf:RDF></metadata><defs id="defs261">
	<linearGradient id="linearGradient2649" y2="2.0005" gradientUnits="userSpaceOnUse" x2="23.999" y1="46" x1="23.999"><stop id="stop248" stop-color="#9B9B9B" offset="0"/><stop id="stop250" stop-color="#ECECEC" offset="1"/></linearGradient>
	</defs>
<g id="Layer_2">
	<g id="g238" opacity=".3">
		<g id="g240">
			<path id="path242" d="m46.643 20.844c-0.885-0.887-1.987-1.355-3.186-1.355h-5.419c-1.066 0-2.059 0.371-2.878 1.069-0.215-0.7-0.495-1.37-0.832-2.006 1.081-0.091 2.045-0.532 2.809-1.292l3.827-3.834c0.84-0.84 1.296-1.936 1.316-3.223-0.01-1.24-0.466-2.344-1.312-3.186-0.849-0.852-1.952-1.308-3.244-1.318-1.242 0.021-2.34 0.472-3.173 1.308l-3.838 3.836c-0.752 0.753-1.189 1.716-1.279 2.816-0.628-0.33-1.288-0.607-1.978-0.821 0.693-0.825 1.057-1.816 1.057-2.883v-5.422c0-1.188-0.454-2.286-1.352-3.21-0.88-0.867-1.979-1.323-3.179-1.323-1.199 0-2.3 0.456-3.223 1.362-0.863 0.896-1.318 1.993-1.318 3.171v5.422c0 1.057 0.363 2.043 1.075 2.891-0.681 0.212-1.335 0.487-1.956 0.817-0.086-1.066-0.528-2.024-1.292-2.79l-3.828-3.828c-0.85-0.852-1.952-1.306-3.221-1.316-1.247 0.011-2.351 0.465-3.191 1.307-0.848 0.844-1.302 1.95-1.312 3.232 0.01 1.238 0.464 2.34 1.314 3.19l3.828 3.828c0.766 0.768 1.727 1.211 2.798 1.293-0.33 0.627-0.604 1.29-0.817 1.977-0.815-0.693-1.808-1.058-2.889-1.058h-5.408c-1.201 0-2.303 0.458-3.207 1.347-0.873 0.884-1.335 1.986-1.335 3.187 0 1.196 0.46 2.299 1.36 3.211 0.881 0.866 1.983 1.322 3.182 1.322h5.408c1.089 0 2.088-0.369 2.905-1.071 0.208 0.669 0.477 1.311 0.798 1.921-1.069 0.089-2.026 0.528-2.786 1.288l-3.821 3.827c-0.848 0.847-1.3 1.95-1.31 3.211 0 1.248 0.454 2.36 1.306 3.211 0.852 0.854 1.96 1.306 3.208 1.306h0.022c1.244-0.015 2.346-0.466 3.19-1.311l3.828-3.829c0.762-0.766 1.199-1.725 1.284-2.773 0.615 0.324 1.263 0.595 1.935 0.807-0.701 0.819-1.068 1.81-1.068 2.894v5.412c0 1.192 0.46 2.294 1.345 3.196 0.881 0.882 1.987 1.346 3.196 1.346 1.203 0 2.305-0.464 3.198-1.357 0.873-0.887 1.333-1.989 1.333-3.186v-5.412c0-1.088-0.371-2.084-1.059-2.883 0.686-0.213 1.344-0.487 1.969-0.817 0.085 1.092 0.524 2.062 1.285 2.818l3.836 3.841c0.853 0.848 1.96 1.295 3.202 1.295h0.035c1.232 0 2.332-0.447 3.182-1.3 0.858-0.858 1.307-1.975 1.296-3.212 0-1.255-0.447-2.367-1.293-3.213l-3.83-3.832c-0.751-0.755-1.711-1.192-2.814-1.281 0.33-0.623 0.606-1.277 0.821-1.962 0.827 0.705 1.819 1.074 2.895 1.074h5.419c1.2 0 2.303-0.464 3.171-1.33 0.897-0.877 1.37-1.987 1.37-3.211 0-1.217-0.473-2.325-1.355-3.188zm-34.92 4.97c-0.498 0.507-1.095 0.752-1.773 0.752h-5.409c-0.679 0-1.267-0.245-1.782-0.752-0.506-0.516-0.76-1.113-0.76-1.783 0-0.679 0.253-1.268 0.76-1.783 0.516-0.507 1.104-0.751 1.782-0.751h5.41c0.678 0 1.275 0.245 1.773 0.751 0.516 0.516 0.769 1.104 0.769 1.783-0.001 0.67-0.254 1.268-0.77 1.783zm9.717-21.28c0-0.679 0.262-1.267 0.76-1.783 0.515-0.507 1.104-0.751 1.782-0.751s1.266 0.244 1.782 0.751c0.498 0.516 0.751 1.104 0.751 1.783v5.422c0 0.67-0.253 1.268-0.751 1.774-0.516 0.507-1.104 0.76-1.782 0.76s-1.267-0.253-1.782-0.76c-0.498-0.507-0.76-1.104-0.76-1.774v-5.422zm-9.17 11.337l-3.825-3.827c-0.479-0.48-0.723-1.069-0.729-1.792 0.006-0.723 0.25-1.325 0.723-1.798 0.48-0.48 1.075-0.717 1.797-0.724 0.723 0.007 1.312 0.25 1.791 0.73l3.825 3.828c0.48 0.48 0.729 1.075 0.723 1.786 0 0.729-0.236 1.325-0.716 1.805-0.473 0.473-1.075 0.717-1.804 0.717-0.71 0.005-1.305-0.245-1.785-0.725zm3.603 19.836l-3.825 3.827c-0.48 0.48-1.075 0.717-1.797 0.724-0.717 0-1.318-0.243-1.791-0.717-0.48-0.479-0.723-1.082-0.723-1.799 0.006-0.724 0.243-1.318 0.723-1.798l3.825-3.828c0.48-0.479 1.081-0.723 1.791-0.717 0.723-0.006 1.324 0.237 1.804 0.717 0.473 0.474 0.716 1.075 0.71 1.799 0.005 0.711-0.238 1.312-0.717 1.792zm10.642 7.749c0 0.68-0.253 1.268-0.76 1.784-0.507 0.507-1.104 0.76-1.773 0.76-0.678 0-1.275-0.253-1.782-0.76-0.506-0.517-0.76-1.104-0.76-1.784v-5.412c0-0.679 0.253-1.276 0.76-1.774 0.507-0.517 1.104-0.77 1.782-0.77 0.669 0 1.266 0.253 1.773 0.77 0.507 0.498 0.76 1.096 0.76 1.774v5.412zm-2.516-9.77c-5.346 0-9.679-4.337-9.679-9.686s4.333-9.685 9.679-9.685 9.679 4.336 9.679 9.685-4.333 9.686-9.679 9.686zm11.721-1.533l3.831 3.834c0.48 0.48 0.71 1.082 0.71 1.799 0.007 0.723-0.236 1.325-0.71 1.799-0.479 0.479-1.081 0.723-1.804 0.716-0.716 0-1.311-0.236-1.791-0.716l-3.831-3.835c-0.48-0.479-0.717-1.074-0.717-1.792-0.006-0.723 0.243-1.318 0.723-1.798 0.474-0.474 1.068-0.723 1.791-0.717 0.717 0 1.318 0.231 1.798 0.71zm-1.783-15.583c-0.724-0.006-1.318-0.244-1.798-0.724s-0.717-1.075-0.723-1.799c0.006-0.71 0.243-1.318 0.716-1.792l3.832-3.834c0.479-0.479 1.081-0.71 1.797-0.723 0.724 0.006 1.312 0.25 1.791 0.73 0.48 0.48 0.724 1.069 0.729 1.792-0.013 0.717-0.249 1.312-0.729 1.792l-3.831 3.833c-0.474 0.475-1.075 0.718-1.784 0.725zm11.292 9.244c-0.507 0.507-1.095 0.761-1.772 0.761h-5.419c-0.679 0-1.267-0.254-1.773-0.761-0.516-0.506-0.76-1.104-0.76-1.783 0-0.67 0.244-1.268 0.76-1.774 0.507-0.507 1.095-0.77 1.773-0.77h5.419c0.678 0 1.266 0.262 1.772 0.77 0.516 0.506 0.77 1.104 0.77 1.774 0 0.679-0.254 1.278-0.77 1.783z"/>
		</g>
	</g>
</g>
<path id="path2700" fill="url(#linearGradient2649)" d="m23.999 14.315c-5.346 0-9.679 4.336-9.679 9.685s4.333 9.686 9.679 9.686 9.679-4.337 9.679-9.686-4.333-9.685-9.679-9.685z"/>
<g id="Layer_3">
</g>
<path id="path2664" opacity="0.41" fill="#fff" d="m23.999 14.315c-5.346 0-9.679 4.336-9.679 9.685 0 1.918 0.564 3.701 1.526 5.206-0.733-1.364-1.151-2.924-1.151-4.581 0-5.349 4.333-9.685 9.679-9.685 3.428 0 6.433 1.789 8.153 4.479-1.633-3.038-4.839-5.104-8.528-5.104z"/><g id="g2712" opacity=".5"><g id="g2702" fill="url(#linearGradient2649)"><path id="path2698" d="m11.723 25.814c0.516-0.516 0.769-1.113 0.769-1.783 0-0.679-0.253-1.268-0.769-1.783-0.498-0.507-1.095-0.751-1.773-0.751h-5.41c-0.679 0-1.267 0.245-1.782 0.751-0.506 0.516-0.76 1.104-0.76 1.783 0 0.669 0.253 1.267 0.76 1.783 0.516 0.507 1.104 0.752 1.782 0.752h5.41c0.678 0 1.276-0.245 1.773-0.752z"/><path id="path2696" d="m12.27 15.871c0.48 0.48 1.075 0.73 1.785 0.724 0.729 0 1.331-0.244 1.804-0.717 0.48-0.48 0.716-1.076 0.716-1.805 0.006-0.711-0.243-1.306-0.723-1.786l-3.825-3.828c-0.479-0.48-1.068-0.723-1.791-0.73-0.723 0.006-1.318 0.244-1.798 0.724-0.473 0.474-0.716 1.075-0.723 1.798 0.006 0.723 0.25 1.312 0.729 1.792l3.826 3.828z"/><path id="path2694" d="m33.937 16.57c0.71-0.006 1.311-0.25 1.784-0.724l3.831-3.833c0.48-0.48 0.717-1.076 0.729-1.792-0.006-0.723-0.249-1.312-0.729-1.792-0.479-0.48-1.067-0.724-1.791-0.73-0.716 0.013-1.317 0.244-1.797 0.723l-3.832 3.834c-0.473 0.474-0.71 1.082-0.716 1.792 0.006 0.724 0.243 1.319 0.723 1.799s1.074 0.716 1.798 0.723z"/><path id="path2692" d="m23.982 12.491c0.678 0 1.266-0.253 1.782-0.76 0.498-0.507 0.751-1.104 0.751-1.774v-5.423c0-0.679-0.253-1.267-0.751-1.783-0.516-0.507-1.104-0.751-1.782-0.751s-1.267 0.244-1.782 0.751c-0.498 0.516-0.76 1.104-0.76 1.783v5.422c0 0.67 0.262 1.268 0.76 1.774 0.515 0.507 1.104 0.761 1.782 0.761z"/><path id="path2690" d="m35.72 32.153c-0.479-0.479-1.081-0.71-1.798-0.71-0.723-0.006-1.317 0.243-1.791 0.717-0.479 0.479-0.729 1.075-0.723 1.798 0 0.718 0.236 1.312 0.717 1.792l3.831 3.835c0.48 0.479 1.075 0.716 1.791 0.716 0.723 0.007 1.324-0.236 1.804-0.716 0.474-0.474 0.717-1.076 0.71-1.799 0-0.717-0.229-1.318-0.71-1.799l-3.831-3.834z"/><path id="path2688" d="m45.229 22.258c-0.507-0.507-1.095-0.77-1.772-0.77h-5.419c-0.679 0-1.267 0.262-1.773 0.77-0.516 0.506-0.76 1.104-0.76 1.774 0 0.678 0.244 1.277 0.76 1.783 0.507 0.507 1.095 0.761 1.773 0.761h5.419c0.678 0 1.266-0.254 1.772-0.761 0.516-0.506 0.77-1.104 0.77-1.783 0-0.67-0.254-1.268-0.77-1.774z"/><path id="path2686" d="m14.075 31.399c-0.71-0.006-1.311 0.237-1.791 0.717l-3.825 3.828c-0.48 0.479-0.717 1.074-0.723 1.798 0 0.717 0.243 1.319 0.723 1.799 0.473 0.474 1.074 0.717 1.791 0.717 0.723-0.007 1.317-0.243 1.797-0.724l3.825-3.827c0.479-0.48 0.723-1.081 0.716-1.792 0.006-0.724-0.237-1.325-0.71-1.799-0.479-0.479-1.08-0.722-1.803-0.717z"/><path id="path252" d="m23.982 35.5c-0.678 0-1.275 0.253-1.782 0.77-0.506 0.498-0.76 1.096-0.76 1.774v5.412c0 0.68 0.253 1.268 0.76 1.784 0.507 0.507 1.104 0.76 1.782 0.76 0.669 0 1.266-0.253 1.773-0.76 0.507-0.517 0.76-1.104 0.76-1.784v-5.412c0-0.679-0.253-1.276-0.76-1.774-0.507-0.517-1.104-0.77-1.773-0.77z"/></g><g id="g2674" fill="#fff"><path id="path2672" opacity="0.41" d="m21.815 10.581v-5.422c0-0.679 0.262-1.267 0.76-1.783 0.516-0.507 1.104-0.751 1.782-0.751s1.266 0.244 1.782 0.751c0.075 0.078 0.135 0.162 0.199 0.244-0.126-0.311-0.314-0.6-0.574-0.869-0.516-0.507-1.104-0.751-1.782-0.751s-1.267 0.244-1.782 0.751c-0.498 0.516-0.76 1.104-0.76 1.783v5.422c0 0.564 0.197 1.074 0.553 1.525-0.115-0.283-0.178-0.583-0.178-0.9z"/><path id="path2670" opacity="0.41" d="m8.091 10.876c0.006-0.723 0.25-1.325 0.723-1.798 0.48-0.48 1.075-0.717 1.797-0.724 0.723 0.007 1.312 0.25 1.791 0.73l3.825 3.828c0.068 0.068 0.12 0.143 0.179 0.215-0.121-0.311-0.305-0.592-0.554-0.84l-3.825-3.828c-0.479-0.48-1.068-0.723-1.791-0.73-0.723 0.006-1.318 0.244-1.798 0.724-0.473 0.474-0.716 1.075-0.723 1.798 0.005 0.622 0.197 1.139 0.552 1.579-0.112-0.289-0.173-0.605-0.176-0.954z"/><path id="path2668" opacity="0.41" d="m31.791 14.672c0.006-0.71 0.243-1.318 0.716-1.792l3.832-3.834c0.479-0.479 1.081-0.71 1.797-0.723 0.724 0.006 1.312 0.25 1.791 0.73 0.067 0.067 0.12 0.143 0.178 0.214-0.121-0.311-0.304-0.59-0.553-0.839-0.479-0.48-1.067-0.724-1.791-0.73-0.716 0.013-1.317 0.244-1.797 0.723l-3.832 3.834c-0.473 0.474-0.71 1.082-0.716 1.792 0.005 0.625 0.194 1.149 0.552 1.591-0.114-0.292-0.174-0.613-0.177-0.966z"/><path id="path2666" opacity="0.41" d="m45.229 22.258c-0.507-0.507-1.095-0.77-1.772-0.77h-5.419c-0.679 0-1.267 0.262-1.773 0.77-0.516 0.506-0.76 1.104-0.76 1.774 0 0.571 0.185 1.081 0.546 1.531-0.111-0.283-0.171-0.585-0.171-0.906 0-0.67 0.244-1.267 0.76-1.773 0.507-0.507 1.095-0.77 1.773-0.77h5.419c0.678 0 1.266 0.262 1.772 0.77 0.085 0.083 0.151 0.172 0.222 0.26-0.127-0.319-0.322-0.617-0.597-0.886z"/><path id="path2662" opacity="0.41" d="m23.982 35.5c-0.678 0-1.275 0.253-1.782 0.77-0.506 0.498-0.76 1.096-0.76 1.774v5.412c0 0.573 0.191 1.077 0.551 1.532-0.114-0.284-0.176-0.585-0.176-0.907v-5.412c0-0.679 0.253-1.276 0.76-1.774 0.507-0.517 1.104-0.77 1.782-0.77 0.669 0 1.266 0.253 1.773 0.77 0.081 0.079 0.145 0.166 0.212 0.25-0.126-0.317-0.318-0.611-0.587-0.875-0.507-0.517-1.104-0.77-1.773-0.77z"/><path id="path2660" opacity="0.41" d="m12.098 22.874c0.084 0.084 0.15 0.173 0.22 0.261-0.127-0.317-0.322-0.613-0.595-0.886-0.498-0.507-1.095-0.751-1.773-0.751h-5.41c-0.679 0-1.267 0.245-1.782 0.751-0.506 0.516-0.76 1.104-0.76 1.783 0 0.565 0.191 1.075 0.552 1.531-0.115-0.285-0.177-0.587-0.177-0.906 0-0.679 0.253-1.267 0.76-1.783 0.516-0.507 1.104-0.751 1.782-0.751h5.41c0.678-0.001 1.276 0.244 1.773 0.751z"/><path id="path2658" opacity="0.41" d="m35.72 32.153c-0.479-0.479-1.081-0.71-1.798-0.71-0.723-0.006-1.317 0.243-1.791 0.717-0.479 0.479-0.729 1.075-0.723 1.798 0 0.62 0.188 1.144 0.546 1.585-0.112-0.292-0.171-0.61-0.171-0.96-0.006-0.723 0.243-1.318 0.723-1.798 0.474-0.474 1.068-0.723 1.791-0.717 0.717 0 1.318 0.23 1.798 0.71l3.831 3.834c0.062 0.062 0.11 0.134 0.164 0.2-0.117-0.306-0.295-0.581-0.539-0.825l-3.831-3.834z"/><path id="path258" opacity="0.41" d="m14.075 31.399c-0.71-0.006-1.311 0.237-1.791 0.717l-3.825 3.828c-0.48 0.479-0.717 1.074-0.723 1.798 0 0.618 0.192 1.146 0.549 1.588-0.114-0.294-0.174-0.614-0.174-0.963 0.006-0.724 0.243-1.318 0.723-1.798l3.825-3.828c0.48-0.479 1.081-0.723 1.791-0.717 0.723-0.006 1.324 0.237 1.804 0.717 0.063 0.063 0.111 0.134 0.166 0.202-0.119-0.309-0.299-0.585-0.541-0.827-0.48-0.479-1.081-0.722-1.804-0.717z"/></g></g>
</svg>
