<?xml version="1.0" encoding="UTF-8" standalone="no"?>
<!-- Created with Inkscape (http://www.inkscape.org/) -->

<svg
   xmlns:dc="http://purl.org/dc/elements/1.1/"
   xmlns:cc="http://creativecommons.org/ns#"
   xmlns:rdf="http://www.w3.org/1999/02/22-rdf-syntax-ns#"
   xmlns:svg="http://www.w3.org/2000/svg"
   xmlns="http://www.w3.org/2000/svg"
   xmlns:xlink="http://www.w3.org/1999/xlink"
   xmlns:sodipodi="http://sodipodi.sourceforge.net/DTD/sodipodi-0.dtd"
   xmlns:inkscape="http://www.inkscape.org/namespaces/inkscape"
   width="16px"
   height="16px"
   id="svg4459"
   version="1.1"
   inkscape:version="0.48.0 r9654"
   sodipodi:docname="edit-clear-symbolic.svg">
  <defs
     id="defs4461">
    <linearGradient
       inkscape:collect="always"
       xlink:href="#linearGradient3587-6-5-3-5"
       id="linearGradient4363-4"
       gradientUnits="userSpaceOnUse"
       gradientTransform="matrix(-0.4100229,0,0,0.5447147,49.329265,-6.729116)"
       x1="100.77747"
       y1="17.859186"
       x2="100.77747"
       y2="38.055252" />
    <linearGradient
       id="linearGradient3587-6-5-3-5">
      <stop
         offset="0"
         style="stop-color:#000000;stop-opacity:1"
         id="stop3589-9-2-2-6" />
      <stop
         offset="1"
         style="stop-color:#363636;stop-opacity:1"
         id="stop3591-7-4-73-5" />
    </linearGradient>
  </defs>
  <sodipodi:namedview
     id="base"
     pagecolor="#ffffff"
     bordercolor="#666666"
     borderopacity="1.0"
     inkscape:pageopacity="0.0"
     inkscape:pageshadow="2"
     inkscape:zoom="15.696216"
     inkscape:cx="8"
     inkscape:cy="5.360396"
     inkscape:current-layer="layer1"
     showgrid="true"
     inkscape:grid-bbox="true"
     inkscape:document-units="px"
     inkscape:window-width="1280"
     inkscape:window-height="753"
     inkscape:window-x="0"
     inkscape:window-y="24"
     inkscape:window-maximized="1" />
  <metadata
     id="metadata4464">
    <rdf:RDF>
      <cc:Work
         rdf:about="">
        <dc:format>image/svg+xml</dc:format>
        <dc:type
           rdf:resource="http://purl.org/dc/dcmitype/StillImage" />
        <dc:title />
      </cc:Work>
    </rdf:RDF>
  </metadata>
  <g
     id="layer1"
     inkscape:label="Layer 1"
     inkscape:groupmode="layer">
    <path
       style="opacity:0.6;color:#000000;fill:#ffffff;fill-opacity:1;fill-rule:nonzero;stroke:none;stroke-width:1;marker:none;visibility:visible;display:inline;overflow:visible;enable-background:accumulate"
       d="m 6.59375,3.9998595 a 0.51931882,0.52641945 0 0 0 -0.25,0.15625 l -5.1875,5.3125 A 0.51931882,0.52641945 0 0 0 1.1875,10.21861 l 5.03125,4.625001 a 0.51931882,0.52641945 0 0 0 0.34375,0.15625 l 7.90625,0 A 0.51931882,0.52641945 0 0 0 15,14.468611 l 0,-9.9375015 a 0.51931882,0.52641945 0 0 0 -0.53125,-0.53125 l -7.75,0 a 0.51931882,0.52641945 0 0 0 -0.0625,0 0.51931882,0.52641945 0 0 0 -0.0625,0 z m 1.34375,2.25 1.8125,1.75 1.78125,-1.75 L 13,7.7186095 11.25,9.4998595 13,11.343611 11.53125,12.749861 9.75,10.99986 7.9375,12.749861 6.5,11.312361 8.25,9.4998595 6.5,7.7186095 7.9375,6.2498595 z"
       id="path4463-3"
       inkscape:connector-curvature="0" />
    <path
       style="opacity:0.7;color:#000000;fill:url(#linearGradient4363-4);fill-opacity:1;fill-rule:nonzero;stroke:none;stroke-width:1;marker:none;visibility:visible;display:inline;overflow:visible;enable-background:accumulate"
       d="m 6.59375,2.999999 a 0.51931882,0.52641945 0 0 0 -0.25,0.15625 l -5.1875,5.3125 a 0.51931882,0.52641945 0 0 0 0.03125,0.75 L 6.21875,13.84375 A 0.51931882,0.52641945 0 0 0 6.5625,14 l 7.90625,0 A 0.51931882,0.52641945 0 0 0 15,13.46875 l 0,-9.937501 a 0.51931882,0.52641945 0 0 0 -0.53125,-0.53125 l -7.75,0 a 0.51931882,0.52641945 0 0 0 -0.0625,0 0.51931882,0.52641945 0 0 0 -0.0625,0 z m 1.34375,2.25 1.8125,1.75 1.78125,-1.75 L 13,6.718749 11.25,8.499999 13,10.343749 11.53125,11.75 9.75,9.999999 7.9375,11.75 6.5,10.312499 8.25,8.499999 6.5,6.718749 7.9375,5.249999 z"
       id="path4463"
       inkscape:connector-curvature="0" />
  </g>
</svg>
