<?xml version="1.0" encoding="UTF-8" standalone="no"?>
<!-- Created with Inkscape (http://www.inkscape.org/) -->

<svg
   xmlns:dc="http://purl.org/dc/elements/1.1/"
   xmlns:cc="http://creativecommons.org/ns#"
   xmlns:rdf="http://www.w3.org/1999/02/22-rdf-syntax-ns#"
   xmlns:svg="http://www.w3.org/2000/svg"
   xmlns="http://www.w3.org/2000/svg"
   xmlns:xlink="http://www.w3.org/1999/xlink"
   xmlns:sodipodi="http://sodipodi.sourceforge.net/DTD/sodipodi-0.dtd"
   xmlns:inkscape="http://www.inkscape.org/namespaces/inkscape"
   width="64"
   height="64"
   viewBox="0 0 64 64.000003"
   id="svg2"
   version="1.1"
   inkscape:version="0.91 r13725"
   sodipodi:docname="image-x-generic.svg">
  <defs
     id="defs4">
    <linearGradient
       inkscape:collect="always"
       id="linearGradient4281">
      <stop
         style="stop-color:#000000;stop-opacity:0.30980393"
         offset="0"
         id="stop4283" />
      <stop
         style="stop-color:#000000;stop-opacity:0;"
         offset="1"
         id="stop4285" />
    </linearGradient>
    <radialGradient
       inkscape:collect="always"
       xlink:href="#Shadow"
       id="radialGradient4259"
       gradientUnits="userSpaceOnUse"
       gradientTransform="matrix(-2.0000003,-2.935184e-6,3.9135795e-6,-2.6666677,15.99984,1228.853)"
       cx="4"
       cy="42.5"
       fx="4"
       fy="42.5"
       r="1.5" />
    <linearGradient
       inkscape:collect="always"
       id="Shadow">
      <stop
         style="stop-color:#000000;stop-opacity:1;"
         offset="0"
         id="stop4186" />
      <stop
         style="stop-color:#000000;stop-opacity:0;"
         offset="1"
         id="stop4188" />
    </linearGradient>
    <linearGradient
       inkscape:collect="always"
       xlink:href="#Shadow"
       id="linearGradient4257"
       gradientUnits="userSpaceOnUse"
       gradientTransform="translate(9,1073.5196)"
       x1="24"
       y1="42"
       x2="24"
       y2="46" />
    <radialGradient
       inkscape:collect="always"
       xlink:href="#Shadow"
       id="radialGradient4255"
       gradientUnits="userSpaceOnUse"
       gradientTransform="matrix(-5.6193702e-6,2.666668,-2.0000002,-4.214526e-6,142.00027,998.1864)"
       cx="44"
       cy="42.500004"
       fx="44"
       fy="42.500004"
       r="1.5" />
    <radialGradient
       inkscape:collect="always"
       xlink:href="#Shadow"
       id="radialGradient4329-1"
       cx="16"
       cy="1081.5197"
       fx="16"
       fy="1081.5197"
       r="5"
       gradientUnits="userSpaceOnUse"
       gradientTransform="translate(33,0.9998997)" />
    <linearGradient
       inkscape:collect="always"
       xlink:href="#linearGradient4281"
       id="linearGradient4279"
       gradientUnits="userSpaceOnUse"
       gradientTransform="matrix(1,0,0,0.99991667,18,-1.9974)"
       x1="27"
       y1="28.9995"
       x2="27"
       y2="30.9995" />
  </defs>
  <sodipodi:namedview
     id="base"
     pagecolor="#ffffff"
     bordercolor="#666666"
     borderopacity="1.0"
     inkscape:pageopacity="0.0"
     inkscape:pageshadow="2"
     inkscape:zoom="22.627417"
     inkscape:cx="43.307953"
     inkscape:cy="19.121916"
     inkscape:document-units="px"
     inkscape:current-layer="layer1"
     showgrid="true"
     units="px"
     inkscape:showpageshadow="false"
     borderlayer="true"
     inkscape:window-width="2560"
     inkscape:window-height="963"
     inkscape:window-x="0"
     inkscape:window-y="30"
     inkscape:window-maximized="1">
    <inkscape:grid
       type="xygrid"
       id="grid4136"
       empspacing="2" />
    <sodipodi:guide
       position="5,5.0000688"
       orientation="0,54"
       id="guide4144" />
    <sodipodi:guide
       position="59,59.000069"
       orientation="0,-54"
       id="guide4148" />
    <sodipodi:guide
       position="0,64.000069"
       orientation="64,0"
       id="guide4150" />
    <sodipodi:guide
       position="0,6.875e-05"
       orientation="0,64"
       id="guide4152" />
    <sodipodi:guide
       position="64,6.875e-05"
       orientation="-64,0"
       id="guide4154" />
    <sodipodi:guide
       position="64,64.000069"
       orientation="0,-64"
       id="guide4156" />
    <sodipodi:guide
       position="12,34.000002"
       orientation="38,0"
       id="guide4155" />
    <sodipodi:guide
       position="52,34.000002"
       orientation="-38,0"
       id="guide4159" />
  </sodipodi:namedview>
  <metadata
     id="metadata7">
    <rdf:RDF>
      <cc:Work
         rdf:about="">
        <dc:format>image/svg+xml</dc:format>
        <dc:type
           rdf:resource="http://purl.org/dc/dcmitype/StillImage" />
        <dc:title />
      </cc:Work>
    </rdf:RDF>
  </metadata>
  <g
     inkscape:label="Capa 1"
     inkscape:groupmode="layer"
     id="layer1"
     transform="translate(0,-1058.5196)">
    <path
       id="path4249"
       d="m 57,1115.5196 0,4 1,0 c 1.108,0 2,-0.892 2,-2 l 0,-2 -3,0 z"
       style="opacity:0.7;fill:url(#radialGradient4255);fill-opacity:1;stroke:none;stroke-width:2;stroke-linecap:butt;stroke-linejoin:round;stroke-miterlimit:4;stroke-dasharray:none;stroke-opacity:1"
       inkscape:connector-curvature="0" />
    <path
       id="path4251"
       d="m 8,1115.5196 0,4 49,0 0,-4 z"
       style="opacity:0.7;fill:url(#linearGradient4257);fill-opacity:1;stroke:none;stroke-width:2;stroke-linecap:butt;stroke-linejoin:round;stroke-miterlimit:4;stroke-dasharray:none;stroke-opacity:1"
       inkscape:connector-curvature="0"
       sodipodi:nodetypes="ccccc" />
    <path
       id="path4253"
       d="m 5,1115.5196 0,2 c 0,1.108 0.892,2 2,2 l 1,0 0,-4 -3,0 z"
       style="opacity:0.7;fill:url(#radialGradient4259);fill-opacity:1;stroke:none;stroke-width:2;stroke-linecap:butt;stroke-linejoin:round;stroke-miterlimit:4;stroke-dasharray:none;stroke-opacity:1"
       inkscape:connector-curvature="0" />
    <rect
       style="opacity:1;fill:#f5f5f5;fill-opacity:1;stroke:none;stroke-width:2;stroke-linecap:butt;stroke-linejoin:round;stroke-miterlimit:4;stroke-dasharray:none;stroke-opacity:1"
       id="rect4174"
       width="5"
       height="5"
       x="-7"
       y="1058.5195" />
    <rect
       y="1066.5195"
       x="-7"
       height="5"
       width="5"
       id="rect4176"
       style="opacity:1;fill:#e0e0e0;fill-opacity:1;stroke:none;stroke-width:2;stroke-linecap:butt;stroke-linejoin:round;stroke-miterlimit:4;stroke-dasharray:none;stroke-opacity:1" />
    <rect
       style="opacity:1;fill:#e0e0e0;fill-opacity:1;stroke:none;stroke-width:2;stroke-linecap:butt;stroke-linejoin:round;stroke-miterlimit:4;stroke-dasharray:none;stroke-opacity:1"
       id="rect4182"
       width="55"
       height="46.999878"
       x="5"
       y="1070.5197"
       ry="2.9999466" />
    <rect
       style="opacity:1;fill:#f5f5f5;fill-opacity:1;stroke:none;stroke-width:2;stroke-linecap:butt;stroke-linejoin:round;stroke-miterlimit:4;stroke-dasharray:none;stroke-opacity:1"
       id="rect4258"
       width="53"
       height="44.999947"
       x="6"
       y="1071.5197"
       ry="1.9999467" />
    <rect
       style="opacity:1;fill:#81d4fa;fill-opacity:1;stroke:none;stroke-width:2;stroke-linecap:butt;stroke-linejoin:round;stroke-miterlimit:4;stroke-dasharray:none;stroke-opacity:1"
       id="rect4271"
       width="49"
       height="41"
       x="8"
       y="1073.5197"
       ry="0.99994665" />
    <path
       style="opacity:1;fill:#2196f3;fill-opacity:1;stroke:none;stroke-width:2;stroke-linecap:round;stroke-linejoin:round;stroke-miterlimit:4;stroke-dasharray:none;stroke-opacity:1"
       d="M 33 42 C 28.220247 42.002054 18.273096 42.588322 8 43.613281 L 8 55 C 8.5482873 55.07914 8.4460296 56 9 56 L 56 56 C 56.06645 56 56.124741 55.975141 56.1875 55.962891 C 56.54673 55.80499 56.556014 55.187059 57 55 L 57 44.384766 C 48.709006 42.873994 38.849296 42.002302 33 42 z "
       transform="translate(0,1058.5196)"
       id="path4352" />
    <path
       style="opacity:1;fill:#1e88e5;fill-opacity:1;stroke:none;stroke-width:2;stroke-linecap:round;stroke-linejoin:round;stroke-miterlimit:4;stroke-dasharray:none;stroke-opacity:1"
       d="M 31 43 C 27.179981 43.000749 17.88981 43.411268 8 44.138672 L 8 55 C 8.5445538 55.101705 8.4460296 56 9 56 L 56 56 C 56.069246 56 56.128191 55.987117 56.179688 55.962891 C 56.540166 55.793304 56.527329 55.107419 57 55 L 57 46.099609 C 48.219035 44.138914 37.529237 43.00135 31 43 z "
       transform="translate(0,1058.5196)"
       id="path4346" />
    <path
       style="opacity:1;fill:#1976d2;fill-opacity:1;stroke:none;stroke-width:2;stroke-linecap:round;stroke-linejoin:round;stroke-miterlimit:4;stroke-dasharray:none;stroke-opacity:1"
       d="M 36 45 C 30.950285 45.001455 19.754613 45.761147 8 47.044922 L 8 55 C 8 55.55397 8.4460296 56 9 56 L 56 56 C 56.06925 56 56.127989 55.986331 56.179688 55.962891 C 56.541578 55.79879 56.534288 55.134424 57 55 L 57 46.882812 C 49.396675 45.680732 40.744204 45.002879 36 45 z "
       transform="translate(0,1058.5196)"
       id="path4341" />
    <path
       style="opacity:1;fill:#1565c0;fill-opacity:1;stroke:none;stroke-width:2;stroke-linecap:round;stroke-linejoin:round;stroke-miterlimit:4;stroke-dasharray:none;stroke-opacity:1"
       d="M 34.5 46 C 29.497014 46.001965 18.86331 46.508541 8 47.375 L 8 55 C 8.5524999 55.04033 8.4460296 56 9 56 L 56 56 C 56.063653 56 56.119399 55.976107 56.179688 55.964844 C 56.180534 55.964474 56.180798 55.963265 56.181641 55.962891 C 56.542738 55.802348 56.543937 55.160843 57 55 L 57 47.392578 C 48.849582 46.50162 39.50867 46.000988 34.5 46 z "
       transform="translate(0,1058.5196)"
       id="path4326" />
    <ellipse
       cy="1082.5199"
       cx="48.999969"
       id="circle4321-3"
       style="opacity:1;fill:url(#radialGradient4329-1);fill-opacity:1;stroke:none;stroke-width:2;stroke-linecap:round;stroke-linejoin:round;stroke-miterlimit:4;stroke-dasharray:none;stroke-opacity:1"
       r="5" />
    <circle
       style="opacity:1;fill:#ffee58;fill-opacity:1;stroke:none;stroke-width:2;stroke-linecap:round;stroke-linejoin:round;stroke-miterlimit:4;stroke-dasharray:none;stroke-opacity:1"
       id="path4319-5"
       cx="49"
       cy="1081.5197"
       r="5" />
    <path
       style="opacity:1;fill:url(#linearGradient4279);fill-opacity:1;stroke:none;stroke-width:2;stroke-linecap:round;stroke-linejoin:round;stroke-miterlimit:4;stroke-dasharray:none;stroke-opacity:1"
       d="M 48.5 23 C 46.738285 23 45.25247 24.312947 45.03125 26.060547 C 44.856857 26.021547 38.678755 26.001 38.5 26 C 37.290553 26 36.282451 26.859065 36.050781 28 L 36 28 L 36 28.5 L 36 29 L 36.050781 29 L 53 29 L 53 28 L 52.720703 28 C 52.52962 27.675811 52.255544 27.40709 51.919922 27.232422 C 51.972272 26.992022 51.99911 26.7461 52 26.5 C 52 24.5672 50.432997 23 48.5 23 z "
       transform="translate(0,1058.5196)"
       id="path4275" />
    <path
       style="opacity:1;fill:#f5f5f5;fill-opacity:1;stroke:none;stroke-width:2;stroke-linecap:round;stroke-linejoin:round;stroke-miterlimit:4;stroke-dasharray:none;stroke-opacity:1"
       d="m 44.5,1078.5191 a 3.5,3.5 0 0 0 -3.46875,3.0605 2.5,2.5 0 0 0 -0.53125,-0.06 2.5,2.5 0 0 0 -2.455078,2.0469 C 36.882182,1083.78 36,1084.7943 36,1086.0191 c 0,0.1713 0.01798,0.3384 0.05078,0.5 l 16.949219,0 c 0,-0.7737 -0.440416,-1.4347 -1.080078,-1.7676 0.05242,-0.2408 0.07926,-0.486 0.08008,-0.7324 0,-1.933 -1.567003,-3.5 -3.5,-3.5 -0.274776,0 -0.539274,0.043 -0.796875,0.1035 A 3.5,3.5 0 0 0 44.5,1078.5191 Z"
       id="path4277"
       inkscape:connector-curvature="0" />
    <rect
       y="1058.5195"
       x="-15"
       height="5"
       width="5"
       id="rect4332"
       style="opacity:1;fill:#81d4fa;fill-opacity:1;stroke:none;stroke-width:2;stroke-linecap:butt;stroke-linejoin:round;stroke-miterlimit:4;stroke-dasharray:none;stroke-opacity:1" />
    <rect
       style="opacity:1;fill:#2196f3;fill-opacity:1;stroke:none;stroke-width:2;stroke-linecap:butt;stroke-linejoin:round;stroke-miterlimit:4;stroke-dasharray:none;stroke-opacity:1"
       id="rect4334"
       width="5"
       height="5"
       x="-23"
       y="1058.5195" />
    <rect
       y="1066.5195"
       x="-23"
       height="5"
       width="5"
       id="rect4336"
       style="opacity:1;fill:#1e88e5;fill-opacity:1;stroke:none;stroke-width:2;stroke-linecap:butt;stroke-linejoin:round;stroke-miterlimit:4;stroke-dasharray:none;stroke-opacity:1" />
    <rect
       style="opacity:1;fill:#1976d2;fill-opacity:1;stroke:none;stroke-width:2;stroke-linecap:butt;stroke-linejoin:round;stroke-miterlimit:4;stroke-dasharray:none;stroke-opacity:1"
       id="rect4338"
       width="5"
       height="5"
       x="-23"
       y="1074.5195" />
    <rect
       style="opacity:1;fill:#ffe082;fill-opacity:1;stroke:none;stroke-width:2;stroke-linecap:butt;stroke-linejoin:round;stroke-miterlimit:4;stroke-dasharray:none;stroke-opacity:1"
       id="rect4342"
       width="5"
       height="5"
       x="-31"
       y="1058.5195" />
    <rect
       y="1066.5195"
       x="-31"
       height="5"
       width="5"
       id="rect4344"
       style="opacity:1;fill:#ffd54f;fill-opacity:1;stroke:none;stroke-width:2;stroke-linecap:butt;stroke-linejoin:round;stroke-miterlimit:4;stroke-dasharray:none;stroke-opacity:1" />
    <rect
       y="1058.5195"
       x="-39"
       height="5"
       width="5"
       id="rect4346"
       style="opacity:1;fill:#ffee58;fill-opacity:1;stroke:none;stroke-width:2;stroke-linecap:butt;stroke-linejoin:round;stroke-miterlimit:4;stroke-dasharray:none;stroke-opacity:1" />
    <rect
       y="1058.5195"
       x="-7"
       height="5"
       width="5"
       id="rect4348"
       style="opacity:1;fill:#f5f5f5;fill-opacity:1;stroke:none;stroke-width:2;stroke-linecap:butt;stroke-linejoin:round;stroke-miterlimit:4;stroke-dasharray:none;stroke-opacity:1" />
    <rect
       y="1082.5195"
       x="-23"
       height="5"
       width="5"
       id="rect4217"
       style="opacity:1;fill:#1565c0;fill-opacity:1;stroke:none;stroke-width:2;stroke-linecap:butt;stroke-linejoin:round;stroke-miterlimit:4;stroke-dasharray:none;stroke-opacity:1" />
    <path
       style="opacity:1;fill:#ffe082;fill-opacity:1;stroke:none;stroke-width:2;stroke-linecap:round;stroke-linejoin:round;stroke-miterlimit:4;stroke-dasharray:none;stroke-opacity:1"
       d="M 31 48 C 26.56971 48.000628 17.148603 48.36332 8 49.019531 L 8 55 C 8 55.55397 8.4460296 56 9 56 L 56 56 C 56.55397 56 57 55.55397 57 55 L 57 50.552734 C 48.983921 48.947214 38.234109 48.001066 31 48 z "
       transform="translate(0,1058.5196)"
       id="path4286" />
    <path
       style="opacity:1;fill:#ffd54f;fill-opacity:1;stroke:none;stroke-width:2;stroke-linecap:round;stroke-linejoin:round;stroke-miterlimit:4;stroke-dasharray:none;stroke-opacity:1"
       d="M 8 52.527344 L 8 55 C 8 55.55397 8.4460296 56 9 56 L 56 56 C 56.442511 56 56.805075 55.711321 56.9375 55.314453 C 46.790713 54.020932 17.057145 53.070743 8 52.527344 z "
       transform="translate(0,1058.5196)"
       id="path4288" />
  </g>
</svg>
