<?xml version="1.0" encoding="UTF-8" standalone="no"?>
<!-- Created with Inkscape (http://www.inkscape.org/) -->

<svg
   xmlns:dc="http://purl.org/dc/elements/1.1/"
   xmlns:cc="http://creativecommons.org/ns#"
   xmlns:rdf="http://www.w3.org/1999/02/22-rdf-syntax-ns#"
   xmlns:svg="http://www.w3.org/2000/svg"
   xmlns="http://www.w3.org/2000/svg"
   xmlns:xlink="http://www.w3.org/1999/xlink"
   xmlns:sodipodi="http://sodipodi.sourceforge.net/DTD/sodipodi-0.dtd"
   xmlns:inkscape="http://www.inkscape.org/namespaces/inkscape"
   width="64"
   height="64"
   viewBox="0 0 64 64.000003"
   id="svg2"
   version="1.1"
   inkscape:version="0.91 r13725"
   sodipodi:docname="image-png.svg">
  <defs
     id="defs4">
    <linearGradient
       id="linearGradient4262"
       inkscape:collect="always">
      <stop
         id="stop4264"
         offset="0"
         style="stop-color:#000000;stop-opacity:0.30980393" />
      <stop
         id="stop4266"
         offset="1"
         style="stop-color:#000000;stop-opacity:0;" />
    </linearGradient>
    <radialGradient
       inkscape:collect="always"
       xlink:href="#Shadow"
       id="radialGradient4259"
       gradientUnits="userSpaceOnUse"
       gradientTransform="matrix(-2.0000003,-2.935184e-6,3.9135795e-6,-2.6666677,15.99984,1228.853)"
       cx="4"
       cy="42.5"
       fx="4"
       fy="42.5"
       r="1.5" />
    <linearGradient
       inkscape:collect="always"
       id="Shadow">
      <stop
         style="stop-color:#000000;stop-opacity:1;"
         offset="0"
         id="stop4186" />
      <stop
         style="stop-color:#000000;stop-opacity:0;"
         offset="1"
         id="stop4188" />
    </linearGradient>
    <linearGradient
       inkscape:collect="always"
       xlink:href="#Shadow"
       id="linearGradient4257"
       gradientUnits="userSpaceOnUse"
       gradientTransform="translate(9,1073.5196)"
       x1="24"
       y1="42"
       x2="24"
       y2="46" />
    <radialGradient
       inkscape:collect="always"
       xlink:href="#Shadow"
       id="radialGradient4255"
       gradientUnits="userSpaceOnUse"
       gradientTransform="matrix(-5.6193702e-6,2.666668,-2.0000002,-4.214526e-6,142.00027,998.1864)"
       cx="44"
       cy="42.500004"
       fx="44"
       fy="42.500004"
       r="1.5" />
    <linearGradient
       inkscape:collect="always"
       xlink:href="#linearGradient4262"
       id="linearGradient4279"
       gradientUnits="userSpaceOnUse"
       gradientTransform="matrix(1,0,0,0.99991667,-6,1057.5227)"
       x1="27"
       y1="28.9995"
       x2="27"
       y2="30.9995" />
  </defs>
  <sodipodi:namedview
     id="base"
     pagecolor="#ffffff"
     bordercolor="#666666"
     borderopacity="1.0"
     inkscape:pageopacity="0.0"
     inkscape:pageshadow="2"
     inkscape:zoom="11.313709"
     inkscape:cx="23.954365"
     inkscape:cy="35.260659"
     inkscape:document-units="px"
     inkscape:current-layer="layer1"
     showgrid="true"
     units="px"
     inkscape:showpageshadow="false"
     borderlayer="true"
     inkscape:window-width="2560"
     inkscape:window-height="963"
     inkscape:window-x="0"
     inkscape:window-y="30"
     inkscape:window-maximized="1">
    <inkscape:grid
       type="xygrid"
       id="grid4136"
       empspacing="2" />
    <sodipodi:guide
       position="5,5.0000688"
       orientation="0,54"
       id="guide4144" />
    <sodipodi:guide
       position="59,59.000069"
       orientation="0,-54"
       id="guide4148" />
    <sodipodi:guide
       position="0,64.000069"
       orientation="64,0"
       id="guide4150" />
    <sodipodi:guide
       position="0,6.875e-05"
       orientation="0,64"
       id="guide4152" />
    <sodipodi:guide
       position="64,6.875e-05"
       orientation="-64,0"
       id="guide4154" />
    <sodipodi:guide
       position="64,64.000069"
       orientation="0,-64"
       id="guide4156" />
    <sodipodi:guide
       position="12,34.000002"
       orientation="38,0"
       id="guide4155" />
    <sodipodi:guide
       position="52,34.000002"
       orientation="-38,0"
       id="guide4159" />
  </sodipodi:namedview>
  <metadata
     id="metadata7">
    <rdf:RDF>
      <cc:Work
         rdf:about="">
        <dc:format>image/svg+xml</dc:format>
        <dc:type
           rdf:resource="http://purl.org/dc/dcmitype/StillImage" />
        <dc:title />
      </cc:Work>
    </rdf:RDF>
  </metadata>
  <g
     inkscape:label="Capa 1"
     inkscape:groupmode="layer"
     id="layer1"
     transform="translate(0,-1058.5196)">
    <path
       id="path4249"
       d="m 57,1115.5196 0,4 1,0 c 1.108,0 2,-0.892 2,-2 l 0,-2 -3,0 z"
       style="opacity:0.7;fill:url(#radialGradient4255);fill-opacity:1;stroke:none;stroke-width:2;stroke-linecap:butt;stroke-linejoin:round;stroke-miterlimit:4;stroke-dasharray:none;stroke-opacity:1"
       inkscape:connector-curvature="0" />
    <path
       id="path4251"
       d="m 8,1115.5196 0,4 49,0 0,-4 z"
       style="opacity:0.7;fill:url(#linearGradient4257);fill-opacity:1;stroke:none;stroke-width:2;stroke-linecap:butt;stroke-linejoin:round;stroke-miterlimit:4;stroke-dasharray:none;stroke-opacity:1"
       inkscape:connector-curvature="0"
       sodipodi:nodetypes="ccccc" />
    <path
       id="path4253"
       d="m 5,1115.5196 0,2 c 0,1.108 0.892,2 2,2 l 1,0 0,-4 -3,0 z"
       style="opacity:0.7;fill:url(#radialGradient4259);fill-opacity:1;stroke:none;stroke-width:2;stroke-linecap:butt;stroke-linejoin:round;stroke-miterlimit:4;stroke-dasharray:none;stroke-opacity:1"
       inkscape:connector-curvature="0" />
    <rect
       style="opacity:1;fill:#f5f5f5;fill-opacity:1;stroke:none;stroke-width:2;stroke-linecap:butt;stroke-linejoin:round;stroke-miterlimit:4;stroke-dasharray:none;stroke-opacity:1"
       id="rect4174"
       width="5"
       height="5"
       x="-7"
       y="1058.5195" />
    <rect
       y="1066.5195"
       x="-7"
       height="5"
       width="5"
       id="rect4176"
       style="opacity:1;fill:#e0e0e0;fill-opacity:1;stroke:none;stroke-width:2;stroke-linecap:butt;stroke-linejoin:round;stroke-miterlimit:4;stroke-dasharray:none;stroke-opacity:1" />
    <rect
       style="opacity:1;fill:#e0e0e0;fill-opacity:1;stroke:none;stroke-width:2;stroke-linecap:butt;stroke-linejoin:round;stroke-miterlimit:4;stroke-dasharray:none;stroke-opacity:1"
       id="rect4182"
       width="55"
       height="46.999878"
       x="5"
       y="1070.5197"
       ry="2.9999466" />
    <rect
       style="opacity:1;fill:#f5f5f5;fill-opacity:1;stroke:none;stroke-width:2;stroke-linecap:butt;stroke-linejoin:round;stroke-miterlimit:4;stroke-dasharray:none;stroke-opacity:1"
       id="rect4258"
       width="53"
       height="44.999947"
       x="6"
       y="1071.5197"
       ry="1.9999467" />
    <rect
       y="1058.5195"
       x="-15"
       height="5"
       width="5"
       id="rect4265"
       style="opacity:1;fill:#81d4fa;fill-opacity:1;stroke:none;stroke-width:2;stroke-linecap:butt;stroke-linejoin:round;stroke-miterlimit:4;stroke-dasharray:none;stroke-opacity:1" />
    <rect
       style="opacity:1;fill:#81d4fa;fill-opacity:1;stroke:none;stroke-width:2;stroke-linecap:butt;stroke-linejoin:round;stroke-miterlimit:4;stroke-dasharray:none;stroke-opacity:1"
       id="rect4271"
       width="49"
       height="41"
       x="8"
       y="1073.5197"
       ry="0.99994665" />
    <path
       style="fill:#4db6ac;fill-opacity:1;fill-rule:evenodd;stroke:none;stroke-width:1px;stroke-linecap:butt;stroke-linejoin:miter;stroke-opacity:1"
       d="m 8,1104.5196 9,-9 2,1 1,3 2,2 7,6 -21,0 z"
       id="path4172"
       inkscape:connector-curvature="0" />
    <path
       style="fill:#4db6ac;fill-opacity:1;fill-rule:evenodd;stroke:none;stroke-width:1px;stroke-linecap:butt;stroke-linejoin:miter;stroke-opacity:1"
       d="M 46 27 L 39 28 L 34 35 L 28 39 L 27 43 L 22 50 L 57 50 L 57 44 L 54 41 L 52 34 L 46 27 z "
       id="path4174"
       transform="translate(0,1058.5196)" />
    <path
       style="fill:#26a69a;fill-opacity:1;fill-rule:evenodd;stroke:none;stroke-width:1px;stroke-linecap:butt;stroke-linejoin:miter;stroke-opacity:1"
       d="M 8 40 L 8 52 L 23 52 L 23 47 L 11 43 L 8 40 z "
       id="path4178"
       transform="translate(0,1058.5196)" />
    <path
       style="fill:#009688;fill-opacity:1;fill-rule:evenodd;stroke:none;stroke-width:1px;stroke-linecap:butt;stroke-linejoin:miter;stroke-opacity:1"
       d="M 24 43 L 22 45 L 20 46 L 21 47 L 22 47 C 22 47 16 50 15 51 L 15 52 L 40 52 L 37 48 L 32 45 L 24 43 z "
       id="path4180"
       transform="translate(0,1058.5196)" />
    <path
       style="fill:#80cbc4;fill-rule:evenodd;stroke:none;stroke-width:1px;stroke-linecap:butt;stroke-linejoin:miter;stroke-opacity:1;fill-opacity:1"
       d="M 46 27 L 44 28 L 43 31 L 45 32 L 46 34 L 46 37 L 48 39 L 51 39 L 53 43 L 54 43 L 56 44 L 57 44 L 54 41 L 52 34 L 46 27 z "
       id="path4221"
       transform="translate(0,1058.5196)" />
    <path
       style="fill:#26a69a;fill-opacity:1;fill-rule:evenodd;stroke:none;stroke-width:1px;stroke-linecap:butt;stroke-linejoin:miter;stroke-opacity:1"
       d="m 57,43 -4,3 -2,3 -4,1 -2,-2 -4,-2 -4,-3 -2,1 -1,1 -1,1 0.923828,0.460938 L 29,52 57,52 Z"
       id="path4182"
       inkscape:connector-curvature="0"
       sodipodi:nodetypes="cccccccccccccc"
       transform="translate(0,1058.5196)" />
    <path
       style="fill:#009688;fill-opacity:1;fill-rule:evenodd;stroke:none;stroke-width:1px;stroke-linecap:butt;stroke-linejoin:miter;stroke-opacity:1"
       d="M 12 47 C 11.533413 47 9.7585206 48.311567 8 49.705078 L 8 55 L 26 55 L 26 53 L 25 51 L 21 50 C 21 50 13 47 12 47 z "
       id="path4184"
       transform="translate(0,1058.5196)" />
    <path
       style="fill:#00897b;fill-opacity:1;fill-rule:evenodd;stroke:none;stroke-width:1px;stroke-linecap:butt;stroke-linejoin:miter;stroke-opacity:1"
       d="m 22,1111.5196 8,-5 6,-1 6,3 3,3 3,1 1,1 -27,0 z"
       id="path4195"
       inkscape:connector-curvature="0" />
    <path
       style="fill:#009688;fill-opacity:1;fill-rule:evenodd;stroke:none;stroke-width:1px;stroke-linecap:butt;stroke-linejoin:miter;stroke-opacity:1"
       d="M 51 45 L 48 47 C 48 47 46 50 45 51 C 44 52 41 53 41 53 L 42 55 L 57 55 L 57 46 C 57 46 55 45 54 45 L 51 45 z "
       id="path4197"
       transform="translate(0,1058.5196)" />
    <path
       style="fill:#00695c;fill-opacity:1;fill-rule:evenodd;stroke:none;stroke-width:1px;stroke-linecap:butt;stroke-linejoin:miter;stroke-opacity:1"
       d="M 43 40 L 40 45 L 34 49 L 28 55 L 26 53 L 20 49 L 12 51 L 8 55 C 8 55.55397 8.4460296 56 9 56 L 56 56 C 56.55397 56 57 55.55397 57 55 L 57 49 L 55 48 L 49 41 L 43 40 z "
       id="path4201"
       transform="translate(0,1058.5196)" />
    <path
       style="fill:#80cbc4;fill-rule:evenodd;stroke:none;stroke-width:1px;stroke-linecap:butt;stroke-linejoin:miter;stroke-opacity:1;fill-opacity:1"
       d="M 17 37 L 17 38 L 18 39 L 18 40 L 19 40 L 20 42 L 22 43 L 20 41 L 19 38 L 17 37 z "
       id="path4226"
       transform="translate(0,1058.5196)" />
    <path
       style="fill:#26a69a;fill-rule:evenodd;stroke:none;stroke-width:1px;stroke-linecap:butt;stroke-linejoin:miter;stroke-opacity:1;fill-opacity:1"
       d="M 24 43 L 26 45 L 26 46 L 28 47 L 31 47 L 33 47 L 33.539062 45.923828 L 32 45 L 24 43 z "
       id="path4237"
       transform="translate(0,1058.5196)" />
    <path
       style="fill:#00796b;fill-rule:evenodd;stroke:none;stroke-width:1px;stroke-linecap:butt;stroke-linejoin:miter;stroke-opacity:1;fill-opacity:1"
       d="M 49 41 L 47 44 L 48 46 L 50 48 L 50 49 L 51 51 L 53 52 L 55 53 L 56.755859 55.634766 C 56.901526 55.461118 57 55.245403 57 55 L 57 49 L 55 48 L 49 41 z "
       id="path4244"
       transform="translate(0,1058.5196)" />
    <path
       inkscape:connector-curvature="0"
       style="opacity:1;fill:url(#linearGradient4279);fill-opacity:1;stroke:none;stroke-width:2;stroke-linecap:round;stroke-linejoin:round;stroke-miterlimit:4;stroke-dasharray:none;stroke-opacity:1"
       d="m 24.5,1082.5201 c -1.761715,0 -3.24753,1.3129 -3.46875,3.0605 -0.174393,-0.039 -6.352495,-0.06 -6.53125,-0.061 -1.209447,0 -2.217549,0.8591 -2.449219,2 l -0.05078,0 0,0.5 0,0.5 0.05078,0 16.94922,0 0,-1 -0.279297,0 c -0.191083,-0.3242 -0.465159,-0.5929 -0.800781,-0.7676 0.05235,-0.2404 0.07919,-0.4863 0.08008,-0.7324 0,-1.9328 -1.567003,-3.5 -3.5,-3.5 z"
       id="path4275" />
    <path
       style="opacity:1;fill:#f5f5f5;fill-opacity:1;stroke:none;stroke-width:2;stroke-linecap:round;stroke-linejoin:round;stroke-miterlimit:4;stroke-dasharray:none;stroke-opacity:1"
       d="m 20.5,1079.5196 a 3.5,3.5 0 0 0 -3.46875,3.0605 2.5,2.5 0 0 0 -0.53125,-0.06 2.5,2.5 0 0 0 -2.455078,2.0469 C 12.882182,1084.7805 12,1085.7948 12,1087.0196 c 0,0.1713 0.01798,0.3384 0.05078,0.5 l 16.949219,0 c 0,-0.7737 -0.440416,-1.4347 -1.080078,-1.7676 0.05242,-0.2408 0.07926,-0.486 0.08008,-0.7324 0,-1.933 -1.567003,-3.5 -3.5,-3.5 -0.274776,0 -0.539274,0.043 -0.796875,0.1035 A 3.5,3.5 0 0 0 20.5,1079.5196 Z"
       id="path4277"
       inkscape:connector-curvature="0" />
    <rect
       style="opacity:1;fill:#80cbc4;fill-opacity:1;stroke:none;stroke-width:2;stroke-linecap:butt;stroke-linejoin:round;stroke-miterlimit:4;stroke-dasharray:none;stroke-opacity:1"
       id="rect4177"
       width="5"
       height="5"
       x="-23"
       y="1058.5195" />
    <rect
       y="1066.5195"
       x="-23"
       height="5"
       width="5"
       id="rect4179"
       style="opacity:1;fill:#4db6ac;fill-opacity:1;stroke:none;stroke-width:2;stroke-linecap:butt;stroke-linejoin:round;stroke-miterlimit:4;stroke-dasharray:none;stroke-opacity:1" />
    <rect
       style="opacity:1;fill:#26a69a;fill-opacity:1;stroke:none;stroke-width:2;stroke-linecap:butt;stroke-linejoin:round;stroke-miterlimit:4;stroke-dasharray:none;stroke-opacity:1"
       id="rect4181"
       width="5"
       height="5"
       x="-23"
       y="1074.5195" />
    <rect
       y="1082.5195"
       x="-23"
       height="5"
       width="5"
       id="rect4183"
       style="opacity:1;fill:#26a69a;fill-opacity:1;stroke:none;stroke-width:2;stroke-linecap:butt;stroke-linejoin:round;stroke-miterlimit:4;stroke-dasharray:none;stroke-opacity:1" />
    <rect
       style="opacity:1;fill:#009688;fill-opacity:1;stroke:none;stroke-width:2;stroke-linecap:butt;stroke-linejoin:round;stroke-miterlimit:4;stroke-dasharray:none;stroke-opacity:1"
       id="rect4185"
       width="5"
       height="5"
       x="-23"
       y="1082.5195" />
    <rect
       y="1090.5195"
       x="-23"
       height="5"
       width="5"
       id="rect4187"
       style="opacity:1;fill:#00897b;fill-opacity:1;stroke:none;stroke-width:2;stroke-linecap:butt;stroke-linejoin:round;stroke-miterlimit:4;stroke-dasharray:none;stroke-opacity:1" />
    <rect
       style="opacity:1;fill:#00695c;fill-opacity:1;stroke:none;stroke-width:2;stroke-linecap:butt;stroke-linejoin:round;stroke-miterlimit:4;stroke-dasharray:none;stroke-opacity:1"
       id="rect4189"
       width="5"
       height="5"
       x="-23"
       y="-1111.5195"
       transform="scale(1,-1)" />
    <rect
       y="-1103.5195"
       x="-23"
       height="5"
       width="5"
       id="rect4191"
       style="opacity:1;fill:#00796b;fill-opacity:1;stroke:none;stroke-width:2;stroke-linecap:butt;stroke-linejoin:round;stroke-miterlimit:4;stroke-dasharray:none;stroke-opacity:1"
       transform="scale(1,-1)" />
  </g>
</svg>
