<?xml version="1.0" encoding="UTF-8" standalone="no"?>
<!-- Created with Inkscape (http://www.inkscape.org/) -->

<svg
   xmlns:dc="http://purl.org/dc/elements/1.1/"
   xmlns:cc="http://creativecommons.org/ns#"
   xmlns:rdf="http://www.w3.org/1999/02/22-rdf-syntax-ns#"
   xmlns:svg="http://www.w3.org/2000/svg"
   xmlns="http://www.w3.org/2000/svg"
   xmlns:xlink="http://www.w3.org/1999/xlink"
   xmlns:sodipodi="http://sodipodi.sourceforge.net/DTD/sodipodi-0.dtd"
   xmlns:inkscape="http://www.inkscape.org/namespaces/inkscape"
   version="1.1"
   width="22"
   height="22"
   id="svg3882"
   inkscape:version="0.48.2 r9819"
   sodipodi:docname="edit-find-option-symbolic.svg">
  <sodipodi:namedview
     pagecolor="#ffffff"
     bordercolor="#666666"
     borderopacity="1"
     objecttolerance="10"
     gridtolerance="10"
     guidetolerance="10"
     inkscape:pageopacity="0"
     inkscape:pageshadow="2"
     inkscape:window-width="1366"
     inkscape:window-height="676"
     id="namedview12"
     showgrid="true"
     inkscape:zoom="16.96875"
     inkscape:cx="7.9705341"
     inkscape:cy="8"
     inkscape:window-x="0"
     inkscape:window-y="27"
     inkscape:window-maximized="1"
     inkscape:current-layer="svg3882">
    <inkscape:grid
       type="xygrid"
       id="grid2989"
       empspacing="5"
       visible="true"
       enabled="true"
       snapvisiblegridlinesonly="true" />
  </sodipodi:namedview>
  <defs
     id="defs3884">
    <linearGradient
       id="linearGradient3587-6-5-3-5-7">
      <stop
         id="stop3589-9-2-2-6-2"
         style="stop-color:#000000;stop-opacity:1"
         offset="0" />
      <stop
         id="stop3591-7-4-73-5-1"
         style="stop-color:#363636;stop-opacity:1"
         offset="1" />
    </linearGradient>
    <linearGradient
       inkscape:collect="always"
       xlink:href="#linearGradient3587-6-5-3-5-7"
       id="linearGradient3766"
       gradientUnits="userSpaceOnUse"
       gradientTransform="matrix(-0.56378149,0,0,0.74898271,37.156927,-7.7679963)"
       x1="46.395508"
       y1="12.707516"
       x2="46.395508"
       y2="38.409042" />
  </defs>
  <metadata
     id="metadata3887">
    <rdf:RDF>
      <cc:Work
         rdf:about="">
        <dc:format>image/svg+xml</dc:format>
        <dc:type
           rdf:resource="http://purl.org/dc/dcmitype/StillImage" />
        <dc:title />
      </cc:Work>
    </rdf:RDF>
  </metadata>
  <path
     style="opacity:0.6;color:#000000;fill:#ffffff;fill-opacity:1;fill-rule:nonzero;stroke:none;stroke-width:1;marker:none;visibility:visible;display:inline;overflow:visible;enable-background:accumulate"
     d="m 6.875,2.7497133 c -3.7969576,0 -6.875,3.078042 -6.875,6.875 0,3.7969577 3.0780424,6.8749997 6.875,6.8749997 1.3540772,0 2.5881261,-0.398292 3.652344,-1.074218 l 6.144531,6.359375 c 0.131422,0.144742 0.311006,0.226213 0.515625,0.214843 0.204622,-0.01141 0.416756,-0.09789 0.558594,-0.257812 l 1.289062,-1.460938 c 0.263915,-0.303722 0.268794,-0.736895 0,-0.988281 L 12.71875,13.234088 C 13.375449,12.18036 13.75,10.957754 13.75,9.6247133 c 0,-3.796958 -3.078042,-6.875 -6.875,-6.875 z m 0,2.75 c 2.2781745,0 4.125,1.8468258 4.125,4.125 0,2.2781747 -1.8468255,4.1249997 -4.125,4.1249997 -2.2781745,0 -4.125,-1.846825 -4.125,-4.1249997 0,-2.2781742 1.8468255,-4.125 4.125,-4.125 z m 8.25,4.125 3.4375,5.4999997 L 22,9.6247133 z"
     id="path3220-5"
     inkscape:connector-curvature="0"
     sodipodi:nodetypes="ssscccccccssssssscccc" />
  <path
     style="opacity:0.7;color:#000000;fill:url(#linearGradient3766);fill-opacity:1;fill-rule:nonzero;stroke:none;stroke-width:1;marker:none;visibility:visible;display:inline;overflow:visible;enable-background:accumulate"
     d="m 6.875,1.7497133 c -3.7969576,0 -6.875,3.0780424 -6.875,6.875 0,3.7969577 3.0780424,6.8749997 6.875,6.8749997 1.3540772,0 2.5881261,-0.398292 3.652344,-1.074218 l 6.144531,6.359375 c 0.131422,0.144742 0.311006,0.226213 0.515625,0.214843 0.204622,-0.01141 0.416756,-0.09789 0.558594,-0.257812 l 1.289062,-1.460938 c 0.263915,-0.303722 0.268794,-0.736895 0,-0.988281 L 12.71875,12.234088 C 13.375449,11.18036 13.75,9.9577538 13.75,8.6247133 c 0,-3.7969576 -3.078042,-6.875 -6.875,-6.875 z m 0,2.75 c 2.2781745,0 4.125,1.8468258 4.125,4.125 0,2.2781747 -1.8468255,4.1249997 -4.125,4.1249997 -2.2781745,0 -4.125,-1.846825 -4.125,-4.1249997 0,-2.2781742 1.8468255,-4.125 4.125,-4.125 z m 8.25,4.125 3.4375,5.4999997 L 22,8.6247133 z"
     id="path3220"
     inkscape:connector-curvature="0"
     sodipodi:nodetypes="ssscccccccssssssscccc" />
</svg>
