<?xml version="1.0" encoding="UTF-8" standalone="no"?>
<!-- Generator: Adobe Illustrator 13.0.0, SVG Export Plug-In . SVG Version: 6.00 Build 14576)  -->
<svg id="svg2" xmlns:rdf="http://www.w3.org/1999/02/22-rdf-syntax-ns#" xmlns="http://www.w3.org/2000/svg" enable-background="new 0 0 47.894 48" xml:space="preserve" height="48" width="48" version="1.0" y="0px" x="0px" xmlns:cc="http://creativecommons.org/ns#" xmlns:dc="http://purl.org/dc/elements/1.1/" viewBox="0 0 47.894 48"><metadata id="metadata349"><rdf:RDF><cc:Work rdf:about=""><dc:format>image/svg+xml</dc:format><dc:type rdf:resource="http://purl.org/dc/dcmitype/StillImage"/></cc:Work></rdf:RDF></metadata>
<g id="Layer_1">
</g>
<g id="Layer_2">
	<g id="g239">
		<linearGradient id="SVGID_1_" y2="13.211" gradientUnits="userSpaceOnUse" x2="23.947" y1="26.249" x1="23.947">
			<stop id="stop242" stop-color="#0D0D0D" offset="0"/>
			<stop id="stop244" stop-color="#8C8C8C" offset="1"/>
		</linearGradient>
		<rect id="rect246" height="13.038" width="29.142" y="13.211" x="9.375" fill="url(#SVGID_1_)"/>
		<path id="path248" fill="#ecebf7" d="m45.803 40.436v-13.068c0-1.459-1.527-2.653-3.004-2.653h-37.705c-1.477 0-3.004 1.194-3.004 2.653v13.068h43.713z"/>
		<g id="g250">
				<linearGradient id="SVGID_2_" y2="-349.48" gradientUnits="userSpaceOnUse" x2="305.95" gradientTransform="matrix(1 0 0 -1 -282 -324)" y1="-364.43" x1="305.95">
				<stop id="stop253" stop-color="#9B9B9B" offset="0"/>
				<stop id="stop255" stop-color="#ECECEC" offset="1"/>
			</linearGradient>
			<path id="path257" fill="url(#SVGID_2_)" d="m45.419 40.436v-12.304c0-1.458-1.187-2.651-2.637-2.651h-37.672c-1.45 0-2.637 1.193-2.637 2.651v12.304h42.946z"/>
		</g>
		<path id="path259" fill="#333" d="m45.803 40.157v4.218c0 0.422-0.345 0.767-0.767 0.767h-42.179c-0.422 0-0.767-0.345-0.767-0.767v-4.218h43.713z"/>
		<g id="g261">
			<path id="path263" fill="#333" d="m2.473 40.923v3.835c0 0.211 0.172 0.383 0.384 0.383h42.179c0.211 0 0.383-0.172 0.383-0.383v-3.835h-42.946z"/>
		</g>
		<path id="path265" fill="#cbc8e6" d="m38.9 37.368c0 0.422-0.345 0.767-0.767 0.767h-28.375c-0.421 0-0.766-0.345-0.766-0.767v-8.436c0-0.422 0.345-0.767 0.766-0.767h28.375c0.422 0 0.767 0.345 0.767 0.767v8.436z"/>
		<g id="g267">
			<linearGradient id="SVGID_3_" y2="25.812" gradientUnits="userSpaceOnUse" x2="23.947" y1="37.751" x1="23.947">
				<stop id="stop270" stop-color="#0D0D0D" offset="0"/>
				<stop id="stop272" stop-color="#8C8C8C" offset="1"/>
			</linearGradient>
			<rect id="rect274" height="11.939" width="29.142" y="25.812" x="9.375" fill="url(#SVGID_3_)"/>
		</g>
			<linearGradient id="SVGID_4_" y2="-367.61" gradientUnits="userSpaceOnUse" x2="321.48" gradientTransform="matrix(1 0 0 -1 -282 -324)" y1="-366.07" x1="321.48">
			<stop id="stop277" stop-color="#ECEBF7" offset=".1917"/>
			<stop id="stop279" stop-color="#9E9E9E" offset=".53"/>
		</linearGradient>
		<rect id="rect281" height="3.835" width="1.917" y="42.074" x="38.518" fill="url(#SVGID_4_)"/>
			<linearGradient id="SVGID_5_" y2="-367.61" gradientUnits="userSpaceOnUse" x2="290.42" gradientTransform="matrix(1 0 0 -1 -282 -324)" y1="-366.07" x1="290.42">
			<stop id="stop284" stop-color="#ECEBF7" offset=".1917"/>
			<stop id="stop286" stop-color="#9E9E9E" offset=".53"/>
		</linearGradient>
		<rect id="rect288" height="3.835" width="1.917" y="42.074" x="7.458" fill="url(#SVGID_5_)"/>
			<linearGradient id="SVGID_6_" y2="-369.22" gradientUnits="userSpaceOnUse" x2="305.95" gradientTransform="matrix(1 0 0 -1 -282 -324)" y1="-368.76" x1="305.95">
			<stop id="stop291" stop-color="#ECEBF7" offset=".1917"/>
			<stop id="stop293" stop-color="#9E9E9E" offset=".53"/>
		</linearGradient>
		<rect id="rect295" height="1.15" width="29.142" y="44.758" x="9.375" fill="url(#SVGID_6_)"/>
			<linearGradient id="SVGID_7_" y2="-365.31" gradientUnits="userSpaceOnUse" x2="305.95" gradientTransform="matrix(1 0 0 -1 -282 -324)" y1="-368.33" x1="305.95">
			<stop id="stop298" stop-color="#727275" offset="0"/>
			<stop id="stop300" stop-color="#151517" offset=".53"/>
		</linearGradient>
		<polygon id="polygon302" points="38.518 42.074 38.518 44.758 9.375 44.758 9.375 42.074 9.758 41.307 38.134 41.307" fill="url(#SVGID_7_)"/>
		<rect id="rect304" height="1.15" width="29.142" y="24.714" x="9.375" fill="#333336"/>
			<linearGradient id="SVGID_8_" y2="-349.48" gradientUnits="userSpaceOnUse" x2="305.95" gradientTransform="matrix(1 0 0 -1 -282 -324)" y1="-326.09" x1="305.95">
			<stop id="stop307" stop-color="#FCFCFC" offset="0"/>
			<stop id="stop309" stop-color="#fff" offset=".1742"/>
			<stop id="stop311" stop-color="#fff" offset=".8258"/>
			<stop id="stop313" stop-color="#A2A2A3" offset="1"/>
		</linearGradient>
		<path id="path315" fill="url(#SVGID_8_)" d="m36.6 25.865h-25.308v-22.741c0-0.507 0.521-1.033 1.022-1.033h11.3c2.697 0 12.985 11.629 12.985 13.23 0.001 2.067 0.001 10.544 0.001 10.544z"/>
			<linearGradient id="SVGID_9_" y2="-349.48" gradientUnits="userSpaceOnUse" x2="305.95" gradientTransform="matrix(1 0 0 -1 -282 -324)" y1="-326.09" x1="305.95">
			<stop id="stop318" stop-color="#FCFCFC" offset="0"/>
			<stop id="stop320" stop-color="#eee" offset=".1742"/>
			<stop id="stop322" stop-color="#eee" offset=".8258"/>
			<stop id="stop324" stop-color="#A2A2A3" offset="1"/>
		</linearGradient>
		<path id="path326" fill="url(#SVGID_9_)" d="m36.217 25.865h-24.541v-22.741c0-0.507 0.505-1.033 0.991-1.033h10.97c2.612 0 12.58 11.629 12.58 13.23v10.544z"/>
			<radialGradient id="SVGID_10_" gradientUnits="userSpaceOnUse" cy="-335.82" cx="314.37" gradientTransform="matrix(.8757 -.131 -.1048 -.7 -279.3 -182.22)" r="5.981">
			<stop id="stop329" stop-color="#C4C4C4" offset=".2135"/>
			<stop id="stop331" stop-color="#eee" offset=".927"/>
		</radialGradient>
		<path id="path333" fill="url(#SVGID_10_)" d="m34.77 12.804c0.288 1.927-0.425 3.631-2.837 3.992-2.409 0.361-5.605-0.758-5.894-2.685-0.289-1.928 0.586-2.558 2.996-2.919 2.41-0.36 3.856 0.521 5.735 1.612z"/>
			<linearGradient id="SVGID_11_" y2="-335.65" gradientUnits="userSpaceOnUse" x2="312.83" gradientTransform="matrix(1 0 0 -1 -282 -324)" y1="-325.39" x1="310.38">
			<stop id="stop336" stop-color="#FCFDFD" offset="0"/>
			<stop id="stop338" stop-color="#eee" offset="1"/>
		</linearGradient>
		<path id="path340" fill="url(#SVGID_11_)" d="m36.6 15.321c0-3.088-10.257-3.093-10.257-3.093-0.01 1.022 0.104-10.138-2.729-10.138 2.698 0.001 12.986 12.2 12.986 13.231z"/>
		<rect id="rect342" height=".384" width="29.078" y="25.865" x="9.375" fill="#333336"/>
		<path id="path344" opacity=".3" d="m42.798 22.624h-2.189v-9.414c0-1.154-0.937-2.09-2.091-2.09h-2.054c-2.719-3.504-8.212-9.435-11.29-10.758-0.559-0.243-1.062-0.362-1.537-0.362h-11.323c-1.659 0-3.113 1.458-3.113 3.124v8.002c-1.072 0.091-1.916 0.988-1.916 2.084v9.413h-2.191c-2.714 0.001-5.094 2.216-5.094 4.745v17.008c0 1.294 0.893 2.432 2.146 2.752 0.229 0.067 0.47 0.104 0.71 0.104h2.984c0.382 0.468 0.967 0.768 1.618 0.768h32.975c0.651 0 1.236-0.301 1.618-0.769h2.983c1.578 0 2.858-1.281 2.858-2.856v-17.007c0.002-2.529-2.38-4.744-5.094-4.744zm3.005 21.751c0 0.422-0.345 0.767-0.767 0.767h-4.602v0.768h-32.976v-0.768h-4.601c-0.053 0-0.103-0.011-0.149-0.03-0.349-0.072-0.618-0.368-0.618-0.737v-17.007c0-1.459 1.527-2.653 3.004-2.653h4.282v-11.504h1.917v-10.087c0-0.506 0.521-1.033 1.022-1.033h11.322c0.192 0 0.429 0.07 0.694 0.188 2.672 1.147 8.57 7.459 11.089 10.933h3.098v11.503h4.281c1.477 0 3.004 1.194 3.004 2.653v17.007z"/>
	</g>
</g>
</svg>
