<?xml version="1.0" encoding="UTF-8" standalone="no"?>
<!-- Created with Inkscape (http://www.inkscape.org/) -->

<svg
   xmlns:dc="http://purl.org/dc/elements/1.1/"
   xmlns:cc="http://creativecommons.org/ns#"
   xmlns:rdf="http://www.w3.org/1999/02/22-rdf-syntax-ns#"
   xmlns:svg="http://www.w3.org/2000/svg"
   xmlns="http://www.w3.org/2000/svg"
   xmlns:sodipodi="http://sodipodi.sourceforge.net/DTD/sodipodi-0.dtd"
   xmlns:inkscape="http://www.inkscape.org/namespaces/inkscape"
   width="32"
   height="32"
   viewBox="0 0 32 32.000001"
   id="svg2"
   version="1.1"
   inkscape:version="0.91 r13725"
   sodipodi:docname="kde-gtk-config.svg">
  <defs
     id="defs4" />
  <sodipodi:namedview
     id="base"
     pagecolor="#ffffff"
     bordercolor="#666666"
     borderopacity="1.0"
     inkscape:pageopacity="0.0"
     inkscape:pageshadow="2"
     inkscape:zoom="32"
     inkscape:cx="18.315846"
     inkscape:cy="8.8245225"
     inkscape:document-units="px"
     inkscape:current-layer="layer1"
     showgrid="true"
     inkscape:window-width="2560"
     inkscape:window-height="1017"
     inkscape:window-x="0"
     inkscape:window-y="0"
     inkscape:window-maximized="1"
     inkscape:showpageshadow="false"
     borderlayer="true"
     units="px">
    <inkscape:grid
       type="xygrid"
       id="grid4155"
       empspacing="2" />
    <sodipodi:guide
       position="2,30.000018"
       orientation="28,0"
       id="guide4159" />
    <sodipodi:guide
       position="2,2.0000174"
       orientation="0,28"
       id="guide4161" />
    <sodipodi:guide
       position="30,2.0000174"
       orientation="-28,0"
       id="guide4163" />
    <sodipodi:guide
       position="30,30.000018"
       orientation="0,-28"
       id="guide4165" />
  </sodipodi:namedview>
  <metadata
     id="metadata7">
    <rdf:RDF>
      <cc:Work
         rdf:about="">
        <dc:format>image/svg+xml</dc:format>
        <dc:type
           rdf:resource="http://purl.org/dc/dcmitype/StillImage" />
        <dc:title />
      </cc:Work>
    </rdf:RDF>
  </metadata>
  <g
     inkscape:label="Layer 1"
     inkscape:groupmode="layer"
     id="layer1"
     transform="translate(0,-1020.3622)">
    <path
       inkscape:connector-curvature="0"
       style="fill:#263238;stroke:none;fill-opacity:1"
       id="path4490"
       d="m 18.018647,1032.364 c -4.667627,-0.074 -10.8250844,2.1298 -11.8754444,6.558 -1.1366618,4.7917 4.6823364,11.4402 10.7532214,11.4402 2.986494,0 6.431073,-2.5402 7.076098,-5.7571 0.492136,-2.4527 -5.792261,-1.4698 -5.566781,0.1529 0.271082,1.9455 -1.515716,2.9073 -3.265388,1.6533 -5.569462,-3.9929 9.222005,-5.9853 8.246376,-11.4403 -0.303659,-1.698 -2.567572,-2.5627 -5.368082,-2.6074 z"
       sodipodi:nodetypes="ccscccccc" />
    <path
       style="fill:#263238;fill-opacity:1;fill-rule:evenodd;stroke:none;stroke-width:1px;stroke-linecap:butt;stroke-linejoin:miter;stroke-opacity:1"
       d="m 20,1030.3753 c 4,0 9,-7 4.002848,-8.0012 -3.648324,-0.3311 -7.371248,6.317 -4.002848,8.0012 z"
       id="path4170"
       inkscape:connector-curvature="0"
       sodipodi:nodetypes="ccc" />
    <path
       style="fill:#263238;fill-opacity:1;fill-rule:evenodd;stroke:none;stroke-width:1px;stroke-linecap:butt;stroke-linejoin:miter;stroke-opacity:1"
       d="m 16.511796,1026.0763 c 0.317969,-1.3262 -0.140063,-2.4445 -1.881709,-2.1561 -1.674161,0.1592 -2.028932,3.4076 -0.943591,5.0542 1.313504,1.3878 2.313504,-0.6122 2.8253,-2.8981 z"
       id="path4183"
       inkscape:connector-curvature="0"
       sodipodi:nodetypes="cccc" />
    <path
       style="fill:#263238;fill-opacity:1;fill-rule:evenodd;stroke:none;stroke-width:1px;stroke-linecap:butt;stroke-linejoin:miter;stroke-opacity:1"
       d="m 10,1025.3622 c -3.2745195,0 -2.5281098,4.0209 -1.0524236,4.9309 C 11,1031.3622 11.394368,1025.5415 10,1025.3622 Z"
       id="path4185"
       inkscape:connector-curvature="0"
       sodipodi:nodetypes="ccc" />
    <path
       style="fill:#263238;fill-opacity:1;fill-rule:evenodd;stroke:none;stroke-width:1px;stroke-linecap:butt;stroke-linejoin:miter;stroke-opacity:1"
       d="m 5,1029.3622 c -1.282105,0.8923 -1,2 -0.4967426,2.8879 C 8,1037.3622 7.1873934,1028.5242 5,1029.3622 Z"
       id="path4187"
       inkscape:connector-curvature="0"
       sodipodi:nodetypes="ccc" />
  </g>
</svg>
