<?xml version="1.0" encoding="UTF-8" standalone="no"?>
<!-- Created with Inkscape (http://www.inkscape.org/) -->

<svg
   xmlns:dc="http://purl.org/dc/elements/1.1/"
   xmlns:cc="http://creativecommons.org/ns#"
   xmlns:rdf="http://www.w3.org/1999/02/22-rdf-syntax-ns#"
   xmlns:svg="http://www.w3.org/2000/svg"
   xmlns="http://www.w3.org/2000/svg"
   xmlns:xlink="http://www.w3.org/1999/xlink"
   xmlns:sodipodi="http://sodipodi.sourceforge.net/DTD/sodipodi-0.dtd"
   xmlns:inkscape="http://www.inkscape.org/namespaces/inkscape"
   width="32"
   height="32"
   viewBox="0 0 32 32.000001"
   id="svg2"
   version="1.1"
   inkscape:version="0.91 r13725"
   sodipodi:docname="preferences-desktop-color.svg">
  <defs
     id="defs4">
    <linearGradient
       inkscape:collect="always"
       id="Shadow">
      <stop
         style="stop-color:#000000;stop-opacity:1;"
         offset="0"
         id="stop4181" />
      <stop
         style="stop-color:#000000;stop-opacity:0;"
         offset="1"
         id="stop4183" />
    </linearGradient>
    <radialGradient
       inkscape:collect="always"
       xlink:href="#Shadow"
       id="radialGradient4576"
       gradientUnits="userSpaceOnUse"
       gradientTransform="matrix(3.111146e-7,2.6666673,-1.9999998,2.3333583e-7,85.999986,973.69551)"
       cx="28"
       cy="28.5"
       fx="28"
       fy="28.5"
       r="1.5" />
    <radialGradient
       inkscape:collect="always"
       xlink:href="#Shadow"
       id="radialGradient4578"
       gradientUnits="userSpaceOnUse"
       gradientTransform="matrix(-1.9999999,2.4329792e-6,-3.2319948e-6,-2.6666666,4.1195314,1131.421)"
       cx="0.55971527"
       cy="31.14706"
       fx="0.55971527"
       fy="31.14706"
       r="1.5" />
    <linearGradient
       inkscape:collect="always"
       xlink:href="#Shadow"
       id="linearGradient4580"
       gradientUnits="userSpaceOnUse"
       gradientTransform="translate(0,1020.3622)"
       x1="16"
       y1="28"
       x2="16"
       y2="32" />
  </defs>
  <sodipodi:namedview
     id="base"
     pagecolor="#ffffff"
     bordercolor="#666666"
     borderopacity="1.0"
     inkscape:pageopacity="0.0"
     inkscape:pageshadow="2"
     inkscape:zoom="32"
     inkscape:cx="23.477309"
     inkscape:cy="17.345137"
     inkscape:document-units="px"
     inkscape:current-layer="layer1"
     showgrid="true"
     inkscape:window-width="2560"
     inkscape:window-height="1017"
     inkscape:window-x="0"
     inkscape:window-y="0"
     inkscape:window-maximized="1"
     inkscape:showpageshadow="false"
     borderlayer="true"
     units="px"
     showguides="true"
     inkscape:guide-bbox="true">
    <inkscape:grid
       type="xygrid"
       id="grid4155"
       empspacing="2" />
    <sodipodi:guide
       position="2,30.000018"
       orientation="28,0"
       id="guide4159" />
    <sodipodi:guide
       position="2,2.0000174"
       orientation="0,28"
       id="guide4161" />
    <sodipodi:guide
       position="9,30.000001"
       orientation="0,-28"
       id="guide4165" />
    <sodipodi:guide
       position="30,27.000001"
       orientation="1,0"
       id="guide4190" />
  </sodipodi:namedview>
  <metadata
     id="metadata7">
    <rdf:RDF>
      <cc:Work
         rdf:about="">
        <dc:format>image/svg+xml</dc:format>
        <dc:type
           rdf:resource="http://purl.org/dc/dcmitype/StillImage" />
        <dc:title />
      </cc:Work>
    </rdf:RDF>
  </metadata>
  <g
     inkscape:label="Layer 1"
     inkscape:groupmode="layer"
     id="layer1"
     transform="translate(0,-1020.3622)">
    <path
       sodipodi:nodetypes="ccccc"
       inkscape:connector-curvature="0"
       id="path4574"
       d="m 3,1048.3622 0,4 26,0 0,-4 z"
       style="opacity:1;fill:url(#linearGradient4580);fill-opacity:1;stroke:none;stroke-width:2;stroke-linecap:round;stroke-linejoin:round;stroke-miterlimit:4;stroke-dasharray:none;stroke-opacity:0.52777782"
       inkscape:transform-center-x="11.998558"
       inkscape:transform-center-y="3.9861917" />
    <path
       inkscape:connector-curvature="0"
       id="path4572"
       d="m 3.0000003,1048.3622 -3.0000003,0 0,1 c 0,1.662 1.3379901,3 3.0000003,3 l 0,-4 z"
       style="opacity:1;fill:url(#radialGradient4578);fill-opacity:1;stroke:none;stroke-width:2;stroke-linecap:round;stroke-linejoin:round;stroke-miterlimit:4;stroke-dasharray:none;stroke-opacity:0.52777782"
       inkscape:transform-center-x="24.498559"
       inkscape:transform-center-y="3.9861917" />
    <path
       inkscape:connector-curvature="0"
       id="path4570"
       d="m 29.000002,1048.3622 0,4 c 1.66201,0 3,-1.338 3,-3 l 0,-1 -3,0 z"
       style="opacity:1;fill:url(#radialGradient4576);fill-opacity:1;stroke:none;stroke-width:2;stroke-linecap:round;stroke-linejoin:round;stroke-miterlimit:4;stroke-dasharray:none;stroke-opacity:0.52777782"
       inkscape:transform-center-x="-0.50144324"
       inkscape:transform-center-y="3.9861917" />
    <path
       style="opacity:1;fill:#e91e63;fill-opacity:1;stroke:none;stroke-width:2;stroke-linecap:round;stroke-linejoin:round;stroke-miterlimit:4;stroke-dasharray:none;stroke-opacity:0.52777782"
       d="m 2,1026.3622 c -1.1080111,0 -2,0.892 -2,2 l 0,20 c 0,1.108 0.8919889,2 2,2 l 4,0 2,0 0,-2 0,-20 0,-2 -2,0 z"
       id="rect4192"
       inkscape:connector-curvature="0"
       sodipodi:nodetypes="ssssccccccs" />
    <path
       style="opacity:1;fill:#ec407a;fill-opacity:1;stroke:none;stroke-width:2;stroke-linecap:round;stroke-linejoin:round;stroke-miterlimit:4;stroke-dasharray:none;stroke-opacity:0.52777782"
       d="m 2,1027.3622 c -0.5540096,0 -1,0.446 -1,1 l 0,20 c 0,0.554 0.4459904,1 1,1 l 4,0 1,0 0,-1 0,-20 0,-1 -1,0 z"
       id="rect4194"
       inkscape:connector-curvature="0"
       sodipodi:nodetypes="ssssccccccs" />
    <path
       style="opacity:1;fill:#9c27b0;fill-opacity:1;stroke:none;stroke-width:2;stroke-linecap:round;stroke-linejoin:round;stroke-miterlimit:4;stroke-dasharray:none;stroke-opacity:0.52777782"
       d="m 8,1026.3622 0,2 0,20 0,2 2,0 4,0 2,0 0,-2 0,-20 0,-2 -2,0 -4,0 z"
       id="rect4200"
       inkscape:connector-curvature="0"
       sodipodi:nodetypes="ccccccccccccc" />
    <path
       style="opacity:1;fill:#ab47bc;fill-opacity:1;stroke:none;stroke-width:2;stroke-linecap:round;stroke-linejoin:round;stroke-miterlimit:4;stroke-dasharray:none;stroke-opacity:0.52777782"
       d="m 9.000017,1027.3622 5.999966,0 1.7e-5,0 0,22 -1.7e-5,0 -5.999966,0 -1.7e-5,0 0,-22 z"
       id="rect4202"
       inkscape:connector-curvature="0"
       sodipodi:nodetypes="ccccccccc" />
    <path
       style="opacity:1;fill:#03a9f4;fill-opacity:1;stroke:none;stroke-width:2;stroke-linecap:round;stroke-linejoin:round;stroke-miterlimit:4;stroke-dasharray:none;stroke-opacity:0.52777782"
       d="m 16,1026.3622 0,2 0,20 0,2 1.77778,0 4.44444,0 1.77778,0 0,-2 0,-20 0,-2 -1.77778,0 -4.44444,0 z"
       id="rect4204"
       inkscape:connector-curvature="0"
       sodipodi:nodetypes="ccccccccccccc" />
    <path
       style="opacity:1;fill:#29b6f6;fill-opacity:1;stroke:none;stroke-width:2;stroke-linecap:round;stroke-linejoin:round;stroke-miterlimit:4;stroke-dasharray:none;stroke-opacity:0.52777782"
       d="m 17,1027.3622 0,1 0,20 0,1 0.85714,0 4.28572,0 0.85714,0 0,-1 0,-20 0,-1 -0.85714,0 -4.28572,0 z"
       id="rect4206"
       inkscape:connector-curvature="0"
       sodipodi:nodetypes="ccccccccccccc" />
    <path
       sodipodi:nodetypes="cccccsssscc"
       inkscape:connector-curvature="0"
       id="path4294"
       d="m 24,1026.3622 0,2 0,20 0,2 2,0 4,0 c 1.108011,0 2,-0.892 2,-2 l 0,-20 c 0,-1.108 -1.008965,-1.5045 -2,-2 l -4,0 z"
       style="opacity:1;fill:#8bc34a;fill-opacity:1;stroke:none;stroke-width:2;stroke-linecap:round;stroke-linejoin:round;stroke-miterlimit:4;stroke-dasharray:none;stroke-opacity:0.52777782" />
    <path
       sodipodi:nodetypes="cccccsssscc"
       inkscape:connector-curvature="0"
       id="path4296"
       d="m 25,1027.3622 0,1 0,20 0,1 1,0 4,0 c 0.55401,0 1,-0.446 1,-1 l 0,-20 c 0,-0.554 -0.44599,-1 -1,-1 l -4,0 z"
       style="opacity:1;fill:#9ccc65;fill-opacity:1;stroke:none;stroke-width:2;stroke-linecap:round;stroke-linejoin:round;stroke-miterlimit:4;stroke-dasharray:none;stroke-opacity:0.52777782" />
  </g>
</svg>
