<?xml version="1.0" encoding="UTF-8" standalone="no"?>
<!-- Created with Inkscape (http://www.inkscape.org/) -->

<svg
   xmlns:dc="http://purl.org/dc/elements/1.1/"
   xmlns:cc="http://creativecommons.org/ns#"
   xmlns:rdf="http://www.w3.org/1999/02/22-rdf-syntax-ns#"
   xmlns:svg="http://www.w3.org/2000/svg"
   xmlns="http://www.w3.org/2000/svg"
   xmlns:xlink="http://www.w3.org/1999/xlink"
   xmlns:sodipodi="http://sodipodi.sourceforge.net/DTD/sodipodi-0.dtd"
   xmlns:inkscape="http://www.inkscape.org/namespaces/inkscape"
   width="32"
   height="32"
   viewBox="0 0 32 32.000001"
   id="svg2"
   version="1.1"
   inkscape:version="0.91 r13725"
   sodipodi:docname="preferences-desktop-locale.svg">
  <defs
     id="defs4">
    <linearGradient
       inkscape:collect="always"
       id="Shadow">
      <stop
         style="stop-color:#000000;stop-opacity:1;"
         offset="0"
         id="stop4181" />
      <stop
         style="stop-color:#000000;stop-opacity:0;"
         offset="1"
         id="stop4183" />
    </linearGradient>
    <radialGradient
       inkscape:collect="always"
       xlink:href="#Shadow"
       id="radialGradient4576"
       gradientUnits="userSpaceOnUse"
       gradientTransform="matrix(3.1111458e-7,2.6666673,-1.9999997,2.3333583e-7,84.99998,973.69551)"
       cx="28"
       cy="28.5"
       fx="28"
       fy="28.5"
       r="1.5" />
    <linearGradient
       inkscape:collect="always"
       xlink:href="#Shadow"
       id="linearGradient4580"
       gradientUnits="userSpaceOnUse"
       gradientTransform="translate(2,1020.3622)"
       x1="16"
       y1="28"
       x2="16"
       y2="32" />
    <radialGradient
       inkscape:collect="always"
       xlink:href="#Shadow"
       id="radialGradient4578"
       gradientUnits="userSpaceOnUse"
       gradientTransform="matrix(-1.9999998,2.4329792e-6,-3.2319946e-6,-2.6666666,18.119531,1131.421)"
       cx="0.55971527"
       cy="31.14706"
       fx="0.55971527"
       fy="31.14706"
       r="1.5" />
    <linearGradient
       inkscape:collect="always"
       xlink:href="#Shadow"
       id="linearGradient4380"
       gradientUnits="userSpaceOnUse"
       gradientTransform="translate(-11,1018.3622)"
       x1="16"
       y1="28"
       x2="16"
       y2="32" />
    <radialGradient
       inkscape:collect="always"
       xlink:href="#Shadow"
       id="radialGradient4382"
       gradientUnits="userSpaceOnUse"
       gradientTransform="matrix(-1.9999998,2.4329792e-6,-3.2319946e-6,-2.6666666,5.119531,1129.421)"
       cx="0.55971527"
       cy="31.14706"
       fx="0.55971527"
       fy="31.14706"
       r="1.5" />
    <radialGradient
       inkscape:collect="always"
       xlink:href="#Shadow"
       id="radialGradient4279"
       gradientUnits="userSpaceOnUse"
       gradientTransform="matrix(3.0000158,-1.7994519e-5,1.7994657e-5,3.000037,-1223.7303,-548.14408)"
       cx="408.57141"
       cy="532.49799"
       fx="408.57141"
       fy="532.49799"
       r="1" />
    <radialGradient
       inkscape:collect="always"
       xlink:href="#Shadow"
       id="radialGradient4414"
       cx="2.0000086"
       cy="1027.3619"
       fx="2.0000086"
       fy="1027.3619"
       r="2.0000086"
       gradientUnits="userSpaceOnUse"
       gradientTransform="translate(0,-0.99986033)" />
  </defs>
  <sodipodi:namedview
     id="base"
     pagecolor="#ffffff"
     bordercolor="#666666"
     borderopacity="1.0"
     inkscape:pageopacity="0.0"
     inkscape:pageshadow="2"
     inkscape:zoom="36.769553"
     inkscape:cx="21.448762"
     inkscape:cy="15.919027"
     inkscape:document-units="px"
     inkscape:current-layer="layer1"
     showgrid="true"
     inkscape:window-width="2560"
     inkscape:window-height="1017"
     inkscape:window-x="0"
     inkscape:window-y="0"
     inkscape:window-maximized="1"
     inkscape:showpageshadow="false"
     borderlayer="true"
     units="px">
    <inkscape:grid
       type="xygrid"
       id="grid4155"
       empspacing="2" />
    <sodipodi:guide
       position="2,30.000018"
       orientation="28,0"
       id="guide4159" />
    <sodipodi:guide
       position="2,2.0000174"
       orientation="0,28"
       id="guide4161" />
    <sodipodi:guide
       position="30,2.0000174"
       orientation="-28,0"
       id="guide4163" />
    <sodipodi:guide
       position="30,30.000018"
       orientation="0,-28"
       id="guide4165" />
  </sodipodi:namedview>
  <metadata
     id="metadata7">
    <rdf:RDF>
      <cc:Work
         rdf:about="">
        <dc:format>image/svg+xml</dc:format>
        <dc:type
           rdf:resource="http://purl.org/dc/dcmitype/StillImage" />
        <dc:title />
      </cc:Work>
    </rdf:RDF>
  </metadata>
  <g
     inkscape:label="Layer 1"
     inkscape:groupmode="layer"
     id="layer1"
     transform="translate(0,-1020.3622)">
    <rect
       style="opacity:1;fill:url(#radialGradient4279);fill-opacity:1;stroke:none;stroke-width:2;stroke-linecap:butt;stroke-linejoin:round;stroke-miterlimit:4;stroke-dasharray:none;stroke-opacity:1"
       id="rect4277"
       width="2"
       height="5"
       x="1.000012"
       y="1047.3622"
       ry="1" />
    <path
       style="opacity:1;fill:url(#linearGradient4380);fill-opacity:1;stroke:none;stroke-width:2;stroke-linecap:round;stroke-linejoin:round;stroke-miterlimit:4;stroke-dasharray:none;stroke-opacity:0.52777782"
       d="m 4,1046.3622 0,4 11,0 0,-4 z"
       id="path4376"
       inkscape:connector-curvature="0"
       sodipodi:nodetypes="ccccc" />
    <path
       style="opacity:1;fill:url(#radialGradient4382);fill-opacity:1;stroke:none;stroke-width:2;stroke-linecap:round;stroke-linejoin:round;stroke-miterlimit:4;stroke-dasharray:none;stroke-opacity:0.52777782"
       d="m 4,1046.3622 -3,0 0,1 c 0,1.662 1.33799,3 3,3 l 0,-4 z"
       id="path4378"
       inkscape:connector-curvature="0" />
    <path
       sodipodi:nodetypes="ccccc"
       inkscape:connector-curvature="0"
       id="path4574"
       d="m 17,1048.3622 0,4 11,0 0,-4 z"
       style="opacity:1;fill:url(#linearGradient4580);fill-opacity:1;stroke:none;stroke-width:2;stroke-linecap:round;stroke-linejoin:round;stroke-miterlimit:4;stroke-dasharray:none;stroke-opacity:0.52777782" />
    <path
       inkscape:connector-curvature="0"
       id="path4572"
       d="m 17,1048.3622 -3,0 0,1 c 0,1.662 1.33799,3 3,3 l 0,-4 z"
       style="opacity:1;fill:url(#radialGradient4578);fill-opacity:1;stroke:none;stroke-width:2;stroke-linecap:round;stroke-linejoin:round;stroke-miterlimit:4;stroke-dasharray:none;stroke-opacity:0.52777782" />
    <path
       inkscape:connector-curvature="0"
       id="path4570"
       d="m 28,1048.3622 0,4 c 1.66201,0 3,-1.338 3,-3 l 0,-1 -3,0 z"
       style="opacity:1;fill:url(#radialGradient4576);fill-opacity:1;stroke:none;stroke-width:2;stroke-linecap:round;stroke-linejoin:round;stroke-miterlimit:4;stroke-dasharray:none;stroke-opacity:0.52777782" />
    <rect
       style="opacity:1;fill:#42a5f5;fill-opacity:1;stroke:none;stroke-width:2;stroke-linecap:round;stroke-linejoin:round;stroke-miterlimit:4;stroke-dasharray:none;stroke-opacity:1"
       id="rect4330"
       width="17"
       height="21.999983"
       x="14"
       y="1028.3622"
       ry="2.0000174" />
    <rect
       style="opacity:1;fill:#64b5f6;fill-opacity:1;stroke:none;stroke-width:2;stroke-linecap:round;stroke-linejoin:round;stroke-miterlimit:4;stroke-dasharray:none;stroke-opacity:1"
       id="rect4332"
       width="15"
       height="20"
       x="15"
       y="1029.3622"
       ry="1.0000174" />
    <path
       style="fill:#e1f5fe;fill-opacity:1;fill-rule:evenodd;stroke:none;stroke-width:1px;stroke-linecap:butt;stroke-linejoin:miter;stroke-opacity:1"
       d="m 16,1032.3622 2,1 1,1 1,0 0,1 1,0 0,-1 -2,-1 1,0 -2,-1 -2,0 z m 2,1 -2,0 2,1 0,-1 z m -2,2 0,1 a 3,3 0 0 1 3,3 3,3 0 0 1 -3,3 l 0,1 a 4,4 0 0 0 4,-4 4,4 0 0 0 -4,-4 z m 6,0 -1,1 -1,1 1,1 0,1 0,1 1,1 1,-2 -1,-1 0,-1 1,-1 -1,-1 z m -2,7 0,1 -1,0 -1,1 -2,1 2,0 2,-1 -1,0 2,-1 0,-1 -1,0 z m -2,2 0,-1 -2,1 2,0 z"
       id="path4435"
       inkscape:connector-curvature="0" />
    <path
       style="opacity:1;fill:#42a5f5;fill-opacity:1;stroke:none;stroke-width:2;stroke-linecap:round;stroke-linejoin:round;stroke-miterlimit:4;stroke-dasharray:none;stroke-opacity:1"
       d="m 3.000017,1026.3622 9.999966,0 c 1.108009,0 1.649637,0.9489 2.000017,2 l 6,18 c 0.35038,1.0511 -0.892008,2 -2.000017,2 l -15.999966,0 c -1.108009,0 -2.000017,-0.892 -2.000017,-2 l 0,-18 c 0,-1.108 0.892008,-2 2.000017,-2 z"
       id="rect4324"
       inkscape:connector-curvature="0"
       sodipodi:nodetypes="sssssssss" />
    <path
       style="opacity:1;fill:#64b5f6;fill-opacity:1;stroke:none;stroke-width:2;stroke-linecap:round;stroke-linejoin:round;stroke-miterlimit:4;stroke-dasharray:none;stroke-opacity:1"
       d="m 3.000017,1027.3622 9.999966,0 c 0.554009,0 0.824827,0.4744 1.000017,1 l 6,18 c 0.17519,0.5256 -0.446008,1 -1.000017,1 l -15.999966,0 c -0.554009,0 -1.000017,-0.446 -1.000017,-1 l 0,-18 c 0,-0.554 0.446008,-1 1.000017,-1 z"
       id="rect4327"
       inkscape:connector-curvature="0"
       sodipodi:nodetypes="sssssssss" />
    <path
       style="opacity:1;fill:#1976d2;fill-opacity:1;stroke:none;stroke-width:2;stroke-linecap:round;stroke-linejoin:round;stroke-miterlimit:4;stroke-dasharray:none;stroke-opacity:1"
       d="M 14 28 L 14 28.259766 C 14 29.223392 14.776608 30 15.740234 30 L 16 30 L 19 28 L 16 28 L 14 28 z "
       transform="translate(0,1020.3622)"
       id="rect4342" />
    <rect
       style="opacity:1;fill:#455a64;fill-opacity:1;stroke:none;stroke-width:2;stroke-linecap:round;stroke-linejoin:round;stroke-miterlimit:4;stroke-dasharray:none;stroke-opacity:1"
       id="rect4384"
       width="2"
       height="25.000017"
       x="1"
       y="1025.3622"
       ry="1" />
    <circle
       r="2.0000086"
       cy="1026.3622"
       cx="2.0000086"
       id="circle4410"
       style="opacity:1;fill:url(#radialGradient4414);fill-opacity:1;stroke:none;stroke-width:2;stroke-linecap:round;stroke-linejoin:round;stroke-miterlimit:4;stroke-dasharray:none;stroke-opacity:1" />
    <circle
       style="opacity:1;fill:#ffb74d;fill-opacity:1;stroke:none;stroke-width:2;stroke-linecap:round;stroke-linejoin:round;stroke-miterlimit:4;stroke-dasharray:none;stroke-opacity:1"
       id="path4406"
       cx="2.0000086"
       cy="1025.3624"
       r="2.0000086" />
    <circle
       r="1.0000086"
       cy="1025.3624"
       cx="2.0000086"
       id="circle4408"
       style="opacity:1;fill:#ffcc80;fill-opacity:1;stroke:none;stroke-width:2;stroke-linecap:round;stroke-linejoin:round;stroke-miterlimit:4;stroke-dasharray:none;stroke-opacity:1" />
    <path
       style="fill:#e1f5fe;fill-opacity:1;fill-rule:evenodd;stroke:none;stroke-width:1px;stroke-linecap:butt;stroke-linejoin:miter;stroke-opacity:1"
       d="m 13,1043.3622 -2,-1 0,-1 1,0 0,1 1,0 1,1 z"
       id="path4421"
       inkscape:connector-curvature="0" />
    <path
       style="fill:#e1f5fe;fill-opacity:1;fill-rule:evenodd;stroke:none;stroke-width:1px;stroke-linecap:butt;stroke-linejoin:miter;stroke-opacity:1"
       d="m 16,1044.3622 -2,0 -2,-1 1,0 1,0 2,1 z"
       id="path4431"
       inkscape:connector-curvature="0" />
    <path
       style="fill:#e1f5fe;fill-opacity:1;fill-rule:evenodd;stroke:none;stroke-width:1px;stroke-linecap:butt;stroke-linejoin:miter;stroke-opacity:1"
       d="m 16,1043.3622 -2,-1 0,1 z"
       id="path4433"
       inkscape:connector-curvature="0" />
    <path
       style="opacity:1;fill:#e1f5fe;fill-opacity:1;stroke:none;stroke-width:2;stroke-linecap:round;stroke-linejoin:round;stroke-miterlimit:4;stroke-dasharray:none;stroke-opacity:1"
       d="m 16,1034.3622 a 4,4 0 0 0 -4,4 4,4 0 0 0 4,4 l 0,-1 a 3,3 0 0 1 -3,-3 3,3 0 0 1 3,-3 l 0,-1 z"
       id="path4453"
       inkscape:connector-curvature="0" />
    <path
       style="fill:#e1f5fe;fill-opacity:1;fill-rule:evenodd;stroke:none;stroke-width:1px;stroke-linecap:butt;stroke-linejoin:miter;stroke-opacity:1"
       d="m 10,1040.3622 -1,-2 1,-1 0,-1 -1,-1 1,-1 1,1 1,1 -1,1 0,1 0,1 z"
       id="path4446"
       inkscape:connector-curvature="0" />
    <path
       inkscape:connector-curvature="0"
       id="path4455"
       d="m 13,1032.3622 -2,1 0,1 1,0 0,-1 1,0 1,-1 z"
       style="fill:#e1f5fe;fill-opacity:1;fill-rule:evenodd;stroke:none;stroke-width:1px;stroke-linecap:butt;stroke-linejoin:miter;stroke-opacity:1" />
    <path
       inkscape:connector-curvature="0"
       id="path4457"
       d="m 16,1031.3622 -2,0 -2,1 1,0 1,0 2,-1 z"
       style="fill:#e1f5fe;fill-opacity:1;fill-rule:evenodd;stroke:none;stroke-width:1px;stroke-linecap:butt;stroke-linejoin:miter;stroke-opacity:1" />
    <path
       inkscape:connector-curvature="0"
       id="path4459"
       d="m 16,1032.3622 -2,1 0,-1 z"
       style="fill:#e1f5fe;fill-opacity:1;fill-rule:evenodd;stroke:none;stroke-width:1px;stroke-linecap:butt;stroke-linejoin:miter;stroke-opacity:1" />
    <path
       style="opacity:1;fill:#e1f5fe;fill-opacity:1;stroke:none;stroke-width:2;stroke-linecap:round;stroke-linejoin:round;stroke-miterlimit:4;stroke-dasharray:none;stroke-opacity:1"
       d="m 16,1036.3622 a 2,2 0 0 0 -2,2 2,2 0 0 0 2,2 l 0,-4 z"
       id="path4487"
       inkscape:connector-curvature="0" />
    <path
       style="fill:#e1f5fe;fill-opacity:1;fill-rule:evenodd;stroke:none;stroke-width:1px;stroke-linecap:butt;stroke-linejoin:miter;stroke-opacity:1"
       d="M 16 14 L 16 15 A 3 3 0 0 1 16.341797 15.023438 L 16 14 z M 16 16 L 16 20 A 2 2 0 0 0 17.689453 19.066406 L 16.710938 16.132812 A 2 2 0 0 0 16 16 z M 18.058594 20.177734 A 3 3 0 0 1 16 21 L 16 22 A 4 4 0 0 0 18.396484 21.191406 L 18.058594 20.177734 z M 18 22 L 16 23 L 18 23 L 18 22 z M 18 23 L 16 24 L 18 24 L 19.142578 23.427734 L 19 23 L 18.75 22.25 L 18 23 z "
       transform="translate(0,1020.3622)"
       id="path4180" />
  </g>
</svg>
