<?xml version="1.0" encoding="UTF-8" standalone="no"?>
<!-- Created with Inkscape (http://www.inkscape.org/) -->

<svg
   xmlns:dc="http://purl.org/dc/elements/1.1/"
   xmlns:cc="http://creativecommons.org/ns#"
   xmlns:rdf="http://www.w3.org/1999/02/22-rdf-syntax-ns#"
   xmlns:svg="http://www.w3.org/2000/svg"
   xmlns="http://www.w3.org/2000/svg"
   xmlns:sodipodi="http://sodipodi.sourceforge.net/DTD/sodipodi-0.dtd"
   xmlns:inkscape="http://www.inkscape.org/namespaces/inkscape"
   version="1.1"
   width="16"
   height="16"
   id="svg7384"
   inkscape:version="0.48.2 r9819"
   sodipodi:docname="contact-new-symbolic.svg">
  <sodipodi:namedview
     pagecolor="#ffffff"
     bordercolor="#666666"
     borderopacity="1"
     objecttolerance="10"
     gridtolerance="10"
     guidetolerance="10"
     inkscape:pageopacity="0"
     inkscape:pageshadow="2"
     inkscape:window-width="1129"
     inkscape:window-height="664"
     id="namedview7"
     showgrid="false"
     inkscape:zoom="14.75"
     inkscape:cx="-11.932203"
     inkscape:cy="8"
     inkscape:window-x="0"
     inkscape:window-y="24"
     inkscape:window-maximized="0"
     inkscape:current-layer="svg7384" />
  <title
     id="title9167">Gnome Symbolic Icon Theme</title>
  <defs
     id="defs11" />
  <metadata
     id="metadata90">
    <rdf:RDF>
      <cc:Work
         rdf:about="">
        <dc:format>image/svg+xml</dc:format>
        <dc:type
           rdf:resource="http://purl.org/dc/dcmitype/StillImage" />
        <dc:title>Gnome Symbolic Icon Theme</dc:title>
      </cc:Work>
    </rdf:RDF>
  </metadata>
  <path
     inkscape:connector-curvature="0"
     style="color:#bebebe;fill:#bebebe;fill-opacity:1;fill-rule:nonzero;stroke:none;stroke-width:1;marker:none;visibility:visible;display:inline;overflow:visible;enable-background:accumulate"
     d="M 7.6875,-2.4606212e-7 C 7.0739023,-0.01278427 6.4375,0.34374975 6.4375,0.34374975 l -0.75,0.375 c 0,0 -0.77274,0.67330005 -0.78125,0.90625005 -0.44776,0.78268 -0.23585,1.7375201 -0.28125,2.59375 0.0436,0.7351101 -0.4784,1.28585 -0.21875,2.03125 -0.0379,0.71962 0.55155,1.13575 0.9375,1.65625 0.43436,0.65848 1.02705,1.52445 0.5625,2.3125002 -0.85875,1.22945 -2.2903,1.89268 -3.59375,2.5625 -0.4428,0.0448 -0.28285,0.45066 -0.3125,0.75 -7.1e-4,0.238059 -0.07244,0.54897 0.28125,0.4375 l 6.75,0 0,-1.96875 A 0.96395183,0.96395183 0 0 1 10,11.03125 l 1.03125,0 0,-0.1875 c -0.175221,-0.168677 -0.347883,-0.338213 -0.5,-0.53125 -0.53138,-0.7517902 0.01792,-1.6441002 0.4375,-2.3125002 0.32651,-0.55677 0.99025,-0.91506 1,-1.625 0.25095,-0.72027 -0.11682,-1.3130299 -0.1875,-2 -0.0924,-0.9107799 0.15912,-1.93386 -0.28125,-2.78125 -0.59708,-0.86712 -1.6950301,-1.23620005 -2.6875,-1.46875005 -0.28789,-0.0574 -0.581,-0.09155 -0.875,-0.09375 C 7.852204,0.01156975 7.7751568,0.00182604 7.6875,-2.4605212e-7 z M 12,10 l 0,2 -2,0 0,2 2,0 0,2 2,0 0,-2 2,0 0,-2 -2,0 0,-2 -2,0 z"
     id="path3107-4-3-2" />
</svg>
