<?xml version="1.0" encoding="UTF-8" standalone="no"?>
<!-- Created with Inkscape (http://www.inkscape.org/) -->

<svg
   xmlns:dc="http://purl.org/dc/elements/1.1/"
   xmlns:cc="http://creativecommons.org/ns#"
   xmlns:rdf="http://www.w3.org/1999/02/22-rdf-syntax-ns#"
   xmlns:svg="http://www.w3.org/2000/svg"
   xmlns="http://www.w3.org/2000/svg"
   xmlns:xlink="http://www.w3.org/1999/xlink"
   xmlns:sodipodi="http://sodipodi.sourceforge.net/DTD/sodipodi-0.dtd"
   xmlns:inkscape="http://www.inkscape.org/namespaces/inkscape"
   width="64"
   height="64"
   viewBox="0 0 64 64.000003"
   id="svg2"
   version="1.1"
   inkscape:version="0.91 r13725"
   sodipodi:docname="application-wps-office.xlsx.svg">
  <defs
     id="defs4">
    <linearGradient
       inkscape:collect="always"
       id="linearGradient4159">
      <stop
         style="stop-color:#000000;stop-opacity:0.19607843"
         offset="0"
         id="stop4161" />
      <stop
         style="stop-color:#000000;stop-opacity:0;"
         offset="1"
         id="stop4163" />
    </linearGradient>
    <radialGradient
       inkscape:collect="always"
       xlink:href="#Shadow"
       id="radialGradient4259"
       gradientUnits="userSpaceOnUse"
       gradientTransform="matrix(-2.0000003,-2.935184e-6,3.9135795e-6,-2.6666677,21.99984,1228.853)"
       cx="4"
       cy="42.5"
       fx="4"
       fy="42.5"
       r="1.5" />
    <linearGradient
       inkscape:collect="always"
       id="Shadow">
      <stop
         style="stop-color:#000000;stop-opacity:1;"
         offset="0"
         id="stop4186" />
      <stop
         style="stop-color:#000000;stop-opacity:0;"
         offset="1"
         id="stop4188" />
    </linearGradient>
    <linearGradient
       inkscape:collect="always"
       xlink:href="#Shadow"
       id="linearGradient4257"
       gradientUnits="userSpaceOnUse"
       gradientTransform="translate(9,1073.5196)"
       x1="24"
       y1="42"
       x2="24"
       y2="46" />
    <radialGradient
       inkscape:collect="always"
       xlink:href="#Shadow"
       id="radialGradient4255"
       gradientUnits="userSpaceOnUse"
       gradientTransform="matrix(-5.6193702e-6,2.666668,-2.0000002,-4.214526e-6,135.00027,998.1864)"
       cx="44"
       cy="42.500004"
       fx="44"
       fy="42.500004"
       r="1.5" />
    <linearGradient
       inkscape:collect="always"
       xlink:href="#linearGradient4159"
       id="linearGradient4165"
       x1="32"
       y1="1082.5197"
       x2="32"
       y2="1100.5197"
       gradientUnits="userSpaceOnUse" />
  </defs>
  <sodipodi:namedview
     id="base"
     pagecolor="#ffffff"
     bordercolor="#666666"
     borderopacity="1.0"
     inkscape:pageopacity="0.0"
     inkscape:pageshadow="2"
     inkscape:zoom="17.302019"
     inkscape:cx="26.163563"
     inkscape:cy="31.724688"
     inkscape:document-units="px"
     inkscape:current-layer="layer1"
     showgrid="true"
     units="px"
     inkscape:showpageshadow="false"
     borderlayer="true"
     inkscape:window-width="2560"
     inkscape:window-height="963"
     inkscape:window-x="0"
     inkscape:window-y="30"
     inkscape:window-maximized="1">
    <inkscape:grid
       type="xygrid"
       id="grid4136"
       empspacing="2" />
    <sodipodi:guide
       position="5,5.0000688"
       orientation="0,54"
       id="guide4144" />
    <sodipodi:guide
       position="59,59.000069"
       orientation="0,-54"
       id="guide4148" />
    <sodipodi:guide
       position="0,64.000069"
       orientation="64,0"
       id="guide4150" />
    <sodipodi:guide
       position="0,6.875e-05"
       orientation="0,64"
       id="guide4152" />
    <sodipodi:guide
       position="64,6.875e-05"
       orientation="-64,0"
       id="guide4154" />
    <sodipodi:guide
       position="64,64.000069"
       orientation="0,-64"
       id="guide4156" />
    <sodipodi:guide
       position="12,34.000002"
       orientation="38,0"
       id="guide4155" />
    <sodipodi:guide
       position="52,34.000002"
       orientation="-38,0"
       id="guide4159" />
  </sodipodi:namedview>
  <metadata
     id="metadata7">
    <rdf:RDF>
      <cc:Work
         rdf:about="">
        <dc:format>image/svg+xml</dc:format>
        <dc:type
           rdf:resource="http://purl.org/dc/dcmitype/StillImage" />
        <dc:title />
      </cc:Work>
    </rdf:RDF>
  </metadata>
  <g
     inkscape:label="Capa 1"
     inkscape:groupmode="layer"
     id="layer1"
     transform="translate(0,-1058.5196)">
    <rect
       y="1066.5197"
       x="-6.9999876"
       height="5"
       width="5"
       id="rect4304"
       style="color:#000000;clip-rule:nonzero;display:inline;overflow:visible;visibility:visible;opacity:1;isolation:auto;mix-blend-mode:normal;color-interpolation:sRGB;color-interpolation-filters:linearRGB;solid-color:#000000;solid-opacity:1;fill:#43a047;fill-opacity:1;fill-rule:nonzero;stroke:none;stroke-width:1;stroke-linecap:butt;stroke-linejoin:miter;stroke-miterlimit:4;stroke-dasharray:none;stroke-dashoffset:0;stroke-opacity:1;color-rendering:auto;image-rendering:auto;shape-rendering:auto;text-rendering:auto;enable-background:accumulate" />
    <rect
       y="1074.5197"
       x="-6.9999876"
       height="5"
       width="5"
       id="rect4306"
       style="color:#000000;clip-rule:nonzero;display:inline;overflow:visible;visibility:visible;opacity:1;isolation:auto;mix-blend-mode:normal;color-interpolation:sRGB;color-interpolation-filters:linearRGB;solid-color:#000000;solid-opacity:1;fill:#388e3c;fill-opacity:1;fill-rule:nonzero;stroke:none;stroke-width:1;stroke-linecap:butt;stroke-linejoin:miter;stroke-miterlimit:4;stroke-dasharray:none;stroke-dashoffset:0;stroke-opacity:1;color-rendering:auto;image-rendering:auto;shape-rendering:auto;text-rendering:auto;enable-background:accumulate" />
    <path
       id="path4249"
       d="m 50,1115.5196 0,4 1,0 c 1.108,0 2,-0.892 2,-2 l 0,-2 -3,0 z"
       style="opacity:0.7;fill:url(#radialGradient4255);fill-opacity:1;stroke:none;stroke-width:2;stroke-linecap:butt;stroke-linejoin:round;stroke-miterlimit:4;stroke-dasharray:none;stroke-opacity:1"
       inkscape:connector-curvature="0" />
    <path
       id="path4251"
       d="m 14,1115.5196 0,4 36,0 0,-4 z"
       style="opacity:0.7;fill:url(#linearGradient4257);fill-opacity:1;stroke:none;stroke-width:2;stroke-linecap:butt;stroke-linejoin:round;stroke-miterlimit:4;stroke-dasharray:none;stroke-opacity:1"
       inkscape:connector-curvature="0"
       sodipodi:nodetypes="ccccc" />
    <path
       id="path4253"
       d="m 11,1115.5196 0,2 c 0,1.108 0.892,2 2,2 l 1,0 0,-4 -3,0 z"
       style="opacity:0.7;fill:url(#radialGradient4259);fill-opacity:1;stroke:none;stroke-width:2;stroke-linecap:butt;stroke-linejoin:round;stroke-miterlimit:4;stroke-dasharray:none;stroke-opacity:1"
       inkscape:connector-curvature="0" />
    <rect
       style="opacity:1;fill:#388e3c;fill-opacity:1;stroke:none;stroke-width:2;stroke-linecap:butt;stroke-linejoin:round;stroke-miterlimit:4;stroke-dasharray:none;stroke-opacity:1"
       id="rect4182"
       width="42"
       height="52.999878"
       x="11"
       y="1064.5197"
       ry="2.9999466" />
    <rect
       style="opacity:1;fill:#43a047;fill-opacity:1;stroke:none;stroke-width:2;stroke-linecap:butt;stroke-linejoin:round;stroke-miterlimit:4;stroke-dasharray:none;stroke-opacity:1"
       id="rect4258"
       width="40"
       height="50.999947"
       x="12"
       y="1065.5197"
       ry="1.9999467" />
    <rect
       style="color:#000000;clip-rule:nonzero;display:inline;overflow:visible;visibility:visible;opacity:1;isolation:auto;mix-blend-mode:normal;color-interpolation:sRGB;color-interpolation-filters:linearRGB;solid-color:#000000;solid-opacity:1;fill:#c8e6c9;fill-opacity:1;fill-rule:nonzero;stroke:none;stroke-width:1;stroke-linecap:butt;stroke-linejoin:miter;stroke-miterlimit:4;stroke-dasharray:none;stroke-dashoffset:0;stroke-opacity:1;color-rendering:auto;image-rendering:auto;shape-rendering:auto;text-rendering:auto;enable-background:accumulate"
       id="rect4156"
       width="5"
       height="5"
       x="-6.9999876"
       y="1058.5197" />
    <path
       id="path4157"
       d="m 26.9375,1082.5196 c -2.735375,0 -4.9375,2.2021 -4.9375,4.9375 l 0,0.125 c 0,2.7354 2.202125,4.9375 4.9375,4.9375 l 5.0625,0 5,0 c 1.661985,0 3,1.338 3,3 0,1.662 -1.338015,3 -3,3 l -5,0 -1,0 -8,0 c -0.554,0 -1,0.446 -1,1 0,0.554 0.446,1 1,1 l 8,0 1,0 5.0625,0 c 2.735375,0 4.9375,-2.2021 4.9375,-4.9375 l 0,-0.125 c 0,-1.6199 -0.784456,-3.0382 -1.982422,-3.9375 -0.824949,-0.6193 -1.839586,-1 -2.955078,-1 l -5.0625,0 -5,0 c -1.661985,0 -3,-1.338 -3,-3 0,-1.662 1.338015,-3 3,-3 l 4,0 1,0 1,0 8,0 c 0.554,0 1,-0.446 1,-1 0,-0.554 -0.446,-1 -1,-1 l -8,0 -1,0 -1,0 -4.0625,0 z"
       style="opacity:1;fill:url(#linearGradient4165);fill-opacity:1;stroke:none;stroke-width:2;stroke-linecap:butt;stroke-linejoin:round;stroke-miterlimit:4;stroke-dasharray:none;stroke-opacity:1"
       inkscape:connector-curvature="0" />
    <path
       style="opacity:1;fill:#c8e6c9;fill-opacity:1;stroke:none;stroke-width:2;stroke-linecap:butt;stroke-linejoin:round;stroke-miterlimit:4;stroke-dasharray:none;stroke-opacity:1"
       d="M 26.9375 23 C 24.202125 23 22 25.202125 22 27.9375 L 22 28.0625 C 22 30.797875 24.202125 33 26.9375 33 L 32 33 L 37 33 C 38.661985 33 40 34.338 40 36 C 40 37.662 38.661985 39 37 39 L 32 39 L 31 39 L 23 39 C 22.446 39 22 39.446 22 40 C 22 40.554 22.446 41 23 41 L 31 41 L 32 41 L 37.0625 41 C 39.797875 41 42 38.7979 42 36.0625 L 42 35.9375 C 42 34.317602 41.215544 32.899262 40.017578 32 C 39.192629 31.380745 38.177992 31 37.0625 31 L 32 31 L 27 31 C 25.338015 31 24 29.661985 24 28 C 24 26.338015 25.338015 25 27 25 L 31 25 L 32 25 L 33 25 L 41 25 C 41.554 25 42 24.554 42 24 C 42 23.446 41.554 23 41 23 L 33 23 L 32 23 L 31 23 L 26.9375 23 z "
       transform="translate(0,1058.5196)"
       id="rect4167" />
  </g>
</svg>
