<?xml version="1.0" encoding="UTF-8" standalone="no"?>
<!-- Created with Inkscape (http://www.inkscape.org/) -->

<svg
   xmlns:dc="http://purl.org/dc/elements/1.1/"
   xmlns:cc="http://creativecommons.org/ns#"
   xmlns:rdf="http://www.w3.org/1999/02/22-rdf-syntax-ns#"
   xmlns:svg="http://www.w3.org/2000/svg"
   xmlns="http://www.w3.org/2000/svg"
   xmlns:xlink="http://www.w3.org/1999/xlink"
   xmlns:sodipodi="http://sodipodi.sourceforge.net/DTD/sodipodi-0.dtd"
   xmlns:inkscape="http://www.inkscape.org/namespaces/inkscape"
   width="64"
   height="64"
   viewBox="0 0 64 64.000003"
   id="svg2"
   version="1.1"
   inkscape:version="0.91 r13725"
   sodipodi:docname="application-x-java-archive.svg">
  <defs
     id="defs4">
    <linearGradient
       id="linearGradient4226"
       inkscape:collect="always">
      <stop
         id="stop4228"
         offset="0"
         style="stop-color:#000000;stop-opacity:0.19607843" />
      <stop
         style="stop-color:#000000;stop-opacity:0.30980393"
         offset="0.79999465"
         id="stop4232" />
      <stop
         id="stop4230"
         offset="1"
         style="stop-color:#000000;stop-opacity:0;" />
    </linearGradient>
    <radialGradient
       inkscape:collect="always"
       xlink:href="#Shadow"
       id="radialGradient4259"
       gradientUnits="userSpaceOnUse"
       gradientTransform="matrix(-2.0000003,-2.935184e-6,3.9135795e-6,-2.6666677,21.99984,1228.853)"
       cx="4"
       cy="42.5"
       fx="4"
       fy="42.5"
       r="1.5" />
    <linearGradient
       inkscape:collect="always"
       id="Shadow">
      <stop
         style="stop-color:#000000;stop-opacity:1;"
         offset="0"
         id="stop4186" />
      <stop
         style="stop-color:#000000;stop-opacity:0;"
         offset="1"
         id="stop4188" />
    </linearGradient>
    <linearGradient
       inkscape:collect="always"
       xlink:href="#Shadow"
       id="linearGradient4257"
       gradientUnits="userSpaceOnUse"
       gradientTransform="translate(9,1073.5196)"
       x1="24"
       y1="42"
       x2="24"
       y2="46" />
    <radialGradient
       inkscape:collect="always"
       xlink:href="#Shadow"
       id="radialGradient4255"
       gradientUnits="userSpaceOnUse"
       gradientTransform="matrix(-5.6193702e-6,2.666668,-2.0000002,-4.214526e-6,135.00027,998.1864)"
       cx="44"
       cy="42.500004"
       fx="44"
       fy="42.500004"
       r="1.5" />
    <linearGradient
       inkscape:collect="always"
       xlink:href="#linearGradient4226"
       id="linearGradient4224"
       x1="32"
       y1="1099.5197"
       x2="32"
       y2="1109.5197"
       gradientUnits="userSpaceOnUse"
       gradientTransform="translate(0,-4)" />
  </defs>
  <sodipodi:namedview
     id="base"
     pagecolor="#ffffff"
     bordercolor="#666666"
     borderopacity="1.0"
     inkscape:pageopacity="0.0"
     inkscape:pageshadow="2"
     inkscape:zoom="12.203125"
     inkscape:cx="42.467281"
     inkscape:cy="38.158497"
     inkscape:document-units="px"
     inkscape:current-layer="layer1"
     showgrid="true"
     units="px"
     inkscape:showpageshadow="false"
     borderlayer="true"
     inkscape:window-width="2560"
     inkscape:window-height="963"
     inkscape:window-x="0"
     inkscape:window-y="30"
     inkscape:window-maximized="1"
     showguides="true">
    <inkscape:grid
       type="xygrid"
       id="grid4136"
       empspacing="2" />
    <sodipodi:guide
       position="5,5.0000688"
       orientation="0,54"
       id="guide4144" />
    <sodipodi:guide
       position="59,59.000069"
       orientation="0,-54"
       id="guide4148" />
    <sodipodi:guide
       position="0,64.000069"
       orientation="64,0"
       id="guide4150" />
    <sodipodi:guide
       position="0,6.875e-05"
       orientation="0,64"
       id="guide4152" />
    <sodipodi:guide
       position="64,6.875e-05"
       orientation="-64,0"
       id="guide4154" />
    <sodipodi:guide
       position="64,64.000069"
       orientation="0,-64"
       id="guide4156" />
    <sodipodi:guide
       position="12,34.000002"
       orientation="38,0"
       id="guide4155" />
    <sodipodi:guide
       position="52,34.000002"
       orientation="-38,0"
       id="guide4159" />
  </sodipodi:namedview>
  <metadata
     id="metadata7">
    <rdf:RDF>
      <cc:Work
         rdf:about="">
        <dc:format>image/svg+xml</dc:format>
        <dc:type
           rdf:resource="http://purl.org/dc/dcmitype/StillImage" />
        <dc:title />
      </cc:Work>
    </rdf:RDF>
  </metadata>
  <g
     inkscape:label="Capa 1"
     inkscape:groupmode="layer"
     id="layer1"
     transform="translate(0,-1058.5196)">
    <path
       id="path4249"
       d="m 50,1115.5196 0,4 1,0 c 1.108,0 2,-0.892 2,-2 l 0,-2 -3,0 z"
       style="opacity:0.7;fill:url(#radialGradient4255);fill-opacity:1;stroke:none;stroke-width:2;stroke-linecap:butt;stroke-linejoin:round;stroke-miterlimit:4;stroke-dasharray:none;stroke-opacity:1"
       inkscape:connector-curvature="0" />
    <path
       id="path4251"
       d="m 14,1115.5196 0,4 36,0 0,-4 z"
       style="opacity:0.7;fill:url(#linearGradient4257);fill-opacity:1;stroke:none;stroke-width:2;stroke-linecap:butt;stroke-linejoin:round;stroke-miterlimit:4;stroke-dasharray:none;stroke-opacity:1"
       inkscape:connector-curvature="0"
       sodipodi:nodetypes="ccccc" />
    <path
       id="path4253"
       d="m 11,1115.5196 0,2 c 0,1.108 0.892,2 2,2 l 1,0 0,-4 -3,0 z"
       style="opacity:0.7;fill:url(#radialGradient4259);fill-opacity:1;stroke:none;stroke-width:2;stroke-linecap:butt;stroke-linejoin:round;stroke-miterlimit:4;stroke-dasharray:none;stroke-opacity:1"
       inkscape:connector-curvature="0" />
    <rect
       style="opacity:1;fill:#ff7043;fill-opacity:1;stroke:none;stroke-width:2;stroke-linecap:butt;stroke-linejoin:round;stroke-miterlimit:4;stroke-dasharray:none;stroke-opacity:1"
       id="rect4182"
       width="42"
       height="39.999931"
       x="11"
       y="1077.5197"
       ry="2.9999466" />
    <rect
       style="opacity:1;fill:#ff8a65;fill-opacity:1;stroke:none;stroke-width:2;stroke-linecap:butt;stroke-linejoin:round;stroke-miterlimit:4;stroke-dasharray:none;stroke-opacity:1"
       id="rect4258"
       width="40"
       height="37.999947"
       x="12"
       y="1078.5197"
       ry="1.9999467" />
    <path
       style="opacity:1;fill:#ff5722;fill-opacity:1;stroke:none;stroke-width:2;stroke-linecap:round;stroke-linejoin:round;stroke-miterlimit:4;stroke-dasharray:none;stroke-opacity:1"
       d="m 29,1078.5196 0,3 0,13 c 0,1.662 1.338028,3 3,3 1.661972,0 3,-1.338 3,-3 l 0,-13 0,-3 -3,0 z"
       id="rect4211"
       inkscape:connector-curvature="0"
       sodipodi:nodetypes="ccssscccc" />
    <rect
       style="color:#000000;clip-rule:nonzero;display:inline;overflow:visible;visibility:visible;opacity:1;isolation:auto;mix-blend-mode:normal;color-interpolation:sRGB;color-interpolation-filters:linearRGB;solid-color:#000000;solid-opacity:1;fill:#ffab91;fill-opacity:1;fill-rule:nonzero;stroke:none;stroke-width:1;stroke-linecap:butt;stroke-linejoin:miter;stroke-miterlimit:4;stroke-dasharray:none;stroke-dashoffset:0;stroke-opacity:1;color-rendering:auto;image-rendering:auto;shape-rendering:auto;text-rendering:auto;enable-background:accumulate"
       id="rect4164"
       width="5"
       height="5"
       x="-6.9999876"
       y="1058.5197" />
    <path
       style="opacity:1;fill:#ffab91;fill-opacity:1;stroke:none;stroke-width:2;stroke-linecap:round;stroke-linejoin:round;stroke-miterlimit:4;stroke-dasharray:none;stroke-opacity:1"
       d="m 30,1078.5196 0,2 0,14 c 0,1.108 0.892,2 2,2 1.108,0 2,-0.892 2,-2 l 0,-14 0,-2 -2,0 z"
       id="rect4168"
       inkscape:connector-curvature="0"
       sodipodi:nodetypes="ccssscccc" />
    <rect
       style="color:#000000;clip-rule:nonzero;display:inline;overflow:visible;visibility:visible;opacity:1;isolation:auto;mix-blend-mode:normal;color-interpolation:sRGB;color-interpolation-filters:linearRGB;solid-color:#000000;solid-opacity:1;fill:#eeeeee;fill-opacity:1;fill-rule:nonzero;stroke:none;stroke-width:1;stroke-linecap:butt;stroke-linejoin:miter;stroke-miterlimit:4;stroke-dasharray:none;stroke-dashoffset:0;stroke-opacity:1;color-rendering:auto;image-rendering:auto;shape-rendering:auto;text-rendering:auto;enable-background:accumulate"
       id="rect4175"
       width="5"
       height="5"
       x="-14.999988"
       y="1058.5197" />
    <path
       inkscape:connector-curvature="0"
       id="path4216"
       d="m 32,1095.5196 a 2,2 0 0 0 -2,2 l 0,6 a 2,2 0 0 0 2,2 2,2 0 0 0 2,-2 l 0,-6 a 2,2 0 0 0 -2,-2 z m 0,7 a 1,1 0 0 1 1,1 1,1 0 0 1 -1,1 1,1 0 0 1 -1,-1 1,1 0 0 1 1,-1 z"
       style="opacity:1;fill:url(#linearGradient4224);fill-opacity:1;stroke:none;stroke-width:2;stroke-linecap:round;stroke-linejoin:round;stroke-miterlimit:4;stroke-dasharray:none;stroke-opacity:1" />
    <path
       style="opacity:1;fill:#eeeeee;fill-opacity:1;stroke:none;stroke-width:2;stroke-linecap:round;stroke-linejoin:round;stroke-miterlimit:4;stroke-dasharray:none;stroke-opacity:1"
       d="m 32,1094.5196 a 2,2 0 0 0 -2,2 l 0,6 a 2,2 0 0 0 2,2 2,2 0 0 0 2,-2 l 0,-6 a 2,2 0 0 0 -2,-2 z m 0,7 a 1,1 0 0 1 1,1 1,1 0 0 1 -1,1 1,1 0 0 1 -1,-1 1,1 0 0 1 1,-1 z"
       id="path4185"
       inkscape:connector-curvature="0" />
    <rect
       y="1078.5199"
       x="32.000004"
       height="2"
       width="2"
       id="rect4195"
       style="opacity:1;fill:#eeeeee;fill-opacity:1;stroke:none;stroke-width:2;stroke-linecap:round;stroke-linejoin:round;stroke-miterlimit:4;stroke-dasharray:none;stroke-opacity:1" />
    <rect
       style="opacity:1;fill:#eeeeee;fill-opacity:1;stroke:none;stroke-width:2;stroke-linecap:round;stroke-linejoin:round;stroke-miterlimit:4;stroke-dasharray:none;stroke-opacity:1"
       id="rect4197"
       width="2"
       height="2"
       x="29.999996"
       y="1080.5199" />
    <rect
       y="1082.5199"
       x="32.000004"
       height="2"
       width="2"
       id="rect4199"
       style="opacity:1;fill:#eeeeee;fill-opacity:1;stroke:none;stroke-width:2;stroke-linecap:round;stroke-linejoin:round;stroke-miterlimit:4;stroke-dasharray:none;stroke-opacity:1" />
    <rect
       style="opacity:1;fill:#eeeeee;fill-opacity:1;stroke:none;stroke-width:2;stroke-linecap:round;stroke-linejoin:round;stroke-miterlimit:4;stroke-dasharray:none;stroke-opacity:1"
       id="rect4201"
       width="2"
       height="2"
       x="29.999996"
       y="1084.5199" />
    <rect
       style="opacity:1;fill:#eeeeee;fill-opacity:1;stroke:none;stroke-width:2;stroke-linecap:round;stroke-linejoin:round;stroke-miterlimit:4;stroke-dasharray:none;stroke-opacity:1"
       id="rect4203"
       width="2"
       height="2"
       x="32.000004"
       y="1086.5199" />
    <rect
       y="1088.5199"
       x="29.999996"
       height="2"
       width="2"
       id="rect4205"
       style="opacity:1;fill:#eeeeee;fill-opacity:1;stroke:none;stroke-width:2;stroke-linecap:round;stroke-linejoin:round;stroke-miterlimit:4;stroke-dasharray:none;stroke-opacity:1" />
    <rect
       y="1090.5199"
       x="32.000004"
       height="2"
       width="2"
       id="rect4207"
       style="opacity:1;fill:#eeeeee;fill-opacity:1;stroke:none;stroke-width:2;stroke-linecap:round;stroke-linejoin:round;stroke-miterlimit:4;stroke-dasharray:none;stroke-opacity:1" />
    <rect
       style="opacity:1;fill:#eeeeee;fill-opacity:1;stroke:none;stroke-width:2;stroke-linecap:round;stroke-linejoin:round;stroke-miterlimit:4;stroke-dasharray:none;stroke-opacity:1"
       id="rect4209"
       width="2"
       height="2"
       x="29.999996"
       y="1092.5199" />
    <rect
       style="color:#000000;clip-rule:nonzero;display:inline;overflow:visible;visibility:visible;opacity:1;isolation:auto;mix-blend-mode:normal;color-interpolation:sRGB;color-interpolation-filters:linearRGB;solid-color:#000000;solid-opacity:1;fill:#ff8a65;fill-opacity:1;fill-rule:nonzero;stroke:none;stroke-width:1;stroke-linecap:butt;stroke-linejoin:miter;stroke-miterlimit:4;stroke-dasharray:none;stroke-dashoffset:0;stroke-opacity:1;color-rendering:auto;image-rendering:auto;shape-rendering:auto;text-rendering:auto;enable-background:accumulate"
       id="rect4176"
       width="5"
       height="5"
       x="-6.9999876"
       y="1066.5197" />
    <rect
       y="1074.5197"
       x="-6.9999876"
       height="5"
       width="5"
       id="rect4180"
       style="color:#000000;clip-rule:nonzero;display:inline;overflow:visible;visibility:visible;opacity:1;isolation:auto;mix-blend-mode:normal;color-interpolation:sRGB;color-interpolation-filters:linearRGB;solid-color:#000000;solid-opacity:1;fill:#ff7043;fill-opacity:1;fill-rule:nonzero;stroke:none;stroke-width:1;stroke-linecap:butt;stroke-linejoin:miter;stroke-miterlimit:4;stroke-dasharray:none;stroke-dashoffset:0;stroke-opacity:1;color-rendering:auto;image-rendering:auto;shape-rendering:auto;text-rendering:auto;enable-background:accumulate" />
    <rect
       style="color:#000000;clip-rule:nonzero;display:inline;overflow:visible;visibility:visible;opacity:1;isolation:auto;mix-blend-mode:normal;color-interpolation:sRGB;color-interpolation-filters:linearRGB;solid-color:#000000;solid-opacity:1;fill:#ff5722;fill-opacity:1;fill-rule:nonzero;stroke:none;stroke-width:1;stroke-linecap:butt;stroke-linejoin:miter;stroke-miterlimit:4;stroke-dasharray:none;stroke-dashoffset:0;stroke-opacity:1;color-rendering:auto;image-rendering:auto;shape-rendering:auto;text-rendering:auto;enable-background:accumulate"
       id="rect4183"
       width="5"
       height="5"
       x="-6.9999876"
       y="1082.5197" />
    <path
       style="opacity:1;fill:#c64016;fill-opacity:1;stroke:none;stroke-width:2;stroke-linecap:round;stroke-linejoin:round;stroke-miterlimit:4;stroke-dasharray:none;stroke-opacity:1"
       d="M 34 49 L 34 49.181641 L 34 50 L 34 51 L 34 52 L 34 53 C 34 53.554 33.554 54 33 54 C 32.446 54 32 53.554 32 53 L 30 53 C 30 54.662 31.338 56 33 56 C 34.662 56 36 54.662 36 53 L 36 52 L 36 49 L 34 49 z M 40 49 C 38.338 49 37 50.338 37 52 L 37 53 L 37 56 L 39 56 L 39 55.818359 L 39 54 L 41 54 L 41 55.818359 L 41 56 L 43 56 L 43 53 L 43 52 C 43 50.338 41.662 49 40 49 z M 44 49 L 44 56 L 46 56 L 46 54 L 46.367188 54 L 47.523438 56 L 49.832031 56 L 48.617188 53.894531 C 49.419262 53.634395 50 52.890973 50 52 L 50 51 C 50 49.892 49.108 49 48 49 L 46 49 L 44 49 z M 40 51 C 40.554 51 41 51.446 41 52 L 39 52 C 39 51.446 39.446 51 40 51 z M 46 51 L 48 51 L 48 52 L 46 52 L 46 51 z "
       transform="translate(0,1058.5196)"
       id="rect4178" />
    <rect
       y="1090.5197"
       x="-6.9999876"
       height="5"
       width="5"
       id="rect4177"
       style="color:#000000;clip-rule:nonzero;display:inline;overflow:visible;visibility:visible;opacity:1;isolation:auto;mix-blend-mode:normal;color-interpolation:sRGB;color-interpolation-filters:linearRGB;solid-color:#000000;solid-opacity:1;fill:#c64016;fill-opacity:1;fill-rule:nonzero;stroke:none;stroke-width:1;stroke-linecap:butt;stroke-linejoin:miter;stroke-miterlimit:4;stroke-dasharray:none;stroke-dashoffset:0;stroke-opacity:1;color-rendering:auto;image-rendering:auto;shape-rendering:auto;text-rendering:auto;enable-background:accumulate" />
  </g>
</svg>
