<?xml version="1.0" encoding="UTF-8" standalone="no"?>
<!-- Generator: Adobe Illustrator 13.0.0, SVG Export Plug-In . SVG Version: 6.00 Build 14576)  -->
<svg id="svg2" xmlns:rdf="http://www.w3.org/1999/02/22-rdf-syntax-ns#" xmlns="http://www.w3.org/2000/svg" enable-background="new 0 0 35.291 47.998" xml:space="preserve" height="47.998" width="48" version="1.0" y="0px" x="0px" xmlns:cc="http://creativecommons.org/ns#" xmlns:dc="http://purl.org/dc/elements/1.1/" viewBox="0 0 35.291 47.998"><metadata id="metadata286"><rdf:RDF><cc:Work rdf:about=""><dc:format>image/svg+xml</dc:format><dc:type rdf:resource="http://purl.org/dc/dcmitype/StillImage"/></cc:Work></rdf:RDF></metadata>
<g id="Layer_2">
	<g id="g238" opacity=".3">
		<g id="g240">
			<path id="path242" d="m32.285 0h-29.281c-1.657 0-3.004 1.347-3.004 3.004v41.99c0 1.656 1.347 3.004 3.004 3.004h29.281c1.658 0 3.006-1.348 3.006-3.004v-41.99c0-1.657-1.348-3.004-3.006-3.004zm1.006 44.993c0 0.556-0.449 1.006-1.006 1.006h-29.28c-0.555 0-1.005-0.451-1.005-1.006v-41.989c0-0.556 0.45-1.006 1.005-1.006h29.28c0.557 0 1.006 0.45 1.006 1.006v41.989z"/>
		</g>
	</g>
</g>
<g id="Layer_1">
	<g id="g245">
		<linearGradient id="SVGID_1_" y2="2.4832" gradientUnits="userSpaceOnUse" x2="2.0133" y1="45.515" x1="33.278">
			<stop id="stop248" stop-color="#9B9B9B" offset="0"/>
			<stop id="stop250" stop-color="#ECECEC" offset="1"/>
		</linearGradient>
		<path id="path252" fill="url(#SVGID_1_)" d="m33.291 44.993c0 0.556-0.449 1.006-1.006 1.006h-29.28c-0.555 0-1.005-0.451-1.005-1.006v-41.989c0-0.556 0.45-1.006 1.005-1.006h29.28c0.557 0 1.006 0.45 1.006 1.006v41.989z"/>
	</g>
</g>
<g id="Layer_4">
	<g id="g255" opacity=".2">
		<g id="g257">
			<path id="path259" fill="#fff" d="m32.285 1.999h-29.28c-0.555 0-1.005 0.45-1.005 1.005v41.988c0 0.556 0.45 1.006 1.005 1.006h29.28c0.557 0 1.006-0.45 1.006-1.006v-41.988c0-0.555-0.45-1.005-1.006-1.005zm0 43h-29.28l-0.005-41.994 29.284-0.006 0.006 41.994-0.005 0.006z"/>
		</g>
	</g>
</g>
<g id="Layer_5">
	<g id="g262" opacity=".2">
		<g id="g264">
			<path id="path266" fill="#fff" d="m3 3.005l30.29-0.006c-0.004-0.553-0.45-1-1.005-1h-29.28c-0.555 0-1.005 0.45-1.005 1.005v41.988c0 0.556 0.45 1.006 1.005 1.006l-0.005-42.993z"/>
		</g>
	</g>
</g>
<g id="Layer_3">
</g>
<g id="Layer_6">
	<linearGradient id="firewire_3_" y2="13.68" gradientUnits="userSpaceOnUse" x2="17.719" y1="36.538" x1="17.719">
		<stop id="stop271" stop-color="#262626" offset="0"/>
		<stop id="stop273" stop-color="#5C5C5C" offset=".989"/>
	</linearGradient>
	<path id="firewire" fill="url(#firewire_3_)" d="m17.719 20.376c-2.511 0-4.546 2.035-4.546 4.546s2.036 4.546 4.546 4.546c2.509 0 4.545-2.035 4.545-4.546s-2.036-4.546-4.545-4.546zm0 7.577c-1.674 0-3.03-1.357-3.03-3.03 0-1.674 1.356-3.031 3.03-3.031 1.673 0 3.03 1.357 3.03 3.031 0 1.671-1.357 3.03-3.03 3.03zm-3.031 5.049h6.06v-2.02h-6.06v2.02zm0 3.536h6.06v-2.021h-6.06v2.021zm-0.83-19.977l-4.105 4.092 1.368 1.364 4.106-4.092-1.369-1.364zm-2.737-2.707l-4.105 4.093 1.368 1.365 4.106-4.116-1.369-1.342zm13.714-0.174l-4.507 4.493 3.585 3.551 4.508-4.448-3.586-3.596z"/>
</g>
<g id="Layer_8">
	<g id="g277" opacity=".6">
		<g id="g279">
			<path id="path281" fill="#fff" d="m14.533 16.99l-0.122 0.122 0.816 0.813-3.984 3.97 0.553 0.551 4.106-4.092-1.369-1.364zm-2.737-2.706l-0.118 0.117 0.812 0.796-3.984 3.993 0.553 0.551 4.106-4.116-1.369-1.341zm4.679 13.395c-0.673-0.556-1.111-1.387-1.111-2.328 0-1.674 1.356-3.03 3.03-3.03 0.444 0 0.863 0.101 1.243 0.272-0.523-0.432-1.186-0.702-1.917-0.702-1.675 0-3.031 1.357-3.031 3.031-0.001 1.229 0.734 2.282 1.786 2.757zm9.035-13.57l-0.124 0.124 3.035 3.043-4.387 4.328 0.554 0.549 4.508-4.448-3.586-3.596zm-5.027 7.228c1.076 0.831 1.781 2.12 1.781 3.585 0 2.511-2.036 4.546-4.545 4.546-0.759 0-1.464-0.204-2.093-0.532 0.769 0.594 1.721 0.962 2.768 0.962 2.509 0 4.545-2.035 4.545-4.547 0-1.752-1.003-3.255-2.456-4.014zm0.266 11.665h-5.385v0.429h6.06v-2.02h-0.675v1.591zm0 3.536h-5.385v0.43h6.06v-2.021h-0.675v1.591z"/>
		</g>
	</g>
</g>
</svg>
