<?xml version="1.0" encoding="UTF-8" standalone="no"?>
<!-- Generator: Adobe Illustrator 13.0.0, SVG Export Plug-In . SVG Version: 6.00 Build 14576)  -->
<svg id="svg2" xmlns:rdf="http://www.w3.org/1999/02/22-rdf-syntax-ns#" xmlns="http://www.w3.org/2000/svg" enable-background="new 0 0 45.661 48" xml:space="preserve" height="48" width="48" version="1.0" y="0px" x="0px" xmlns:cc="http://creativecommons.org/ns#" xmlns:xlink="http://www.w3.org/1999/xlink" viewBox="0 0 45.661 48" xmlns:dc="http://purl.org/dc/elements/1.1/"><metadata id="metadata266"><rdf:RDF><cc:Work rdf:about=""><dc:format>image/svg+xml</dc:format><dc:type rdf:resource="http://purl.org/dc/dcmitype/StillImage"/></cc:Work></rdf:RDF></metadata><defs id="defs264">
			<linearGradient id="SVGID_1_" y2="-1.113" gradientUnits="userSpaceOnUse" x2="39.71" gradientTransform="translate(-31.328)" y1="49.096" x1="68.698">
			<stop id="stop248" stop-color="#9B9B9B" offset="0"/>
			<stop id="stop250" stop-color="#ECECEC" offset="1"/>
		</linearGradient>
		<linearGradient id="linearGradient2547" y2="-1.113" xlink:href="#SVGID_1_" gradientUnits="userSpaceOnUse" x2="39.71" gradientTransform="translate(-4.3281)" y1="49.096" x1="68.698"/><linearGradient id="linearGradient2549" y2="-1.113" xlink:href="#SVGID_1_" gradientUnits="userSpaceOnUse" x2="39.71" gradientTransform="translate(-26.328)" y1="49.096" x1="68.698"/></defs>
<path id="path242" opacity=".3" d="m16.028 0.002h-7.721c-1.823 0-3.307 1.345-3.307 2.998v42c0 1.652 1.484 2.998 3.307 2.998h7.722c1.823 0 3.307-1.346 3.307-2.998v-42c-0.001-1.653-1.484-2.998-3.308-2.998zm1.103 44.998c0 0.553-0.493 1-1.103 1h-7.72c-0.609 0-1.103-0.447-1.103-1v-42c0-0.552 0.493-1 1.103-1h7.721c0.609 0 1.103 0.448 1.103 1v42h-0.001z"/>
<path id="path2527" fill="url(#linearGradient2549)" d="m7.205 45v-42c0-0.552 0.493-1 1.103-1h7.721c0.609 0 1.103 0.448 1.103 1v42c0 0.553-0.493 1-1.103 1h-7.721c-0.61 0-1.103-0.447-1.103-1z"/>
<g id="Layer_3">
</g>
<path id="path258" opacity=".4" fill="#fff" d="m7.205 45v-42c0-0.552 0.493-1 1.103-1h7.721c0.609 0 1.103 0.448 1.103 1h-7.722c-0.609 0-1.102 0.449-1.102 1v42c-0.61 0-1.103-0.447-1.103-1z"/>
<g id="Layer_5" transform="translate(5)">
	<rect id="rect3406_2_" opacity=".3" height="42" width="1.103" y="3" x="11.028" enable-background="new    " fill="#8c8c8c"/>
</g>
<path id="path2537" opacity=".3" d="m38.028 0.002h-7.721c-1.823 0-3.307 1.345-3.307 2.998v42c0 1.652 1.484 2.998 3.307 2.998h7.722c1.823 0 3.307-1.346 3.307-2.998v-42c-0.001-1.653-1.484-2.998-3.308-2.998zm1.103 44.998c0 0.553-0.493 1-1.103 1h-7.72c-0.609 0-1.103-0.447-1.103-1v-42c0-0.552 0.493-1 1.103-1h7.721c0.609 0 1.103 0.448 1.103 1v42h-0.001z"/><path id="path2539" fill="url(#linearGradient2547)" d="m29.205 45v-42c0-0.552 0.493-1 1.103-1h7.721c0.609 0 1.103 0.448 1.103 1v42c0 0.553-0.493 1-1.103 1h-7.721c-0.61 0-1.103-0.447-1.103-1z"/><path id="path2541" opacity=".4" fill="#fff" d="m29.205 45v-42c0-0.552 0.493-1 1.103-1h7.721c0.609 0 1.103 0.448 1.103 1h-7.722c-0.609 0-1.102 0.449-1.102 1v42c-0.61 0-1.103-0.447-1.103-1z"/><g id="g2543" transform="translate(27)">
	<rect id="rect2545" opacity=".3" height="42" width="1.103" y="3" x="11.028" enable-background="new    " fill="#8c8c8c"/>
</g></svg>
