<?xml version="1.0" encoding="UTF-8" standalone="no"?>
<svg
   xmlns:dc="http://purl.org/dc/elements/1.1/"
   xmlns:cc="http://creativecommons.org/ns#"
   xmlns:rdf="http://www.w3.org/1999/02/22-rdf-syntax-ns#"
   xmlns:svg="http://www.w3.org/2000/svg"
   xmlns="http://www.w3.org/2000/svg"
   xmlns:sodipodi="http://sodipodi.sourceforge.net/DTD/sodipodi-0.dtd"
   xmlns:inkscape="http://www.inkscape.org/namespaces/inkscape"
   viewBox="0 0 16 16"
   id="svg2"
   version="1.1"
   inkscape:version="0.91+devel r"
   sodipodi:docname="action-unavailable-symbolic.svg">
  <metadata
     id="metadata14">
    <rdf:RDF>
      <cc:Work
         rdf:about="">
        <dc:format>image/svg+xml</dc:format>
        <dc:type
           rdf:resource="http://purl.org/dc/dcmitype/StillImage" />
        <dc:title />
      </cc:Work>
    </rdf:RDF>
  </metadata>
  <defs
     id="defs12" />
  <sodipodi:namedview
     pagecolor="#ffffff"
     bordercolor="#666666"
     borderopacity="1"
     objecttolerance="10"
     gridtolerance="10"
     guidetolerance="10"
     inkscape:pageopacity="0"
     inkscape:pageshadow="2"
     inkscape:window-width="2560"
     inkscape:window-height="962"
     id="namedview10"
     showgrid="true"
     inkscape:showpageshadow="false"
     borderlayer="true"
     inkscape:zoom="41.7193"
     inkscape:cx="9.6766978"
     inkscape:cy="8.2903433"
     inkscape:window-x="-4"
     inkscape:window-y="32"
     inkscape:window-maximized="1"
     inkscape:current-layer="svg2">
    <inkscape:grid
       type="xygrid"
       id="grid4143" />
    <sodipodi:guide
       position="0,16"
       orientation="16,0"
       id="guide4149" />
    <sodipodi:guide
       position="0,0"
       orientation="0,16"
       id="guide4151" />
    <sodipodi:guide
       position="16,0"
       orientation="-16,0"
       id="guide4153" />
    <sodipodi:guide
       position="16,16"
       orientation="0,-16"
       id="guide4155" />
    <sodipodi:guide
       position="2,14"
       orientation="12,0"
       id="guide4157" />
    <sodipodi:guide
       position="2,2"
       orientation="0,12"
       id="guide4159" />
    <sodipodi:guide
       position="14,2"
       orientation="-12,0"
       id="guide4161" />
    <sodipodi:guide
       position="14,14"
       orientation="0,-12"
       id="guide4163" />
  </sodipodi:namedview>
  <path
     style="color:#000000;text-decoration:none;text-decoration-line:none;text-decoration-style:solid;text-decoration-color:#000000;clip-rule:nonzero;display:inline;overflow:visible;visibility:visible;opacity:1;isolation:auto;mix-blend-mode:normal;color-interpolation:sRGB;color-interpolation-filters:linearRGB;solid-color:#000000;solid-opacity:1;fill:#bebebe;fill-opacity:1;fill-rule:nonzero;stroke:none;stroke-width:1;stroke-linecap:butt;stroke-linejoin:miter;stroke-miterlimit:4;stroke-dasharray:none;stroke-dashoffset:0;stroke-opacity:1;color-rendering:auto;image-rendering:auto;shape-rendering:auto;text-rendering:auto;enable-background:accumulate"
     d="M 8 2 C 4.676 2 2 4.676 2 8 C 2 11.324 4.676 14 8 14 C 11.324 14 14 11.324 14 8 C 14 4.676 11.324 2 8 2 z M 7.4882812 3.0253906 C 7.4921304 3.0250021 7.4961482 3.0257705 7.5 3.0253906 A 5 5 0 0 0 7.0058594 3.0996094 C 7.1639802 3.0679307 7.3250516 3.0418685 7.4882812 3.0253906 z M 8 4 A 4 4 0 0 1 10.025391 4.5605469 L 4.5585938 10.027344 A 4 4 0 0 1 4 8 A 4 4 0 0 1 8 4 z M 11.441406 5.9726562 A 4 4 0 0 1 12 8 A 4 4 0 0 1 8 12 A 4 4 0 0 1 5.9746094 11.439453 L 11.441406 5.9726562 z "
     id="rect4165" />
</svg>
