<?xml version="1.0" encoding="UTF-8" standalone="no"?>
<!-- Created with Inkscape (http://www.inkscape.org/) -->

<svg
   xmlns:dc="http://purl.org/dc/elements/1.1/"
   xmlns:cc="http://creativecommons.org/ns#"
   xmlns:rdf="http://www.w3.org/1999/02/22-rdf-syntax-ns#"
   xmlns:svg="http://www.w3.org/2000/svg"
   xmlns="http://www.w3.org/2000/svg"
   xmlns:xlink="http://www.w3.org/1999/xlink"
   xmlns:sodipodi="http://sodipodi.sourceforge.net/DTD/sodipodi-0.dtd"
   xmlns:inkscape="http://www.inkscape.org/namespaces/inkscape"
   version="1.0"
   width="128"
   height="128"
   id="svg2408"
   inkscape:version="0.48.2 r9819"
   sodipodi:docname="invest.svg">
  <sodipodi:namedview
     pagecolor="#ffffff"
     bordercolor="#666666"
     borderopacity="1"
     objecttolerance="10"
     gridtolerance="10"
     guidetolerance="10"
     inkscape:pageopacity="0"
     inkscape:pageshadow="2"
     inkscape:window-width="1366"
     inkscape:window-height="672"
     id="namedview90"
     showgrid="false"
     inkscape:zoom="3.4766083"
     inkscape:cx="71.010933"
     inkscape:cy="59.505466"
     inkscape:window-x="0"
     inkscape:window-y="24"
     inkscape:window-maximized="1"
     inkscape:current-layer="svg2408" />
  <defs
     id="defs2410">
    <linearGradient
       id="linearGradient3807">
      <stop
         id="stop3809"
         style="stop-color:#ffffff;stop-opacity:1"
         offset="0" />
      <stop
         id="stop3811"
         style="stop-color:#ffffff;stop-opacity:0"
         offset="1" />
    </linearGradient>
    <linearGradient
       id="linearGradient3793">
      <stop
         id="stop3795"
         style="stop-color:#ffb100;stop-opacity:1"
         offset="0" />
      <stop
         id="stop3797"
         style="stop-color:#ffb100;stop-opacity:0"
         offset="1" />
    </linearGradient>
    <linearGradient
       id="linearGradient3734">
      <stop
         id="stop3736"
         style="stop-color:#cbf44b;stop-opacity:1"
         offset="0" />
      <stop
         id="stop3738"
         style="stop-color:#cbf44b;stop-opacity:0"
         offset="1" />
    </linearGradient>
    <linearGradient
       x1="45.447727"
       y1="92.539597"
       x2="45.447727"
       y2="7.0165396"
       id="ButtonShadow"
       gradientUnits="userSpaceOnUse"
       gradientTransform="scale(1.0058652,0.994169)">
      <stop
         id="stop3750"
         style="stop-color:#000000;stop-opacity:1"
         offset="0" />
      <stop
         id="stop3752"
         style="stop-color:#000000;stop-opacity:0.58823532"
         offset="1" />
    </linearGradient>
    <linearGradient
       id="linearGradient3737">
      <stop
         id="stop3739"
         style="stop-color:#ffffff;stop-opacity:1"
         offset="0" />
      <stop
         id="stop3741"
         style="stop-color:#ffffff;stop-opacity:0"
         offset="1" />
    </linearGradient>
    <filter
       color-interpolation-filters="sRGB"
       id="filter3174">
      <feGaussianBlur
         id="feGaussianBlur3176"
         stdDeviation="1.71" />
    </filter>
    <linearGradient
       x1="36.357143"
       y1="6"
       x2="36.357143"
       y2="63.893143"
       id="linearGradient3188"
       xlink:href="#linearGradient3737"
       gradientUnits="userSpaceOnUse" />
    <filter
       x="-0.192"
       y="-0.192"
       width="1.3839999"
       height="1.3839999"
       color-interpolation-filters="sRGB"
       id="filter3794">
      <feGaussianBlur
         id="feGaussianBlur3796"
         stdDeviation="5.28" />
    </filter>
    <linearGradient
       x1="48"
       y1="20.220806"
       x2="48"
       y2="138.66119"
       id="linearGradient3613"
       xlink:href="#linearGradient3737"
       gradientUnits="userSpaceOnUse" />
    <radialGradient
       cx="48"
       cy="90.171875"
       r="42"
       fx="48"
       fy="90.171875"
       id="radialGradient3619"
       xlink:href="#linearGradient3737"
       gradientUnits="userSpaceOnUse"
       gradientTransform="matrix(1.1573129,0,0,0.99590774,-7.5510206,0.19713193)" />
    <clipPath
       id="clipPath3613">
      <rect
         width="84"
         height="84"
         rx="6"
         ry="6"
         x="6"
         y="6"
         id="rect3615"
         style="fill:#ffffff;fill-opacity:1;fill-rule:nonzero;stroke:none" />
    </clipPath>
    <linearGradient
       x1="48"
       y1="90"
       x2="48"
       y2="5.9877172"
       id="linearGradient3617"
       xlink:href="#ButtonColor"
       gradientUnits="userSpaceOnUse" />
    <linearGradient
       x1="58.650177"
       y1="122"
       x2="58.650177"
       y2="5.4252338"
       id="ButtonColor"
       gradientUnits="userSpaceOnUse"
       gradientTransform="matrix(1.0172414,0,0,1.0172414,-1.1034483,-1.1034483)">
      <stop
         id="stop3189"
         style="stop-color:#243c53;stop-opacity:1"
         offset="0" />
      <stop
         id="stop3191"
         style="stop-color:#4975a7;stop-opacity:1"
         offset="1" />
    </linearGradient>
    <clipPath
       id="clipPath3730">
      <path
         d="M 13.571429,58.321429 31.785714,46.892857 41.25,45.642857 50.535714,30.107143 54.821429,36 68.035714,21.357143 84.642857,39.75 l -0.178572,72.5 -71.428571,-5.89286 0.535715,-48.035711 z"
         inkscape:connector-curvature="0"
         id="path3732"
         style="fill:#ffffff;stroke:none" />
    </clipPath>
    <linearGradient
       x1="50.714287"
       y1="32.607143"
       x2="50.714287"
       y2="63.438007"
       id="linearGradient3740"
       xlink:href="#linearGradient3734"
       gradientUnits="userSpaceOnUse" />
    <filter
       x="-0.26677293"
       y="-0.21811074"
       width="1.5335459"
       height="1.4362215"
       color-interpolation-filters="sRGB"
       id="filter3746">
      <feGaussianBlur
         id="feGaussianBlur3748"
         stdDeviation="4.9821428" />
    </filter>
    <clipPath
       id="clipPath3789">
      <path
         d="m 16.428571,67.428571 14.107143,-9.821428 7.321429,4.464286 6.071428,-10.535715 9.107143,17.321429 L 63.75,61.535714 70,67.071429 l 12.857143,-3.392858 5,41.071429 -73.214286,-3.03571 1.785714,-34.285719 z"
         inkscape:connector-curvature="0"
         id="path3791"
         style="fill:#ffffff;stroke:none" />
    </clipPath>
    <linearGradient
       x1="44.82143"
       y1="54.035713"
       x2="44.82143"
       y2="76.917953"
       id="linearGradient3799"
       xlink:href="#linearGradient3793"
       gradientUnits="userSpaceOnUse" />
    <filter
       x="-0.21707866"
       y="-0.26833332"
       width="1.4341573"
       height="1.5366666"
       color-interpolation-filters="sRGB"
       id="filter3801">
      <feGaussianBlur
         id="feGaussianBlur3803"
         stdDeviation="4.3125" />
    </filter>
    <linearGradient
       x1="28.892857"
       y1="79.39286"
       x2="28.892857"
       y2="18.316374"
       id="linearGradient3813"
       xlink:href="#linearGradient3807"
       gradientUnits="userSpaceOnUse" />
    <linearGradient
       x1="28.892857"
       y1="79.39286"
       x2="28.892857"
       y2="18.316374"
       id="linearGradient3817"
       xlink:href="#linearGradient3807"
       gradientUnits="userSpaceOnUse"
       gradientTransform="translate(12,0)" />
    <linearGradient
       x1="28.892857"
       y1="79.39286"
       x2="28.892857"
       y2="18.316374"
       id="linearGradient3821"
       xlink:href="#linearGradient3807"
       gradientUnits="userSpaceOnUse"
       gradientTransform="translate(24,0)" />
    <linearGradient
       x1="28.892857"
       y1="79.39286"
       x2="28.892857"
       y2="18.316374"
       id="linearGradient3825"
       xlink:href="#linearGradient3807"
       gradientUnits="userSpaceOnUse"
       gradientTransform="translate(36,0)" />
    <linearGradient
       x1="45.447727"
       y1="92.539597"
       x2="45.447727"
       y2="7.0165396"
       id="ButtonShadow-0"
       gradientUnits="userSpaceOnUse"
       gradientTransform="matrix(1.0058652,0,0,0.994169,100,0)">
      <stop
         id="stop3750-8"
         style="stop-color:#000000;stop-opacity:1"
         offset="0" />
      <stop
         id="stop3752-5"
         style="stop-color:#000000;stop-opacity:0.58823532"
         offset="1" />
    </linearGradient>
    <linearGradient
       x1="32.251034"
       y1="6.1317081"
       x2="32.251034"
       y2="90.238609"
       id="linearGradient3780"
       xlink:href="#ButtonShadow-0"
       gradientUnits="userSpaceOnUse"
       gradientTransform="matrix(1.0238095,0,0,1.0119048,-1.1428571,-98.071429)" />
    <linearGradient
       x1="32.251034"
       y1="6.1317081"
       x2="32.251034"
       y2="90.238609"
       id="linearGradient3772"
       xlink:href="#ButtonShadow-0"
       gradientUnits="userSpaceOnUse"
       gradientTransform="matrix(1.0238095,0,0,1.0119048,-1.1428571,-98.071429)" />
    <linearGradient
       x1="32.251034"
       y1="6.1317081"
       x2="32.251034"
       y2="90.238609"
       id="linearGradient3725"
       xlink:href="#ButtonShadow-0"
       gradientUnits="userSpaceOnUse"
       gradientTransform="matrix(1.0238095,0,0,1.0119048,-1.1428571,-98.071429)" />
    <linearGradient
       x1="32.251034"
       y1="6.1317081"
       x2="32.251034"
       y2="90.238609"
       id="linearGradient3721"
       xlink:href="#ButtonShadow-0"
       gradientUnits="userSpaceOnUse"
       gradientTransform="translate(0,-97)" />
    <linearGradient
       x1="32.251034"
       y1="6.1317081"
       x2="32.251034"
       y2="90.238609"
       id="linearGradient3811"
       xlink:href="#ButtonShadow-0"
       gradientUnits="userSpaceOnUse"
       gradientTransform="matrix(1.0238095,0,0,1.0119048,-1.1428571,-98.071429)" />
  </defs>
  <metadata
     id="metadata2413">
    <rdf:RDF>
      <cc:Work
         rdf:about="">
        <dc:format>image/svg+xml</dc:format>
        <dc:type
           rdf:resource="http://purl.org/dc/dcmitype/StillImage" />
      </cc:Work>
    </rdf:RDF>
  </metadata>
  <g
     id="layer2"
     style="display:none"
     transform="translate(0,32)">
    <rect
       width="86"
       height="85"
       rx="6"
       ry="6"
       x="5"
       y="7"
       id="rect3745"
       style="opacity:0.9;fill:url(#ButtonShadow);fill-opacity:1;fill-rule:nonzero;stroke:none;filter:url(#filter3174)" />
  </g>
  <g
     id="layer6"
     style="display:inline"
     transform="scale(1.3333333,1.3333333)">
    <path
       d="m 12,-95.03125 c -5.5110903,0 -10.03125,4.52016 -10.03125,10.03125 l 0,71 c 0,5.5110902 4.5201598,10.03125 10.03125,10.03125 l 72,0 c 5.51109,0 10.03125,-4.5201597 10.03125,-10.03125 l 0,-71 c 0,-5.51109 -4.52016,-10.03125 -10.03125,-10.03125 l -72,0 z"
       transform="scale(1,-1)"
       id="path3786"
       style="opacity:0.07999998;fill:url(#linearGradient3811);fill-opacity:1;fill-rule:nonzero;stroke:none;display:inline"
       inkscape:connector-curvature="0" />
    <path
       d="m 12,-94.03125 c -4.971633,0 -9.03125,4.059617 -9.03125,9.03125 l 0,71 c 0,4.9716329 4.0596171,9.03125 9.03125,9.03125 l 72,0 c 4.971633,0 9.03125,-4.059617 9.03125,-9.03125 l 0,-71 c 0,-4.971633 -4.059617,-9.03125 -9.03125,-9.03125 l -72,0 z"
       transform="scale(1,-1)"
       id="path3778"
       style="opacity:0.1;fill:url(#linearGradient3780);fill-opacity:1;fill-rule:nonzero;stroke:none;display:inline"
       inkscape:connector-curvature="0" />
    <path
       d="m 12,-93 c -4.4091333,0 -8,3.590867 -8,8 l 0,71 c 0,4.4091333 3.5908667,8 8,8 l 72,0 c 4.409133,0 8,-3.5908667 8,-8 l 0,-71 c 0,-4.409133 -3.590867,-8 -8,-8 l -72,0 z"
       transform="scale(1,-1)"
       id="path3770"
       style="opacity:0.2;fill:url(#linearGradient3772);fill-opacity:1;fill-rule:nonzero;stroke:none;display:inline"
       inkscape:connector-curvature="0" />
    <rect
       width="86"
       height="85"
       rx="7"
       ry="7"
       x="5"
       y="-92"
       transform="scale(1,-1)"
       id="rect3723"
       style="opacity:0.3;fill:url(#linearGradient3725);fill-opacity:1;fill-rule:nonzero;stroke:none;display:inline" />
    <rect
       width="84"
       height="84"
       rx="6"
       ry="6"
       x="6"
       y="-91"
       transform="scale(1,-1)"
       id="rect3716"
       style="opacity:0.45;fill:url(#linearGradient3721);fill-opacity:1;fill-rule:nonzero;stroke:none;display:inline" />
  </g>
  <g
     id="layer1"
     transform="scale(1.3333333,1.3333333)">
    <rect
       width="84"
       height="84"
       rx="6"
       ry="6"
       x="6"
       y="6"
       id="rect2419"
       style="fill:url(#linearGradient3617);fill-opacity:1;fill-rule:nonzero;stroke:none" />
    <path
       d="M 12,6 C 8.676,6 6,8.676 6,12 l 0,2 0,68 0,2 c 0,0.334721 0.04135,0.6507 0.09375,0.96875 0.0487,0.295596 0.09704,0.596915 0.1875,0.875 0.00988,0.03038 0.020892,0.0636 0.03125,0.09375 0.098865,0.287771 0.2348802,0.547452 0.375,0.8125 0.1445918,0.273507 0.3156161,0.535615 0.5,0.78125 0.1843839,0.245635 0.3737765,0.473472 0.59375,0.6875 0.439947,0.428056 0.94291,0.814526 1.5,1.09375 0.278545,0.139612 0.5734731,0.246947 0.875,0.34375 -0.2562018,-0.100222 -0.4867109,-0.236272 -0.71875,-0.375 -0.00741,-0.0044 -0.023866,0.0045 -0.03125,0 -0.031933,-0.0193 -0.062293,-0.04251 -0.09375,-0.0625 -0.120395,-0.0767 -0.2310226,-0.163513 -0.34375,-0.25 -0.1061728,-0.0808 -0.2132809,-0.161112 -0.3125,-0.25 C 8.4783201,88.557317 8.3087904,88.373362 8.15625,88.1875 8.0486711,88.057245 7.9378561,87.922215 7.84375,87.78125 7.818661,87.74287 7.805304,87.69538 7.78125,87.65625 7.716487,87.553218 7.6510225,87.451733 7.59375,87.34375 7.4927417,87.149044 7.3880752,86.928049 7.3125,86.71875 7.30454,86.69694 7.288911,86.6782 7.28125,86.65625 7.2494249,86.5643 7.2454455,86.469419 7.21875,86.375 7.1884177,86.268382 7.1483606,86.171969 7.125,86.0625 7.0521214,85.720988 7,85.364295 7,85 L 7,83 7,15 7,13 C 7,10.218152 9.2181517,8 12,8 l 2,0 68,0 2,0 c 2.781848,0 5,2.218152 5,5 l 0,2 0,68 0,2 c 0,0.364295 -0.05212,0.720988 -0.125,1.0625 -0.04415,0.206893 -0.08838,0.397658 -0.15625,0.59375 -0.0077,0.02195 -0.0233,0.04069 -0.03125,0.0625 -0.06274,0.173739 -0.138383,0.367449 -0.21875,0.53125 -0.04158,0.0828 -0.07904,0.169954 -0.125,0.25 -0.0546,0.09721 -0.126774,0.18835 -0.1875,0.28125 -0.09411,0.140965 -0.204921,0.275995 -0.3125,0.40625 -0.143174,0.17445 -0.303141,0.346998 -0.46875,0.5 -0.01117,0.0102 -0.01998,0.02115 -0.03125,0.03125 -0.138386,0.125556 -0.285091,0.234436 -0.4375,0.34375 -0.102571,0.07315 -0.204318,0.153364 -0.3125,0.21875 -0.0074,0.0045 -0.02384,-0.0044 -0.03125,0 -0.232039,0.138728 -0.462548,0.274778 -0.71875,0.375 0.301527,-0.0968 0.596455,-0.204138 0.875,-0.34375 0.55709,-0.279224 1.060053,-0.665694 1.5,-1.09375 0.219973,-0.214028 0.409366,-0.441865 0.59375,-0.6875 0.184384,-0.245635 0.355408,-0.507743 0.5,-0.78125 0.14012,-0.265048 0.276135,-0.524729 0.375,-0.8125 0.01041,-0.03078 0.02133,-0.06274 0.03125,-0.09375 0.09046,-0.278085 0.1388,-0.579404 0.1875,-0.875 C 89.95865,84.6507 90,84.334721 90,84 l 0,-2 0,-68 0,-2 C 90,8.676 87.324,6 84,6 L 12,6 z"
       inkscape:connector-curvature="0"
       id="rect3728"
       style="opacity:0.4;fill:url(#linearGradient3188);fill-opacity:1;fill-rule:nonzero;stroke:none" />
    <path
       d="M 12,90 C 8.676,90 6,87.324 6,84 L 6,82 6,14 6,12 c 0,-0.334721 0.04135,-0.6507 0.09375,-0.96875 0.0487,-0.295596 0.09704,-0.596915 0.1875,-0.875 C 6.29113,10.12587 6.302142,10.09265 6.3125,10.0625 6.411365,9.774729 6.5473802,9.515048 6.6875,9.25 6.8320918,8.976493 7.0031161,8.714385 7.1875,8.46875 7.3718839,8.223115 7.5612765,7.995278 7.78125,7.78125 8.221197,7.353194 8.72416,6.966724 9.28125,6.6875 9.559795,6.547888 9.8547231,6.440553 10.15625,6.34375 9.9000482,6.443972 9.6695391,6.580022 9.4375,6.71875 c -0.00741,0.0044 -0.023866,-0.0045 -0.03125,0 -0.031933,0.0193 -0.062293,0.04251 -0.09375,0.0625 -0.120395,0.0767 -0.2310226,0.163513 -0.34375,0.25 -0.1061728,0.0808 -0.2132809,0.161112 -0.3125,0.25 C 8.4783201,7.442683 8.3087904,7.626638 8.15625,7.8125 8.0486711,7.942755 7.9378561,8.077785 7.84375,8.21875 7.818661,8.25713 7.805304,8.30462 7.78125,8.34375 7.716487,8.446782 7.6510225,8.548267 7.59375,8.65625 7.4927417,8.850956 7.3880752,9.071951 7.3125,9.28125 7.30454,9.30306 7.288911,9.3218 7.28125,9.34375 7.2494249,9.4357 7.2454455,9.530581 7.21875,9.625 7.1884177,9.731618 7.1483606,9.828031 7.125,9.9375 7.0521214,10.279012 7,10.635705 7,11 l 0,2 0,68 0,2 c 0,2.781848 2.2181517,5 5,5 l 2,0 68,0 2,0 c 2.781848,0 5,-2.218152 5,-5 l 0,-2 0,-68 0,-2 C 89,10.635705 88.94788,10.279012 88.875,9.9375 88.83085,9.730607 88.78662,9.539842 88.71875,9.34375 88.71105,9.3218 88.69545,9.30306 88.6875,9.28125 88.62476,9.107511 88.549117,8.913801 88.46875,8.75 88.42717,8.6672 88.38971,8.580046 88.34375,8.5 88.28915,8.40279 88.216976,8.31165 88.15625,8.21875 88.06214,8.077785 87.951329,7.942755 87.84375,7.8125 87.700576,7.63805 87.540609,7.465502 87.375,7.3125 87.36383,7.3023 87.35502,7.29135 87.34375,7.28125 87.205364,7.155694 87.058659,7.046814 86.90625,6.9375 86.803679,6.86435 86.701932,6.784136 86.59375,6.71875 c -0.0074,-0.0045 -0.02384,0.0044 -0.03125,0 -0.232039,-0.138728 -0.462548,-0.274778 -0.71875,-0.375 0.301527,0.0968 0.596455,0.204138 0.875,0.34375 0.55709,0.279224 1.060053,0.665694 1.5,1.09375 0.219973,0.214028 0.409366,0.441865 0.59375,0.6875 0.184384,0.245635 0.355408,0.507743 0.5,0.78125 0.14012,0.265048 0.276135,0.524729 0.375,0.8125 0.01041,0.03078 0.02133,0.06274 0.03125,0.09375 0.09046,0.278085 0.1388,0.579404 0.1875,0.875 C 89.95865,11.3493 90,11.665279 90,12 l 0,2 0,68 0,2 c 0,3.324 -2.676,6 -6,6 l -72,0 z"
       inkscape:connector-curvature="0"
       id="path3615"
       style="opacity:0.2;fill:url(#radialGradient3619);fill-opacity:1;fill-rule:nonzero;stroke:none" />
  </g>
  <g
     id="layer5"
     transform="scale(1.3333333,1.3333333)">
    <rect
       width="66"
       height="66"
       rx="12"
       ry="12"
       x="15"
       y="15"
       clip-path="url(#clipPath3613)"
       id="rect3171"
       style="opacity:0.1;fill:url(#linearGradient3613);fill-opacity:1;fill-rule:nonzero;stroke:#ffffff;stroke-width:0.5;stroke-linecap:round;stroke-linejoin:miter;stroke-miterlimit:4;stroke-opacity:1;stroke-dasharray:none;stroke-dashoffset:0;filter:url(#filter3794)" />
  </g>
  <g
     id="layer3"
     transform="scale(1.3333333,1.3333333)">
    <path
       d="m 16.25,14.0625 c -1.826628,0.36099 -1.987318,2.638002 -2.900582,3.957415 -0.601567,1.35109 -2.092895,3.047183 -0.661918,4.386335 0.792964,0.590965 1.818861,0.407026 1.375,1.751019 -0.04302,1.946227 0.08514,4.063629 -0.0625,5.905231 -2.692836,0.01603 -2.649526,4.944425 0.0625,4.875 -0.04261,2.353222 0.0846,4.876265 -0.0625,7.125 -2.692836,0.01603 -2.649526,4.944425 0.0625,4.875 -0.04261,2.353222 0.0846,4.876265 -0.0625,7.125 -2.692836,0.01603 -2.649526,4.944425 0.0625,4.875 -0.04261,2.353222 0.0846,4.876265 -0.0625,7.125 -2.692836,0.01603 -2.649526,4.944425 0.0625,4.875 0,2.375 0,4.75 0,7.125 -1.488558,-0.32974 -3.281355,0.631821 -3,2.34409 -0.331729,1.609202 1.213788,2.884063 2.750679,2.53091 0.544019,0.487746 -0.04503,2.386871 1.280571,2.75 1.471543,0.728559 4.021683,0.140702 3.84375,-1.890795 -0.378302,-1.613412 1.90981,-0.560412 2.846127,-0.859205 17.426291,0 34.852582,0 52.278873,0 -0.09503,1.702685 2.124838,2.604402 3.326747,1.508501 C 79.053183,83.493558 81.012057,82.86771 82.46875,81.75 83.570278,80.513397 82.51293,78.693225 81.11642,78.417585 79.385211,77.703552 77.789495,76.457497 76,76.0625 c -1.043394,-0.0064 -1.985942,0.947741 -1.9375,2 -18.375,0 -36.75,0 -55.125,0 0,-18.375 0,-36.75 0,-55.125 1.702685,0.09502 2.604402,-2.124838 1.508501,-3.326747 C 19.469814,17.926101 18.86631,15.92214 17.6875,14.46875 17.260573,14.161754 16.774149,14.029311 16.25,14.0625 z"
       inkscape:connector-curvature="0"
       id="path3715"
       style="opacity:0.07999998;fill:#000000;fill-opacity:1;stroke:none" />
    <path
       d="m 16.40625,15.0625 a 0.93784364,0.93784364 0 0 0 -0.75,0.53125 l -1.25,2.5 -1.25,2.5 A 0.93784364,0.93784364 0 0 0 14,21.9375 l 1.0625,0 0,9.125 -1.0625,0 A 0.93784364,0.93784364 0 0 0 13.0625,32 l 0,1 A 0.93784364,0.93784364 0 0 0 14,33.9375 l 1.0625,0 0,9.125 -1.0625,0 A 0.93784364,0.93784364 0 0 0 13.0625,44 l 0,1 A 0.93784364,0.93784364 0 0 0 14,45.9375 l 1.0625,0 0,9.125 -1.0625,0 A 0.93784364,0.93784364 0 0 0 13.0625,56 l 0,1 A 0.93784364,0.93784364 0 0 0 14,57.9375 l 1.0625,0 0,9.125 -1.0625,0 A 0.93784364,0.93784364 0 0 0 13.0625,68 l 0,1 A 0.93784364,0.93784364 0 0 0 14,69.9375 l 1.0625,0 0,9.125 -2.0625,0 A 0.93784364,0.93784364 0 0 0 12.0625,80 l 0,1 A 0.93784364,0.93784364 0 0 0 13,81.9375 l 2.0625,0 0,2.0625 A 0.93784364,0.93784364 0 0 0 16,84.9375 l 1,0 A 0.93784364,0.93784364 0 0 0 17.9375,84 l 0,-2.0625 57.125,0 0,1.0625 a 0.93784364,0.93784364 0 0 0 1.34375,0.84375 l 2.5,-1.25 2.5,-1.25 a 0.93784364,0.93784364 0 0 0 0,-1.6875 l -2.5,-1.25 -2.5,-1.25 A 0.93784364,0.93784364 0 0 0 75.0625,78 l 0,1.0625 -57.125,0 0,-57.125 1.0625,0 a 0.93784364,0.93784364 0 0 0 0.84375,-1.34375 l -1.25,-2.5 -1.25,-2.5 a 0.93784364,0.93784364 0 0 0 -0.9375,-0.53125 z"
       id="path3711"
       style="opacity:0.12000002;fill:#000000;fill-opacity:1;stroke:none"
       inkscape:connector-curvature="0" />
    <path
       d="M 16.5,16 15.25,18.5 14,21 l 2,0 0,11 -2,0 0,1 2,0 0,11 -2,0 0,1 2,0 0,11 -2,0 0,1 2,0 0,11 -2,0 0,1 2,0 0,11 -3,0 0,1 3,0 0,3 1,0 0,-3 59,0 0,2 2.5,-1.25 L 81,80.5 78.5,79.25 76,78 76,80 17,80 17,21 19,21 17.75,18.5 16.5,16 z"
       inkscape:connector-curvature="0"
       id="rect2920"
       style="opacity:0.2;fill:#000000;fill-opacity:1;stroke:none" />
    <rect
       width="1"
       height="63"
       x="16"
       y="20"
       id="rect3634"
       style="fill:#ffffff;fill-opacity:1;stroke:none" />
    <rect
       width="1"
       height="63"
       x="79"
       y="-76"
       transform="matrix(0,1,-1,0,0,0)"
       id="rect3636"
       style="fill:#ffffff;fill-opacity:1;stroke:none" />
    <path
       d="m 16.28871,15.185621 1.586549,2.747984 1.58655,2.747985 -3.173099,-1e-6 -3.1731,0 1.58655,-2.747984 z"
       transform="matrix(0.78787327,0,0,0.90975767,3.6665613,1.1847643)"
       id="path3641"
       style="fill:#ffffff;fill-opacity:1;stroke:none"
       inkscape:connector-curvature="0" />
    <path
       d="m 16.28871,15.185621 1.586549,2.747984 1.58655,2.747985 -3.173099,-1e-6 -3.1731,0 1.58655,-2.747984 z"
       transform="matrix(0,0.78787327,-0.90975767,0,94.815235,66.66656)"
       id="path3643"
       style="fill:#ffffff;fill-opacity:1;stroke:none"
       inkscape:connector-curvature="0" />
    <rect
       width="2"
       height="1"
       x="14"
       y="67"
       id="rect3645"
       style="fill:#ffffff;fill-opacity:1;stroke:none" />
    <rect
       width="2"
       height="1"
       x="14"
       y="55"
       id="rect3649"
       style="fill:#ffffff;fill-opacity:1;stroke:none" />
    <rect
       width="2"
       height="1"
       x="14"
       y="43"
       id="rect3651"
       style="fill:#ffffff;fill-opacity:1;stroke:none" />
    <rect
       width="2"
       height="1"
       x="14"
       y="31"
       id="rect3653"
       style="fill:#ffffff;fill-opacity:1;stroke:none" />
    <rect
       width="1"
       height="63"
       x="28"
       y="17"
       id="rect3805"
       style="opacity:0.4;fill:url(#linearGradient3813);fill-opacity:1;stroke:none" />
    <rect
       width="1"
       height="63"
       x="40"
       y="17"
       id="rect3815"
       style="opacity:0.4;fill:url(#linearGradient3817);fill-opacity:1;stroke:none" />
    <rect
       width="1"
       height="63"
       x="52"
       y="17"
       id="rect3819"
       style="opacity:0.4;fill:url(#linearGradient3821);fill-opacity:1;stroke:none" />
    <rect
       width="1"
       height="63"
       x="64"
       y="17"
       id="rect3823"
       style="opacity:0.4;fill:url(#linearGradient3825);fill-opacity:1;stroke:none" />
  </g>
  <g
     id="layer4"
     transform="scale(1.3333333,1.3333333)">
    <rect
       width="47.67857"
       height="38.57143"
       x="25.535715"
       y="40.464287"
       clip-path="url(#clipPath3789)"
       id="rect3762"
       style="opacity:0.4;fill:url(#linearGradient3799);fill-opacity:1;stroke:none;filter:url(#filter3801)" />
    <rect
       width="44.821426"
       height="54.82143"
       ry="0"
       x="26.428572"
       y="16.535715"
       transform="translate(0,-3)"
       clip-path="url(#clipPath3730)"
       id="rect3720"
       style="opacity:0.2;fill:url(#linearGradient3740);fill-opacity:1;stroke:none;filter:url(#filter3746)" />
    <path
       d="M 75.99169,26.514834 68.104444,18.424389 54.86985,33.208704 50.520138,27.533474 41.466536,42.638196 32.090216,43.86408 22.00831,49.99169"
       inkscape:connector-curvature="0"
       id="path3251"
       style="fill:none;stroke:#cbf44b;stroke-width:2.01661968;stroke-linecap:round;stroke-linejoin:miter;stroke-miterlimit:4;stroke-opacity:1;stroke-dasharray:none;stroke-dashoffset:0;display:inline" />
    <path
       d="m 75.991789,65.647639 -5.936191,1.565662 -6.469211,-5.652461 -10.888398,7.430949 -8.711861,-17.24541 -6.537625,10.433274 -7.534784,-4.315035 -7.905508,5.740769"
       inkscape:connector-curvature="0"
       id="path3231"
       style="fill:none;stroke:#ffb100;stroke-width:2.01642156;stroke-linecap:round;stroke-linejoin:miter;stroke-miterlimit:4;stroke-opacity:1;stroke-dasharray:none;stroke-dashoffset:0;display:inline" />
  </g>
  <rect
     style="opacity:0.3;fill:none;stroke:none"
     id="rect3067"
     width="128"
     height="128"
     x="0"
     y="0"
     rx="14.240186"
     ry="16.33049" />
</svg>
